<svg width="214" height="188" viewBox="0 0 214 188" fill="none" xmlns="http://www.w3.org/2000/svg">
<path d="M7.24972 0.0533116C20.922 -0.786525 30.4032 9.54602 36.9184 20.2075C39.5805 24.5635 41.7338 29.3291 45.2391 33.1027C49.4986 37.6884 52.1824 36.6792 57.6582 37.6138C64.3158 38.7499 68.7537 41.9088 73.0729 46.9075C79.4502 54.2879 83.3126 63.5077 87.4773 72.2362C88.865 75.1447 90.4195 77.9936 91.8934 80.861C92.8269 82.6767 93.8717 84.4226 94.8798 86.1961C95.8384 87.8829 96.7288 89.6225 97.7471 91.2734C106.755 105.878 117.949 118.833 130.338 130.65C134.85 134.953 139.494 139.188 144.347 143.105C157.206 153.485 172.457 162.959 188.229 168.113C190.787 168.948 193.283 169.733 195.928 170.252C198.437 170.742 200.966 171.122 203.508 171.389C205.79 171.627 211.141 171.433 212.803 172.23C213.277 172.458 213.74 172.812 213.906 173.332C214.105 173.958 213.837 174.683 213.511 175.218C212.851 176.3 211.72 177.114 210.74 177.893C205.413 182.136 200.385 183.762 193.896 185.337C190.795 185.988 187.655 186.572 184.503 186.904C172.271 188.19 157.807 187.08 145.789 184.635C134.472 182.333 123.291 178.373 112.746 173.703C110.041 172.506 107.298 171.318 104.685 169.931C98.005 166.385 91.7402 162.154 85.6221 157.725C73.4826 148.937 61.8481 138.795 52.231 127.261C48.3434 122.599 44.8269 117.682 41.4371 112.654C37.8052 107.369 34.4938 101.872 31.5204 96.1903C28.7936 90.9358 26.0925 85.3747 24.4564 79.6714C23.6505 76.8616 23.1591 73.9873 22.833 71.0853C22.6964 69.8715 22.775 68.5052 22.5026 67.3249C22.4327 67.0217 22.2824 66.7753 22.109 66.5217C21.9053 66.2234 21.8656 66.0118 21.8034 65.6603C21.0363 61.3296 22.452 56.7817 25.3713 53.5231C26.1621 52.6404 27.0922 51.8826 27.9291 51.0436C29.0243 49.9455 30.5863 48.115 31.4384 46.8513C33.4559 43.8588 32.8501 39.1043 32.2183 35.7841C30.4973 26.7443 25.9874 17.0452 18.1631 11.766C15.0853 9.68926 11.316 8.49945 7.58856 9.05581C6.4944 9.21913 5.45651 9.65613 4.36704 9.86227L4.22657 9.88759C3.94336 9.76985 3.63998 9.64215 3.39466 9.45389C1.84973 8.26826 0.983972 5.42714 0.824454 3.57669C0.766572 2.90513 0.774726 2.13223 1.25739 1.60401C2.36179 0.395302 5.7124 0.153645 7.24972 0.0533116Z" fill="#E187CB"/>
<path d="M71.423 47.8477L71.5724 47.9705C71.8524 48.2028 72.1292 48.4429 72.3843 48.7023C77.3987 53.8025 81.6944 63.9748 84.8259 70.5649C86.8728 74.8724 89.0373 79.1775 91.2648 83.3961C96.296 92.83 102.18 101.784 108.844 110.145C112.781 115.052 117.136 120.086 121.496 124.616C124.11 127.331 126.868 129.916 129.587 132.526C134.691 137.428 139.992 142.278 145.612 146.59C148.707 148.938 151.863 151.206 155.074 153.393C156.402 154.293 165.143 159.824 165.504 160.259C167.887 161.618 170.308 162.911 172.764 164.134C186.549 170.282 195.721 173.688 210.984 173.917C211.446 173.924 212.241 173.83 212.596 174.15C212.559 174.448 212.375 174.653 212.179 174.87C206.998 180.609 196.628 183.294 189.195 184.409C186.109 184.871 183.008 185.091 179.897 185.286C165.656 186.18 147.608 183.157 133.954 178.976C127.31 176.881 120.806 174.363 114.483 171.439C112.033 170.325 109.514 169.291 107.113 168.078C103.554 166.28 100.056 164.13 96.7133 161.957C94.7118 160.677 92.7481 159.339 90.8243 157.945C89.8969 157.286 88.9079 156.654 88.0558 155.903C83.759 152.703 79.241 149.2 75.3534 145.527C71.6227 142.431 67.8987 139.118 64.5172 135.642C49.1736 119.868 28.1471 90.9188 25.6914 68.8033C25.7406 68.6465 25.7878 68.5674 25.8781 68.4338L26.1395 68.5993C26.2648 69.3814 26.4106 70.0907 26.681 70.8367C27.5914 69.2152 27.6053 67.0794 28.4541 65.4117C28.8508 64.6325 29.6025 64.0591 30.1921 63.4227C30.6193 62.9616 30.9747 62.4295 31.3161 61.9037C31.5831 61.4451 31.8576 60.9909 32.139 60.541C32.3607 61.2674 32.7035 61.9345 33.0357 62.6151C33.3164 63.1114 33.721 63.602 34.1223 64.0085C35.9868 65.8973 38.3731 66.3865 40.946 66.382C47.5421 66.3698 55.6628 63.8181 60.4003 59.0258C59.158 59.6765 57.986 60.4734 56.7538 61.1488C52.6971 63.3727 48.2525 64.818 43.6036 64.9402C45.6533 62.0183 46.5879 58.5027 47.4471 55.0866C48.8145 56.5221 50.3108 57.6029 52.1726 58.3185C54.3963 59.1731 57.8224 59.5482 60.0418 58.5128C60.8783 58.1224 61.4209 57.4522 61.7156 56.5854C62.6232 53.9155 61.2904 51.0474 60.1615 48.6756C62.6877 48.9366 65.0466 48.7405 67.5514 48.4238L67.9418 48.3798C68.369 48.3681 68.7524 48.2551 69.1859 48.3193C69.4419 48.3178 69.6971 48.2614 69.9498 48.2212C70.4194 47.9982 70.9154 47.9366 71.423 47.8477Z" fill="#FFAFDB"/>
<path d="M31.1787 60.3521C31.4004 61.0784 31.7432 61.7455 32.0754 62.4261L31.9493 62.7358C32.9879 65.8743 34.4879 68.9777 35.9636 71.9352C37.0716 74.1554 38.1364 76.4035 39.3446 78.5717C40.7262 81.0505 42.2834 83.4493 43.811 85.8414C44.5333 86.9723 45.8608 89.2431 46.8425 90.0915L47.0242 89.9145C47.8351 90.1743 48.7921 91.5777 49.6198 92.1089C49.9403 92.506 50.3774 93.2836 50.7743 93.5686C51.1602 94.1113 51.5259 94.6861 51.9969 95.1589C52.5811 96.0286 53.2266 96.8553 53.9285 97.6332C54.3377 98.1475 54.731 98.6832 55.2333 99.1115C55.8959 99.983 56.5885 100.879 57.4021 101.615C57.7511 102.042 58.0867 102.458 58.5045 102.821C59.2412 103.713 60.0244 104.609 60.8736 105.397C61.2252 105.784 61.5848 106.275 61.9828 106.607C62.8614 107.566 63.7927 108.475 64.7722 109.33C65.1821 109.743 65.5826 110.178 66.0188 110.562C66.8534 111.428 67.7036 112.231 68.6876 112.926C69.2152 113.443 69.7727 114.053 70.4164 114.426C71.6522 115.456 72.9967 116.831 74.4356 117.53C76.3144 119.05 78.3051 120.427 80.3906 121.648C84.6724 124.171 89.3833 126 93.1379 129.322C93.4755 129.621 93.9323 129.942 94.1509 130.33C94.7746 130.83 95.6261 131.159 96.3435 131.528C97.6056 132.175 98.8587 132.83 100.021 133.649C102.295 135.25 104.362 137.21 106.538 138.945C108.278 140.333 110.184 141.558 112.056 142.758C113.996 144.001 115.972 145.223 118.019 146.282C122.345 148.518 126.883 150.315 131.267 152.426C138.399 155.861 145.305 159.584 152.693 162.482C156.316 163.903 160.001 165.096 163.671 166.38C166.808 167.496 169.924 168.668 173.018 169.897C175.31 170.805 177.601 171.7 179.805 172.807C175.98 171.962 172.191 170.779 168.447 169.625C162.365 167.749 156.333 165.764 150.511 163.168C144.692 160.574 139.11 157.532 133.354 154.821C128.421 152.499 123.329 150.428 118.469 147.968C116.235 146.837 114.085 145.568 111.947 144.266C109.715 142.906 107.531 141.488 105.462 139.887C102.79 137.819 100.203 135.501 97.3316 133.717L97.1222 134.026C99.9492 136.547 102.943 138.753 105.993 140.989C108.385 142.742 110.768 144.53 113.291 146.095C115.097 147.215 116.94 148.308 118.841 149.262C121.033 150.363 123.282 151.311 125.457 152.456C129.544 154.609 133.614 156.831 137.748 158.893C139.471 159.752 141.231 160.535 142.965 161.373C144.779 162.249 146.546 163.24 148.392 164.049C150.63 165.031 153.005 165.715 155.272 166.639C159.967 168.552 164.601 170.406 169.49 171.783C172.052 172.505 174.612 173.253 177.217 173.809C179.45 174.285 181.73 174.612 183.985 174.972C185.999 175.293 188.09 175.367 190.078 175.771C190.255 175.807 190.178 175.77 190.318 175.91C190.188 175.991 190.167 176.012 190 176.068C187.22 177.001 178.875 175.99 175.785 175.867C174.254 175.806 172.716 176.047 171.189 176.148C168.939 176.299 166.619 176.313 164.368 176.147C153.206 175.323 142.357 172.101 131.914 168.245C129.152 167.226 126.36 166.22 123.644 165.084C119.895 163.516 116.195 161.759 112.497 160.072C112.662 160.545 112.823 161.019 112.98 161.495C113.138 161.978 113.559 162.941 113.322 163.411L113.097 163.358C112.046 162.472 111.882 161.067 111.589 159.799C111.548 159.787 111.507 159.776 111.467 159.763C110.374 159.395 109.268 158.738 108.24 158.216C102.696 155.401 97.6523 151.873 92.6339 148.226C89.1895 145.723 85.6474 143.31 82.267 140.726C79.8747 138.897 77.6001 136.926 75.3113 134.972C73.2222 133.188 71.1244 131.404 69.2096 129.431C62.1618 122.167 55.5917 111.372 50.5079 102.617C49.2977 100.533 48.1722 98.3986 46.9422 96.3257C42.7088 89.1914 37.8312 82.439 34.2024 74.9555L34.0605 75.0316L33.7327 75.035C32.7957 76.0325 31.7146 80.8261 31.3478 82.364C31.15 83.1935 31.0329 84.2152 30.6363 84.9641C30.6834 84.4147 30.3683 83.9459 30.1053 83.4915C29.6493 82.5821 29.2215 81.6473 28.9755 80.657C28.6604 80.0662 28.4308 79.3886 28.1759 78.7671C27.8466 77.802 27.5818 76.8523 27.3408 75.8622C27.1375 75.3234 26.9862 74.7792 26.7447 74.2538C26.5419 73.8356 26.4325 73.3794 26.3036 72.934C26.2144 72.1488 26.0183 71.3797 25.7207 70.6477C26.631 69.0262 26.645 66.8904 27.4938 65.2227C27.8904 64.4435 28.6422 63.8701 29.2318 63.2338C29.659 62.7727 30.0143 62.2406 30.3557 61.7148C30.6228 61.2561 30.8973 60.8019 31.1787 60.3521Z" fill="#231A1A"/>
<path d="M46.8428 90.0911L47.0245 89.9141C47.8353 90.1739 48.7924 91.5773 49.6201 92.1085C49.9406 92.5056 50.3777 93.2832 50.7746 93.5682C51.1604 94.1109 51.5261 94.6857 51.9971 95.1585C52.5813 96.0282 53.2268 96.8549 53.9288 97.6328C54.338 98.1471 54.7313 98.6828 55.2335 99.1111C55.8961 99.9826 56.5888 100.879 57.4023 101.615C57.7514 102.041 58.0869 102.457 58.5047 102.821C59.2414 103.713 60.0246 104.608 60.8739 105.396C61.2254 105.784 61.585 106.275 61.983 106.607C62.8617 107.565 63.7929 108.474 64.7724 109.329C65.1824 109.742 65.5828 110.177 66.019 110.562C66.8537 111.427 67.7038 112.231 68.6878 112.926C69.2154 113.443 69.7729 114.053 70.4166 114.426C71.6524 115.456 72.997 116.83 74.4358 117.53C76.3147 119.05 78.3054 120.426 80.3909 121.647C84.6726 124.17 89.3836 126 93.1381 129.322C93.4757 129.62 93.9326 129.942 94.1511 130.33C91.896 129.355 89.6169 128.454 87.409 127.372C75.6224 121.595 64.7084 113.573 56.421 103.329C54.7832 101.305 53.334 99.0725 51.8356 96.9419C50.2081 94.6275 48.5163 92.3713 46.8428 90.0911Z" fill="#EF9DD4"/>
<path d="M32.631 71.1812C33.1864 72.4217 33.6772 73.7008 34.2026 74.9553L34.0606 75.0314L33.7329 75.0348C32.7958 76.0323 31.7148 80.8259 31.348 82.3638C31.1501 83.1933 31.0331 84.215 30.6364 84.9639C30.6836 84.4145 30.3685 83.9457 30.1055 83.4913C30.8851 79.3747 31.8415 75.2982 32.631 71.1812Z" fill="#FF90CD"/>
<path d="M28.1763 78.767C28.6104 77.1558 28.9784 75.5306 29.4386 73.9262C30.0623 71.7517 30.7932 69.5755 31.277 67.3667C31.6335 68.4527 32.0014 69.5254 32.4176 70.5905C30.1421 72.8362 29.4024 77.5399 28.9759 80.6568C28.6608 80.0661 28.4312 79.3885 28.1763 78.767Z" fill="#ED87BF"/>
<path d="M26.7446 74.2534C27.2471 73.0374 27.5654 71.6989 28.0076 70.4503C28.8474 68.0807 29.7762 65.734 30.5506 63.3428C30.6605 64.1612 30.8772 65.119 30.8024 65.9372C30.6762 67.3184 29.6913 68.8969 29.1381 70.1702C28.3443 71.9972 27.6399 73.8853 27.3407 75.8618C27.1375 75.323 26.9861 74.7788 26.7446 74.2534Z" fill="#F38FC6"/>
<path d="M30.3557 61.7144L30.5649 61.9464C29.9847 62.9949 29.2835 63.969 28.7143 65.0217C27.5162 67.2375 26.3766 70.3971 26.3036 72.9336C26.2144 72.1484 26.0183 71.3793 25.7207 70.6473C26.631 69.0258 26.645 66.89 27.4938 65.2223C27.8904 64.4431 28.6422 63.8697 29.2318 63.2334C29.659 62.7723 30.0143 62.2402 30.3557 61.7144Z" fill="#C972A2"/>
<path d="M31.1789 60.3521C31.4006 61.0784 31.7434 61.7455 32.0756 62.4261L31.9496 62.7358C31.7418 62.2165 31.4815 61.5461 30.9685 61.2929C30.6774 61.4729 30.6796 61.6317 30.5651 61.9468L30.356 61.7148C30.623 61.2561 30.8975 60.8019 31.1789 60.3521Z" fill="#611A1A"/>
<path d="M95.7891 132.84C96.3254 133.106 96.8265 133.396 97.3317 133.716L97.1223 134.026C96.659 133.664 96.2264 133.235 95.7891 132.84Z" fill="#FF90CD"/>
<path d="M46.667 93.5312C47.3799 94.0521 49.9321 98.0919 50.6716 99.0991C51.8317 100.673 53.0331 102.216 54.2743 103.726C56.5613 106.521 58.9399 109.275 61.533 111.793C66.8901 116.994 73.8876 121.948 80.189 125.892C79.0089 125.915 77.8017 126.092 76.6948 126.515C75.7137 126.889 74.8817 127.429 74.4703 128.431C74.2398 128.991 74.1603 129.616 74.433 130.177C74.745 130.818 75.424 131.181 76.076 131.387C78.2266 132.068 81.1944 131.819 83.1963 130.78C84.2329 130.242 84.8719 129.585 85.2133 128.469C87.733 129.725 90.418 130.894 92.7443 132.482C95.5067 134.367 97.9368 136.687 100.608 138.689C102.443 140.064 104.541 141.219 106.289 142.676C104.435 142.894 102.647 143.568 101.192 144.755C100.136 145.616 99.2206 146.818 99.1205 148.22C99.0672 148.964 99.2907 149.714 99.815 150.256C100.326 150.786 101.013 150.993 101.736 151C104.161 151.021 106.668 149.415 108.325 147.766C109.079 146.811 109.25 146.117 109.281 144.93C110.587 145.982 112.014 146.883 113.427 147.78C112.497 148.43 111.766 149.213 111.284 150.248C110.076 152.839 110.734 155.795 111.639 158.358C106.271 155.935 101.004 152.696 96.2154 149.262C94.3343 147.913 92.5325 146.45 90.6707 145.073C88.8493 143.727 86.9359 142.511 85.1026 141.181C82.868 139.56 80.7364 137.815 78.5885 136.082C77.0119 134.811 75.3867 133.568 73.8759 132.219C72.4993 130.989 71.2179 129.609 69.9576 128.262C63.3665 121.216 58.4053 113.295 53.5162 105.033C52.1207 102.659 50.7106 100.292 49.2862 97.9347C48.4124 96.5051 47.3662 95.0514 46.667 93.5312Z" fill="#D07DAC"/>
<path d="M89.9909 135.154C90.1245 135.138 90.2588 135.127 90.3934 135.123C92.9717 135.042 96.1923 136.072 98.0979 137.842C98.761 138.458 99.4175 139.291 99.4164 140.242C99.4157 140.793 99.1846 141.283 98.7837 141.657C97.6074 142.753 95.6636 142.854 94.1486 142.844C91.3596 142.588 88.0188 141.94 85.7008 140.265C85.155 139.87 84.6614 139.327 84.5686 138.635C84.4882 138.035 84.7117 137.378 85.0814 136.909C86.1343 135.573 88.4152 135.307 89.9909 135.154Z" fill="#231A1A"/>
<path d="M89.2086 136.715C91.7612 136.405 94.6708 137.018 96.7768 138.532C97.3742 138.961 97.8987 139.438 98.0168 140.189C97.9735 140.388 97.9443 140.547 97.794 140.698C97.2148 141.282 95.9174 141.424 95.136 141.441C94.0105 141.421 92.9128 141.283 91.8086 141.064C90.1131 140.728 86.9317 139.965 85.9075 138.43C85.8652 138.162 85.8392 138.058 86.0317 137.829C86.5869 137.168 88.3712 136.849 89.2086 136.715Z" fill="#EFB8DA"/>
<path d="M117.32 149.983C117.996 150.321 118.65 150.675 119.299 151.061C119.114 151.233 118.933 151.411 118.757 151.593C118.04 152.343 117.767 153.409 117.804 154.426C117.863 156.071 118.557 157.707 119.794 158.81C120.42 159.367 121.307 159.925 122.185 159.829C122.695 159.773 123.103 159.488 123.414 159.091C124.579 157.606 124.643 155.125 124.411 153.346C128.067 155.488 131.846 157.403 135.48 159.58L135.362 159.698C133.931 159.292 132.276 159.133 130.809 159.437C129.367 159.735 127.847 160.527 127.076 161.821C126.512 162.767 126.531 163.606 126.798 164.631C122.755 163.166 118.877 161.174 114.959 159.41C115.894 156.319 117.401 153.28 117.32 149.983Z" fill="#D07DAC"/>
<path d="M136.544 160.287C138.124 160.843 139.959 162.068 141.514 162.834C145.874 164.98 150.236 167.117 154.709 169.02C154.288 169.197 153.855 169.367 153.45 169.576C153.089 169.762 152.751 170.029 152.663 170.449C152.528 171.091 153.073 171.825 153.388 172.345C150.486 171.945 147.64 171.08 144.791 170.408C145.621 169.815 146.668 168.978 146.889 167.932C146.982 167.49 146.903 167.069 146.651 166.693C146.11 165.886 145.007 165.502 144.097 165.3C142.368 164.916 140.126 165.043 138.623 166.053C137.905 166.536 137.538 167.05 137.374 167.894C134.685 167.35 131.864 166.476 129.311 165.467C130.958 165.47 132.667 165.235 134.213 164.648C135.214 164.268 136.347 163.687 136.775 162.643C137.134 161.765 136.867 161.115 136.544 160.287Z" fill="#D07DAC"/>
<path d="M105.431 144.231C106.069 144.194 106.821 144.098 107.413 144.384C107.613 144.48 107.785 144.636 107.852 144.851C107.975 145.248 107.828 145.603 107.646 145.955C106.738 147.705 104.667 148.906 102.85 149.479C102.319 149.63 101.763 149.669 101.216 149.594C100.807 149.534 100.661 149.395 100.426 149.068C100.291 148.37 100.549 147.756 100.92 147.166C101.879 145.638 103.717 144.637 105.431 144.231Z" fill="#F8C3F2"/>
<path d="M114.628 149.148C114.736 149.177 114.812 149.192 114.918 149.242C115.235 149.392 115.455 149.663 115.576 149.987C115.769 150.503 115.73 151.142 115.657 151.677C115.512 152.728 114.247 157.368 113.814 158.282L113.655 158.297C113.141 157.45 112.731 156.653 112.471 155.692C112.04 154.094 111.957 151.875 112.851 150.423C113.294 149.704 113.819 149.349 114.628 149.148Z" fill="#F8C3E4"/>
<path d="M79.1935 127.165C80.2422 127.069 81.7684 127.047 82.7086 127.571C82.9986 127.733 83.2764 127.988 83.3247 128.334C83.3586 128.578 83.28 128.822 83.134 129.017C82.4647 129.909 80.8807 130.102 79.8489 130.24C78.8114 130.373 77.1239 130.396 76.1898 129.902C75.8666 129.731 75.7545 129.543 75.6543 129.203C75.7055 128.97 75.7498 128.826 75.8967 128.631C76.5303 127.792 78.1852 127.322 79.1935 127.165Z" fill="#F8C3E4"/>
<path d="M120.592 151.814C121.306 151.941 121.9 152.233 122.379 152.786C123.038 153.545 123.278 154.521 123.206 155.51C123.131 156.561 122.758 157.701 121.949 158.411C121.222 158.064 120.669 157.488 120.226 156.822C119.588 155.862 119.09 154.579 119.373 153.416C119.55 152.685 119.973 152.212 120.592 151.814Z" fill="#F8C3E4"/>
<path d="M132.557 160.646C132.923 160.65 133.286 160.66 133.65 160.702C134.262 160.773 135.274 160.872 135.648 161.422C135.748 161.57 135.688 161.667 135.663 161.831C134.689 163.058 132.384 163.487 130.946 163.768C130.225 163.872 128.941 164.188 128.28 163.748C128.024 163.578 128.035 163.479 127.984 163.197C128.066 162.884 128.169 162.67 128.377 162.418C129.415 161.165 131.014 160.761 132.557 160.646Z" fill="#F8C3E4"/>
<path d="M157.57 170.528C160.431 171.328 163.151 172.36 165.957 173.311C167.241 173.747 168.553 174.078 169.841 174.49C166.165 174.656 162.6 173.778 158.961 173.473C159.29 173.102 159.616 172.776 159.594 172.245C159.58 171.927 159.452 171.682 159.221 171.465C158.913 171.177 158.318 171.019 157.907 170.954C157.775 170.863 157.666 170.66 157.57 170.528Z" fill="#D07DAC"/>
<path d="M142.099 167.047C142.751 167.079 143.809 167.225 144.221 167.8C144.383 168.025 144.472 168.236 144.409 168.518C144.28 169.096 143.524 169.399 143.055 169.62L141.62 169.267C140.949 169.089 139.674 168.904 139.228 168.37C139.108 168.226 139.162 168.16 139.182 167.988C139.83 167.271 141.183 167.129 142.099 167.047Z" fill="#F8C3E4"/>
<path d="M157.907 170.954C157.976 171.119 158.05 171.284 158.103 171.455C158.18 171.706 158.144 171.957 158.001 172.18C157.779 172.527 157.34 172.672 156.951 172.718C156.086 172.821 155.014 172.651 154.31 172.117C154.187 171.877 154.11 171.667 154.154 171.39C154.198 171.117 154.403 170.913 154.632 170.778C155.466 170.285 156.669 170.305 157.57 170.528C157.666 170.66 157.775 170.863 157.907 170.954Z" fill="#F8C3E4"/>
<path d="M70.463 47.6587L70.6123 47.7816C70.8924 48.0138 71.1691 48.2539 71.4243 48.5133C76.4387 53.6135 80.7343 63.7859 83.8659 70.3759C85.9127 74.6835 88.0773 78.9886 90.3047 83.2072C95.336 92.641 101.22 101.595 107.884 109.956C111.821 114.863 116.176 119.897 120.536 124.427C123.15 127.142 125.908 129.727 128.627 132.337C133.731 137.239 139.032 142.089 144.652 146.401C147.747 148.749 150.903 151.017 154.114 153.204C155.442 154.104 164.183 159.635 164.544 160.07C164.561 160.115 164.577 160.161 164.594 160.205C164.673 160.401 164.634 160.329 164.777 160.493L164.884 160.524C164.8 160.692 164.641 160.928 164.608 161.108L164.432 161.061L164.511 161.138C164.246 160.988 164.045 160.783 163.741 160.853L163.707 160.886C162.128 160.298 159.621 158.494 158.318 158.169C157.628 157.585 154.936 155.058 154.095 155.125L154.003 155.298L154.203 155.709C154.036 155.931 153.936 156.091 153.677 156.213C152.266 154.429 149.039 150.753 147.069 149.944C146.87 150.202 146.756 150.329 146.426 150.393C146.213 150.435 145.979 150.436 145.762 150.447C144.865 149.387 142.615 146.513 141.622 145.862C141.461 145.757 141.288 145.744 141.101 145.727C140.692 145.781 140.285 145.824 139.873 145.854C139.146 144.818 137.103 141.945 136.098 141.419L135.998 141.522L136.086 141.96C135.569 142.21 135.56 142.513 135.16 142.85C133.997 140.912 133.026 139.079 131.257 137.615C131.369 138.142 131.518 138.658 131.664 139.177C131.409 139.389 131.299 139.478 130.956 139.522C130.426 138.127 129.575 136.723 128.686 135.529C128.336 135.059 127.878 134.37 127.281 134.283C127.097 134.542 127.208 134.739 127.256 135.041L126.445 135.511C125.901 133.884 124.55 130.741 123.331 129.619L123.064 129.749L123.337 129.628L123.057 129.84C123.05 130.564 123.285 131.301 123.469 131.995C123.444 132.15 123.468 132.276 123.336 132.38C123.055 132.599 122.66 132.624 122.332 132.744C121.802 131.209 120.531 125.993 119.441 125.091C119.26 124.941 119.348 124.983 119.089 125.006C118.708 125.597 119.066 126.629 119.2 127.269C118.842 127.429 118.704 127.378 118.322 127.333C118.318 127.315 118.314 127.298 118.311 127.28C118.025 125.984 116.914 121.767 115.787 121.043L115.595 121.147C115.338 121.867 115.423 122.276 115.606 122.997C115.35 123.197 115.297 123.232 114.978 123.28L114.779 123.203C114.441 121.82 114.032 119.399 112.981 118.356C112.809 118.186 112.896 118.231 112.642 118.238C112.243 118.921 112.524 119.908 112.633 120.648C112.157 120.376 111.829 119.483 111.456 119.035C111.211 117.794 110.832 115.843 110.029 114.835C109.872 114.638 109.871 114.626 109.612 114.608C109.355 114.865 109.358 114.984 109.277 115.33L108.395 115.389C108.092 113.858 107.639 112.001 106.776 110.683C106.639 110.471 106.626 110.403 106.37 110.352C106.032 110.877 106.212 111.965 106.252 112.568L106.037 112.677C105.765 112.569 105.522 112.443 105.266 112.302C104.972 110.639 104.749 108.84 103.971 107.322C103.832 107.05 103.695 106.813 103.399 106.711L103.234 106.832C102.897 107.573 103.068 108.736 103.079 109.54C102.448 109.101 102.035 108.423 101.592 107.808C101.606 108.44 101.837 109.158 101.566 109.751C101.311 109.882 101.32 109.871 101.04 109.798C100.365 109.106 100.405 107.655 100.113 106.75L100.069 106.616C99.4016 106.063 99.2062 105.098 98.5699 104.469C98.5243 105.024 98.6851 105.49 98.3493 105.978C98.1887 105.997 98.0971 106.051 97.9563 105.947C97.2519 105.425 97.0958 103.415 96.9484 102.576C96.7438 102.802 96.7104 102.792 96.3892 102.803C96.2214 102.809 96.0444 102.787 95.8766 102.774C95.8714 102.928 95.8654 103.081 95.858 103.235C95.8371 103.669 95.858 104.086 95.51 104.402L95.303 104.346C94.4935 103.245 94.1137 100.488 93.8145 99.0875L93.768 99.3373C93.5274 99.1131 93.4241 97.9362 93.3823 97.5552C93.1186 97.3816 93.0546 97.396 92.7339 97.3908C92.5989 97.4739 92.4599 97.4979 92.4313 97.6671C92.3475 98.1637 92.8934 99.3732 92.5169 99.6935C92.1315 98.238 92.0039 95.4655 91.8289 93.8815C91.4293 91.2109 91.0767 88.6429 89.6949 86.2729C89.6275 86.8773 89.6127 87.4884 89.5844 88.0958C89.1851 88.9352 89.8135 90.5081 89.1514 90.8154C89.0141 90.8789 88.8246 90.918 88.6822 90.9587C88.712 90.1427 88.8082 89.2303 88.4468 88.4718C88.2067 87.8078 88.2606 86.7582 88.1876 86.037C88.0211 84.3927 87.679 82.6268 87.0515 81.0931C86.8877 80.6933 86.7602 80.4296 86.3539 80.2556L86.2831 80.5089L86.3471 80.2589L86.4435 80.5736L86.2784 80.6567C86.3428 81.7629 86.3294 82.8826 86.3487 83.9911C86.2108 83.9093 86.22 83.9181 86.0643 83.806C85.4125 83.3374 85.0772 82.9623 84.9586 82.1794C85.0794 79.1251 84.7645 76.1695 83.3394 73.4304L83.1678 75.8804C83.0656 77.3682 82.9941 78.8581 82.9539 80.3488L82.7698 80.4274C82.6909 80.0653 82.7965 79.79 82.8987 79.4468C82.7808 79.0908 82.3695 78.814 82.0135 78.653C81.9562 78.6272 81.8922 78.6204 81.8316 78.604C81.5856 79.0836 81.6393 79.9229 81.5048 80.4813C81.4771 78.8513 81.5831 77.178 81.739 75.5556C81.75 73.8852 81.7983 72.1982 81.5306 70.5432C81.403 69.7546 81.2211 68.7724 80.5405 68.2875C80.1326 68.119 79.8209 67.9176 79.4664 67.6561C79.5603 65.6178 79.2288 63.8247 78.2888 62.0061C78.0098 63.276 77.8708 64.5489 77.7848 65.8451C77.411 65.777 77.0267 65.5675 76.6759 65.4195C76.7412 62.9196 76.7192 60.0594 76.0876 57.6358C75.965 57.1648 75.7253 56.1029 75.3031 55.8587C74.9347 56.2913 75.0048 57.0797 74.9895 57.6293C74.808 57.6983 74.6908 57.7106 74.4972 57.7021C74.3098 57.542 74.1391 57.4 73.9219 57.2812L73.7481 57.1877C73.7977 55.9066 73.6812 52.9083 72.8467 51.8993C72.7365 51.7657 72.7526 51.8133 72.5505 51.8092L72.3036 52.2194L72.203 52.2562C71.9411 52.8357 72.0503 53.4963 71.8587 54.1041L71.7239 54.0547C71.4277 53.0817 71.6675 51.999 71.4537 50.9935C71.4445 50.9501 71.4342 50.9068 71.4245 50.8634C71.3522 50.4843 71.2473 50.1325 71.1103 49.7723C70.9706 49.4044 70.8336 49.0688 70.4627 48.9042L70.2734 49.0951C69.8159 49.0715 69.5378 48.8985 69.1494 48.6694L68.9897 48.0322C69.4594 47.8092 69.9553 47.7476 70.463 47.6587Z" fill="url(#paint0_linear_209_395)"/>
<path d="M93.0464 91.8823C94.7485 95.1277 95.6498 99.1094 95.8765 102.775C95.8713 102.928 95.8652 103.082 95.8578 103.235C95.8369 103.669 95.8578 104.086 95.5099 104.402L95.3028 104.346C94.4933 103.245 94.1135 100.488 93.8143 99.0876C93.4812 97.328 93.2962 95.5374 93.063 93.7623L93.0464 91.8823Z" fill="#231A1A"/>
<path d="M96.9481 102.576C96.7078 101.127 96.538 99.7298 96.5636 98.2568C97.4955 99.7417 98.6635 102.713 98.5696 104.469C98.524 105.024 98.6848 105.489 98.349 105.978C98.1884 105.997 98.0968 106.051 97.9559 105.947C97.2516 105.425 97.0955 103.415 96.9481 102.576Z" fill="#231A1A"/>
<path d="M100.068 106.616C99.9936 105.413 100.016 104.226 100.047 103.023C100.901 104.566 101.308 106.073 101.592 107.808C101.606 108.44 101.837 109.158 101.566 109.75C101.31 109.882 101.32 109.871 101.04 109.798C100.365 109.105 100.405 107.654 100.113 106.749L100.068 106.616Z" fill="#231A1A"/>
<path d="M93.0628 93.7622C93.296 95.5373 93.4811 97.3279 93.8142 99.0875L93.7677 99.3372C93.5271 99.1131 93.4238 97.9361 93.382 97.5552C93.1183 97.3816 93.0543 97.3959 92.7336 97.3908C92.5986 97.4739 92.4595 97.4979 92.431 97.667C92.3472 98.1636 92.893 99.3732 92.5166 99.6935C92.1312 98.238 92.0036 95.4654 91.8286 93.8815C92.42 94.565 91.9441 95.8726 92.4155 96.5083L92.8663 96.4086C93.4997 95.7902 92.6952 94.7572 92.9865 93.9529C93.0096 93.8884 93.0375 93.8258 93.0628 93.7622Z" fill="#F797D1"/>
<path d="M81.7386 75.5557C81.9451 75.9445 82.151 76.3214 82.3959 76.6875L82.3359 76.7778L82.0165 76.5276C81.9691 76.9319 81.8505 77.4029 82.0217 77.7842C82.255 77.9853 82.4792 78.0075 82.7712 78.0583C82.9012 77.32 82.8327 76.5662 83.1674 75.8805C83.0652 77.3683 82.9938 78.8581 82.9536 80.3488L82.7694 80.4274C82.6905 80.0654 82.7961 79.79 82.8983 79.4468C82.7804 79.0908 82.3691 78.8141 82.0131 78.653C81.9558 78.6272 81.8918 78.6205 81.8312 78.6041C81.5852 79.0836 81.6389 79.923 81.5044 80.4814C81.4768 78.8514 81.5828 77.178 81.7386 75.5557Z" fill="#FE88CF"/>
<path d="M24.7314 68.6141C24.7806 68.4573 24.8278 68.3783 24.9181 68.2446L25.1795 68.4102C25.3049 69.1923 25.4506 69.9016 25.7211 70.6475C26.0187 71.3795 26.2148 72.1486 26.3039 72.9338C26.4329 73.3792 26.5422 73.8354 26.7451 74.2536C26.9865 74.779 27.1379 75.3232 27.3412 75.862C27.5822 76.8521 27.847 77.8018 28.1763 78.7669C28.4312 79.3884 28.6608 80.066 28.9759 80.6568C29.2218 81.6471 29.6497 82.5819 30.1057 83.4913C30.3687 83.9457 30.6838 84.4145 30.6367 84.9639C31.0949 86.0009 31.5254 87.064 32.0375 88.0749C32.3405 88.6412 32.6483 89.2047 32.9611 89.7656C33.3652 90.9097 33.8409 92.0272 34.3854 93.1114C34.6974 93.6574 35.1028 94.2461 35.3283 94.8283C35.7467 95.6905 36.1461 96.567 36.6613 97.3771C37.0054 97.9088 37.3325 98.4694 37.7022 98.9822C38.2112 99.9932 38.7156 101.029 39.3737 101.953C39.8371 102.445 40.1904 103.028 40.5089 103.622C40.8784 104.669 41.676 105.751 42.3664 106.611C42.6378 106.95 42.905 107.352 43.2354 107.633C43.7121 108.712 44.4562 109.664 45.1671 110.597C45.4085 110.813 45.632 110.929 45.9227 111.06C46.0725 112.347 47.1281 113.462 47.895 114.45C48.1575 114.743 48.3076 114.919 48.6991 115.034C48.7379 115.046 48.7761 115.059 48.8147 115.072C48.9774 116.324 49.8637 117.188 50.6597 118.104C50.9546 118.359 51.2365 118.581 51.5698 118.785C51.6969 119.861 52.9087 121.418 53.7501 122.092C53.7921 122.125 53.8352 122.158 53.8777 122.191C54.2238 122.241 54.4378 122.478 54.7343 122.638C55.1162 123.994 55.7242 124.939 56.8032 125.862L57.5981 125.666C57.882 127.334 58.5309 128.247 59.5441 129.572C59.4453 128.602 59.3309 127.631 59.249 126.66L59.9475 126.653C60.1692 128.823 60.4672 130.854 62.0083 132.52C61.9798 131.953 61.9667 131.38 61.9198 130.815C62.0808 130.606 62.0604 130.562 62.327 130.489C62.5267 130.641 62.5626 130.779 62.6426 131.011C62.7243 132.244 63.0206 133.5 63.9747 134.354C64.101 134.467 64.2315 134.562 64.3752 134.651L65.2123 134.309C65.6108 135.695 66.0187 136.599 67.1054 137.582C67.5301 137.901 67.7264 137.922 68.2482 137.881C68.6502 139.173 69.2034 139.822 70.2735 140.628L69.9803 139.054C70.2447 138.91 70.3649 138.801 70.6748 138.803C71.0486 140.09 71.6155 142.237 72.8039 142.997C73.0449 143.026 73.0645 143.049 73.3028 142.954C73.5669 142.948 73.3967 142.92 73.6217 143.037C73.8654 143.164 74.0307 143.161 74.2982 143.174C74.533 143.762 74.7809 144.301 75.1023 144.847C74.8494 145.163 74.7558 145.191 74.3935 145.338C70.6627 142.242 66.9387 138.929 63.5572 135.452C48.2137 119.679 27.1871 90.7296 24.7314 68.6141Z" fill="url(#paint1_linear_209_395)"/>
<path d="M74.9894 57.629C75.0047 57.0794 74.9346 56.291 75.3029 55.8584C75.7252 56.1025 75.9649 57.1645 76.0875 57.6355C76.7191 60.059 76.7411 62.9192 76.6758 65.4191C76.3411 68.8992 76.5457 72.4741 75.9745 75.9272C73.9986 71.0844 74.7875 62.9004 74.9894 57.629Z" fill="#231A1A"/>
<path d="M83.1675 75.8802L83.3391 73.4302C84.7642 76.1693 85.0791 79.1249 84.9583 82.1792C84.8089 83.8253 84.9028 91.3416 84.5681 92.0382L84.3316 92.0712C84.3029 92.046 84.2705 92.0242 84.2454 91.9957C84.0008 91.7192 83.895 91.1613 83.7894 90.81C82.76 87.3843 82.9532 83.8777 82.9536 80.3486C82.9938 78.8579 83.0653 77.368 83.1675 75.8802Z" fill="#231A1A"/>
<path d="M78.2886 62.0059C79.2285 63.8245 79.5601 65.6176 79.4662 67.6559C79.8206 67.9174 80.1324 68.1188 80.5403 68.2873C80.3051 69.378 80.3395 70.5035 80.1553 71.6023C80.0962 71.4024 80.0747 71.2622 80.074 71.0507C80.0733 70.8229 80.0668 70.605 80.0504 70.3773C79.8815 70.1405 79.8628 70.1491 79.5807 70.0655C79.3134 70.3058 79.3692 70.7685 79.3429 71.1254L79.1708 71.1958C78.8258 72.8662 78.9968 77.9311 78.1044 78.9971L77.9153 78.9677C76.5182 76.9314 77.6655 68.5689 77.7845 65.8449C77.8706 64.5487 78.0096 63.2758 78.2886 62.0059Z" fill="#231A1A"/>
<path d="M79.4665 67.6558C79.8209 67.9172 80.1327 68.1187 80.5406 68.2871C80.3054 69.3778 80.3398 70.5034 80.1556 71.6022C80.0965 71.4022 80.075 71.2621 80.0743 71.0505C80.0736 70.8228 80.0671 70.6049 80.0507 70.3771C79.8818 70.1404 79.8631 70.1489 79.581 70.0654C79.3138 70.3057 79.3695 70.7684 79.3432 71.1253L79.1711 71.1956C79.1316 70.0548 79.3299 68.7921 79.4665 67.6558Z" fill="#FE88CF"/>
<path d="M86.3486 83.9908C86.3293 82.8824 86.3428 81.7627 86.2783 80.6565L86.4434 80.5734L86.3471 80.2587L86.283 80.5087L86.3538 80.2554C86.7601 80.4294 86.8877 80.6931 87.0514 81.0929C87.679 82.6266 88.0211 84.3924 88.1875 86.0368C88.2605 86.758 88.2066 87.8076 88.4467 88.4716C88.4815 90.6204 88.6933 92.8369 88.9433 94.9718C88.7921 95.9416 89.5228 98.1502 88.8968 98.9105L88.7441 98.8988C88.2816 98.3623 88.1152 97.4665 87.9305 96.7963C86.765 92.5678 86.5905 88.337 86.3486 83.9908Z" fill="#231A1A"/>
<path d="M51.9971 95.1587C55.0244 96.0836 66.6052 98.1747 68.1269 99.5435L68.1701 99.7315C67.1128 100.453 61.0708 99.1682 59.6151 98.8944C57.7078 98.5301 55.8114 98.1094 53.9287 97.633C53.2268 96.8552 52.5813 96.0284 51.9971 95.1587Z" fill="#231A1A"/>
<path d="M58.5044 102.821C60.7289 103.259 62.9384 103.77 65.1551 104.245C67.2354 104.692 69.5491 105.085 71.5333 105.869C72.0964 106.092 73.1233 106.61 73.4721 107.114C73.571 107.257 73.5654 107.267 73.6125 107.407C73.5299 107.55 73.5732 107.545 73.4268 107.577C72.1806 107.847 62.8719 105.734 60.8736 105.396C60.0243 104.608 59.2411 103.713 58.5044 102.821Z" fill="#231A1A"/>
<path d="M123.469 131.995C123.285 131.301 123.05 130.564 123.057 129.84L123.337 129.628L123.064 129.749L123.331 129.619C124.55 130.741 125.901 133.884 126.445 135.511C127.174 137.844 127.98 140.058 129.096 142.24C129.768 143.555 130.551 144.811 131.229 146.121C131.066 146.298 130.977 146.416 130.739 146.475C126.821 142.673 125.137 137.044 123.469 131.995Z" fill="#231A1A"/>
<path d="M61.9829 106.607C63.2082 106.662 64.5273 107.16 65.7366 107.432C68.7113 108.1 71.8334 108.562 74.6945 109.633C75.6203 109.979 76.4668 110.378 77.1759 111.083C73.0447 111.467 68.8616 109.726 64.7723 109.33C63.7928 108.475 62.8616 107.566 61.9829 106.607Z" fill="#231A1A"/>
<path d="M55.2334 99.1113C57.1853 99.3326 69.0345 101.792 70.0401 103.255C70.0619 103.287 70.0749 103.324 70.0924 103.358C69.9401 103.568 70.0327 103.522 69.7874 103.562C68 103.851 59.8141 102.025 57.4022 101.615C56.5887 100.879 55.896 99.9828 55.2334 99.1113Z" fill="#231A1A"/>
<path d="M80.5401 68.2871C81.2207 68.772 81.4026 69.7543 81.5302 70.5429C81.7979 72.1978 81.7496 73.8848 81.7386 75.5552C81.5828 77.1776 81.4767 78.8509 81.5044 80.4809C81.2081 82.3975 81.3959 84.4066 81.1434 86.3504C79.7475 83.2773 79.7996 78.5154 79.9519 75.1766C80.0046 74.0212 80.1576 72.857 80.156 71.7018L80.1551 71.6021C80.3393 70.5033 80.3049 69.3778 80.5401 68.2871Z" fill="#231A1A"/>
<path d="M72.3032 52.2194L72.5501 51.8092C72.7522 51.8133 72.7361 51.7657 72.8463 51.8993C73.6808 52.9083 73.7973 55.9066 73.7477 57.1877C73.7264 58.7598 73.8209 67.7361 73.6031 68.4483L73.4285 68.542C72.8614 68.1424 72.5818 66.5843 72.4663 65.9214C72.2035 64.4125 72.0876 62.8892 72.0256 61.3607C71.9971 60.6539 72.0542 59.8449 71.9497 59.154C72.0151 57.5134 72.0926 55.8733 72.1829 54.2339C72.2181 53.5738 72.345 52.8761 72.3032 52.2194Z" fill="#231A1A"/>
<path d="M115.606 122.997C115.423 122.276 115.338 121.867 115.595 121.146L115.787 121.042C116.914 121.767 118.025 125.984 118.311 127.28C118.314 127.298 118.318 127.315 118.322 127.333C118.631 128.827 118.965 130.32 119.453 131.767C119.822 132.864 122.095 137.122 121.833 137.941L121.624 137.946C120.922 137.477 120.426 136.619 119.993 135.913C117.499 131.847 116.968 127.451 115.606 122.997Z" fill="#231A1A"/>
<path d="M89.695 86.2729C91.0768 88.643 91.4294 91.211 91.829 93.8816C92.004 95.4655 92.1315 98.2381 92.517 99.6936C92.4988 100.542 92.7613 101.931 92.357 102.684L92.1704 102.672C90.8861 101.662 90.568 96.401 90.1123 94.7378C90.1004 94.6942 90.0849 94.6516 90.0712 94.6087C89.9382 92.4342 89.5975 90.28 89.5845 88.0959C89.6128 87.4885 89.6276 86.8774 89.695 86.2729Z" fill="#231A1A"/>
<path d="M119.2 127.268C119.066 126.628 118.708 125.596 119.089 125.006C119.348 124.982 119.26 124.94 119.441 125.09C120.531 125.993 121.802 131.208 122.332 132.744C122.928 135.228 124.773 139.222 125.8 141.698C122.273 139.352 120.214 131.256 119.2 127.268Z" fill="#231A1A"/>
<path d="M131.664 139.177C131.518 138.658 131.369 138.142 131.257 137.615C133.026 139.079 133.997 140.912 135.16 142.85C135.56 142.513 135.569 142.21 136.086 141.96C136.657 142.913 137.171 143.9 137.749 144.85C137.552 145.286 137.32 145.572 136.95 145.879C138.114 147.815 139.449 149.673 140.541 151.647C139.709 151.048 138.955 150.428 138.263 149.669C136.044 147.237 132.795 142.259 131.664 139.177Z" fill="#231A1A"/>
<path d="M136.086 141.959C136.657 142.913 137.171 143.9 137.749 144.85C137.552 145.286 137.32 145.572 136.95 145.878C136.377 144.857 135.758 143.857 135.16 142.85C135.559 142.513 135.569 142.21 136.086 141.959Z" fill="#F09ECF"/>
<path d="M70.4165 114.426C74.6978 115.465 78.728 116.884 82.6094 118.988C83.0236 119.213 83.9126 119.581 84.1684 119.974C84.27 120.13 84.2432 120.175 84.2417 120.352C84.0404 120.531 83.9272 120.621 83.6435 120.592C81.5526 120.375 78.5483 118.946 76.5243 118.196C75.868 117.952 75.129 117.603 74.4357 117.53C72.9968 116.83 71.6523 115.456 70.4165 114.426Z" fill="#231A1A"/>
<path d="M49.6201 92.1089C51.5547 92.1605 62.5334 94.2193 63.6054 95.3293C63.6313 95.3561 63.6503 95.3884 63.6728 95.4178C63.5529 95.6353 63.5061 95.6346 63.2739 95.7026C60.9326 96.3904 53.0632 94.5953 50.7746 93.5686C50.3777 93.2836 49.9406 92.506 49.6201 92.1089Z" fill="#231A1A"/>
<path d="M66.019 110.562C68.3067 110.554 73.7721 112.382 76.3187 112.938C77.2522 113.142 79.1254 113.824 79.6962 114.622C79.7207 114.656 79.738 114.695 79.7591 114.732L79.6593 114.883C77.5797 115.236 73.0733 113.942 70.9512 113.434C70.2213 113.259 69.4304 112.999 68.6878 112.926C67.7038 112.231 66.8537 111.428 66.019 110.562Z" fill="#231A1A"/>
<path d="M127.256 135.041C127.208 134.739 127.097 134.541 127.281 134.283C127.878 134.37 128.336 135.059 128.686 135.529C129.575 136.723 130.426 138.127 130.956 139.522C132.33 142.795 134.279 145.746 135.789 148.941C132.095 146.938 128.982 138.983 127.256 135.041Z" fill="#231A1A"/>
<path d="M136.085 141.959L135.998 141.522L136.097 141.419C137.103 141.945 139.146 144.818 139.873 145.853C140.285 145.824 140.692 145.781 141.101 145.727C141.578 146.723 142.246 147.579 142.766 148.542C142.507 148.469 142.489 148.44 142.312 148.234L141.982 148.448L142.159 148.79L142.004 148.832C143.375 151.235 145.318 153.315 146.523 155.812C143.984 153.717 141.666 150.81 139.825 148.079C139.11 147.017 138.47 145.908 137.749 144.85C137.171 143.9 136.657 142.913 136.085 141.959Z" fill="#231A1A"/>
<path d="M139.873 145.853C140.285 145.824 140.692 145.781 141.101 145.727C141.578 146.723 142.246 147.579 142.766 148.541C142.507 148.468 142.489 148.44 142.312 148.234L141.983 148.448L142.16 148.79L142.004 148.832C141.232 147.918 140.526 146.855 139.873 145.853Z" fill="#F09ECF"/>
<path d="M32.9609 89.7654C32.9973 87.8488 33.9068 81.7779 35.1538 80.4125L35.4379 80.3267C35.6468 80.4684 35.676 80.4911 35.7227 80.7552C35.8739 81.6085 34.6767 91.4161 34.3852 93.1112C33.8407 92.027 33.365 90.9096 32.9609 89.7654Z" fill="#231A1A"/>
<path d="M112.633 120.648C112.524 119.908 112.243 118.921 112.642 118.238C112.896 118.231 112.809 118.186 112.981 118.356C114.032 119.399 114.442 121.82 114.779 123.203C115.377 126.147 116.523 128.927 117.082 131.865C113.843 129.262 113.698 124.52 112.677 120.805L112.633 120.648Z" fill="#231A1A"/>
<path d="M48.7312 112.738C48.8985 111.196 48.76 109.198 49.5975 107.856L49.7887 107.755C50.1856 108.057 50.2691 108.879 50.3318 109.358C50.5802 111.257 50.4389 113.225 50.4971 115.137C50.8311 115.308 51.0312 115.333 51.1651 115.712C51.228 115.891 51.2497 116.107 51.2823 116.295C51.343 117.134 51.4375 117.953 51.5694 118.785C51.236 118.581 50.9542 118.358 50.6592 118.104C49.8632 117.188 48.9769 116.324 48.8143 115.072C48.7757 115.059 48.7375 115.046 48.6986 115.034C48.3071 114.919 48.1571 114.743 47.8945 114.45L47.9109 112.751L48.726 112.832L48.7312 112.738Z" fill="#231A1A"/>
<path d="M50.4971 115.138C50.8311 115.308 51.0312 115.334 51.1651 115.713C51.2279 115.891 51.2497 116.108 51.2823 116.295C51.3429 117.134 51.4375 117.954 51.5694 118.785C51.236 118.582 50.9541 118.359 50.6592 118.104C50.5725 117.117 50.5184 116.128 50.4971 115.138Z" fill="#FF90CD"/>
<path d="M47.9109 112.751L48.726 112.832C48.7591 113.572 48.8294 114.332 48.8143 115.072C48.7757 115.059 48.7375 115.046 48.6986 115.035C48.3071 114.919 48.1571 114.743 47.8945 114.45L47.9109 112.751Z" fill="#FF90CD"/>
<path d="M70.2734 49.0947L70.4627 48.9038C70.8336 49.0684 70.9706 49.404 71.1103 49.7719C71.2473 50.1322 71.3522 50.4839 71.4245 50.8631C71.367 53.0726 71.2078 55.2809 71.1617 57.4893C70.9459 58.5191 71.1233 61.5197 70.4522 62.1784L70.2839 62.0608C69.1137 59.2857 69.5236 54.7962 69.8861 51.7961L70.2734 49.0947Z" fill="#231A1A"/>
<path d="M30.6362 84.9637C31.0329 84.2148 31.1499 83.1931 31.3478 82.3636C31.7146 80.8257 32.7956 76.0321 33.7327 75.0346L34.0604 75.0312C34.2866 76.0348 32.3637 87.4503 32.0371 88.0748C31.525 87.0638 31.0944 86.0007 30.6362 84.9637Z" fill="#231A1A"/>
<path d="M42.0449 94.6006C43.568 97.7386 42.3443 102.645 42.4335 106.171L42.3663 106.61C41.6759 105.751 40.8783 104.669 40.5088 103.622C40.5301 100.765 40.9677 97.2573 42.0449 94.6006Z" fill="#231A1A"/>
<path d="M75.1019 144.848C75.3216 145.088 75.4507 145.313 75.7681 145.409C75.9292 145.309 75.9921 145.262 76.1116 145.107C76.4211 145.173 76.6277 145.361 76.9051 145.491C77.1627 146.132 77.7979 147.629 78.4412 147.913C78.4756 147.928 78.5133 147.933 78.5495 147.943C78.7453 147.729 78.7067 147.68 78.702 147.391C78.6997 147.25 78.6752 147.099 78.6588 146.96C78.843 147.047 78.9845 147.107 79.1878 147.129C79.5928 148.264 80.5485 149.048 81.4175 149.828C81.0799 148.668 80.8218 147.485 80.5478 146.308L80.6217 146.154C80.9892 146.554 81.0496 148.219 81.3407 148.807L81.5296 148.72C81.6426 148.323 81.4337 147.95 81.3701 147.557C81.3115 147.195 81.2681 146.821 81.1468 146.474C81.0833 146.292 81.1017 146.392 81.068 146.206C81.042 146.064 81.1116 146.03 81.1895 145.917C81.5871 147.61 82.5219 150.942 84.1061 151.915C84.253 152.006 84.2532 151.999 84.3918 152.048L84.4383 152.22C84.2058 152.289 84.3365 152.285 84.0814 152.197C83.8556 152.118 83.7054 152.126 83.4686 152.166L83.3981 152.307C83.8547 153.249 87.0884 155.177 87.1327 155.642L87.0954 155.714C82.7986 152.514 78.2806 149.011 74.3931 145.338C74.7554 145.191 74.849 145.163 75.1019 144.848Z" fill="#FF90CD"/>
<path d="M141.102 145.727C141.288 145.744 141.461 145.756 141.622 145.862C142.615 146.513 144.865 149.386 145.762 150.447C145.979 150.435 146.213 150.434 146.426 150.393C146.756 150.328 146.87 150.202 147.069 149.943C147.474 150.872 148.261 151.731 148.882 152.533L148.062 152.608C148.05 152.637 148.04 152.668 148.025 152.696C147.989 152.76 147.946 152.821 147.907 152.883C148.971 154.611 150.519 156.148 151.688 157.833L151.598 157.778L151.451 157.683C148.881 156.064 146.323 152.985 144.393 150.655C143.836 149.983 143.376 149.154 142.767 148.541C142.247 147.579 141.578 146.723 141.102 145.727Z" fill="#231A1A"/>
<path d="M145.762 150.447C145.979 150.436 146.213 150.435 146.425 150.393C146.756 150.329 146.87 150.202 147.069 149.943C147.474 150.872 148.26 151.732 148.882 152.534L148.062 152.609C148.049 152.638 148.04 152.668 148.025 152.696C147.989 152.76 147.946 152.821 147.907 152.883C147.247 152.39 146.343 151.093 145.762 150.447Z" fill="#F09ECF"/>
<path d="M35.3281 94.8285C35.3421 93.3987 36.2674 87.049 37.2533 86.188C37.2822 86.1627 37.3175 86.1454 37.3494 86.124C37.623 86.2561 37.6686 86.4133 37.7602 86.6912C37.9498 87.2662 38.0043 87.8996 37.9888 88.5029C37.9473 90.1281 37.2398 96.0208 36.6612 97.3774C36.1459 96.5672 35.7466 95.6908 35.3281 94.8285Z" fill="#231A1A"/>
<path d="M39.7695 90.1963C39.9539 90.6749 40.1003 91.1075 40.1475 91.6226C40.2852 93.1232 39.8117 100.918 39.3737 101.953C38.7156 101.029 38.2111 99.9931 37.7021 98.9821C38.1803 96.183 38.2646 92.658 39.7695 90.1963Z" fill="#231A1A"/>
<path d="M46.0661 108.799C46.3348 107.13 46.3177 105.394 47.1571 103.874L47.35 103.783C47.7574 104.163 47.7776 105.264 47.7992 105.814C47.8722 107.677 47.8165 109.543 47.9064 111.407L47.9113 112.751L47.8949 114.45C47.1281 113.462 46.0724 112.347 45.9226 111.06C45.632 110.929 45.4085 110.813 45.167 110.597C45.1165 109.954 45.1266 109.303 45.1167 108.658C45.3478 108.427 45.3647 108.441 45.6935 108.403C45.957 108.539 45.959 108.525 46.0661 108.799Z" fill="#231A1A"/>
<path d="M45.1167 108.658C45.3478 108.427 45.3647 108.441 45.6935 108.403C45.957 108.538 45.959 108.525 46.0661 108.799L45.9226 111.06C45.632 110.929 45.4085 110.813 45.167 110.597C45.1165 109.954 45.1266 109.303 45.1167 108.658Z" fill="#FF90CD"/>
<path d="M81.1897 145.917C81.0834 145.032 80.8658 144.002 81.1917 143.143L81.3193 143.093C82.1186 143.8 82.5047 145.929 82.8176 146.978C82.8783 145.751 82.9766 144.756 83.4061 143.601C84.1058 145.499 84.8993 150.069 84.3919 152.048C84.2533 151.999 84.2531 152.005 84.1062 151.915C82.522 150.941 81.5872 147.609 81.1897 145.917Z" fill="#231A1A"/>
<path d="M54.5322 119.903C54.5239 118.946 54.417 115.923 55.2074 115.234C55.3314 115.126 55.3952 115.183 55.5409 115.209C56.4672 116.776 55.9652 121.27 56.5285 123.181C56.8183 123.213 57.066 123.175 57.2507 123.445C57.2922 123.505 57.316 123.576 57.3488 123.641C57.4097 124.322 57.4915 124.991 57.5977 125.666L56.8028 125.862C55.7238 124.938 55.1158 123.994 54.7339 122.637C54.645 121.728 54.5778 120.816 54.5322 119.903Z" fill="#231A1A"/>
<path d="M56.5288 123.181C56.8186 123.213 57.0663 123.175 57.2509 123.445C57.2925 123.505 57.3163 123.576 57.3491 123.642C57.41 124.322 57.4917 124.992 57.598 125.666L56.8031 125.862C56.6717 124.969 56.5904 124.082 56.5288 123.181Z" fill="#FF90CD"/>
<path d="M51.2825 116.295C51.2836 114.848 51.065 112.653 51.782 111.36L52.005 111.248C52.3085 111.403 52.4039 111.569 52.5138 111.891C52.992 113.293 53.1173 114.909 53.2507 116.382C53.3066 116.999 53.2873 118.617 53.5166 119.123C53.571 120.164 53.7421 121.16 53.8774 122.191C53.8349 122.158 53.7918 122.125 53.7498 122.092C52.9084 121.418 51.6966 119.861 51.5695 118.785C51.4377 117.954 51.3431 117.134 51.2825 116.295Z" fill="#231A1A"/>
<path d="M44.4754 99.7173C45.6791 101.905 45.2418 106.147 45.1167 108.658C45.1266 109.303 45.1165 109.954 45.167 110.597C44.4561 109.664 43.712 108.712 43.2354 107.633L43.3632 105.788C43.5781 103.766 43.6927 101.611 44.4754 99.7173Z" fill="#231A1A"/>
<path d="M67.6987 135.744C67.5789 134.668 67.3343 132.248 67.9873 131.318C68.0097 131.286 68.0394 131.26 68.0655 131.23C68.346 131.358 68.4062 131.518 68.5201 131.793C69.0095 132.973 69.0423 134.441 69.268 135.702C69.469 136.824 69.7381 137.94 69.98 139.054L70.2731 140.628C69.2031 139.822 68.6499 139.173 68.2478 137.881C67.7261 137.922 67.5298 137.901 67.105 137.582C67.3004 137.058 67.0473 136.315 66.937 135.779C67.229 135.807 67.4148 135.844 67.6987 135.744Z" fill="#231A1A"/>
<path d="M66.937 135.779C67.229 135.807 67.4148 135.844 67.6987 135.745C67.8438 136.473 68.0318 137.171 68.2478 137.881C67.7261 137.922 67.5298 137.901 67.105 137.583C67.3004 137.058 67.0473 136.315 66.937 135.779Z" fill="#FF90CD"/>
<path d="M103.079 109.54C103.068 108.736 102.897 107.573 103.233 106.832L103.399 106.71C103.695 106.813 103.832 107.05 103.971 107.322C104.749 108.84 104.972 110.639 105.266 112.302C105.433 113.977 105.738 115.648 105.925 117.324C104.127 115.064 103.711 112.284 103.079 109.54Z" fill="#231A1A"/>
<path d="M64.8752 132.088C64.8964 131.095 64.7924 129.154 65.4289 128.314L65.5861 128.328C66.5043 129.652 66.6139 134.007 66.9369 135.78C67.0472 136.315 67.3004 137.058 67.1049 137.583C66.0183 136.599 65.6104 135.695 65.2119 134.309L64.3748 134.651C64.3939 134.182 64.3393 133.699 64.3124 133.229C64.3283 132.836 64.2275 132.506 64.4148 132.152L64.8752 132.088Z" fill="#231A1A"/>
<path d="M64.3124 133.229C64.3283 132.836 64.2275 132.506 64.4148 132.152L64.8752 132.087C64.9747 132.83 65.0691 133.573 65.2119 134.309L64.3748 134.651C64.3939 134.182 64.3393 133.698 64.3124 133.229Z" fill="#FF90CD"/>
<path d="M57.3489 123.642C57.3118 122.391 57.1391 120.518 57.7456 119.387L57.9475 119.241C58.8605 119.996 59.0544 125.355 59.2486 126.66C59.3306 127.631 59.445 128.602 59.5438 129.572C58.5306 128.247 57.8817 127.334 57.5978 125.666C57.4915 124.991 57.4098 124.322 57.3489 123.642Z" fill="#231A1A"/>
<path d="M106.251 112.568C106.212 111.965 106.032 110.877 106.37 110.352C106.625 110.403 106.638 110.471 106.776 110.682C107.638 112.001 108.092 113.858 108.395 115.389C108.492 116.418 108.962 118.775 108.409 119.627C108.243 119.663 108.195 119.717 108.04 119.614C106.94 118.884 106.585 114.122 106.286 112.728L106.251 112.568Z" fill="#231A1A"/>
<path d="M147.068 149.943C149.039 150.753 152.265 154.429 153.677 156.213C154.413 157.475 155.428 158.512 156.122 159.83C153.539 158.028 150.861 155.019 148.881 152.534C148.26 151.732 147.473 150.872 147.068 149.943Z" fill="#231A1A"/>
<path d="M109.276 115.33C109.358 114.983 109.355 114.864 109.612 114.607C109.87 114.626 109.872 114.638 110.029 114.834C110.832 115.843 111.211 117.794 111.455 119.035C111.478 120.337 112.193 122.407 111.88 123.556C111.818 123.782 111.867 123.703 111.665 123.83C111.632 123.814 111.596 123.801 111.565 123.781C109.908 122.692 109.743 117.395 109.326 115.543L109.276 115.33Z" fill="#231A1A"/>
<path d="M59.9473 126.653C59.9531 125.602 59.8891 123.687 60.5564 122.805L60.7875 122.721C61.6981 123.567 61.3675 129.322 61.9196 130.815C61.9665 131.38 61.9795 131.954 62.0081 132.52C60.467 130.854 60.169 128.823 59.9473 126.653Z" fill="#231A1A"/>
<path d="M74.2978 143.174C73.7318 141.328 72.7659 138.388 73.5099 136.497L73.6864 136.446C74.5781 137.385 75.4271 141.303 75.6892 142.682C75.8422 143.486 75.84 144.331 76.1115 145.107C75.992 145.262 75.9291 145.308 75.7681 145.409C75.4507 145.313 75.3215 145.088 75.1019 144.848C74.7805 144.301 74.5325 143.762 74.2978 143.174Z" fill="#231A1A"/>
<path d="M79.188 147.129C78.991 146.488 78.8199 145.839 78.675 145.184C78.3742 143.852 77.9634 141.814 78.7388 140.593L78.9297 140.57C79.5481 141.288 80.0743 145.006 80.5098 146.206C80.5222 146.24 80.5352 146.274 80.548 146.308C80.822 147.485 81.0801 148.668 81.4177 149.828C80.5487 149.048 79.593 148.264 79.188 147.129Z" fill="#231A1A"/>
<path d="M70.6745 138.803C70.4912 137.786 70.1075 135.344 70.6868 134.439C70.7072 134.407 70.7355 134.38 70.76 134.351C71.0161 134.418 71.0159 134.474 71.141 134.697C71.8813 136.014 72.4455 139.524 72.8285 141.16C72.9628 141.734 73.0461 142.432 73.3024 142.953C73.0641 143.049 73.0445 143.025 72.8035 142.997C71.6151 142.237 71.0482 140.09 70.6745 138.803Z" fill="#231A1A"/>
<path d="M68.9898 48.0322L69.1495 48.6694L69.1327 49.2682C69.0651 50.4726 68.3533 57.2899 67.8517 57.845C66.8908 56.0497 67.6514 50.1599 68.2259 48.1304C68.482 48.1288 68.7371 48.0724 68.9898 48.0322Z" fill="#231A1A"/>
<path d="M62.6423 131.011C62.5154 129.294 62.444 127.105 63.2526 125.519L63.3889 125.474C64.0082 126.481 63.9945 131.564 64.3125 133.229C64.3395 133.698 64.3941 134.182 64.375 134.651C64.2312 134.562 64.1007 134.467 63.9745 134.354C63.0203 133.5 62.7241 132.244 62.6423 131.011Z" fill="#231A1A"/>
<path d="M76.9051 145.491C76.4932 143.562 75.8937 141.383 76.4372 139.433L76.5904 139.341C77.5771 140.078 78.0978 145.432 78.6588 146.96C78.6752 147.099 78.6997 147.25 78.702 147.391C78.7067 147.68 78.7453 147.729 78.5495 147.943C78.5133 147.933 78.4756 147.928 78.4412 147.912C77.7979 147.628 77.1627 146.132 76.9051 145.491Z" fill="#231A1A"/>
<path d="M154.203 155.709L154.003 155.298L154.094 155.124C154.935 155.057 157.627 157.585 158.318 158.168C158.957 158.829 160.324 159.926 160.537 160.832C160.608 161.135 160.573 161.193 160.43 161.447C158.05 160.302 156.351 157.366 154.352 155.821C154.303 155.783 154.253 155.746 154.203 155.709Z" fill="#231A1A"/>
<path d="M164.544 160.069C166.927 161.429 169.348 162.722 171.804 163.945C170.604 164.033 164.893 161.625 163.707 160.886L163.741 160.852C164.045 160.783 164.246 160.988 164.511 161.138L164.432 161.061L164.608 161.108C164.64 160.928 164.8 160.692 164.884 160.524L164.777 160.493C164.634 160.328 164.673 160.401 164.594 160.205C164.576 160.16 164.561 160.115 164.544 160.069Z" fill="#F8ACDA"/>
<path d="M88.6822 90.9586C88.8246 90.9179 89.0141 90.8788 89.1514 90.8153C89.8135 90.508 89.1851 88.9351 89.5844 88.0957C89.5975 90.2798 89.9382 92.434 90.0712 94.6085L89.9815 94.7563C89.7446 93.943 89.7735 93.0935 89.6253 92.2629C89.3697 92.2256 89.2644 92.2701 89.0348 92.3824C88.564 93.1058 89.2706 94.1294 88.9434 94.9719C88.6934 92.837 88.4816 90.6205 88.4468 88.4717C88.8082 89.2302 88.712 90.1426 88.6822 90.9586Z" fill="#FF90CF"/>
<path d="M71.4244 50.8633C71.4341 50.9066 71.4444 50.95 71.4536 50.9933C71.6674 51.9989 71.4276 53.0815 71.7238 54.0545L71.8586 54.1039C72.0502 53.4962 71.941 52.8356 72.2029 52.2561L72.3035 52.2193C72.3453 52.876 72.2184 53.5736 72.1831 54.2338C72.0929 55.8732 72.0154 57.5133 71.95 59.1538C71.561 58.029 72.2007 55.7988 71.85 55.1542C71.6171 55.0635 71.6533 55.0244 71.4053 55.1275C71.3788 56.1333 71.3781 57.1465 71.2542 58.146L71.1616 57.4895C71.2077 55.2811 71.3669 53.0728 71.4244 50.8633Z" fill="#FFAFDB"/>
<path d="M66.5914 48.2344L66.9817 48.1904C67.6037 49.809 66.8292 52.1633 66.4703 53.8043C66.1884 51.9419 66.3933 50.0926 66.5914 48.2344Z" fill="url(#paint2_linear_209_395)"/>
<path d="M69.1495 48.6694C69.5378 48.8985 69.8159 49.0715 70.2734 49.0951L69.8862 51.7964C69.8644 51.8 69.8431 51.8077 69.8213 51.8075C69.6807 51.8059 69.5666 51.8081 69.4684 51.6996C69.0253 51.2109 69.1511 49.9259 69.1326 49.2682L69.1495 48.6694Z" fill="#FFAFDB"/>
<path d="M53.5166 119.123L53.5559 119.225C53.6902 119.579 53.7053 120.179 53.953 120.437L54.2854 120.439C54.316 120.032 54.3041 119.648 54.2929 119.241C54.2872 119.032 54.2814 119.11 54.3681 118.9C54.3993 119.245 54.4191 119.573 54.5323 119.903C54.5779 120.816 54.645 121.728 54.734 122.637C54.4375 122.478 54.2235 122.241 53.8773 122.19C53.7421 121.16 53.571 120.164 53.5166 119.123Z" fill="#FF90CD"/>
<path d="M42.4334 106.171C42.5064 105.854 42.5457 105.53 42.5933 105.208C42.6553 105.407 42.7117 105.499 42.8577 105.647L43.1867 105.627L43.1364 105.43L43.3015 105.398L43.2415 105.184L43.3646 105.546L43.2469 105.434C43.4109 105.622 43.3619 105.508 43.363 105.788L43.2352 107.633C42.9048 107.352 42.6375 106.95 42.3662 106.611L42.4334 106.171Z" fill="#FF90CD"/>
<path d="M47.9062 111.407C48.2564 111.475 48.4653 111.444 48.698 111.725C48.6991 112.063 48.7104 112.401 48.7315 112.738L48.7263 112.832L47.9112 112.751L47.9062 111.407Z" fill="#FF90CD"/>
<path d="M131.228 146.121C131.518 146.586 131.783 147.05 132.037 147.535C131.596 147.191 131.148 146.856 130.738 146.475C130.977 146.416 131.066 146.298 131.228 146.121Z" fill="#310C13"/>
<path d="M72.626 85.1079C72.7464 85.1843 72.7464 85.1775 72.8681 85.2948C73.9965 86.3819 77.2502 93.8996 78.1215 95.7003C79.0905 97.6602 80.092 99.604 81.1254 101.531C82.7873 104.595 84.6307 107.558 86.6456 110.403C91.4642 117.202 97.3013 123.455 103.207 129.326C105.339 131.445 107.54 133.5 109.683 135.609C110.581 136.492 111.722 137.429 112.408 138.478C112.104 138.354 111.835 138.206 111.556 138.035C109.444 136.739 107.566 135.102 105.698 133.485C97.426 126.33 87.8275 115.637 82.0495 106.391C78.8679 101.3 76.4816 95.7602 74.3829 90.1533C73.7656 88.5047 73.0415 86.8188 72.626 85.1079Z" fill="#2F0725"/>
<path d="M138.292 174.302C139.403 174.558 140.556 175.174 141.61 175.625C143.813 176.569 146.021 177.559 148.3 178.307C159.361 181.936 173.983 183.377 185.444 181.291C185.042 181.517 184.604 181.685 184.181 181.868C181.58 182.895 178.825 183.482 176.031 183.605C166.185 184.132 150.436 182.38 141.939 177.24C140.596 176.428 139.455 175.344 138.292 174.302Z" fill="#231A1A"/>
<path d="M77.6855 87.2451C78.4304 87.9791 80.955 94.235 81.7085 95.7879C82.6357 97.7112 83.6359 99.5986 84.7071 101.446C87.815 106.832 91.886 112.487 95.7518 117.346C96.8238 118.694 97.9487 119.989 99.0758 121.291C99.6849 121.994 100.37 122.693 100.891 123.464C100.909 123.491 100.927 123.518 100.945 123.545C99.604 123.086 98.3624 121.96 97.3382 121.012C90.1617 114.373 81.5711 100.798 78.6554 91.4363C78.2424 90.11 77.735 88.6339 77.6855 87.2451Z" fill="#300625"/>
<path d="M62.7313 59.9697L62.8216 60.0385L62.8198 60.1964C59.4818 63.3227 55.5689 65.7716 51.298 67.407C45.853 69.5185 40.1632 69.5853 34.8157 67.2154C34.5057 67.0854 34.2292 66.9486 33.9399 66.7779C33.9887 66.6563 34.0891 66.5966 34.2167 66.5568C34.8925 66.3464 36.4666 66.8264 37.2165 66.9488C39.2636 67.3005 41.3444 67.4137 43.4176 67.2862C50.7865 66.7866 56.3676 63.2108 62.7313 59.9697Z" fill="#231A1A"/>
<path d="M39.0513 76.3844C40.5809 76.2863 44.5293 77.8073 46.1343 78.27C47.7899 78.7473 49.483 79.1318 51.1144 79.6869C51.8176 79.9261 52.5865 80.1978 53.2192 80.5945C53.5705 80.8146 53.6044 80.9078 53.6794 81.3097C51.379 81.6803 45.4432 80.0361 43.2115 79.1384C42.2014 78.732 39.4899 77.4037 39.0513 76.3844Z" fill="#290620"/>
<path d="M44.4546 84.2305C45.7533 84.2922 56.2596 87.4332 57.5367 88.0504C58.0511 88.299 58.3891 88.4774 58.5866 89.0313C55.893 89.418 48.3967 87.2899 46.0145 85.9119C45.2971 85.497 44.6734 85.0586 44.4546 84.2305Z" fill="#231A1A"/>
<path d="M41.7754 80.6648C43.2535 80.4998 53.8762 83.249 54.9357 84.0677C55.2272 84.2927 55.2758 84.4071 55.3333 84.7642C53.9553 85.016 52.4115 84.7336 51.0538 84.4607C48.7156 83.9909 43.1019 82.6623 41.7754 80.6648Z" fill="#231A1A"/>
<path d="M47.2986 88.2578C49.1509 88.6298 50.9759 89.1448 52.8204 89.5561C54.9845 90.0385 58.0363 90.4233 60.005 91.313C60.2612 91.4289 60.3466 91.4881 60.4472 91.7496L60.2572 92.0027C59.4371 92.1364 58.5852 92.1049 57.7595 92.0528C55.489 91.9095 48.7266 90.8139 47.1566 89.041C47.0758 88.6772 47.1566 88.5932 47.2986 88.2578Z" fill="#231A1A"/>
<path d="M130.679 171.109C132.321 171.376 136.11 174.83 137.626 175.959C140.013 177.736 142.564 178.982 145.186 180.352C143.932 180.439 142.341 179.861 141.18 179.429C137.638 178.11 132.298 174.623 130.679 171.109Z" fill="url(#paint3_linear_209_395)"/>
<path d="M37.1582 72.9878C38.3062 73.0671 39.6898 73.6021 40.8218 73.8795C43.3446 74.4974 45.9229 75.0113 48.4183 75.7235C49.3558 75.9911 51.0153 76.4576 51.5045 77.3493C50.5694 77.4404 49.6269 77.3259 48.7004 77.1952C45.6368 76.7621 39.0555 75.4978 37.1582 72.9878Z" fill="#290620"/>
<path d="M108.993 159.755C109.838 160.192 110.821 162.816 111.441 163.73C112.762 165.679 114.616 167.218 116.091 169.037C116.6 169.665 117.348 170.664 117.264 171.492C117.152 171.447 117.039 171.403 116.931 171.349C113.879 169.849 110.128 164.929 109.118 161.713C108.921 161.086 108.678 160.367 108.993 159.755Z" fill="#231A1A"/>
<path d="M209.546 174.179L209.758 174.203L209.817 174.399C209.731 174.523 209.654 174.63 209.549 174.739C205.885 178.536 199.022 180.598 193.896 180.753C193.81 180.744 193.706 180.696 193.624 180.669C193.795 180.511 193.856 180.497 194.075 180.443C197.921 179.504 201.525 178.205 205.087 176.47C206.538 175.764 207.91 174.882 209.392 174.244L209.546 174.179Z" fill="url(#paint4_linear_209_395)"/>
<path d="M36.0029 69.6317C37.6525 69.5127 46.0025 72.2316 47.5135 73.0954C47.9007 73.3167 48.1514 73.4402 48.2713 73.871C45.7503 74.0213 39.9992 72.394 37.7915 71.2348C37.1071 70.8754 36.2399 70.3931 36.0029 69.6317Z" fill="#290620"/>
<path d="M125.399 169.817C125.835 169.892 126.089 170.066 126.442 170.326C128.616 171.925 130.552 173.833 132.719 175.448C133.631 176.128 135.671 177.284 136.248 178.088C134.59 177.747 132.865 176.874 131.417 176.021C129.145 174.684 126.099 172.507 125.399 169.817Z" fill="url(#paint5_linear_209_395)"/>
<path d="M102.068 156.605C102.654 157.037 102.925 158.587 103.154 159.289C103.552 160.513 104.097 161.823 104.772 162.923C105.405 163.956 106.543 165.187 106.912 166.321C107.013 166.63 106.972 166.672 106.825 166.937C106.662 166.881 106.509 166.815 106.357 166.732C104.275 165.582 102.657 162.659 102.003 160.451C101.647 159.248 101.448 157.744 102.068 156.605Z" fill="#231A1A"/>
<path d="M105.899 158.442C105.976 158.514 109.881 166.001 110.218 166.746C110.436 167.227 110.617 167.523 110.424 168.041C110.256 167.994 110.093 167.94 109.932 167.872C108.551 167.294 106.794 163.598 106.239 162.269C105.713 161.01 105.351 159.764 105.899 158.442Z" fill="#231A1A"/>
<path d="M94.8761 152.022C95.5749 152.551 96.7579 156.472 97.2298 157.507C97.7958 158.749 98.4966 159.924 99.0748 161.157C99.2569 161.545 99.1623 161.739 99.0298 162.116C98.0898 161.821 97.2842 160.61 96.7831 159.799C95.4278 157.606 94.2531 154.628 94.8761 152.022Z" fill="url(#paint6_linear_209_395)"/>
<path d="M99.0398 154.847C99.0609 154.875 99.084 154.902 99.1029 154.931C99.748 155.933 100.118 158.083 100.539 159.292C100.882 160.28 101.364 161.124 101.904 162.015C102.271 162.62 103.091 163.695 102.959 164.419L102.759 164.53C101.138 163.786 99.8398 161.715 99.2226 160.091C98.6186 158.502 98.3287 156.445 99.0398 154.847Z" fill="#231A1A"/>
<path d="M120.954 168.161C121.038 168.184 121.133 168.205 121.213 168.244C121.98 168.619 126.563 173.201 127.217 173.997C127.542 174.391 127.809 174.77 127.958 175.263C125.988 175.055 123.97 173.053 122.756 171.623C122.002 170.734 120.858 169.384 120.954 168.161Z" fill="#231A1A"/>
<path d="M85.5592 145.839C86.0023 146.248 86.125 147.537 86.273 148.166C86.7462 150.176 87.4715 151.971 88.1898 153.894C88.2976 154.182 88.5114 154.589 88.5024 154.899C88.4979 155.054 88.2181 155.227 88.1008 155.329C86.925 154.243 85.9738 152.555 85.4913 151.039C84.9714 149.406 84.7604 147.409 85.5592 145.839Z" fill="#231A1A"/>
<path d="M91.7586 150.343C91.8559 150.436 91.9502 150.551 92.0005 150.677C92.2662 151.348 92.4019 152.125 92.6007 152.824C92.9587 154.117 93.4104 155.382 93.9521 156.61C94.2731 157.341 95.3133 159.092 95.4105 159.725C95.4503 159.984 95.3501 160.068 95.216 160.275C95.1902 160.259 95.1639 160.245 95.139 160.228C93.2085 158.93 91.8397 155.514 91.4648 153.304C91.3029 152.349 91.1692 151.164 91.7586 150.343Z" fill="#231A1A"/>
<path d="M116.431 166.029C116.646 166.074 116.842 166.113 117.027 166.24C118.395 167.176 122.53 171.811 122.784 173.277C120.918 172.675 118.897 170.3 117.696 168.778C117.132 168.063 116.316 166.968 116.431 166.029Z" fill="#231A1A"/>
<path d="M88.72 148.401L88.9532 148.554C89.6558 150.076 90.0147 151.8 90.5726 153.386C90.9243 154.387 91.48 155.375 91.752 156.394C91.8232 156.66 91.8129 156.866 91.7734 157.136C90.983 156.545 90.3644 155.923 89.8669 155.071C88.7836 153.217 88.1778 150.496 88.72 148.401Z" fill="#231A1A"/>
<path d="M4.47705 2.40217C5.81914 2.06467 7.18548 2.03471 8.56362 2.06721C12.9966 2.17167 16.9904 3.3728 20.7915 5.65361C20.9035 5.72073 21.0147 5.78874 21.1257 5.85765C27.205 9.64088 31.8753 15.8478 35.3657 21.9972C38.1661 26.9307 40.7296 32.3072 45.1982 35.9946C49.1477 39.2539 53.2309 39.1726 57.9771 40.0733C62.4466 40.9217 66.2782 42.9351 69.4641 46.1683C66.1502 46.1229 62.9205 46.5744 59.6033 46.1836C58.4589 46.0488 54.8263 44.9687 53.9759 45.317L53.9528 45.4586C56.7454 47.7788 58.4501 49.6722 58.7857 53.4466C58.8558 54.2345 59.0326 55.4049 58.5067 56.0657C58.1202 56.5511 57.4735 56.6917 56.8862 56.7382C54.1639 56.9527 50.6697 55.9298 48.608 54.1067C46.7624 52.4745 46.1979 51.127 45.2555 48.9351C45.246 54.1927 43.1304 59.4975 41.2287 64.3289C38.7616 64.2193 35.8796 64.124 34.1157 62.1205C32.4992 60.2843 32.0776 57.3716 32.0749 55.0161C30.1242 59.3688 27.828 62.0147 23.8765 64.6766C23.3814 60.8903 24.0398 58.5196 26.3833 55.4627C27.3833 54.1583 28.5569 53.0191 29.6631 51.8092C30.4887 50.906 31.2562 49.9418 32.0466 49.0074C35.025 45.4864 35.4982 43.1678 34.9001 38.5271C33.7016 29.2272 28.5236 16.7923 20.981 10.9992C16.6782 7.69446 11.4981 6.37477 6.15088 7.05675C6.14987 6.52034 6.07834 5.87658 6.20897 5.35805L6.28118 5.10045C5.74061 4.75367 4.93914 3.03049 4.47705 2.40217Z" fill="#F47FD6"/>
<path d="M6.2812 5.10066C11.7991 4.57335 16.8613 5.64541 21.2216 9.23554C22.2204 10.0579 23.1079 10.9344 23.8403 12.003C18.0903 7.63107 13.3234 5.95126 6.20898 5.35827L6.2812 5.10066Z" fill="#231A1A"/>
<path d="M26.25 14.46C26.4607 14.4755 26.6258 14.5058 26.8034 14.6307C27.5574 15.1612 28.2558 16.3058 28.7627 17.0569C32.1774 22.1149 35.9929 30.2352 37.352 36.2037C38.8299 42.6938 38.1303 45.7613 34.6598 51.273C34.5282 51.5156 34.4017 51.7788 34.2223 51.9899C34.052 52.1903 34.0664 52.2038 33.7928 52.2188C33.3955 51.6465 34.0406 50.5453 34.2748 49.95C36.2426 44.9523 36.744 42.1846 35.7397 36.8749C34.7726 31.8025 33.1415 26.8795 30.8882 22.2335C29.9891 20.3607 29.0839 18.4764 27.8634 16.7889C27.4748 16.2517 26.3053 15.0788 26.25 14.46Z" fill="#231A1A"/>
<path d="M38.6826 30.4116C39.7169 31.2582 40.7823 33.3151 41.7512 34.4164C44.9757 38.0814 49.9573 40.8681 54.434 42.6764C54.8994 42.8644 56.0523 43.0627 56.3032 43.3954C56.2165 43.4369 56.1318 43.4834 56.0433 43.5214C54.8949 44.0162 50.0651 42.2836 48.9271 41.7288C43.8985 39.2779 40.4887 35.7016 38.6826 30.4116Z" fill="#231A1A"/>
<path d="M36.814 27.8481C37.6396 28.5134 38.1425 30.2429 38.5441 31.2353C39.5546 33.7318 40.7006 36.0897 41.3679 38.7174C42.0321 41.3319 42.2484 44.0218 42.8526 46.6394C43.1547 47.9489 43.7609 49.1744 43.9424 50.5135C43.6367 50.4713 43.4287 50.4441 43.2052 50.2219C43.1704 50.1873 43.1367 50.1514 43.1041 50.1148C41.5384 48.3404 41.0669 42.3667 40.5533 39.8998C40.2541 38.4621 39.817 37.0165 39.3615 35.6205C38.7463 33.7347 36.8452 29.6524 36.814 27.8481Z" fill="#231A1A"/>
<path d="M38.9609 50.2729C39.0581 50.3516 39.1237 50.4201 39.1819 50.5371C39.7746 51.7277 40.9682 61.7988 40.6394 62.8854C40.3854 62.7255 40.1915 62.6047 40.0469 62.3322C38.9642 60.2948 38.3041 52.4948 38.9609 50.2729Z" fill="#231A1A"/>
<path d="M38.3042 49.1699C38.3462 49.3844 38.3579 49.3036 38.2966 49.5023C37.4995 52.0912 37.0323 54.9478 37.1318 57.6543C37.1549 58.2837 37.187 58.9272 37.2868 59.5496C37.3865 60.1713 38.0001 61.5216 37.7989 62.0776C37.5269 61.9938 37.479 61.8586 37.3081 61.6432C36.4894 60.2131 35.9335 58.6902 35.8302 57.0342C35.6714 54.4873 36.5902 51.1 38.3042 49.1699Z" fill="#231A1A"/>
<path d="M49.5444 45.4653C49.6619 45.5064 49.7037 45.5136 49.8117 45.5824C50.9058 46.2768 57.758 53.7936 57.9675 54.9984C57.6919 54.9095 57.4624 54.7808 57.2317 54.6078C55.2457 53.1182 49.8495 47.8226 49.5444 45.4653Z" fill="#231A1A"/>
<path d="M32.3649 52.8853C32.5253 52.9308 32.4341 52.8882 32.6046 53.0692C32.4604 53.6045 30.9077 54.9793 30.4569 55.4514C28.7406 57.2499 27.1376 59.1507 25.5123 61.0309L25.376 61.0817L25.1572 60.9575C25.1884 60.8169 25.2239 60.6772 25.2632 60.5384C26.238 57.1279 29.4116 54.5507 32.3649 52.8853Z" fill="#231A1A"/>
<path d="M56.0029 41.3742C57.0983 41.244 58.3362 41.4488 59.4094 41.6674C61.1853 42.029 65.2708 43.2372 66.2941 44.7933C64.835 44.3771 56.5842 42.0925 56.0029 41.3742Z" fill="#231A1A"/>
<path d="M46.7627 46.0996C47.7997 46.4075 49.3127 48.9755 50.1554 49.8353C51.6075 51.3168 53.2836 52.5749 54.7442 54.0517C54.527 54.0034 54.5706 54.0216 54.3819 53.9511C51.0687 52.7112 48.2202 49.2199 46.7627 46.0996Z" fill="#231A1A"/>
<path d="M2.97939 3.29346C3.23116 3.40565 3.39312 3.52274 3.58465 3.72448C4.50078 4.68945 4.69967 6.03425 4.69469 7.30929C4.31415 7.08217 3.99939 6.86025 3.73017 6.49982C3.08107 5.63081 2.83243 4.36042 2.97939 3.29346Z" fill="#F8AED8"/>
<path d="M25.9369 66.2051C25.6604 66.9306 25.3572 67.6527 25.1793 68.4101L24.9179 68.2445C24.8276 68.3782 24.7804 68.4572 24.7312 68.614C24.667 68.0464 24.596 67.4795 24.5181 66.9137C24.994 66.6846 25.4643 66.4414 25.9369 66.2051Z" fill="#EE6ACD"/>
<defs>
<linearGradient id="paint0_linear_209_395" x1="104.007" y1="113.509" x2="123.014" y2="100.302" gradientUnits="userSpaceOnUse">
<stop stop-color="#F790CE"/>
<stop offset="1" stop-color="#F8B1DD"/>
</linearGradient>
<linearGradient id="paint1_linear_209_395" x1="52.4827" y1="105.311" x2="42.9223" y2="110.719" gradientUnits="userSpaceOnUse">
<stop stop-color="#FB93D4"/>
<stop offset="1" stop-color="#FFA9DF"/>
</linearGradient>
<linearGradient id="paint2_linear_209_395" x1="65.7378" y1="50.904" x2="67.5546" y2="50.1656" gradientUnits="userSpaceOnUse">
<stop stop-color="#2A0407"/>
<stop offset="1" stop-color="#1E1513"/>
</linearGradient>
<linearGradient id="paint3_linear_209_395" x1="138.47" y1="174.98" x2="136.775" y2="177.045" gradientUnits="userSpaceOnUse">
<stop stop-color="#241213"/>
<stop offset="1" stop-color="#2F0611"/>
</linearGradient>
<linearGradient id="paint4_linear_209_395" x1="201.298" y1="176.94" x2="202.206" y2="178.89" gradientUnits="userSpaceOnUse">
<stop stop-color="#2A1012"/>
<stop offset="1" stop-color="#1B1D1D"/>
</linearGradient>
<linearGradient id="paint5_linear_209_395" x1="131.389" y1="173.278" x2="129.726" y2="174.929" gradientUnits="userSpaceOnUse">
<stop stop-color="#241617"/>
<stop offset="1" stop-color="#240515"/>
</linearGradient>
<linearGradient id="paint6_linear_209_395" x1="98.1369" y1="155.694" x2="95.3967" y2="158.233" gradientUnits="userSpaceOnUse">
<stop stop-color="#241413"/>
<stop offset="1" stop-color="#1C1B1E"/>
</linearGradient>
</defs>
</svg>
