<svg width="199" height="369" viewBox="0 0 199 369" fill="none" xmlns="http://www.w3.org/2000/svg">
<path d="M19.5495 35.2702C20.645 35.7984 21.6738 36.9322 22.6791 37.6562C23.9723 38.5875 25.5488 39.3221 27.007 39.952C40.1708 45.6356 60.526 46.4818 74.6294 45.4448C92.0962 44.1602 118.92 40.0702 133.312 29.4497C135.507 27.8302 137.273 25.9002 139.047 23.8494C139.074 23.8997 139.102 23.95 139.128 24.0012L139.259 24.2567C140.45 26.5513 141.191 29.156 142.088 31.5811C143.596 35.6325 145.138 39.6707 146.715 43.6952C150.934 54.4016 155.045 65.1499 159.047 75.9388C162.749 85.8517 166.718 96.0719 168.684 106.503C168.338 106.212 167.986 105.928 167.628 105.652C151.217 92.8739 107.681 94.9848 88.1911 97.3929C65.3252 100.013 45.0264 104.979 24.1521 114.852C23.823 100.96 24.2583 87.2505 24.8778 73.3777C25.1877 66.447 25.6248 59.531 25.7402 52.5913C25.7784 50.3129 26.049 47.6209 25.6594 45.4116L25.3713 45.2161L24.932 45.4498C24.6413 45.9585 24.5482 46.3792 24.4956 46.9627C24.3682 48.3677 24.5506 49.8351 24.5173 51.249C24.432 54.8572 24.1924 58.489 24.0212 62.0958C23.5113 72.8379 22.7466 83.6538 22.5711 94.4002C22.4173 101.436 22.5051 108.474 22.8344 115.504C19.0664 117.458 15.7611 119.368 12.8431 122.485C12.6649 113.849 13.3946 105.268 14.2082 96.682C16.1486 76.2054 19.4816 55.8844 19.5495 35.2702Z" fill="#FFB0E1"/>
<path d="M130.696 36.7752C131.654 36.6625 132.593 36.5974 133.518 36.9313C137.987 38.5432 144.565 53.1547 146.574 57.8331C149.911 65.6031 156.499 83.2107 153.387 91.0266C153.07 91.2915 152.802 91.4981 152.406 91.6328C151.857 91.8201 151.477 91.7713 150.973 91.4677C146.03 88.4863 134.647 58.7261 132.621 52.0245C131.513 48.3596 128.894 40.1279 130.696 36.7752Z" fill="#29040F"/>
<path d="M131.757 37.7673C134.506 38.5603 136.25 41.1102 137.673 43.4455C143.748 53.4217 154.96 78.6188 152.254 89.9134C151.988 90.028 151.868 90.0213 151.585 90.0178C149.748 88.6317 148.321 85.5362 147.209 83.4965C143.064 75.8869 129.475 45.4872 131.757 37.7673Z" fill="#FDC9E7"/>
<path d="M13.1916 128.1C16.5266 132.366 20.5353 134.181 25.5829 135.753C26.6072 141.655 28.5225 147.937 31.5619 153.096C38.2552 164.461 48.5693 172.471 60.484 177.848C62.176 178.611 63.9917 179.207 65.722 179.886C69.073 181.203 72.4966 182.656 75.9943 183.534C76.8685 183.754 78.1032 184.201 78.9066 183.719C78.9741 182.865 78.1384 182.053 77.5795 181.49C76.0292 179.93 74.2426 178.615 72.7054 177.035C62.4425 166.484 53.4618 154.313 48.1245 140.503C53.608 141.284 59.1774 141.447 64.7077 141.559C92.305 142.119 122.4 137.219 147.689 126.017C151.39 124.377 155.146 122.829 158.581 120.668C162.731 118.138 166.585 115.278 169.193 111.122C171.365 128.95 166.544 145.027 155.542 159.135C152.514 163.067 149.117 166.7 145.397 169.985C133.938 179.948 113.816 190.974 98.6066 192.779C85.9613 194.279 62.1812 186.095 50.7855 180.607C45.249 177.94 39.9426 174.829 35.1228 171.002C21.0346 159.815 15.1881 145.569 13.1916 128.1Z" fill="#CE689B"/>
<path d="M151.964 127.701C152.261 127.793 152.358 127.87 152.592 128.062C153.271 130.774 150.349 137.207 149.155 139.669C143.299 151.746 131.467 161.039 120.41 168.2C116.736 170.578 112.89 173.03 108.741 174.468L108.323 174.335L108.226 174.068C109.182 173.276 112.891 171.661 114.454 170.701C127.426 162.732 141.926 152.723 148.546 138.532C150.173 135.044 151.073 131.424 151.964 127.701Z" fill="#29040F"/>
<path d="M101.695 309.063C101.992 308.985 102.282 308.973 102.586 308.947L102.751 309.178C102.024 314.304 100.354 320.195 97.5711 324.628C96.5201 326.302 94.7046 328.165 94.1109 330.041C93.9183 330.649 94.1433 331.356 94.4156 331.906C95.4386 333.97 98.0823 335.138 100.15 335.879C107.548 338.531 118.473 337.463 125.475 334.07C128.119 332.788 132.643 329.877 133.569 326.918C133.737 326.382 133.799 325.713 133.503 325.23C132.412 323.443 130.494 321.939 129.188 320.262C126.06 316.246 123.453 311.9 121.146 307.372C127.34 307.39 133.333 307.109 139.524 307.735C149.501 308.745 165.555 311.989 172.05 320.089C173.643 322.074 174.471 324.365 174.14 326.925C173.327 333.195 168.291 338.028 163.562 341.709C154.026 349.127 142.085 354.021 130.486 357.137C110.816 362.421 82.4788 363.067 64.3571 352.512C60.1508 350.063 55.7774 346.427 54.5858 341.477C53.7225 337.891 54.8864 334.366 56.8226 331.35C64.45 319.47 88.4564 311.959 101.695 309.063Z" fill="#FFB2E5"/>
<path d="M67.4188 323.475C67.4702 323.564 67.5731 323.64 67.573 323.743C67.5729 323.853 64.5248 327.504 63.9217 328.501C62.6272 330.642 61.6957 333.212 61.5204 335.718C61.3057 338.796 62.3832 341.666 64.395 343.968C71.1478 351.692 85.4025 354.369 95.2151 354.993C112.827 356.112 131.314 352.969 147.326 345.492C152.953 342.865 158.449 339.657 162.864 335.24C165.256 332.847 167.511 330.076 168.813 326.92C169.35 325.616 169.245 322.762 170.16 321.954L170.471 322.12C170.775 322.882 170.804 323.512 170.824 324.327L170.718 325.039C169.716 331.609 164.125 336.7 158.997 340.443C143.727 351.59 122.217 356.109 103.648 356.589C98.2063 356.73 92.6291 356.636 87.2476 355.758C79.3069 354.463 67.352 351.147 62.5192 344.344C60.4617 341.448 59.481 337.966 60.1322 334.436C60.9396 330.06 63.7817 325.965 67.4188 323.475Z" fill="#29040F"/>
<path d="M73.7798 322.291L73.8757 322.369C73.9728 322.958 69.6635 328.046 68.9477 329.449C67.7508 331.796 67.2653 334.532 68.1606 337.067C70.0598 342.444 76.1133 345.896 81.2367 347.543C82.821 348.053 84.8102 348.293 86.2809 349.013C86.6651 349.201 86.5425 349.067 86.6754 349.461L86.1927 349.676C85.7557 349.642 85.3199 349.595 84.8862 349.535C78.8297 348.722 72.2995 346.005 68.5291 341.002C66.7401 338.628 65.8601 335.95 66.3566 332.963C67.0553 328.759 70.3717 324.679 73.7798 322.291Z" fill="#29040F"/>
<path d="M142.419 311.414C142.687 311.356 142.731 311.338 143.045 311.319C149.296 310.935 157.815 313.166 162.515 317.427C164.127 318.888 165.509 320.802 165.622 323.033C164.791 323.001 164.201 321.701 163.738 321.055C161.979 318.599 159.773 316.991 157.049 315.717C155.161 314.833 153.138 314.157 151.121 313.639C149.552 313.237 143.78 312.442 142.862 311.842C142.69 311.729 142.567 311.557 142.419 311.414Z" fill="#29040F"/>
<path d="M141.77 314.926C145.075 314.242 150.229 316.325 153.284 317.57C157.023 319.095 161.338 322.002 162.963 325.862C162.702 325.849 162.43 325.899 162.18 325.825C161.189 325.532 158.617 322.149 157.42 321.337C152.244 317.825 147.167 317.432 141.946 315.01C141.887 314.983 141.829 314.954 141.77 314.926Z" fill="#29040F"/>
<path d="M77.8524 100.118C99.8767 96.422 137.998 94.6583 158.976 102.524C162.506 103.848 166.533 105.542 168.172 109.172C167.471 111.859 165.585 113.804 163.475 115.502C158.035 119.877 151.443 122.878 145.064 125.594C115.232 138.29 79.4964 142.337 47.3626 139.028C47.04 137.924 46.6461 136.837 46.2758 135.748C55.315 136.899 64.5963 137.031 73.6864 136.639C83.6399 136.171 93.4973 135.294 103.322 133.552C118.874 130.796 135.374 126.029 149.472 118.811C150.624 118.222 153.455 117.068 154.082 116.01C154.255 115.718 154.208 115.784 154.12 115.467C152.773 115.24 143.304 120.427 141.175 121.297C132.46 124.836 123.503 127.744 114.372 130.001C91.9915 135.505 68.8027 136.93 45.9173 134.207C43.2809 126.232 41.6472 117.83 40.0799 109.589C53.1322 104.945 64.1916 102.372 77.8524 100.118Z" fill="#A45B88"/>
<path d="M69.3743 10.5742C85.191 7.79063 120.78 6.55224 134.606 16.0025C136.085 17.0138 137.992 18.7519 138.28 20.5925C138.474 21.8299 137.859 23.0086 137.136 23.9678C129.079 34.6719 101.868 40.7819 89.0959 42.6222C72.6299 45.0476 38.2769 46.1599 24.0009 36.7631C22.4491 35.7416 20.2661 34.3064 19.9296 32.3392C19.7581 31.3352 20.1433 30.3776 20.7133 29.5672C21.7228 28.1316 23.2707 26.9495 24.6536 25.8915C35.9535 17.2472 55.5552 12.9738 69.3743 10.5742Z" fill="#FDC9E7"/>
<path d="M92.9942 11.5013C100.49 11.188 107.754 12.0696 115.055 13.7446C118.467 14.5274 124.903 16.0859 126.81 19.3478C127.373 20.3113 127.458 21.4688 127.174 22.5344C126.454 25.2354 123.666 27.2036 121.342 28.5003C104.21 38.0577 57.7596 42.851 38.9613 37.4302C36.9056 36.8374 34.3722 35.9149 33.3373 33.8931C32.8559 32.9528 32.812 31.9361 33.1838 30.951C34.4354 27.6339 38.9377 25.5455 41.9132 24.1034C42.9288 23.6874 44.0321 23.1093 45.1505 23.2723C44.4831 24.5778 40.2401 26.2804 38.8543 27.1427C37.2006 28.1718 34.7864 29.8327 34.3959 31.8571C34.2686 32.5154 34.4244 33.1433 34.8243 33.6771C36.9363 36.4966 43.7444 37.3152 46.9492 37.6953C55.671 38.7309 64.7934 38.5021 73.5387 37.8911C86.2626 37.0014 113.488 33.3417 123.405 25.4161C124.492 24.5478 125.653 23.4108 125.769 21.946C125.843 20.9996 125.504 20.1636 124.893 19.45C121.414 15.3867 107.539 13.3922 102.071 12.9851C99.9697 12.8287 97.8334 12.6389 95.7282 12.5953C95.06 12.5815 94.357 12.7273 93.7012 12.6582C93.2396 12.6095 93.2082 12.5612 92.9252 12.2227L92.9942 11.5013Z" fill="#29040F"/>
<path d="M104.492 193.57L104.776 193.528C105.261 194.773 104.422 197.961 104.32 199.391C102.951 218.639 107.019 243.031 109.746 262.279C110.732 269.516 111.851 276.734 113.105 283.93C114.269 290.667 115.473 297.648 117.911 304.058C121.141 312.555 126.111 319.31 132.014 326.125C131.414 327.119 130.698 328.079 129.89 328.913C124.545 334.433 116.046 335.462 108.754 335.621C105.28 335.425 101.671 334.906 98.5034 333.379C97.2656 332.782 96.2848 332.129 95.8282 330.796C96.1209 328.648 99.0642 325.956 100.109 323.828C103.686 316.544 105.274 307.852 105.813 299.798C106.551 288.773 105.424 277.397 104.538 266.395C103.743 255.598 102.616 244.828 101.157 234.101C99.4508 220.906 97.4316 207.583 93.1737 194.949C97.0208 195.351 100.789 194.516 104.492 193.57Z" fill="#FFB2E5"/>
<path d="M108.89 307.787L109.284 308.025C109.973 309.498 106.561 319.07 107.316 322.818C107.768 324.971 109.051 326.86 110.887 328.073C114.326 330.374 118.572 330.378 122.384 329.114C123.601 328.711 124.711 328.108 125.979 327.859L126.012 328.139L125.348 328.853C124.378 329.502 123.373 330.059 122.272 330.454C118.843 331.687 114.99 331.657 111.674 330.082C109.047 328.835 107.1 326.669 106.201 323.893C105.002 320.195 107.119 311.261 108.89 307.787Z" fill="#29040F"/>
<path d="M27.0049 136.142C33.3008 138.337 39.9098 139.538 46.512 140.381C51.3591 152.738 58.548 164.042 67.6831 173.672C70.6013 176.747 73.7728 179.568 76.8825 182.446C71.4766 182.072 56.7122 174.414 51.6079 171.302C37.9562 162.979 30.7309 151.44 27.0049 136.142Z" fill="#FFC4E4"/>
<path d="M38.7015 110.073L38.8746 110.104C39.4084 110.798 39.7482 115.067 39.9889 116.302C41.1287 122.242 42.6313 128.107 44.4889 133.863C40.4084 133.254 36.4393 132.487 32.4316 131.505C30.207 130.954 28.0104 130.281 25.8097 129.642C25.1851 125.284 24.5261 120.802 24.3108 116.404C28.9729 114 33.7792 111.885 38.7015 110.073Z" fill="#FFC4E4"/>
<path d="M22.7672 117.039L22.9671 117.181C23.369 118.67 23.3194 120.42 23.4612 121.962C23.6862 124.405 23.9974 126.839 24.3944 129.261C22.5558 128.777 20.7143 128.303 18.8704 127.84C20.693 129.174 22.6956 130.101 24.7692 130.973C24.8816 132.049 25.1221 133.123 25.3196 134.187L22.2567 133.071C19.3859 131.833 15.5638 129.811 13.8428 127.098C13.3963 126.394 13.1482 125.573 13.3587 124.745C14.1453 121.651 20.1914 118.461 22.7672 117.039Z" fill="#A45B88"/>
<path d="M26.0742 131.196C28.4094 131.779 30.6783 132.737 32.9785 133.457C36.9321 134.695 40.8357 135.393 44.9447 135.791C45.3732 136.811 45.6788 137.888 46.0178 138.941C39.4245 138.212 32.9318 136.756 26.6589 134.6L26.0742 131.196Z" fill="#FFC4E4"/>
</svg>
