<svg width="375" height="375" viewBox="0 0 375 375" fill="none" xmlns="http://www.w3.org/2000/svg">
<g clip-path="url(#clip0_589_5)">
<path d="M187.5 141C178.303 141 169.313 143.727 161.666 148.837C154.019 153.946 148.059 161.209 144.54 169.705C141.02 178.202 140.099 187.552 141.894 196.572C143.688 205.592 148.117 213.877 154.62 220.38C161.123 226.883 169.408 231.312 178.428 233.106C187.448 234.901 196.798 233.98 205.295 230.46C213.791 226.941 221.054 220.981 226.163 213.334C231.273 205.687 234 196.697 234 187.5C234 181.393 232.797 175.347 230.46 169.705C228.123 164.064 224.699 158.937 220.38 154.62C216.063 150.301 210.936 146.876 205.295 144.54C199.653 142.203 193.607 141 187.5 141ZM373.687 95.0625C373.589 80.583 370.923 66.236 365.812 52.6875C362.049 42.7736 356.226 33.7705 348.728 26.2722C341.229 18.7739 332.226 12.9509 322.313 9.1875C308.764 4.07745 294.417 1.41114 279.937 1.3125C255.75 -1.25247e-06 248.625 0 187.5 0C126.375 0 119.25 -1.25247e-06 95.0625 1.3125C80.583 1.41114 66.236 4.07745 52.6875 9.1875C42.7736 12.9509 33.7705 18.7739 26.2722 26.2722C18.7739 33.7705 12.9509 42.7736 9.1875 52.6875C4.07745 66.236 1.41114 80.583 1.3125 95.0625C-1.25247e-06 119.25 0 126.375 0 187.5C0 248.625 -1.25247e-06 255.75 1.3125 279.937C1.51432 294.468 4.17702 308.859 9.1875 322.5C12.9343 332.368 18.7524 341.32 26.25 348.75C33.7161 356.293 42.7386 362.116 52.6875 365.812C66.236 370.923 80.583 373.589 95.0625 373.687C119.25 375 126.375 375 187.5 375C248.625 375 255.75 375 279.937 373.687C294.417 373.589 308.764 370.923 322.313 365.812C332.262 362.116 341.284 356.293 348.75 348.75C356.247 341.32 362.066 332.368 365.812 322.5C370.918 308.886 373.583 294.478 373.687 279.937C375 255.75 375 248.625 375 187.5C375 126.375 375 119.25 373.687 95.0625ZM326.062 245.062C325.461 256.633 322.991 268.031 318.75 278.812C315.11 287.807 309.699 295.977 302.838 302.838C295.977 309.699 287.807 315.11 278.812 318.75C267.928 322.755 256.468 324.971 244.875 325.312C230.062 325.312 226.125 325.312 187.5 325.312C148.875 325.312 144.937 325.312 130.125 325.312C118.532 324.971 107.072 322.755 96.1875 318.75C86.8894 315.295 78.4927 309.782 71.625 302.625C64.831 295.898 59.5846 287.772 56.25 278.812C52.2292 267.939 50.0739 256.466 49.875 244.875C49.875 230.062 49.875 226.125 49.875 187.5C49.875 148.875 49.875 144.937 49.875 130.125C50.0739 118.534 52.2292 107.061 56.25 96.1875C59.7053 86.8894 65.2177 78.4927 72.375 71.625C79.1315 64.8679 87.2489 59.6267 96.1875 56.25C107.072 52.2451 118.532 50.0289 130.125 49.6875C144.937 49.6875 148.875 49.6875 187.5 49.6875C226.125 49.6875 230.062 49.6875 244.875 49.6875C256.468 50.0289 267.928 52.2451 278.812 56.25C288.111 59.7053 296.507 65.2177 303.375 72.375C310.169 79.1017 315.416 87.2276 318.75 96.1875C322.755 107.072 324.971 118.532 325.312 130.125C325.312 144.937 325.312 148.875 325.312 187.5C325.312 226.125 326.625 230.062 326.062 244.875V245.062ZM296.062 105.562C293.83 99.5062 290.31 94.006 285.746 89.4414C281.181 84.8774 275.681 81.3575 269.625 79.125C261.309 76.2427 252.55 74.8461 243.75 75C229.125 75 225 75 187.5 75C150 75 145.875 75 131.25 75C122.405 75.0866 113.645 76.7366 105.375 79.875C99.4112 82.006 93.9692 85.3823 89.411 89.7789C84.8528 94.1754 81.2825 99.492 78.9375 105.375C76.2149 113.726 74.8843 122.467 75 131.25C75 145.875 75 150 75 187.5C75 225 75 229.125 75 243.75C75.1862 252.585 76.833 261.328 79.875 269.625C82.1075 275.681 85.6274 281.181 90.1914 285.746C94.756 290.31 100.256 293.83 106.313 296.062C114.312 299.005 122.731 300.65 131.25 300.937C145.875 300.937 150 300.937 187.5 300.937C225 300.937 229.125 300.937 243.75 300.937C252.595 300.851 261.355 299.201 269.625 296.062C275.681 293.83 281.181 290.31 285.746 285.746C290.31 281.181 293.83 275.681 296.062 269.625C299.201 261.355 300.851 252.595 300.937 243.75C300.937 229.125 300.937 225 300.937 187.5C300.937 150 300.937 145.875 300.937 131.25C300.943 122.396 299.289 113.62 296.062 105.375V105.562ZM187.5 259.125C178.103 259.125 168.798 257.271 160.119 253.669C151.439 250.067 143.556 244.788 136.92 238.135C130.283 231.482 125.026 223.585 121.446 214.896C117.868 206.207 116.038 196.897 116.062 187.5C116.062 173.326 120.268 159.471 128.147 147.688C136.025 135.905 147.222 126.725 160.322 121.309C173.42 115.894 187.831 114.486 201.73 117.265C215.629 120.044 228.391 126.884 238.4 136.92C248.41 146.956 255.217 159.736 257.959 173.642C260.701 187.548 259.256 201.956 253.806 215.04C248.357 228.124 239.147 239.298 227.344 247.145C215.54 254.993 201.674 259.162 187.5 259.125ZM262.5 129.937C258.355 129.498 254.52 127.541 251.732 124.443C248.944 121.345 247.401 117.324 247.401 113.156C247.401 108.989 248.944 104.968 251.732 101.869C254.52 98.7711 258.355 96.814 262.5 96.375C266.645 96.814 270.48 98.7711 273.268 101.869C276.056 104.968 277.599 108.989 277.599 113.156C277.599 117.324 276.056 121.345 273.268 124.443C270.48 127.541 266.645 129.498 262.5 129.937Z" fill="#DA3027"/>
</g>
<defs>
<clipPath id="clip0_589_5">
<rect width="375" height="375" fill="white"/>
</clipPath>
</defs>
</svg>
