<svg width="58" height="58" viewBox="0 0 58 58" fill="none" xmlns="http://www.w3.org/2000/svg">
<path d="M29 21.808C27.5776 21.808 26.1871 22.2298 25.0043 23.0201C23.8216 23.8103 22.8998 24.9336 22.3555 26.2477C21.8111 27.5619 21.6687 29.008 21.9462 30.4031C22.2237 31.7982 22.9087 33.0797 23.9145 34.0855C24.9203 35.0913 26.2018 35.7763 27.5969 36.0538C28.992 36.3313 30.4381 36.1889 31.7523 35.6445C33.0664 35.1002 34.1897 34.1784 34.9799 32.9957C35.7702 31.8129 36.192 30.4224 36.192 29C36.192 28.0555 36.006 27.1203 35.6445 26.2477C35.2831 25.3752 34.7534 24.5823 34.0855 23.9145C33.4177 23.2466 32.6248 22.7169 31.7523 22.3555C30.8797 21.994 29.9445 21.808 29 21.808ZM57.797 14.703C57.7817 12.4635 57.3694 10.2445 56.579 8.149C55.9969 6.61565 55.0963 5.22317 53.9366 4.06344C52.7768 2.9037 51.3843 2.00308 49.851 1.421C47.7555 0.630645 45.5365 0.218257 43.297 0.203C39.556 -1.9446e-07 38.454 0 29 0C19.546 0 18.444 -1.9446e-07 14.703 0.203C12.4635 0.218257 10.2445 0.630645 8.149 1.421C6.61565 2.00308 5.22317 2.9037 4.06344 4.06344C2.9037 5.22317 2.00308 6.61565 1.421 8.149C0.630645 10.2445 0.218257 12.4635 0.203 14.703C-1.9446e-07 18.444 0 19.546 0 29C0 38.454 -1.9446e-07 39.556 0.203 43.297C0.234215 45.5444 0.646046 47.7702 1.421 49.88C2.0005 51.4063 2.90037 52.7908 4.06 53.94C5.21476 55.1067 6.61023 56.0073 8.149 56.579C10.2445 57.3694 12.4635 57.7817 14.703 57.797C18.444 58 19.546 58 29 58C38.454 58 39.556 58 43.297 57.797C45.5365 57.7817 47.7555 57.3694 49.851 56.579C51.3898 56.0073 52.7852 55.1067 53.94 53.94C55.0996 52.7908 55.9995 51.4063 56.579 49.88C57.3686 47.7743 57.7809 45.5459 57.797 43.297C58 39.556 58 38.454 58 29C58 19.546 58 18.444 57.797 14.703ZM50.431 37.903C50.3379 39.6926 49.956 41.4554 49.3 43.123C48.737 44.5141 47.9001 45.7778 46.8389 46.8389C45.7778 47.9001 44.5141 48.737 43.123 49.3C41.4396 49.9194 39.667 50.2622 37.874 50.315C35.583 50.315 34.974 50.315 29 50.315C23.026 50.315 22.417 50.315 20.126 50.315C18.333 50.2622 16.5604 49.9194 14.877 49.3C13.4389 48.7656 12.1402 47.913 11.078 46.806C10.0272 45.7656 9.21575 44.5088 8.7 43.123C8.07812 41.4413 7.74476 39.6667 7.714 37.874C7.714 35.583 7.714 34.974 7.714 29C7.714 23.026 7.714 22.417 7.714 20.126C7.74476 18.3333 8.07812 16.5587 8.7 14.877C9.23442 13.4389 10.087 12.1402 11.194 11.078C12.239 10.0329 13.4945 9.22227 14.877 8.7C16.5604 8.08058 18.333 7.73781 20.126 7.685C22.417 7.685 23.026 7.685 29 7.685C34.974 7.685 35.583 7.685 37.874 7.685C39.667 7.73781 41.4396 8.08058 43.123 8.7C44.5611 9.23442 45.8598 10.087 46.922 11.194C47.9728 12.2344 48.7843 13.4912 49.3 14.877C49.9194 16.5604 50.2622 18.333 50.315 20.126C50.315 22.417 50.315 23.026 50.315 29C50.315 34.974 50.518 35.583 50.431 37.874V37.903ZM45.791 16.327C45.4457 15.3903 44.9013 14.5396 44.1954 13.8336C43.4894 13.1277 42.6387 12.5833 41.702 12.238C40.4158 11.7922 39.0611 11.5762 37.7 11.6C35.438 11.6 34.8 11.6 29 11.6C23.2 11.6 22.562 11.6 20.3 11.6C18.932 11.6134 17.5771 11.8686 16.298 12.354C15.3756 12.6836 14.5339 13.2058 13.8289 13.8858C13.1239 14.5658 12.5717 15.3881 12.209 16.298C11.7879 17.5896 11.5821 18.9416 11.6 20.3C11.6 22.562 11.6 23.2 11.6 29C11.6 34.8 11.6 35.438 11.6 37.7C11.6288 39.0665 11.8835 40.4188 12.354 41.702C12.6993 42.6387 13.2437 43.4894 13.9496 44.1954C14.6556 44.9013 15.5063 45.4457 16.443 45.791C17.6803 46.2461 18.9824 46.5006 20.3 46.545C22.562 46.545 23.2 46.545 29 46.545C34.8 46.545 35.438 46.545 37.7 46.545C39.068 46.5316 40.4229 46.2764 41.702 45.791C42.6387 45.4457 43.4894 44.9013 44.1954 44.1954C44.9013 43.4894 45.4457 42.6387 45.791 41.702C46.2764 40.4229 46.5316 39.068 46.545 37.7C46.545 35.438 46.545 34.8 46.545 29C46.545 23.2 46.545 22.562 46.545 20.3C46.5458 18.9306 46.2901 17.5732 45.791 16.298V16.327ZM29 40.078C27.5466 40.078 26.1074 39.7913 24.765 39.2342C23.4226 38.6771 22.2033 37.8606 21.1769 36.8316C20.1505 35.8025 19.3373 34.5811 18.7837 33.2372C18.2302 31.8933 17.9472 30.4534 17.951 29C17.951 26.8077 18.6015 24.6648 19.82 22.8424C21.0386 21.02 22.7704 19.6001 24.7964 18.7625C26.8223 17.9249 29.0512 17.7072 31.2009 18.137C33.3506 18.5668 35.3245 19.6248 36.8726 21.177C38.4207 22.7292 39.4735 24.7058 39.8977 26.8566C40.3218 29.0074 40.0983 31.2358 39.2554 33.2595C38.4125 35.2832 36.9881 37.0114 35.1625 38.2251C33.3369 39.4389 31.1922 40.0837 29 40.078ZM40.6 20.097C39.9589 20.0291 39.3657 19.7264 38.9345 19.2472C38.5033 18.768 38.2647 18.1461 38.2647 17.5015C38.2647 16.8569 38.5033 16.235 38.9345 15.7558C39.3657 15.2766 39.9589 14.9739 40.6 14.906C41.2411 14.9739 41.8343 15.2766 42.2655 15.7558C42.6967 16.235 42.9353 16.8569 42.9353 17.5015C42.9353 18.1461 42.6967 18.768 42.2655 19.2472C41.8343 19.7264 41.2411 20.0291 40.6 20.097Z" fill="#390A14"/>
</svg>
