<svg width="186" height="189" viewBox="0 0 186 189" fill="none" xmlns="http://www.w3.org/2000/svg">
<path d="M110.558 47.1395C111.899 46.052 113.115 44.7684 114.393 43.6049C119.068 39.4108 123.547 35.0038 127.817 30.3979C129.219 28.9106 130.595 27.3992 131.945 25.8649C132.796 24.9105 133.654 23.7776 134.647 22.9719C137.677 26.4446 140.903 31.6416 143.321 35.59C153.189 51.3998 160.773 68.5246 165.85 86.4565C166.344 88.2303 168.009 93.4952 167.957 95.0047C167.939 95.5203 167.641 96.0055 167.346 96.4103C166.744 97.2342 165.946 97.9633 165.237 98.6952C163.997 99.9774 162.749 101.252 161.492 102.518C155.573 108.544 149.403 114.318 143 119.827C132.902 128.53 122.354 136.614 111.796 144.742C105.975 149.222 100.218 153.776 94.3048 158.137C79.6064 168.904 64.4813 179.075 48.9661 188.627L46.0439 180.162C45.557 178.725 45.1629 177.139 44.5394 175.764C44.1817 175.475 41.45 167.473 41.3371 166.623L41.4851 166.627L37.5413 154.839C39.6531 154.327 41.1393 153.325 42.2792 151.464C44.426 147.96 44.6525 143.934 43.7049 140.006C42.7321 135.973 40.2838 131.937 36.6757 129.761C34.0028 128.149 31.3513 127.673 28.3231 128.426C27.4212 125.916 26.5835 123.383 25.8107 120.829C29.5811 118.022 33.5343 115.468 37.2969 112.638C38.2453 111.924 39.7959 111.012 40.5339 110.163C40.6525 110.027 40.6268 110.098 40.6167 109.926C39.758 110.159 35.7395 113.274 34.7166 114L25.6596 120.403C25.516 119.94 25.1862 119.245 25.2696 118.771L25.3193 118.596C27.31 117.006 29.4489 115.621 31.53 114.156C34.8149 111.845 38.1057 109.494 41.3372 107.11C42.8375 106.003 51.6237 98.8231 52.423 98.671C52.7617 98.4481 53.0596 98.1625 53.364 97.8953L53.303 97.7687C54.7346 96.382 56.4906 95.2261 58.0333 93.9564L67.8023 85.7778C68.6198 85.0916 71.1634 82.5488 72.0773 82.3377C73.1257 81.6908 74.8568 80.0575 75.7462 79.1275C75.921 78.3908 81.5913 73.8699 82.616 72.963C85.9001 70.0562 89.0797 67.0207 92.5646 64.3429C92.7393 64.0307 92.8269 63.7746 92.8861 63.4219L93.1109 63.4584C93.0744 63.2432 93.0058 62.9873 93.0082 62.7708C93.0125 62.3811 95.5506 60.5569 95.9814 60.2012C95.1458 60.356 93.487 61.8946 92.7693 62.4667C92.5147 62.3141 92.2491 62.1685 92.0015 62.0053L91.5557 61.7285L91.4287 61.6945L91.5414 61.48C90.8102 61.4937 90.0604 61.5152 89.3337 61.4193C89.0074 61.3762 88.5244 61.3077 88.325 61.0149C88.1027 60.6884 88.1309 60.3096 88.212 59.9394C88.9056 56.7744 92.8599 53.5108 95.4223 51.8393C97.6072 50.4142 104.399 47.5299 106.92 48.0553L107.292 47.9826C107.565 47.7641 107.55 47.7438 107.894 47.7658C108.264 48.062 108.302 48.3687 108.373 48.8176C108.396 48.9668 108.433 49.1034 108.481 49.2464L108.93 48.8891C108.979 48.7554 108.99 48.7093 109.067 48.5766C109.198 48.3484 109.409 48.2217 109.652 48.142C109.766 47.9706 109.87 47.8952 110.043 47.7863L110.047 47.6454C110.181 47.3709 110.31 47.2983 110.558 47.1395Z" fill="url(#paint0_linear_209_640)"/>
<path d="M91.5415 61.4801C90.8103 61.4938 90.0606 61.5154 89.3338 61.4194C89.0075 61.3763 88.5246 61.3079 88.3251 61.0151C88.1028 60.6885 88.131 60.3097 88.2122 59.9396C88.9057 56.7745 92.86 53.5109 95.4225 51.8394C97.6073 50.4144 104.399 47.53 106.92 48.0554L107.293 47.9827C107.565 47.7642 107.55 47.7439 107.894 47.7659C108.264 48.0622 108.302 48.3688 108.373 48.8177C108.397 48.967 108.433 49.1035 108.481 49.2466C107.204 50.5464 98.7767 57.1855 98.6284 57.9747C97.9182 58.6953 96.8525 59.7111 95.9815 60.2014C95.146 60.3561 93.4872 61.8947 92.7695 62.4669C92.5148 62.3143 92.2493 62.1686 92.0016 62.0055L91.5558 61.7287L91.4288 61.6946L91.5415 61.4801Z" fill="#F47FD6"/>
<path d="M107.293 47.9829C107.566 47.7644 107.55 47.7441 107.894 47.7661C108.264 48.0623 108.302 48.369 108.373 48.8179C108.397 48.9671 108.434 49.1037 108.481 49.2467C107.204 50.5466 98.7768 57.1856 98.6285 57.9748C97.9183 58.6955 96.8527 59.7113 95.9816 60.2015C95.1461 60.3563 93.4873 61.8949 92.7696 62.467C92.5149 62.3144 92.2494 62.1688 92.0018 62.0056L91.5559 61.7288L91.429 61.6948L91.5417 61.4803C92.6368 60.5831 93.6228 59.522 94.7038 58.5975C98.8001 55.1114 102.872 51.5975 106.92 48.0556L107.293 47.9829Z" fill="#752717"/>
<path d="M106.92 48.0557L107.293 47.983C105.012 50.269 102.423 52.2709 99.9792 54.3792C98.2376 55.8811 96.4707 57.3589 94.7447 58.8782C93.6719 59.8229 92.6565 60.8145 91.5559 61.729L91.4289 61.6949L91.5416 61.4804C92.6367 60.5832 93.6228 59.5222 94.7038 58.5976C98.8 55.1115 102.872 51.5977 106.92 48.0557Z" fill="#2E0C05"/>
<path d="M97.2351 52.0163L97.4024 52.076L97.4626 52.2556C96.9614 52.9853 94.1026 54.9796 93.2195 55.6553C93.0916 55.649 93.154 55.6693 93.0384 55.5776C93.6165 54.5078 96.1594 52.7411 97.2351 52.0163Z" fill="#541406"/>
<path d="M91.8937 56.4627C92.0449 56.4359 91.953 56.4387 92.1669 56.5021C91.9689 57.1825 90.4802 58.4384 89.9194 58.9316C89.8019 58.9701 89.8754 58.9621 89.7034 58.8814C89.8774 58.0994 91.2922 56.9851 91.8937 56.4627Z" fill="#541406"/>
<path d="M99.0386 50.7924L100.29 50.3013C99.9615 50.6352 99.6108 50.9374 99.2574 51.2435C98.9268 51.4336 98.6615 51.631 98.2711 51.5713L98.2481 51.4116C98.4413 51.084 98.7114 50.9684 99.0386 50.7924Z" fill="#541406"/>
<path d="M84.4638 73.8857L84.5195 73.8393L84.5268 73.6619C84.1691 73.3762 83.6971 73.3422 83.3345 73.0624L83.4739 72.9447C83.6564 72.9197 83.8267 72.8925 84.0049 72.8433C84.0526 72.8302 84.1002 72.8153 84.1478 72.8014C84.8766 72.7375 85.4642 73.1624 85.9962 73.6166C87.9023 75.2429 88.8241 77.2321 88.98 79.7063C89.2531 84.0456 87.7992 88.3773 86.8919 92.5782C86.1429 96.0457 85.7986 99.8136 86.2105 103.348C86.5548 106.303 87.5157 109.398 88.8386 112.059C90.3686 115.138 92.6359 118.096 93.0756 121.586C93.3122 123.464 92.8972 125.322 91.5993 126.746C90.9525 127.456 89.8622 128.008 88.8956 128.057C87.8667 128.109 86.9461 127.602 86.2164 126.912C83.7417 124.575 82.9975 120.393 82.7518 117.162C82.6408 115.703 82.6741 114.177 82.3656 112.743C82.1575 111.776 81.204 110.947 81.0932 110.037C81.0808 109.935 81.0994 109.897 81.1249 109.809C81.3503 109.723 81.4738 109.791 81.6849 109.884C82.3945 110.198 82.7499 110.981 82.9967 111.676C83.6207 113.433 83.5283 115.471 83.7412 117.309C84.0452 119.931 85.1059 125.367 87.8025 126.636C88.4209 126.926 89.1028 126.978 89.7457 126.734C90.6364 126.396 91.2674 125.573 91.6059 124.71C92.419 122.637 91.7661 120.323 90.88 118.392C90.1064 116.706 89.1008 115.115 88.2214 113.482C86.5625 110.401 85.3429 106.95 84.9665 103.456C84.6107 100.154 84.9115 96.8247 85.4996 93.5686C86.4244 88.4464 90.8107 76.9716 84.4638 73.8857Z" fill="#752717"/>
<path d="M110.044 47.7865L110.047 47.6456C110.181 47.3711 110.31 47.2985 110.559 47.1397C111.204 48.0943 111.825 49.1002 112.535 50.0074C113.821 51.6536 116.098 53.1628 115.708 55.5721C115.597 56.2528 115.161 56.768 114.595 57.135C113.954 57.55 113.145 57.8117 112.381 57.6406C111.623 57.4706 111.069 56.8798 110.693 56.2293C109.781 54.6516 109.786 52.6032 109.373 50.8547C109.435 50.5778 109.429 50.5754 109.305 50.3187C109.097 50.0047 109.017 49.5656 108.912 49.2052L108.93 48.8893C108.979 48.7555 108.991 48.7095 109.067 48.5768C109.199 48.3485 109.41 48.2218 109.652 48.1422C109.766 47.9708 109.87 47.8954 110.044 47.7865Z" fill="#752717"/>
<path d="M109.652 48.1424C109.766 47.971 109.87 47.8957 110.044 47.7867C110.053 47.8222 110.062 47.858 110.072 47.8934C110.361 48.9329 111.054 49.9047 111.737 50.7258C112.748 51.942 115.428 54.0464 114.393 55.8546C114.19 56.2101 113.691 56.6622 113.267 56.7149C112.871 56.7641 112.55 56.6194 112.257 56.3594C111.903 56.0455 111.659 55.6327 111.482 55.1979C111.172 54.4359 111.028 53.5471 110.841 52.7446C110.482 51.2029 110.141 49.6496 109.652 48.1424Z" fill="#FFBFFF"/>
<path d="M109.305 50.3185C109.429 50.5752 109.435 50.5776 109.373 50.8546C107.38 53.6758 103.492 56.8019 100.825 59.0935C99.5 60.2323 98.201 61.4452 96.7717 62.4527C97.7172 60.9603 101.158 58.1392 102.613 56.8149C104.609 54.998 106.575 53.1474 108.51 51.2638L109.305 50.3185Z" fill="#541406"/>
<path d="M25.2699 118.771L25.3197 118.596C27.3104 117.006 29.4493 115.621 31.5303 114.156C34.8153 111.845 38.1061 109.494 41.3375 107.11C42.8378 106.003 51.624 98.8231 52.4233 98.671C48.8137 101.655 45.0627 104.59 41.3037 107.382C39.4974 108.725 37.6324 109.987 35.8229 111.325C33.412 113.119 30.9662 114.866 28.4866 116.564C27.4342 117.296 26.3904 118.158 25.2699 118.771Z" fill="#541406"/>
<path d="M92.5648 64.3432C92.7395 64.0311 92.8271 63.775 92.8863 63.4223L93.1111 63.4588C93.22 64.1206 93.2904 64.8293 93.4731 65.4727C92.2617 67.0639 88.972 69.9785 87.2862 71.1317C87.2359 71.1661 87.1866 71.202 87.1358 71.2361C86.6205 71.5824 86.0024 71.7712 85.4169 71.967C86.4144 71.1159 92.5871 66.0924 92.7069 65.3587C92.7486 65.1033 92.6738 64.8076 92.604 64.5635L92.5648 64.3432Z" fill="#541406"/>
<path d="M92.5648 64.343L92.604 64.5633C89.5085 67.2332 86.1911 69.7509 83.3231 72.667C83.1023 72.8337 83.0331 73.0189 82.908 73.2588C81.7169 73.472 77.1648 78.0803 75.7465 79.1276C75.9213 78.3909 81.5916 73.8701 82.6163 72.9631C85.9004 70.0564 89.08 67.0209 92.5648 64.343Z" fill="#2E0C05"/>
<path d="M53.364 97.8956L53.303 97.769C54.7347 96.3823 56.4906 95.2264 58.0334 93.9567L67.8023 85.7781C68.6198 85.0919 71.1634 82.5491 72.0773 82.338C68.66 85.5298 64.9172 88.4654 61.332 91.4731C59.5078 93.029 57.6511 94.5462 55.7629 96.0237C54.9929 96.6342 54.1956 97.3829 53.364 97.8956Z" fill="#541406"/>
<path d="M108.481 49.2467L108.93 48.8894L108.911 49.2053C109.017 49.5657 109.097 50.0048 109.305 50.3187L108.51 51.264C108.542 51.1775 108.621 51.0078 108.624 50.9084C108.632 50.6663 108.55 50.5863 108.411 50.4085C108.085 50.2997 108.022 50.3055 107.683 50.3738C104.497 52.6646 101.715 55.5536 98.6283 57.9748C98.7766 57.1856 107.203 50.5465 108.481 49.2467Z" fill="#541406"/>
<path d="M108.911 49.2052C109.017 49.5656 109.097 50.0047 109.305 50.3187L108.51 51.2639C108.542 51.1775 108.621 51.0078 108.624 50.9084C108.632 50.6662 108.55 50.5863 108.411 50.4084C108.085 50.2996 108.022 50.3055 107.683 50.3737C108.069 49.9669 108.502 49.5908 108.911 49.2052Z" fill="#FFBFFF"/>
<path d="M82.9081 73.2588C83.0333 73.0189 83.1024 72.8336 83.3232 72.6669C83.5987 72.7073 83.876 72.74 84.148 72.8015C84.1003 72.8154 84.0528 72.8303 84.005 72.8434C83.8269 72.8926 83.6566 72.9198 83.474 72.9448L83.3346 73.0625C83.6972 73.3423 84.1692 73.3763 84.5269 73.662L84.5196 73.8394L84.4639 73.8858C83.4413 74.6594 79.9999 78.2717 79.1369 78.3627L79.0935 78.2506C79.9639 76.937 82.69 74.7085 83.9691 73.4979L82.9081 73.2588Z" fill="#541406"/>
<path d="M44.5397 175.764C44.182 175.475 41.4503 167.473 41.3374 166.623L41.4854 166.627C42.5079 169.668 43.5851 172.701 44.5397 175.764Z" fill="#2E0C05"/>
<path d="M108.393 67.9696C110.023 67.2106 112.328 67.2028 114.024 67.7354C116.792 68.6052 118.732 70.6698 120.021 73.1956C122.187 77.4386 122.461 82.26 120.996 86.7769C119.573 91.1661 116.359 95.2148 112.219 97.3053C112.199 97.3164 112.179 97.3289 112.157 97.3386C110.076 98.2751 108.119 98.5227 105.945 97.7434C103.51 96.8709 101.815 95.0619 100.74 92.7472C98.5843 88.1028 98.7975 82.5655 100.578 77.8358C102.026 73.9913 104.51 69.7239 108.393 67.9696Z" fill="#752717"/>
<path d="M108.589 69.127C110.06 68.4367 111.862 68.2403 113.431 68.6798C115.743 69.3277 117.646 71.113 118.784 73.1843C120.92 77.0748 121.262 81.8041 120.002 86.0298C118.771 90.1606 115.851 94.0756 112.033 96.1371C110.386 96.9713 108.548 97.3541 106.74 96.8555C104.685 96.289 103.134 94.7863 102.124 92.9532C99.9579 89.0225 99.9191 83.9098 101.157 79.6823C102.346 75.6196 104.764 71.2092 108.589 69.127Z" fill="#F47FD6" fill-opacity="0.839216"/>
<path d="M109.167 71.2491C109.588 71.2509 109.887 71.4254 110.223 71.6701C112.505 73.332 113.769 76.7275 114.235 79.4008C115.031 83.962 113.981 88.332 111.322 92.1075C111.277 92.1376 111.216 92.1249 111.162 92.1291C111.163 91.6245 112.313 89.8132 112.585 89.2044C113.78 86.5222 114.256 83.8852 114.026 80.9531C113.776 77.7772 112.639 74.6071 110.39 72.2917C110.014 71.9044 109.576 71.5991 109.167 71.2491Z" fill="#541406"/>
<path d="M112.341 70.1583C112.451 70.1678 112.454 70.1615 112.574 70.2102C113.731 70.6833 115.179 74.0032 115.584 75.1213C117.5 80.4082 117.49 85.8615 115.095 90.9922C114.993 91.0559 115.055 91.0353 114.9 91.0216C114.953 90.2967 115.397 89.4737 115.607 88.7676C115.935 87.6621 116.178 86.5328 116.332 85.3898C116.887 81.2272 116.227 76.5794 114.199 72.8649C113.669 71.8955 113.012 71.0309 112.341 70.1583Z" fill="#541406"/>
<path d="M66.2883 125.853C66.3115 125.842 66.3347 125.831 66.3584 125.821C68.171 125.066 70.1727 125.039 71.9799 125.807C74.316 126.8 75.92 128.942 76.8534 131.241C78.3522 134.934 78.1229 139.31 76.5742 142.957C75.4392 145.629 73.2972 148.123 70.5791 149.234C68.9236 149.969 67.0132 150.122 65.3058 149.483C63.0189 148.627 61.2961 146.652 60.3049 144.47C58.5935 140.701 58.6311 136.525 60.1077 132.687C61.2831 129.633 63.2638 127.182 66.2883 125.853Z" fill="#751736"/>
<path d="M66.374 127.262C67.6387 126.665 69.169 126.441 70.5412 126.732C72.3647 127.119 73.7482 128.342 74.7291 129.885C76.4985 132.668 77.0346 136.171 76.3172 139.369C75.5628 142.733 73.7794 145.759 70.8411 147.629C70.7706 147.671 70.7002 147.714 70.6275 147.753C69.1967 148.512 67.594 148.846 66.0148 148.337C64.015 147.692 62.585 145.976 61.6863 144.145C60.0581 140.826 59.9533 137.109 61.1444 133.634C62.0849 130.889 63.7252 128.552 66.374 127.262Z" fill="#F47FD6"/>
<path d="M70.4262 128.508C71.2509 128.689 72.4026 130.072 72.8765 130.759C74.3313 132.868 74.6168 135.885 74.1507 138.349C73.6146 141.184 72.1617 143.985 69.732 145.628L69.5199 145.634L69.5734 145.466C71.8422 143.555 73.3675 140.433 73.7738 137.515C74.0861 135.272 73.6913 132.455 72.2998 130.608C71.7518 129.881 71.0258 129.309 70.4794 128.581C70.4613 128.557 70.4438 128.533 70.4262 128.508Z" fill="#541406"/>
<path d="M68.346 128.493C68.5316 128.539 68.6663 128.618 68.8145 128.737C70.479 130.074 71.2368 132.217 71.5166 134.269C72.0275 138.014 71.2303 141.205 68.955 144.219C68.8036 144.223 68.8862 144.236 68.7127 144.155C68.7248 144.078 70.1852 141.629 70.3894 141.161C71.77 137.999 71.5529 133.339 69.7975 130.351C69.4541 129.767 68.5489 129.214 68.3682 128.622C68.3557 128.58 68.3534 128.536 68.346 128.493Z" fill="#541406"/>
<path d="M112.136 108.327C113.472 107.776 115.163 107.768 116.51 108.284C118.476 109.038 119.95 110.896 120.791 112.767C122.404 116.352 122.339 120.851 120.955 124.495C119.888 127.301 118.257 129.48 115.487 130.724C113.996 131.338 112.489 131.124 111.021 130.57C109.05 129.826 107.52 128.169 106.675 126.267C105.015 122.529 105.253 118.164 106.722 114.406C107.77 111.726 109.455 109.494 112.136 108.327Z" fill="#752717"/>
<path d="M112.051 109.579C113.206 109.074 114.642 108.888 115.857 109.247C117.476 109.726 118.56 111.014 119.329 112.448C121.051 115.66 121.292 119.597 120.23 123.06C119.452 125.597 118.133 128.067 115.712 129.344C114.518 129.919 113.193 130.094 111.905 129.741C110.168 129.265 108.91 127.945 108.079 126.402C106.34 123.172 106.313 119.261 107.388 115.815C108.216 113.16 109.53 110.901 112.051 109.579Z" fill="#F47FD6"/>
<path d="M114.533 110.344C114.703 110.334 114.854 110.324 115.018 110.38C116.317 110.821 117.36 112.375 117.915 113.57C119.215 116.379 118.998 120.16 117.935 123.006C117.043 125.394 115.499 127.333 113.167 128.411C113.06 128.437 112.91 128.436 112.799 128.444L112.789 128.337C113.552 127.893 114.297 127.473 114.939 126.857C117.216 124.672 118.233 121.568 118.286 118.473C118.323 116.288 117.864 113.656 116.336 111.983C115.817 111.414 115.157 111.014 114.643 110.465C114.606 110.425 114.57 110.385 114.533 110.344Z" fill="#541406"/>
<path d="M112.895 112.002C113.119 112.015 113.284 112.095 113.463 112.225C114.942 113.298 115.76 115.369 116.007 117.12C116.427 120.095 115.689 123.255 113.866 125.653L113.765 125.663L113.672 125.558C113.812 125.002 114.206 124.512 114.468 124.004C114.818 123.315 115.092 122.59 115.288 121.842C115.96 119.29 115.862 116.072 114.363 113.802C113.973 113.211 113.298 112.748 112.964 112.135C112.941 112.091 112.918 112.047 112.895 112.002Z" fill="#541406"/>
<path d="M140.048 66.9405C141.205 66.429 142.584 66.4923 143.747 66.9534C145.741 67.7445 147.192 69.646 147.997 71.5739C149.231 74.5292 149.301 78.0201 148.079 80.9852C147.205 83.1072 145.9 84.7733 143.756 85.6797C142.414 86.0704 141.069 86.1964 139.729 85.6885C137.97 85.0219 136.583 83.296 135.818 81.6283C134.484 78.7225 134.499 74.9766 135.604 72.0035C136.461 69.6991 137.791 67.9713 140.048 66.9405Z" fill="#752717"/>
<path d="M140.005 68.072C140.937 67.7028 141.805 67.5404 142.807 67.7693C144.333 68.1175 145.522 69.2588 146.34 70.5449C147.843 72.909 148.285 76.126 147.667 78.8412C147.159 81.0737 145.947 83.204 143.98 84.439C142.792 84.8604 141.751 85.1316 140.487 84.7776C139.067 84.3795 137.99 83.3354 137.275 82.0811C135.78 79.4564 135.538 76.1469 136.341 73.2646C136.937 71.1199 138.034 69.1994 140.005 68.072Z" fill="#F47FD6"/>
<path d="M139.769 69.7617C140.339 69.7619 140.966 70.1896 141.378 70.5508C142.836 71.8303 143.488 74.0767 143.641 75.9443C143.82 78.1372 143.568 80.4391 142.105 82.1734L141.922 82.2877L141.801 82.2248C141.992 81.7216 142.266 81.2641 142.469 80.7674C143.05 79.3426 143.193 77.7224 143.063 76.1989C142.878 74.0354 142.075 71.6676 140.352 70.2474L139.769 69.7617Z" fill="#752717"/>
<path d="M142.748 68.8295C142.791 68.8444 142.836 68.8576 142.879 68.8745C143.902 69.2759 144.896 71.3438 145.253 72.3295C146.303 75.2339 146.301 78.4114 144.992 81.2191L144.914 81.2949L144.769 81.2477C144.662 80.7003 145.226 79.1674 145.331 78.5073C145.874 75.0686 144.775 71.5955 142.748 68.8295Z" fill="#541406"/>
<path d="M68.046 92.6168C68.9507 92.2418 70.0538 92.1333 71.0057 92.3547C72.3951 92.6774 73.4788 93.6639 74.193 94.8634C75.3956 96.8828 75.4068 99.1607 74.8248 101.381C74.0589 104.302 72.2414 106.983 69.6099 108.512C68.4256 109.049 67.2739 109.294 66.0047 108.838C64.6147 108.339 63.6289 107.071 63.0476 105.76C61.9366 103.255 62.0995 100.414 63.0945 97.8979C64.0606 95.4546 65.6293 93.6666 68.046 92.6168Z" fill="#752717"/>
<path d="M68.2118 93.8968C68.9937 93.5605 69.8708 93.3969 70.7173 93.5331C71.6036 93.6756 72.3247 94.163 72.8479 94.8846C73.9406 96.3912 74.1704 98.4353 73.8585 100.228C73.3792 102.982 71.8737 105.551 69.5878 107.177C69.4831 107.249 69.382 107.316 69.2693 107.375C68.4611 107.796 67.5662 108.009 66.6791 107.708C65.6226 107.349 64.9142 106.4 64.4571 105.425C63.4429 103.209 63.3467 100.681 64.1893 98.3936C64.9374 96.3678 66.24 94.7996 68.2118 93.8968Z" fill="#F47FD6"/>
<path d="M70.8933 94.7634C70.9258 94.7723 70.9598 94.7762 70.9906 94.79C71.2617 94.9106 71.3827 95.2114 71.4966 95.4707C72.3676 97.4552 71.9956 100.221 71.2702 102.188C70.6659 103.825 69.7556 105.249 68.1257 106.007L67.8705 105.982L67.8859 105.863C69.0764 105.02 69.8575 104.247 70.5228 102.932C71.9343 100.141 71.8362 97.6726 70.8933 94.7634Z" fill="#541406"/>
<path d="M68.9417 94.9121C69.1356 94.9721 69.2172 95.0206 69.3639 95.1659C70.1037 95.8983 70.4101 97.9671 70.3967 98.9941C70.3658 101.336 69.3212 103.218 67.6747 104.813L67.4873 104.87C67.624 104.376 68.2467 103.8 68.5446 103.348C68.9997 102.657 69.3967 101.89 69.656 101.103C70.3565 98.9732 69.9189 96.8768 68.9417 94.9121Z" fill="#541406"/>
<path d="M127.018 51.9262C127.687 51.6071 128.314 51.4106 129.064 51.4815C129.854 51.5562 130.517 51.9406 130.998 52.5699C131.977 53.8512 132.237 55.7907 132.044 57.3527C131.778 59.5009 130.798 61.429 129.094 62.7719C128.462 63.1181 127.752 63.254 127.032 63.1766C126.256 63.0929 125.616 62.6678 125.15 62.0527C124.09 60.6514 123.996 58.587 124.274 56.9111C124.595 54.9832 125.393 53.0848 127.018 51.9262Z" fill="#752717"/>
<path d="M127.494 52.7947C127.938 52.6101 128.329 52.4562 128.818 52.497C129.395 52.5448 129.871 52.8186 130.218 53.2811C131.059 54.4032 131.152 56.0534 130.945 57.3953C130.691 59.0467 130.046 60.8144 128.655 61.8247C128.179 62.1116 127.831 62.2644 127.266 62.2258C126.788 62.1932 126.402 61.9948 126.092 61.6273C125.213 60.5831 125.068 58.8422 125.199 57.5298C125.38 55.7224 126.069 53.9614 127.494 52.7947Z" fill="#F47FD6"/>
<path d="M127.789 53.5814C127.845 53.5836 127.901 53.5842 127.957 53.5881C128.416 53.6205 128.877 54.0073 129.155 54.3521C129.826 55.1846 129.966 56.7029 129.869 57.7462C129.75 59.0336 129.305 60.1812 128.297 61.0276C128.151 61.0492 128.073 61.0378 127.93 61.013C127.976 60.5628 128.713 59.9664 128.945 59.5295C129.346 58.7742 129.504 57.6888 129.454 56.8508C129.368 55.4268 128.835 54.5012 127.789 53.5814Z" fill="#541406"/>
<path d="M106.379 146.398L106.475 146.46C106.469 146.488 106.466 146.518 106.455 146.545C106.033 147.631 78.4678 167.791 75.1202 170.192C73.0513 171.649 70.9671 173.084 68.8677 174.497C65.4079 176.843 61.8682 179.035 58.3467 181.282C55.5229 183.084 52.7085 185.002 49.7454 186.568C49.6527 186.523 49.6147 186.451 49.5526 186.371C49.6558 186.069 50.4588 185.655 50.7407 185.46C55.1513 182.404 59.645 179.508 64.1138 176.543C70.8127 172.102 77.441 167.555 83.9968 162.905C85.8395 161.578 87.631 160.18 89.4689 158.845C91.982 157.021 94.5248 155.262 96.993 153.373C98.9353 151.863 100.886 150.364 102.844 148.876C103.984 148.02 105.136 147.1 106.379 146.398Z" fill="#752717"/>
<path d="M95.4438 132.119C95.8636 131.947 96.2841 131.819 96.743 131.877C97.3039 131.948 97.7682 132.203 98.114 132.651C98.9372 133.719 99.0774 135.431 98.8628 136.726C98.5934 138.351 97.8824 139.76 96.5182 140.723C96.0068 140.9 95.5757 141.032 95.0318 140.936C94.3626 140.819 93.8434 140.445 93.4837 139.872C92.7591 138.718 92.6175 137.138 92.9026 135.823C93.2456 134.242 94.0861 133.004 95.4438 132.119Z" fill="#752717"/>
<path d="M95.4384 133.258C95.7114 133.131 96.0456 132.976 96.3495 132.953C96.7034 132.926 97.0754 133.047 97.3304 133.297C97.85 133.805 97.9243 134.77 97.912 135.462C97.8858 136.947 97.36 138.555 96.2775 139.593C96.0256 139.724 95.7784 139.836 95.4906 139.856C95.0989 139.883 94.676 139.805 94.385 139.524C93.8129 138.972 93.6954 137.839 93.7176 137.086C93.7617 135.591 94.3316 134.267 95.4384 133.258Z" fill="#F47FD6"/>
<path d="M96.3403 134.667L96.4448 134.724C96.6707 135.58 96.2439 137.139 95.9716 137.989L95.844 137.901C95.6605 137.028 96.0124 135.48 96.3403 134.667Z" fill="#541406"/>
<path d="M165.957 94.448L166.22 94.3901L166.292 94.5111C165.817 95.5557 164.032 97.1708 163.212 98.0495C159.833 101.662 156.317 105.143 152.672 108.486C150.374 110.574 147.978 112.555 145.648 114.608C143.762 116.269 141.934 117.996 140.034 119.642C135.589 123.461 131.082 127.208 126.515 130.881L118.688 137.19C115.684 139.616 112.697 142.034 109.495 144.201C109.326 144.305 109.421 144.279 109.207 144.265C109.542 143.506 122.857 133.071 124.719 131.554C134.04 123.961 143.353 116.363 152.148 108.159C154.964 105.533 157.754 102.831 160.446 100.076C162.28 98.1987 164.013 96.2157 165.957 94.448Z" fill="#752717"/>
<path d="M49.6969 115.319C50.1349 115.109 50.4904 115 50.9812 115.055C51.6059 115.125 52.1071 115.423 52.4927 115.918C53.3051 116.961 53.5498 118.45 53.3435 119.735C53.1449 120.972 52.5829 121.987 51.5592 122.711C51.1428 122.886 50.7808 122.996 50.3239 122.957C49.7063 122.903 49.1889 122.622 48.794 122.146C47.9901 121.176 47.7134 119.611 47.8612 118.386C48.0261 117.018 48.6373 116.137 49.6969 115.319Z" fill="#752717"/>
<path d="M50.1477 116.081C50.3613 116.005 50.5923 115.934 50.8225 115.95C51.1631 115.975 51.497 116.16 51.7207 116.413C52.325 117.097 52.3937 118.322 52.3164 119.195C52.2217 120.262 51.9087 121.157 51.0703 121.844C50.8146 121.928 50.6079 121.979 50.3319 121.952C49.9774 121.918 49.6137 121.662 49.4007 121.389C48.8397 120.668 48.7101 119.4 48.8241 118.523C48.9565 117.502 49.3455 116.724 50.1477 116.081Z" fill="#F47FD6"/>
<path d="M156.103 84.4135C156.592 84.2437 157.089 84.2201 157.594 84.3317C158.291 84.4855 158.821 84.9343 159.189 85.5336C159.825 86.5703 159.941 87.9137 159.634 89.077C159.344 90.173 158.784 90.8787 157.811 91.4354C157.194 91.6524 156.678 91.735 156.037 91.5493C155.349 91.3498 154.827 90.8414 154.488 90.2234C153.904 89.1589 153.796 87.8252 154.169 86.6734C154.51 85.618 155.128 84.9163 156.103 84.4135Z" fill="#752717"/>
<path d="M156.29 85.4554C156.503 85.3882 156.721 85.3217 156.945 85.3112C157.386 85.2902 157.873 85.4644 158.181 85.7829C158.684 86.3023 158.86 87.1654 158.835 87.8642C158.795 88.9574 158.35 89.7625 157.566 90.4846C157.286 90.5959 157.029 90.7066 156.72 90.6811C156.274 90.6444 155.837 90.3577 155.571 90.0097C155.048 89.3264 154.858 88.3226 155.005 87.4841C155.159 86.5972 155.56 85.9728 156.29 85.4554Z" fill="#F47FD6"/>
<path d="M157.556 86.4606L157.708 86.5772C157.874 87.0343 157.927 87.4274 157.814 87.908C157.602 88.8113 157.046 89.6926 156.265 90.196L156.154 90.145C156.143 90.0183 156.092 89.8888 156.121 89.7648C156.178 89.5193 156.71 89.0483 156.855 88.7881C157.275 88.0386 157.412 87.2938 157.556 86.4606Z" fill="#752717"/>
<path d="M59.4657 163.865C59.0225 162.845 57.7122 159.81 58.1103 158.836C58.2088 158.596 58.2701 158.544 58.4911 158.449L58.7271 158.576C58.9004 159.849 59.2392 161.094 59.7349 162.279C60.6744 164.467 63.0678 167.515 61.3117 169.927C61.0497 170.287 60.6815 170.558 60.2314 170.61C59.6914 170.673 59.0561 170.402 58.652 170.055C58.1264 169.603 57.7434 168.928 57.4941 168.285C57.041 167.116 56.9561 165.829 56.7085 164.607C56.482 163.49 56.1389 162.382 55.8436 161.28C55.7558 160.954 55.5743 160.511 55.5566 160.179C55.55 160.057 55.5606 160.039 55.586 159.936L55.7567 159.814C56.0126 159.885 56.091 159.977 56.2214 160.211C57.0718 161.738 57.4233 164.861 57.8056 166.589L57.898 166.685L57.9866 166.646C58.0684 166.185 58.1681 165.806 58.3692 165.381C58.3936 165.329 58.4199 165.278 58.4445 165.226C58.5836 164.934 58.6964 164.819 58.963 164.625C59.1266 164.507 59.2767 164.409 59.4032 164.249C59.5329 164.084 59.4857 164.061 59.4657 163.865Z" fill="#752717"/>
<path d="M59.4659 163.865C60.1818 165.099 61.2639 167.03 60.8773 168.509C60.786 168.858 60.5866 169.209 60.2605 169.388C59.9809 169.542 59.6619 169.533 59.3723 169.42C58.8167 169.203 58.485 168.661 58.2761 168.131C58.1049 167.696 57.8323 167.045 57.8058 166.589L57.8982 166.685L57.9868 166.646C58.0686 166.186 58.1683 165.806 58.3694 165.381C58.3937 165.329 58.4201 165.278 58.4447 165.226C58.5838 164.934 58.6966 164.819 58.9632 164.625C59.1267 164.507 59.2769 164.409 59.4033 164.249C59.5331 164.084 59.4859 164.061 59.4659 163.865Z" fill="#FF9BFD"/>
<path d="M137.658 100.48C138.125 100.296 138.641 100.281 139.118 100.437C139.589 100.586 139.887 100.934 140.11 101.362C140.61 102.319 140.615 103.377 140.296 104.392C139.922 105.583 139.253 106.482 138.133 107.042C137.732 107.124 137.346 107.129 136.941 107.049C136.338 106.93 135.841 106.653 135.518 106.117C135.045 105.333 135.02 104.291 135.267 103.431C135.641 102.126 136.484 101.133 137.658 100.48Z" fill="#752717"/>
<path d="M137.892 101.109C138.184 101.029 138.483 101 138.78 101.07C139.138 101.154 139.435 101.371 139.615 101.693C139.983 102.354 139.954 103.294 139.762 104.003C139.486 105.024 138.953 105.832 138.036 106.361C137.772 106.406 137.494 106.416 137.229 106.37C136.782 106.292 136.323 106.062 136.072 105.673C135.71 105.114 135.688 104.317 135.84 103.688C136.123 102.522 136.9 101.713 137.892 101.109Z" fill="#D96EA3"/>
<path d="M138.912 102.571C139.078 102.821 139.091 103.01 139.028 103.304C138.874 104.025 138.401 104.607 137.785 104.984L137.718 104.804C138.25 104.127 138.562 103.349 138.912 102.571Z" fill="#541406"/>
<path d="M145.934 46.5093L146.092 46.2699C145.86 45.3143 145.098 44.2547 144.63 43.3844C141.815 38.1345 138.745 33.0254 135.431 28.0757C137.142 29.7064 139.173 33.1349 140.446 35.2184C147.289 46.5177 153.13 58.3938 157.903 70.7108C158.34 71.8368 159.634 74.657 159.669 75.6254C159.675 75.7751 159.678 75.7331 159.644 75.8513C159.488 75.8589 159.371 75.9161 159.256 75.7933C158.701 75.2051 157.367 71.0826 156.948 70.0272C154.436 63.5721 151.638 57.2316 148.564 51.0244C147.933 49.7361 147.17 47.7259 146.311 46.6811C146.195 46.6072 146.062 46.5623 145.934 46.5093Z" fill="#541406"/>
<path d="M74.6966 81.9164C74.7587 81.9541 74.8038 82.0408 74.8462 82.0997C74.6317 82.8662 53.3221 100.394 50.7411 102.446C48.581 104.163 46.4085 106.021 44.0307 107.424L43.8435 107.276L43.8441 107.117C44.5688 106.472 45.4401 105.971 46.2104 105.375C48.0234 103.973 49.7898 102.506 51.5744 101.068L64.0608 90.8357C67.6456 87.8942 71.2445 85.0165 74.6966 81.9164Z" fill="#541406"/>
<path d="M60.4929 151.258L60.7769 151.269C61.5854 151.743 64.0304 157.739 64.3802 158.784C64.7091 159.765 64.825 160.894 64.321 161.843C64.1197 162.222 63.8082 162.528 63.3816 162.628C62.9487 162.73 62.4789 162.561 62.1195 162.324C60.7583 161.427 60.4504 159.747 60.1502 158.27C60.0685 157.713 59.5712 156.679 59.6903 156.2L59.8698 156.179C60.1761 156.287 60.4466 156.455 60.6185 156.739C60.7609 156.975 60.819 157.38 60.8887 157.647C61.2044 158.859 61.5058 160.58 62.4574 161.455C62.6685 161.649 62.7814 161.659 63.0585 161.648C63.2007 161.551 63.3086 161.472 63.4065 161.326C63.5487 161.115 63.6818 160.866 63.6819 160.606C63.6845 158.362 61.0061 153.8 60.5082 151.341C60.5026 151.313 60.4981 151.285 60.4929 151.258Z" fill="#752717"/>
<path d="M76.2347 107.899L76.441 107.96C76.8624 108.472 77.2409 112.65 77.5902 113.751C77.8066 114.435 78.3391 116.23 79.0765 116.488C79.2951 116.564 79.373 116.504 79.552 116.398C80.5445 114.904 79.1756 112.382 79.4808 110.777L79.6022 110.78C79.9382 111.194 80.0965 111.681 80.2873 112.173C80.5383 112.94 80.7588 113.723 80.8334 114.529C80.9113 115.374 80.869 116.498 80.2727 117.155C80.0597 117.39 79.7669 117.541 79.446 117.547C78.8558 117.557 78.323 117.168 77.9413 116.753C76.0411 114.686 76.1848 110.552 76.2347 107.899Z" fill="#752717"/>
<path d="M85.5114 85.6885L85.5852 85.7311C85.7015 86.5626 84.2388 92.5983 83.9719 94.1202C83.6391 96.0504 83.4525 98.0028 83.414 99.9613C83.399 101.066 83.474 102.175 83.4292 103.278C83.2694 103.203 83.2057 103.18 83.127 103.016C82.8853 102.51 82.9349 101.505 82.9356 100.943C82.9407 97.0078 83.6591 93.3354 84.5315 89.5151C84.8219 88.243 85.0489 86.9104 85.5114 85.6885Z" fill="#541406"/>
<path d="M134.401 26.0266C134.46 26.062 134.5 26.1217 134.546 26.1718C133.354 28.6194 126.36 35.8561 123.94 37.5493L123.858 37.5005C123.961 37.0644 125.133 36.1277 125.496 35.7754C127.483 33.8493 129.277 31.764 131.14 29.7213C132.217 28.5398 133.518 27.3575 134.401 26.0266Z" fill="url(#paint1_linear_209_640)"/>
<path d="M121.241 40.3416C121.349 40.3376 121.288 40.3257 121.407 40.4242C120.862 41.6005 114.295 47.1275 112.825 48.0938L112.697 48.1181C112.703 48.057 112.696 47.9934 112.715 47.935C112.802 47.6589 120.29 41.1441 121.241 40.3416Z" fill="#541406"/>
<path d="M44.8106 171.898C45.365 172.494 49.1454 183.794 49.2222 184.925C49.2008 184.907 49.1782 184.891 49.1581 184.871C48.5959 184.326 44.8366 173.066 44.8106 171.898Z" fill="#541406"/>
<path d="M85.9722 111.39C86.0226 111.39 86.1762 111.389 86.2197 111.404C87.0988 111.702 89.6322 120.77 90.2262 122.18L90.0456 122.17C89.381 121.657 87.6526 115.648 87.247 114.514C86.8779 113.451 86.4524 112.408 85.9722 111.39Z" fill="#752717"/>
<path d="M39.3463 155.194L39.4795 155.249C40.1563 156.163 42.9563 165.016 43.4039 166.605L43.2131 166.583C42.5945 165.739 39.6848 156.574 39.3463 155.194Z" fill="#541406"/>
<path d="M142.012 103.403L142.126 103.474C142.136 103.519 142.147 103.564 142.155 103.61C142.305 104.472 141.452 105.882 140.969 106.565C140.131 107.749 139.057 108.577 137.606 108.835L137.43 108.768L137.498 108.649C138.107 108.457 138.728 108.198 139.279 107.875C140.756 107.007 141.59 104.974 142.012 103.403Z" fill="#541406"/>
<path d="M104.273 58.2939L104.554 58.2065L104.637 58.2636C104.075 59.3226 101.37 61.1196 100.308 61.7654C100.178 61.8296 100.085 61.8438 99.9434 61.8666C100.187 61.3221 103.608 58.7848 104.273 58.2939Z" fill="#541406"/>
<path d="M160.231 78.2985C160.348 78.3108 160.435 78.2958 160.53 78.3769C161.042 78.8182 161.545 80.3211 161.626 80.9696C161.451 80.9722 161.372 80.9554 161.209 80.9052C160.579 80.2881 160.385 79.1452 160.231 78.2985Z" fill="#752717"/>
<path d="M146.311 46.6809C145.531 47.4602 144.633 48.3603 143.665 48.8887C143.988 47.9726 145.206 47.1427 145.934 46.5091C146.061 46.5621 146.195 46.6069 146.311 46.6809Z" fill="#541406"/>
<path d="M155.625 100.635L155.677 100.652L155.679 100.779C154.744 101.855 153.649 102.765 152.567 103.688L152.475 103.622C152.689 102.961 154.991 101.152 155.625 100.635Z" fill="#2E0C05"/>
<path d="M146.125 48.2704L146.201 48.255L146.282 48.3198C146.074 49.0961 144.622 50.2125 143.979 50.6932C143.815 50.6514 143.895 50.6922 143.754 50.5499C144.014 50.0547 145.64 48.7571 146.125 48.2704Z" fill="#2E0C05"/>
<path d="M154.446 100.389L154.725 100.338C154.673 100.597 153.729 101.221 153.464 101.427C153.399 101.469 153.317 101.477 153.242 101.496L153.232 101.391C153.603 101.001 154.011 100.703 154.446 100.389Z" fill="#160D08"/>
<path d="M74.1697 17.9973C76.0403 17.8562 77.957 17.4004 79.812 17.0917C91.954 15.0708 106.545 15.5474 118.623 17.8686C120.77 18.2812 122.891 18.8479 125.009 19.389C127.139 19.9335 130.726 20.6957 132.481 21.9491C131.053 23.8504 129.396 25.6318 127.78 27.3739C124.081 31.3616 120.153 35.115 116.358 39.0084L116.416 39.1319C115.612 40.0689 108.511 46.8218 107.767 47.0465L107.397 47.0154C104.337 46.7522 100.796 48.0271 98.0251 49.2717C94.335 50.9293 89.6104 54.1939 88.006 58.106C87.6044 59.0849 87.8232 59.969 87.5075 60.7977L87.3385 60.8559C87.2596 60.8084 87.2234 60.7909 87.1554 60.7368C86.6248 60.3133 86.3324 59.568 86.2967 58.9062C86.166 56.4839 88.1405 54.2327 89.6604 52.5752L89.624 52.4912C90.6608 50.8502 95.8741 47.9302 97.6495 47.0547C98.2205 46.7731 100.253 46.235 100.496 45.7971C99.8384 45.8657 99.0701 46.2839 98.4506 46.5341L98.434 46.489L98.9724 46.1588C94.4037 47.7075 88.3973 51.701 86.2487 56.11C85.6652 57.3074 85.2279 58.791 85.6767 60.0978C85.9009 60.7506 86.3421 61.2553 86.9714 61.5419C87.5368 61.7994 88.1791 61.9624 88.7715 62.1522C89.2623 61.9288 90.1165 62.2189 90.6606 62.3138L90.7841 62.4212L91.0595 62.6436L91.2037 62.455C91.299 62.4412 91.4495 62.4219 91.5386 62.3984C91.8422 62.3183 91.8514 62.2652 92.0017 62.0057C92.2494 62.1689 92.5149 62.3145 92.7696 62.4671C93.4873 61.895 95.1461 60.3564 95.9816 60.2016C95.5508 60.5573 93.0128 62.3815 93.0084 62.7712C93.006 62.9877 93.0747 63.2436 93.1111 63.4588L92.8863 63.4223C92.83 63.0976 92.8186 62.8085 92.5645 62.5721C92.2461 62.4681 91.9771 62.5001 91.6839 62.6635C91.0643 63.0083 90.4937 63.6244 89.9521 64.0889L86.0161 67.4797L69.8127 81.6743C64.1357 86.5453 58.3708 91.3131 52.5208 95.9751C45.5138 101.603 38.4844 107.113 31.1332 112.288C30.3735 112.822 25.9939 116.19 25.3445 116.153L25.1801 116.185L25.093 116.104C29.4922 104.841 34.4991 93.8045 39.3553 82.7331C40.4147 83.0505 41.428 83.2687 42.5368 83.0586C44.4436 82.6972 46.2588 81.309 47.3435 79.7313C48.6073 77.8928 49.1023 75.3763 48.6851 73.1888C48.3145 71.2443 47.3571 69.8729 45.73 68.7678C46.9883 66.0006 48.3315 63.2552 49.6496 60.5155C49.9704 60.4389 50.2847 60.3563 50.5878 60.224C51.6233 59.7635 52.4298 58.9056 52.8254 57.8436C53.441 56.2395 53.1729 54.7453 52.4815 53.2267C53.7041 50.5734 55.1741 48.0109 56.6106 45.4688C59.2285 40.8356 61.9661 36.3092 64.794 31.8023C66.7231 28.7282 68.7031 25.7262 70.757 22.734C71.8541 21.1358 72.9123 19.4736 74.1697 17.9973Z" fill="#FFA3D6"/>
<path d="M88.7716 62.152C89.2624 61.9286 90.1166 62.2188 90.6607 62.3137L90.7842 62.421C90.3266 62.5245 89.8538 62.4074 89.3959 62.3379C84.8182 65.975 80.5132 70.0295 76.1349 73.9081C68.4303 80.7332 60.6494 87.5354 52.5045 93.8297C50.0428 95.7322 47.6204 97.6214 45.0638 99.3999L44.996 99.1007C48.011 96.7793 51.0424 94.5022 54.0019 92.1057C61.6275 85.8336 69.1363 79.4209 76.5243 72.8707L84.3179 66.0607C85.8003 64.7738 87.3879 63.5441 88.7716 62.152Z" fill="url(#paint2_linear_209_640)"/>
<path d="M92.7697 62.467C93.4874 61.8949 95.1462 60.3563 95.9818 60.2015C95.551 60.5572 93.0129 62.3814 93.0086 62.7712C93.0062 62.9876 93.0748 63.2435 93.1113 63.4587L92.8865 63.4222C92.8302 63.0975 92.8188 62.8084 92.5647 62.572C92.2462 62.468 91.9772 62.5 91.684 62.6634C91.0644 63.0082 90.4939 63.6243 89.9523 64.0888L86.0163 67.4796L69.8129 81.6742C64.1359 86.5452 58.371 91.313 52.521 95.975C45.5139 101.603 38.4846 107.113 31.1333 112.287C30.3736 112.822 25.9941 116.19 25.3447 116.153C25.983 115.592 26.7717 115.12 27.4668 114.628L31.6604 111.67C35.2586 109.123 38.808 106.507 42.3062 103.825C49.3915 98.2977 56.4716 92.6692 63.3364 86.8714C68.416 82.5812 73.3639 78.1432 78.3836 73.7846L86.7722 66.4289C88.1663 65.2167 89.8695 64.0472 91.0596 62.6436L91.2039 62.455C91.2991 62.4412 91.4496 62.4218 91.5388 62.3983C91.8423 62.3182 91.8515 62.2651 92.0019 62.0057C92.2496 62.1688 92.5151 62.3145 92.7697 62.467Z" fill="#2E0C05"/>
<path d="M98.9722 46.1585C99.712 45.909 100.931 45.3512 101.693 45.4638L101.684 45.5776C100.578 46.2411 99.1966 46.56 98.0119 47.0972C94.942 48.4891 92.1842 50.3492 89.6602 52.5749L89.6238 52.4909C90.6606 50.8499 95.8739 47.9298 97.6493 47.0544C98.2203 46.7728 100.253 46.2347 100.496 45.7967C99.8382 45.8654 99.07 46.2835 98.4504 46.5338L98.4338 46.4887L98.9722 46.1585Z" fill="#541406"/>
<path d="M116.358 39.0083L116.416 39.1318C115.612 40.0687 108.511 46.8216 107.767 47.0464C108.322 46.0975 111.766 43.2869 112.752 42.3834C113.966 41.2717 115.129 40.103 116.358 39.0083Z" fill="#541406"/>
<path d="M45.0638 99.4001C44.3521 99.9033 43.4409 100.694 42.5912 100.898C43.1847 100.206 44.2393 99.6334 44.9961 99.1009L45.0638 99.4001Z" fill="#160D08"/>
<path d="M64.4027 50.9812C65.3243 50.6118 66.3261 50.4559 67.3088 50.661C68.2517 50.8505 69.0721 51.4265 69.5703 52.2494C70.1397 53.1684 70.2419 54.2494 69.9883 55.2887C69.5397 57.1285 68.1639 58.4009 66.6058 59.3507C65.508 59.9041 64.2229 60.2559 63.0089 59.8628C62.1766 59.5932 61.5199 59 61.138 58.2155C60.5981 57.1065 60.6686 55.8257 61.0503 54.6792C61.6366 52.9183 62.7787 51.8053 64.4027 50.9812Z" fill="#752717"/>
<path d="M64.2624 52.252C65.1067 51.8978 66.012 51.5603 66.943 51.6728C67.624 51.7551 68.2217 52.0827 68.6229 52.6435C69.063 53.2588 69.1771 54.0468 69.0571 54.7822C68.8097 56.2975 67.7698 57.3066 66.5811 58.1562C65.7342 58.6188 64.7312 59.0822 63.7434 58.903C63.0881 58.7841 62.548 58.3968 62.1974 57.8337C61.7355 57.0914 61.6938 56.192 61.8937 55.3594C62.2293 53.9604 63.0749 52.9985 64.2624 52.252Z" fill="#EA5CE1"/>
<path d="M63.8257 53.185C64.1055 53.0837 64.4277 52.9819 64.7258 52.9695C65.2488 52.9475 65.7832 53.1652 66.159 53.5258C66.5785 53.928 66.8081 54.518 66.8024 55.0961C66.7957 55.8191 66.4903 56.3334 65.9891 56.8268C65.7566 56.9445 65.5186 57.0714 65.2681 57.1463C64.8455 57.2726 64.369 57.2718 63.9784 57.0486C63.5822 56.8222 63.3518 56.3799 63.2515 55.9484C63.0188 54.9464 63.3259 54.0397 63.8257 53.185Z" fill="#FFBFFF"/>
<path d="M87.1063 24.205C87.9408 23.8512 88.9739 23.7234 89.8622 23.9296C90.5333 24.0853 91.1232 24.4656 91.4834 25.0612C91.8399 25.6503 91.9066 26.3468 91.7316 27.0066C91.3692 28.3723 90.2235 29.3262 89.0464 29.9965C88.2472 30.4068 87.3527 30.6817 86.4508 30.4798C85.5293 30.2736 85.0015 29.69 84.5256 28.925C84.4702 28.3928 84.4832 27.8778 84.6068 27.3548C84.9493 25.9038 85.8611 24.9465 87.1063 24.205Z" fill="#752717"/>
<path d="M87.5497 24.9647C88.2659 24.7089 89.0039 24.5934 89.7234 24.9146C90.1638 25.1115 90.6163 25.5003 90.78 25.9662C90.9351 26.4082 90.838 26.864 90.6242 27.2679C90.0945 28.2683 88.9127 29.0926 87.8354 29.4037C87.2724 29.5663 86.5701 29.629 86.0437 29.3188C85.7558 29.1492 85.5767 28.8778 85.4982 28.5557C85.3258 27.8458 85.5453 26.9118 85.9308 26.3035C86.1128 26.0162 86.3446 25.7539 86.575 25.5045C86.8938 25.2875 87.1913 25.1093 87.5497 24.9647Z" fill="#EA5CE1"/>
<path d="M86.5751 25.5045C86.8939 25.2875 87.1914 25.1093 87.5498 24.9647L87.5529 25.1303C87.8305 25.1059 88.0221 25.1853 88.2338 25.371C88.5934 25.6859 88.8521 26.2189 88.8725 26.6977C88.8846 27.007 88.7625 27.3062 88.5377 27.5189C88.3007 27.7442 87.9723 27.846 87.6494 27.7946C87.2712 27.7324 86.9893 27.4635 86.7969 27.1465C86.5599 26.7556 86.5565 26.3839 86.5663 25.9413C86.568 25.7957 86.5709 25.6501 86.5751 25.5045Z" fill="#FFBFFF"/>
<path d="M84.0191 42.75C84.5852 42.5116 85.2108 42.3807 85.8263 42.441C86.3486 42.4919 86.8121 42.7447 87.1321 43.1617C87.5504 43.7068 87.6563 44.4255 87.5613 45.0923C87.3886 46.3042 86.7229 47.1128 85.777 47.8158C85.1483 48.1387 84.4941 48.4012 83.7764 48.2475C83.245 48.1339 82.8133 47.7959 82.5248 47.3418C82.0794 46.6409 81.963 45.7291 82.1683 44.9297C82.4352 43.8902 83.1164 43.2632 84.0191 42.75Z" fill="#752717"/>
<path d="M83.4894 44.0565C83.7809 43.5808 84.1729 43.4746 84.6825 43.3073C85.4122 43.3285 85.8363 43.4414 86.3867 43.9258C86.4666 44.1353 86.5587 44.3685 86.5904 44.5909C86.6589 45.072 86.4844 45.7424 86.2007 46.1329C85.8305 46.6423 85.1828 47.0297 84.5578 47.111C84.1129 47.1689 83.6558 47.0606 83.3075 46.7716C83.0178 46.5312 82.8197 46.1887 82.8007 45.8087C82.771 45.2143 83.1175 44.4994 83.4894 44.0565Z" fill="#EA5CE1"/>
<path d="M83.4895 44.0565C83.781 43.5808 84.1731 43.4746 84.6827 43.3073C85.4124 43.3286 85.8364 43.4415 86.3868 43.9259L86.4102 44.3197C85.9893 44.6022 85.9117 44.625 85.7488 45.0961C85.5025 45.3673 85.1175 45.6592 84.7684 45.7756C84.5304 45.8547 84.3513 45.8272 84.1358 45.6998C83.606 45.3865 83.5919 44.5802 83.4895 44.0565Z" fill="#FFBFFF"/>
<path d="M84.6826 43.3076C85.4123 43.3288 85.8364 43.4417 86.3868 43.9261L86.4102 44.32C85.9893 44.6025 85.9116 44.6252 85.7488 45.0963C85.2726 44.649 85.0545 43.8642 84.6826 43.3076Z" fill="#FFBFFF"/>
<path d="M38.5171 91.2564C38.8061 91.1377 39.1126 91.0037 39.4215 90.9525C40.2446 90.816 40.8671 91.2043 41.5085 91.6566C41.7785 92.3474 41.9541 92.9798 41.8366 93.7293C41.6839 94.7018 41.0736 95.4322 40.299 95.9956C39.8103 96.2609 39.2886 96.4176 38.7265 96.3827C38.2492 96.3531 37.8198 96.1519 37.5066 95.7881C37.0518 95.2603 36.8966 94.536 36.9707 93.8553C37.091 92.7506 37.6766 91.9323 38.5171 91.2564Z" fill="#752717"/>
<path d="M38.8813 91.9597C39.1551 91.8595 39.4663 91.7868 39.7599 91.8093C40.1375 91.8381 40.4893 91.9929 40.7169 92.3033C40.9786 92.6601 41.0137 93.1307 40.9238 93.552C40.7766 94.2409 40.3515 94.6512 39.7848 95.026C39.4854 95.1356 39.1385 95.2179 38.8169 95.193C38.4657 95.1661 38.1548 95.0116 37.9483 94.7225C37.7221 94.4057 37.676 93.9861 37.7331 93.6098C37.8518 92.8287 38.256 92.3975 38.8813 91.9597Z" fill="#EA5CE1"/>
<path d="M69.4533 37.944C69.9132 37.7588 70.3389 37.6602 70.8381 37.6729C71.3619 37.6863 71.8307 37.8351 72.1868 38.2357C72.5453 38.6392 72.6659 39.1823 72.6056 39.7103C72.4824 40.7881 71.7762 41.5063 70.9562 42.128C70.3427 42.4854 69.7171 42.7927 68.9858 42.6445C68.5445 42.5551 68.1811 42.2838 67.9458 41.9033C67.6029 41.3488 67.5654 40.6587 67.7243 40.0386C67.9772 39.0506 68.6148 38.4528 69.4533 37.944Z" fill="#752717"/>
<path d="M69.4383 38.7648C69.722 38.6469 70.0219 38.5318 70.331 38.5062C70.7024 38.4755 71.106 38.5889 71.3749 38.8541C71.6071 39.0832 71.7023 39.3959 71.69 39.7171C71.6647 40.3835 71.2201 40.757 70.7516 41.163C70.4534 41.3286 70.1283 41.5356 69.7802 41.5653C69.4518 41.5934 69.1073 41.4911 68.8821 41.2401C68.6668 41.0002 68.5921 40.6573 68.6038 40.3432C68.629 39.6605 68.9641 39.2195 69.4383 38.7648Z" fill="#EA5CE1"/>
<path d="M70.5411 39.0909L70.8053 39.0778L70.9582 39.2179C71.0392 39.6546 70.7581 40.0895 70.5607 40.4618C70.411 40.4141 70.2037 40.3651 70.0765 40.274C69.8756 40.1298 69.8828 40.0007 69.8789 39.7839C70.0496 39.4527 70.2419 39.3069 70.5411 39.0909Z" fill="#FFBFFF"/>
<path d="M66.0872 68.4435C66.6108 68.2651 67.1672 68.2021 67.7144 68.3147C68.0963 68.3934 68.4168 68.6343 68.6194 68.9656C68.8993 69.4234 68.9493 69.9935 68.8219 70.5077C68.5606 71.5618 67.8019 72.2199 66.9138 72.7534C66.4156 72.958 65.8195 73.0861 65.2859 72.9603C64.8399 72.8553 64.4894 72.5738 64.2763 72.1696C63.9793 71.606 63.9806 70.9031 64.1827 70.31C64.5117 69.3449 65.2049 68.8502 66.0872 68.4435Z" fill="#752717"/>
<path d="M65.4841 69.6747C66.0165 69.254 66.478 69.0269 67.1775 69.0906C67.394 69.1103 67.6235 69.1825 67.7799 69.341C67.9434 69.5069 68.0452 69.8635 68.0197 70.0992C68.0144 70.1484 67.9989 70.1962 67.9885 70.2446C67.7767 70.8967 67.323 71.4205 66.7087 71.7333C66.3085 71.9368 65.7784 72.0615 65.349 71.8725C65.127 71.7749 64.9644 71.5919 64.8998 71.3573C64.7315 70.7459 65.1526 70.1423 65.4841 69.6747Z" fill="#EA5CE1"/>
<path d="M65.4839 69.6743C66.0163 69.2536 66.4778 69.0265 67.1773 69.0902C67.3938 69.1099 67.6233 69.1821 67.7797 69.3407C67.9432 69.5065 68.045 69.8631 68.0195 70.0988C68.0142 70.148 67.9987 70.1958 67.9883 70.2442C67.8801 70.311 67.7834 70.3969 67.6818 70.4734C67.3576 70.717 67.0088 70.9037 66.5875 70.796C66.0554 70.66 65.7456 70.1129 65.4839 69.6743Z" fill="#FFBFFF"/>
<path d="M108.868 43.1013C112.584 40.0206 115.954 36.6734 119.298 33.2046C120.456 32.0044 121.664 30.8527 122.78 29.6126C124.139 28.1023 125.43 26.5257 126.729 24.9641C127.623 23.8884 128.482 22.6959 129.595 21.8369C128.663 23.5546 127.344 25.0669 126.105 26.5701C120.996 32.7492 115.248 38.3723 108.959 43.3466L108.868 43.1013Z" fill="url(#paint3_linear_209_640)"/>
<path d="M100.426 17.0527C100.541 17.0387 100.564 17.0329 100.698 17.0348C101.955 17.0521 103.299 17.2916 104.557 17.4152C110.265 17.9768 116.001 18.4611 121.532 20.0418C122.221 20.2386 123.448 20.5 123.942 21.0388C123.142 20.9608 122.248 20.6068 121.464 20.4028C120.024 20.0193 118.571 19.6879 117.107 19.4088C113.415 18.6874 109.203 18.2968 105.448 17.9003C104.672 17.8183 100.87 17.5622 100.426 17.0527Z" fill="#541406"/>
<path d="M71.5791 53.3271C71.7687 53.4238 71.8668 53.4416 71.9512 53.6498C72.2558 54.4009 72.1063 55.606 71.8162 56.3409C70.9524 58.5308 68.478 60.2039 66.4261 61.1436L66.3366 61.1266C66.5296 60.7149 68.0023 60.0586 68.4479 59.7373C69.4321 59.0273 70.4863 58.0497 71.1403 57.0128C71.9063 55.7984 71.9042 54.6728 71.5791 53.3271Z" fill="#160D08"/>
<path d="M38.4995 104.559L38.5375 104.667C38.242 105.385 33.6375 108.565 32.7334 108.966L32.6859 108.865C32.8938 108.448 37.6766 105.131 38.4995 104.559Z" fill="#2E0C05"/>
<path d="M93.3712 26.7934L93.4844 26.8517C93.6051 27.2228 93.5576 27.4298 93.4094 27.7842C92.7025 29.4755 90.839 30.9496 89.1882 31.6454L89.1061 31.6185C89.1767 31.4523 89.1215 31.52 89.2733 31.4174C91.0832 30.1944 92.9196 29.1255 93.3712 26.7934Z" fill="#160D08"/>
<path d="M74.1542 40.1437L74.2378 40.1855C74.3166 40.4312 74.2883 40.563 74.1722 40.7986C73.4908 42.1801 72.0812 43.3993 70.6362 43.8943L70.4923 43.8024C70.7047 43.4674 71.4912 43.2953 71.8505 43.0546C72.9141 42.3416 73.5927 41.2645 74.1542 40.1437Z" fill="#160D08"/>
<path d="M54.1925 87.7291C54.3056 87.9923 54.2447 88.2678 54.1777 88.5376C54.0643 88.994 53.7203 89.4753 53.2929 89.6898C53.0729 89.8004 52.944 89.7811 52.717 89.7176C52.542 89.4371 52.5897 89.347 52.6166 89.0253C52.6241 88.9997 52.6305 88.9739 52.6389 88.9486C52.7012 88.7584 52.7448 88.4795 52.9252 88.3917C52.9967 88.6234 53.0099 88.7938 53.0022 89.038C52.9965 89.2159 52.9777 89.2817 53.0523 89.4453C53.5585 89.0866 53.8875 88.2666 54.1925 87.7291Z" fill="#541406"/>
<path d="M118.473 25.1355L118.522 25.2653C118.229 25.8504 116.367 27.198 115.761 27.5455L115.694 27.4153C115.961 26.7535 117.806 25.5076 118.473 25.1355Z" fill="#2E0C05"/>
<path d="M108.603 27.1679C108.78 27.1391 108.785 27.1576 108.943 27.2159C108.822 27.7414 107.808 28.3726 107.372 28.7195C107.274 28.8115 107.343 28.7567 107.145 28.8522L107.109 28.7355C107.369 28.0441 108.031 27.5902 108.603 27.1679Z" fill="#541406"/>
<path d="M81.0205 18.7236C81.6524 18.5797 82.3191 18.3962 82.969 18.3641C83.2827 18.3487 83.3728 18.3689 83.6064 18.5764C83.008 18.8292 81.8039 19.0629 81.1669 18.9421L81.0205 18.7236Z" fill="#541406"/>
<path d="M71.6192 25.7327L71.8395 25.7716L71.8659 25.9414C71.6053 26.3783 71.1317 27.1529 70.6579 27.3788C70.4771 27.465 70.5518 27.3855 70.4591 27.5436L70.5895 27.6954L70.4994 27.7359C70.2683 27.7531 70.1045 27.7663 69.878 27.702C70.0323 27.2903 71.1351 26.8033 71.6192 25.7327Z" fill="#2E0C05"/>
<path d="M108.96 43.3467C108.347 43.8089 107.119 45.0439 106.397 45.1365C107.092 44.3865 108.035 43.6992 108.868 43.1013L108.96 43.3467Z" fill="#160D08"/>
<path d="M117.277 29.9473C117.441 29.883 117.583 29.8605 117.756 29.8323L117.781 29.9392C117.462 30.3291 117.048 30.6126 116.651 30.9164C116.537 30.9991 116.398 31.0341 116.268 31.0825L116.178 30.9755L116.2 30.837C116.498 30.4254 116.856 30.2143 117.277 29.9473Z" fill="#541406"/>
<path d="M116.095 24.6871L116.245 24.7126C116.138 25.1611 114.846 25.959 114.464 26.2456L114.295 26.1961L114.302 26.0473C114.804 25.4905 115.455 25.068 116.095 24.6871Z" fill="#2E0C05"/>
<path d="M55.8298 86.973L56.122 86.995L56.1944 87.1042C56.0224 87.4807 55.6507 87.7552 55.35 88.0315C55.238 88.1288 55.1986 88.1292 55.0573 88.1562C55.054 88.1237 55.0462 88.0913 55.047 88.0586C55.0592 87.6457 55.552 87.2461 55.8298 86.973Z" fill="#541406"/>
<path d="M72.3386 26.3532C72.3901 26.4718 72.408 26.4626 72.3901 26.5796C72.2961 27.194 71.5909 27.7181 71.1218 28.0479L71.0797 27.9634C71.1008 27.6317 72.0768 26.7345 72.3386 26.3532Z" fill="#160D08"/>
<path d="M106.124 29.0041C106.307 28.9804 106.206 28.9762 106.425 29.046C106.375 29.3757 106.124 29.6055 105.921 29.8661C105.691 29.8914 105.801 29.908 105.59 29.8167C105.648 29.4954 105.917 29.2524 106.124 29.0041Z" fill="#160D08"/>
<path d="M28.7384 129.803C31.1411 129.106 33.3948 129.429 35.5841 130.639C39.1307 132.598 41.047 135.908 42.2561 139.645C43.1106 142.201 43.3737 144.992 42.6566 147.611C42.1477 149.471 40.8796 152.194 39.0961 153.146C38.6019 153.409 37.7219 153.812 37.1805 153.644C37.2067 153.19 38.7156 151.537 38.8952 149.863C39.1075 147.884 38.4096 145.788 37.1439 144.272C36.1356 143.064 34.7706 142.167 33.1764 142.039L33.0431 142.029C32.4433 140.451 31.8742 138.862 31.3358 137.261C34.3803 137.46 36.827 138.998 38.9787 141.074C39.4271 141.507 39.8361 142.207 40.3698 142.499L40.4062 142.402C40.179 141.956 39.8693 141.566 39.5532 141.18C38.9728 140.471 38.1978 139.821 37.4737 139.263C35.3647 137.637 33.8427 137.153 31.2266 136.906C30.8613 135.867 30.5082 134.823 30.1673 133.776L30.1938 133.507L30.0642 133.418C29.871 133.056 29.5414 132.376 29.6317 131.972L29.6325 131.825C29.154 131.564 28.9074 130.318 28.7384 129.803Z" fill="#FEA4FE"/>
<path d="M28.7384 129.803C31.1411 129.106 33.3948 129.429 35.5841 130.639C39.1307 132.598 41.047 135.908 42.2561 139.645L41.9946 139.826C41.3893 139.489 40.9277 138.201 40.511 137.604C40.1442 137.078 39.7432 136.577 39.3107 136.104C37.5428 134.183 34.74 132.422 32.1224 132.046C31.3042 131.929 30.4577 132.01 29.6317 131.972L29.6325 131.825C29.154 131.564 28.9074 130.318 28.7384 129.803Z" fill="url(#paint4_linear_209_640)"/>
<path d="M29.6322 131.825C31.6783 131.203 34.0219 132.027 35.8182 132.993C38.4406 134.404 41.0811 136.81 41.9745 139.749C41.9822 139.774 41.9878 139.8 41.9943 139.826C41.389 139.489 40.9275 138.2 40.5107 137.603C40.144 137.078 39.743 136.577 39.3105 136.104C37.5426 134.182 34.7398 132.422 32.1222 132.046C31.3039 131.928 30.4574 132.01 29.6315 131.972L29.6322 131.825Z" fill="#541406"/>
<path d="M30.1935 133.507C33.2899 133.496 36.3737 135.421 38.5061 137.54C39.5638 138.591 40.3811 139.714 40.9868 141.075C40.9614 141.052 40.9357 141.029 40.9109 141.005C40.1299 140.257 39.5894 139.275 38.8577 138.475C36.7519 136.174 33.2928 134.158 30.1671 133.775L30.1935 133.507Z" fill="url(#paint5_linear_209_640)"/>
<path d="M45.3069 69.6693C45.559 69.682 45.6666 69.7469 45.855 69.9176C46.974 70.9324 47.5849 72.8545 47.6919 74.3314C47.8407 76.3177 47.185 78.2803 45.8722 79.7784C44.6917 81.1252 43.3783 81.7976 41.5794 81.9094C41.0283 81.8582 40.5556 81.7832 40.0251 81.6182C40.5311 79.8409 41.4283 78.0597 42.1883 76.3763C43.2021 74.13 44.2033 71.873 45.3069 69.6693Z" fill="#FFC5F6"/>
<defs>
<linearGradient id="paint0_linear_209_640" x1="163.484" y1="118.658" x2="29.713" y2="94.6605" gradientUnits="userSpaceOnUse">
<stop stop-color="#FFBDFE"/>
<stop offset="1" stop-color="#FF98C6"/>
</linearGradient>
<linearGradient id="paint1_linear_209_640" x1="129.169" y1="31.6246" x2="129.571" y2="31.9993" gradientUnits="userSpaceOnUse">
<stop stop-color="#57280D"/>
<stop offset="1" stop-color="#6D1C12"/>
</linearGradient>
<linearGradient id="paint2_linear_209_640" x1="66.8472" y1="80.5887" x2="67.4255" y2="81.2709" gradientUnits="userSpaceOnUse">
<stop stop-color="#361000"/>
<stop offset="1" stop-color="#671405"/>
</linearGradient>
<linearGradient id="paint3_linear_209_640" x1="118.688" y1="32.4222" x2="119.743" y2="33.3924" gradientUnits="userSpaceOnUse">
<stop stop-color="#361403"/>
<stop offset="1" stop-color="#661706"/>
</linearGradient>
<linearGradient id="paint4_linear_209_640" x1="35.7076" y1="129.66" x2="35.4163" y2="139.505" gradientUnits="userSpaceOnUse">
<stop stop-color="#F47FD6"/>
<stop offset="1" stop-color="#F7A7F3"/>
</linearGradient>
<linearGradient id="paint5_linear_209_640" x1="34.8829" y1="138.123" x2="36.0517" y2="135.415" gradientUnits="userSpaceOnUse">
<stop stop-color="#2E1102"/>
<stop offset="1" stop-color="#601504"/>
</linearGradient>
</defs>
</svg>
