<svg width="632" height="742" viewBox="0 0 632 742" fill="none" xmlns="http://www.w3.org/2000/svg">
<path d="M131.504 145.213C132.051 147.211 132.59 149.222 133.264 151.181C140.957 173.544 168.442 190.613 188.76 200.62C198.079 205.21 208.062 209.694 217.856 213.139C265.876 230.034 321.88 236.947 372.597 238.783C383.137 239.165 393.692 239.572 404.241 239.314C450.59 238.182 505.135 230.764 549.025 215.755C579.098 205.469 616.89 188.503 631.581 158.529C631.687 171.604 630.547 185.362 627.665 198.118C621.115 227.104 609.015 248.546 587.104 268.668C580.008 275.185 572.692 281.108 564.544 286.266C539.445 301.422 512.26 312.818 483.856 320.09C479.21 347.599 469.426 377.149 450.383 398.106C430.567 419.941 402.804 432.889 373.34 434.039C348.173 435.058 321.316 424.696 302.937 407.592C277.221 383.661 269.527 349.702 268.327 315.911C236.149 305.21 188.698 282.026 164.918 257.207C137.213 228.291 130.736 183.709 131.504 145.213Z" fill="#FADEE6"/>
<path d="M141.816 181.166C146.261 182.774 154.818 202.65 161.689 203.488C165.958 204.01 166.376 197.208 168.858 195.196C172.415 196.393 170.457 209.596 173.947 213.607C180.252 220.857 188.792 211.448 191.914 211.699C193.841 214.381 193.346 218.016 195.641 221.216C199.19 226.165 204.539 228.905 210.448 229.831C221.057 231.492 224.414 228.205 232.296 222.449C232 224.919 231.48 227.635 231.626 230.117C231.856 234.033 233.482 237.743 236.538 240.267C240.431 243.483 246.596 243.931 251.271 242.322C253.375 241.597 255.135 240.431 257.382 240.157C259.105 240.642 261.707 245.203 263.235 246.627C265.48 248.72 268.234 249.974 271.34 249.809C282.241 249.228 277.514 237.809 280.312 234.761L280.965 234.828C283.11 237.543 284.027 241.608 285.622 244.712C288.332 249.987 293.05 255.309 298.864 257.047C303.413 258.407 309.931 257.927 314.098 255.516C317.161 253.743 318.103 251.042 319.033 247.846C321.89 250.289 324.002 253.479 326.975 255.848C333.383 260.954 341.392 260.576 347.942 255.876C350.679 253.911 351.848 251.943 355.433 251.56L355.731 252.387L355.757 252.392C354.095 255.603 351.403 257.351 348.534 259.388C350.006 260.305 351.496 261.163 353.163 261.679C356.949 262.848 361.004 262.455 364.417 260.418C366.513 259.166 369.664 256.447 370.298 254.019C369.53 253.405 368.444 252.729 368.034 251.818C367.797 251.289 367.983 251.311 368.259 250.664C370.528 249.919 380.82 249.345 382.925 250.23C383.724 250.565 383.441 250.354 383.805 251.234L383.265 252.143C381.919 253.191 380.302 253.058 378.668 253.136C382.182 257.036 385.877 259.986 391.094 261.216C403.241 264.081 414.845 256.677 424.746 250.69C426.561 252.989 428.295 255.334 430.69 257.073C439.343 263.356 449.796 258.013 456.516 251.508C458.363 249.721 461.453 244.575 463.821 244.199C466.077 245.928 466.894 249.805 468.935 252.038C470.68 253.946 472.97 255.175 475.583 255.248C485.921 255.531 494.54 244.82 501.355 238.744C503.765 238.254 505.405 246.006 509.676 247.508C514.04 249.044 520.143 246.459 524.094 244.498C530.51 241.313 534.046 235.601 536.244 228.985C536.403 228.51 536.543 228.067 536.762 227.613C537.196 226.708 537.209 226.646 538.117 226.318C542.396 227.942 544.806 233.417 548.953 235.844L549.453 236.13C558.683 235.517 567.664 230.314 571.587 221.659C572.82 218.937 573.525 215.382 575.856 213.399C578.76 213.632 583.082 219.299 588.642 219.81C592.538 220.169 596.173 218.811 599.057 216.211C601.131 214.341 603.134 211.789 603.161 208.866C603.203 204.268 599.183 202.157 596.459 199.192C595.744 198.413 595.588 198.005 595.65 196.971L596.36 196.379C598.686 196.883 600.75 198.816 602.798 200.008C605.458 201.555 608.559 202.531 611.612 201.612C617.926 199.71 616.807 195.029 619.563 190.502C620.053 189.697 620.214 189.702 621.076 189.535L621.967 190.24C622.875 194.203 620.578 200.727 619.697 204.705C617.947 212.333 614.96 219.666 611.294 226.564C584.278 277.399 529.857 298.635 477.947 314.715C476.007 321.69 474.664 328.828 472.604 335.772C466.568 356.131 456.361 377.081 441.714 392.574C423.514 411.828 399.556 422.971 372.932 423.654C347.925 424.294 324.419 416.766 306.156 399.28C283.35 377.442 274.768 341.128 274.004 310.467C270.712 309.546 267.458 308.441 264.221 307.345C246.83 301.352 229.977 293.894 213.846 285.052C188.534 271.039 165.443 254.488 152.293 227.73C147.314 217.599 138.135 191.919 141.816 181.166Z" fill="#250410"/>
<path d="M144.623 189.016C146.145 191.464 147.652 193.936 149.271 196.321C152.058 200.43 156.078 205.887 161.314 206.664C163.922 207.051 165.568 205.934 167.624 204.488C168.006 206.95 168.43 209.799 169.405 212.094C170.655 215.04 172.778 217.404 175.826 218.511C180.66 220.267 185.481 218.793 189.899 216.684C190.358 218.095 190.802 219.551 191.46 220.883C194.248 226.527 199.696 230.46 205.602 232.315C213.051 234.718 221.159 233.98 228.052 230.272C228.239 231.371 228.455 232.463 228.697 233.551C229.666 237.736 232.29 241.712 236.011 243.924C242.562 247.816 249.796 245.96 256.622 244.111C258.962 247.851 261.927 250.78 266.199 252.205C269.514 253.312 273.534 253.435 276.695 251.783C279.641 250.243 280.827 248.047 281.874 245.006C283.888 249.148 286.413 252.595 290.002 255.506C295.126 259.66 301.028 261.462 307.6 260.769C312.686 260.232 316.956 258.355 320.191 254.331C322.699 257.221 325.387 259.707 328.928 261.284C334.928 263.956 340.186 262.948 346.078 260.8C349.644 263.789 353.57 265.557 358.312 265.343C364.708 265.055 368.666 261.288 372.634 256.77L374.657 253.279C378.188 256.999 381.301 260.064 385.756 262.699C394.656 266.345 401.391 264.889 410.435 262.742C414.422 264.087 418.152 266.094 421.931 267.925C433.121 273.349 444.631 278.977 457.251 279.799C466.841 280.423 473.814 276.449 480.756 270.287C484.095 267.323 501.08 251.356 501.256 248.367C498.174 247.074 480.766 266.667 477.283 269.625C474.39 272.083 471.199 274.177 467.599 275.445C451.509 281.114 427.725 267.881 413.167 260.905C416.884 259.051 420.368 256.893 423.888 254.699C424.845 255.808 425.804 256.943 426.834 257.984C430.062 261.188 434.444 262.957 438.992 262.889C449.215 262.765 456.409 256.069 463.1 249.209C464.119 251.118 465.201 253.046 466.738 254.596C469.351 257.231 472.637 258.534 476.347 258.401C486.443 258.042 494.783 249.486 501.353 242.724C501.676 243.649 502.003 244.583 502.422 245.468C503.643 248.048 506.067 250.173 508.801 251.012C514.097 252.637 521.213 249.845 525.899 247.344C532.949 243.583 537.092 237.362 539.374 229.901C541.459 233.322 543.716 236.689 547.618 238.206C551.662 239.777 556.445 238.493 560.233 236.73C568.688 232.794 573.665 225.812 576.839 217.287C579.006 219.055 581.116 220.754 583.784 221.725C588.32 223.377 593.669 222.856 597.975 220.731C601.506 218.988 605.46 214.966 605.916 210.884C606.117 209.079 605.888 207.007 606.505 205.296C607.956 205.248 609.406 205.18 610.856 205.094C614.007 204.891 615.471 202.985 617.416 200.785C613.704 216.689 606.527 230.647 596.437 243.45C558.524 291.556 481.339 315.198 422.81 322.053C404.502 324.211 386.05 324.886 367.633 324.071C322.264 322.446 286.573 313.692 244.898 296.375C224.907 288.068 204.245 277.859 187.222 264.338C162.247 244.5 148.289 220.748 144.623 189.016Z" fill="#E66DA5"/>
<path d="M374.657 253.279C378.188 256.999 381.301 260.064 385.756 262.699C384.526 262.912 383.211 262.936 381.968 262.838C377.801 262.507 375.159 259.792 372.635 256.77L374.657 253.279Z" fill="#C14286"/>
<path d="M544.822 255.074C546.067 255.072 546.87 255.123 548.063 255.558C548.886 256.305 549.22 257.026 549.291 258.132C549.466 260.865 547.744 263.264 545.967 265.151C535.526 276.242 504.173 288.784 488.813 289.15C486.873 288.587 485.22 287.688 484.234 285.814C483.769 284.93 483.69 283.962 484.129 283.043C485.635 279.891 493.547 278.022 496.658 277.133C505.329 274.655 514.385 272.139 522.365 267.843C529.231 264.147 537.794 257.223 544.822 255.074Z" fill="#C14286"/>
<path d="M321.609 295.903C326.956 295.564 336.303 296.274 340.567 299.789C341.517 300.571 341.686 301.071 341.864 302.254C340.959 304.299 338.913 305.047 336.954 305.813C332.292 306.257 327.748 306.073 323.211 304.811C321.094 304.222 318.224 303.248 317.254 301.056C316.862 300.17 316.79 298.941 317.277 298.073C318.112 296.588 320.113 296.264 321.609 295.903Z" fill="#C14286"/>
<path d="M422.299 300.464C423.696 300.36 425.235 300.322 426.591 300.702C428.462 301.225 429.616 302.321 430.538 303.98C430.561 304.693 430.714 305.17 430.329 305.809C429.324 307.474 427.401 307.657 425.654 308.035C424.647 308.07 423.639 308.094 422.631 308.105C420.421 308.124 417.672 307.743 416.226 305.813C415.565 304.93 415.825 304.428 416.092 303.491C417.796 301.584 419.864 300.994 422.299 300.464Z" fill="#C14286"/>
<path d="M277.265 311.965C327.723 328.534 382.914 331.295 435.301 323.588C448.459 321.652 461.36 318.806 474.304 315.795C468.519 340.117 461.895 360.494 447.134 381.044C444.842 384.028 442.439 386.924 439.931 389.728C422.873 408.595 399.679 419.254 374.297 420.422C350.913 421.497 327.438 414.425 310.029 398.434C286.898 377.186 278.544 342.27 277.265 311.965Z" fill="#E66DA5"/>
<path d="M104.68 18.0744C129.516 10.811 149.345 11.3336 172.431 23.8686C201.104 39.439 225.494 70.7539 239.526 99.6547C242.174 105.11 244.962 110.944 246.662 116.762C247.075 118.173 247.342 119.474 247.207 120.941C246.102 121.51 244.817 121.5 243.591 121.638C243.752 122.209 243.825 122.996 244.259 123.427C245.996 125.151 250.5 124.798 252.844 124.661C256.668 124.438 262.296 124.222 264.999 121.208C266.799 116.099 258.013 100.83 255.834 95.4942C265.496 93.2147 275.741 92.0498 285.594 90.8529C306.829 88.2927 328.177 86.7714 349.56 86.2957C360.25 86.0074 370.963 85.667 381.651 86.1704C368.462 91.0261 345.821 99.8295 337.19 111.044C338.229 116.22 345.478 136.518 348.562 139.983C353.035 145.011 372.595 155.923 379.423 156.165C388.624 156.492 416.991 146.932 423.749 140.701C426.12 138.514 427.807 136.026 427.889 132.728C428.158 121.795 421.881 108.396 414.987 100.17C411.008 95.4228 406.114 91.3186 401.835 86.8185C418.579 87.2404 435.525 89.5821 452.102 91.8472C474.601 95.0386 496.848 99.8085 518.678 106.121C545.957 113.98 600.205 133.745 617.283 156.236C605.715 173.938 586.293 185.563 567.475 194.35C567.275 192.678 567.136 190.767 566.56 189.184C564.995 184.885 541.735 170.035 536.638 167.714C536.233 167.754 535.829 167.801 535.427 167.856C526.462 169.094 499.671 178.639 494.512 185.711C490.731 190.894 493.198 210.475 494.226 217.029C490.905 217.499 487.599 218.074 484.314 218.752C486.316 216.792 489.357 214.085 489.154 211.013C489.056 209.541 487.968 208.519 486.908 207.631C481.569 203.158 473.02 200.677 466.634 198.011L443.13 188.169C435.562 184.965 428.031 181.111 420.303 178.364C418.715 177.8 416.692 177.118 415 177.391C412.797 177.745 410.53 180.039 409.044 181.609C404.211 186.718 400.169 192.762 395.902 198.356C388.694 207.837 381.33 217.198 373.813 226.435C356.477 225.524 339.296 224.625 322.054 222.434C273.802 216.305 217.785 205.136 176.745 177.941C167.736 171.972 159.034 165.132 152.417 156.51C148.189 150.999 143.352 143.27 144.472 136.013C144.848 133.572 145.902 131.692 148.225 130.669C153.927 128.161 164.241 129.214 170.651 129.008C184.64 128.622 198.614 127.858 212.561 126.717C218.437 126.286 224.752 126.303 230.504 125.091C232.518 124.666 234.711 123.964 236.364 122.691C237.932 121.484 238.197 120.482 238.375 118.542C238.391 118.374 238.402 118.208 238.415 118.041C235.603 104.541 226.121 85.6737 216.74 75.4052C213.706 72.0835 209.265 67.8314 204.504 67.7574C201.54 67.7121 198.717 69.8654 196.558 71.7019C192.466 75.1833 188.855 79.7061 185.24 83.701C173.125 97.087 162.265 111.45 149.665 124.407C152.686 118.37 157.415 112.421 161.135 106.707L183.028 72.7282C186.767 66.4303 194.839 55.586 192.97 47.9568C191.215 40.7948 179.736 33.9615 173.784 30.6524C165.586 26.0943 149.138 18.63 139.711 21.2616C138.108 21.7093 136.817 22.5679 136 24.0443C135.172 25.5413 135.141 28.0115 135.067 29.7186C134.381 45.4714 135.278 63.2641 135.522 79.1699C135.711 91.3976 134.974 104.231 136.553 116.355L136.816 118.417L136.1 118.137C135.817 116.334 135.465 114.576 135.04 112.802C134.517 115.371 135.514 118.545 133.586 120.731C133.606 117.741 134.387 114.782 134.363 111.745C134.324 106.575 133.625 101.274 133.153 96.1271C132.124 84.9198 130.93 73.6813 129.031 62.5833C127.878 55.8399 123.017 24.0813 118.235 21.0534C115.115 19.0774 110.251 20.4896 106.91 21.0879C107.519 20.6909 108.027 20.3608 108.548 19.8466L108.17 18.9293C106.949 18.2718 106.055 18.1587 104.68 18.0744Z" fill="#E66DA5"/>
<path d="M104.68 18.0744C129.516 10.811 149.345 11.3336 172.43 23.8686C201.104 39.439 225.494 70.7539 239.526 99.6547C242.174 105.11 244.962 110.944 246.662 116.762C247.075 118.173 247.342 119.474 247.207 120.941C246.102 121.51 244.817 121.5 243.591 121.638L243.431 121.815L243.2 121.462C244.301 120.267 245.736 120.872 246.606 119.729C245.617 117.655 245.45 115.454 244.726 113.284C243.761 110.39 242.426 107.572 241.153 104.8C232.562 86.3074 221.298 69.1787 207.723 53.9639C204.962 50.8372 202.175 47.4575 198.954 44.8049C195.874 42.2674 193.241 38.1993 189.241 37.2932C188.298 37.0789 188.251 36.9209 187.388 37.4622C188.322 41.5117 193.266 44.1182 193.945 48.6216C194.978 55.4709 187.753 66.9144 183.994 72.3575L183.689 72.7929C181.763 76.3222 179.524 79.8154 177.268 83.1429C178.106 84.5121 178.874 86.199 180.304 87.0135C186.858 86.0057 196.709 58.8934 211.834 69.799C222.744 77.6654 231.719 96.2078 236.255 108.669C237.184 111.219 238.427 113.809 238.81 116.512C238.881 117.021 238.93 117.519 238.97 118.032L238.62 118.206L238.415 118.041C235.603 104.541 226.121 85.6737 216.74 75.4052C213.706 72.0835 209.265 67.8314 204.504 67.7574C201.54 67.7121 198.717 69.8654 196.558 71.7019C192.466 75.1833 188.855 79.7061 185.24 83.701C173.125 97.087 162.265 111.45 149.664 124.407C152.686 118.37 157.415 112.421 161.135 106.707L183.028 72.7282C186.767 66.4303 194.839 55.586 192.97 47.9568C191.215 40.7948 179.736 33.9615 173.784 30.6524C165.586 26.0943 149.138 18.63 139.711 21.2616C138.108 21.7093 136.817 22.5679 136 24.0443C135.172 25.5413 135.141 28.0115 135.067 29.7186C134.381 45.4714 135.278 63.2641 135.522 79.1699C135.711 91.3976 134.974 104.231 136.553 116.355L136.816 118.417L136.1 118.137C135.817 116.334 135.465 114.576 135.04 112.802C134.517 115.371 135.514 118.545 133.586 120.731C133.606 117.741 134.387 114.782 134.363 111.745C134.324 106.575 133.625 101.274 133.153 96.1271C132.124 84.9198 130.93 73.6813 129.031 62.5833C127.878 55.8399 123.017 24.0813 118.235 21.0534C115.115 19.0774 110.251 20.4896 106.91 21.0879C107.519 20.6909 108.027 20.3608 108.548 19.8466L108.17 18.9293C106.949 18.2718 106.055 18.1587 104.68 18.0744Z" fill="#FBB4E2"/>
<path d="M492.309 100.788C492.765 100.756 493.222 100.742 493.679 100.745C498.255 100.766 502.976 105.856 505.974 108.943C512.577 115.742 534.736 145.491 534.292 154.073C534.186 156.127 532.882 157.7 531.379 158.994C524.944 164.529 494.663 175.774 485.195 177.794C481.845 178.509 478.728 178.696 475.32 178.436C473.072 178.111 470.86 177.571 468.715 176.824C457.077 172.86 437.927 158.701 432.728 147.399C431.995 145.802 431.576 144.058 432.253 142.368C433.944 138.14 438.962 134.454 442.415 131.628C457.633 119.219 474.406 108.851 492.309 100.788Z" fill="#250410"/>
<path d="M493.155 104.116C494.7 103.956 495.539 104.238 496.764 105.157C500.456 107.931 503.822 111.715 506.78 115.239C511.622 121.008 530.721 146.874 531.117 153.208C531.189 154.373 530.631 155.151 529.848 155.953C524.46 161.465 488.403 175.125 479.649 175.248C466.864 175.429 453.786 166.137 445.046 157.625C442.304 154.955 434.971 148.059 435.448 143.821C435.67 141.847 439.468 137.815 441.208 136.972C442.501 136.344 442.684 137.685 443.662 138.147C444.238 138.418 445.679 138.374 446.365 138.403C449.7 138.542 463.012 137.847 465.015 138.727C466.748 139.488 468.216 144.559 468.944 146.395C470.918 151.467 477.472 168.944 480.719 172.012L481.236 171.731C481.167 167.959 471.209 144.115 469.342 138.848C474.716 135.421 479.886 131.696 485.329 128.36C489.053 126.076 493.279 124.092 496.782 121.525C497.674 120.872 497.9 120.591 498.03 119.502L497.276 118.781C492.024 118.427 472.761 134.133 466.5 136.694C464.097 137.678 462.895 135.867 460.576 135.697C454.818 135.275 448.113 135.385 442.415 136.186C457.244 122.401 475.28 113.219 493.155 104.116Z" fill="#FADEE6"/>
<path d="M240.914 127.81C243.874 127.821 246.397 128.601 249.121 129.669C257.53 132.966 265.815 136.823 274.038 140.563C278.967 142.806 284.503 144.949 289.045 147.907C290.378 148.776 291.563 149.631 292.221 151.122C292.355 156.61 279.018 193.574 275.998 198.713C266.318 198.123 256.59 198.29 246.895 197.958C240.265 197.791 233.639 198.012 227.013 197.625C221.012 192.803 196.007 179.796 194.623 172.306C194.377 170.975 195.434 169.179 196.145 168.138C201.212 160.726 229.295 134.045 236.983 129.238C238.224 128.461 239.494 128.107 240.914 127.81Z" fill="#250410"/>
<path d="M239.91 131.031C241.903 131.017 243.681 131.32 245.576 131.922C251.541 133.816 257.412 136.83 263.131 139.38C271.777 143.235 281.123 146.782 289.044 151.964L274.217 195.056C265.756 194.961 257.269 194.469 248.802 194.278C242.652 194.132 235.907 194.847 229.852 193.936C223.785 193.023 201.588 176.894 197.797 171.786C203.427 163.276 230.762 136.475 239.91 131.031Z" fill="#FADEE6"/>
<path d="M237.047 145.315C242.365 146.296 273.934 159.508 276.715 162.454C277.265 163.036 277.074 163.247 277.057 164.003C276.441 164.111 275.816 164.242 275.187 164.215C273.709 164.153 238.059 148.679 237.135 147.408C236.735 146.857 237.002 145.962 237.047 145.315Z" fill="#250410"/>
<path d="M309.947 138.352C311.98 138.12 314.111 138.14 316.155 138.213C321.648 138.41 327.274 139.474 332.547 140.992C341.179 143.479 367.067 153.846 372.372 159.911C373.196 160.852 373.908 161.96 373.736 163.261C373.119 167.928 360.392 188.475 356.754 193.406C354.73 196.149 352.608 198.903 349.82 200.908C349.113 201.173 348.395 201.437 347.658 201.605C340.429 203.249 295.507 187.867 288.187 182.688C287.258 182.029 286.448 181.334 286.316 180.149C285.671 174.342 299.111 145.74 302.993 140.816C304.606 138.772 307.557 138.67 309.947 138.352Z" fill="#250410"/>
<path d="M308.437 141.676C314.999 141.235 321.589 141.746 328.005 143.191C340.302 145.933 361.161 154.734 370.889 162.85C366.746 171.131 355.871 189.978 349.745 196.414C348.67 197.259 347.405 198.054 346.03 198.263C339.197 199.305 295.781 183.439 289.321 179.062C292.116 170.727 300.35 150.972 304.938 143.777C305.962 142.169 306.679 142.055 308.437 141.676Z" fill="#FADEE6"/>
<path d="M316.508 152.661C321.9 153.777 330.815 158.161 335.591 161.117C336.889 161.921 339.575 163.583 339.773 165.28C340.224 169.131 329.863 185.531 327.184 189.242L326.132 188.759C324.873 185.262 335.782 170.737 337.437 165.788C331.01 161.465 323.34 158.518 316.271 155.425C315.876 154.304 316.216 153.773 316.508 152.661Z" fill="#250410"/>
<path d="M357.918 161.058C358.821 160.909 359.374 160.866 360.261 161.109L360.689 161.888L360.364 162.608C356.717 165.014 347.956 165.667 343.427 166.45C341.911 166.369 341.57 166.468 340.324 165.519L340.353 164.736C342.749 162.647 354.38 161.559 357.918 161.058Z" fill="#250410"/>
<path d="M559.936 139.333C561.122 139.346 561.463 139.245 562.434 139.891C561.918 142.301 558.325 143.694 557.58 146.598C557.744 147.467 558.029 148.01 558.677 148.63C561.938 151.754 569.161 152.107 573.484 151.966C577.735 151.828 581.454 151.343 584.476 148.092C584.805 147.739 585.117 147.371 585.461 147.033C586.279 146.226 586.561 146.052 587.705 146.073C588.579 146.822 588.667 147.626 588.905 148.692C588.391 149.419 587.847 150.151 587.172 150.737C582.631 154.678 573.66 155.21 567.89 154.722C563.688 154.367 558.428 153.25 555.68 149.778C554.693 148.531 554.193 147.022 554.476 145.436C554.998 142.507 557.621 140.827 559.936 139.333Z" fill="#250410"/>
<path d="M341.381 432.975C354.597 436.979 367.33 437.745 380.994 436.924C379.223 445.962 376.672 454.863 374.878 463.91C367.354 501.865 363.031 541.449 367.503 580.07C371.05 610.692 378.828 642.915 393.931 670.022C395.775 673.331 398.159 678.486 401.235 680.75C402.032 681.336 402.194 681.305 403.119 681.179C403.294 680.89 403.629 680.65 403.643 680.313C403.712 678.596 397.814 670.269 396.526 668.097C384.711 648.168 376.81 617.831 373.179 595.1C406.28 600.048 452.776 611.176 479.451 632.156C490.212 640.618 500.579 651.999 502.175 666.18C503.394 677.015 498.504 687.384 491.852 695.65C468.67 724.459 415.873 736.527 380.758 740.313C331.781 743.907 274.473 739.991 232.404 712.007C219.508 703.43 206.046 690.955 203.001 675.07C200.985 664.555 204.485 654.634 210.364 645.948C232.088 613.845 290.02 601.581 326.038 594.786C321.769 612.885 313.271 635.422 304.511 651.774C301.838 656.762 293.445 668.478 292.225 672.586C292.713 673.467 292.649 673.302 293.478 673.666C294.7 673.103 295.422 672.126 296.265 671.118C302.793 663.298 307.44 653.315 311.832 644.176C334.198 597.634 343.826 534.268 344.044 482.979C344.115 466.212 342.961 449.655 341.381 432.975Z" fill="#FADEE6"/>
<path d="M210.877 656.568C211.154 656.691 211.606 656.878 211.847 657.042C213.652 658.264 211.258 668.654 211.989 672.754C214.329 685.874 225.72 696.44 236.178 703.646C279.374 733.41 354.146 736.789 404.129 727.577C432.035 722.434 478.567 708.038 489.466 679.392C490.66 676.256 491.345 672.949 491.496 669.597C491.638 666.441 489.58 660.531 491.284 658.061L492 658.027C493.114 659.218 493.47 660.36 493.972 661.894C495.321 669.12 494.509 676.327 491.347 682.98C481.987 702.675 458.272 714.566 438.657 721.617C383.389 741.485 303.988 740.765 250.492 715.505C234.4 707.906 216.41 695.63 210.23 678.058C207.813 671.186 207.714 663.225 210.877 656.568Z" fill="#250410"/>
<path d="M348.04 451.938C348.844 451.975 349.559 452.084 350.344 452.262C351.207 453.279 351.463 454.276 351.549 455.589C352.076 463.679 352.053 472.007 352.099 480.121C352.145 488.283 352.332 496.51 351.965 504.662C349.903 550.579 340.082 602.604 322.286 645.066C317.689 656.035 312.195 669.001 304.349 677.999C303.907 678.1 303.389 678.061 302.935 678.071C301.253 676.441 303.813 673.489 304.826 671.909C315.097 655.887 322.642 637.89 328.292 619.747C341.387 577.609 348.375 533.811 349.044 489.69C349.222 477.121 348.614 464.493 348.04 451.938Z" fill="#250410"/>
<path d="M278.598 676.354C281.44 677.36 285.432 682.071 288.172 684.109C294.614 688.898 301.749 691.929 309.387 694.247C337.676 702.834 371.204 703.648 399.037 693.097C402.403 691.822 405.876 690.392 408.984 688.566C411.116 687.313 413.149 685.75 415.383 684.685C416.422 684.189 416.87 684.156 417.908 684.591C418.066 685.597 417.837 686.021 417.385 686.914C415.215 688.77 412.674 690.299 410.16 691.639C380.888 707.237 338.371 706.485 307.374 696.803C300.115 694.535 281.534 686.517 278.369 679.26C277.852 678.074 278.156 677.509 278.598 676.354Z" fill="#250410"/>
<path d="M107.683 243.924C93.9108 238.836 81.0889 231.139 69.1159 222.735C45.0395 205.836 21.4372 178.649 16.3219 148.921C12.5875 127.217 15.5932 104.381 20.98 83.2277C23.4267 73.6207 26.1214 64.0406 31.952 55.8541C45.258 37.1704 82.2479 21.778 104.68 18.0743C106.055 18.1586 106.95 18.2717 108.171 18.9292L108.548 19.8465C108.028 20.3607 107.519 20.6908 106.91 21.0878C110.251 20.4895 115.115 19.0773 118.236 21.0533C123.018 24.0812 127.878 55.8398 129.031 62.5832C130.93 73.6812 132.125 84.9197 133.153 96.127C133.626 101.273 134.324 106.575 134.364 111.745C134.387 114.782 133.606 117.741 133.587 120.731C135.514 118.545 134.517 115.371 135.04 112.802C135.466 114.576 135.818 116.334 136.1 118.137L136.816 118.417C137.188 119.787 140.251 126.41 140.161 127.069C140.019 128.124 139.098 128.18 139.25 129.579C139.907 129.752 140.294 129.909 140.916 130.234C141.7 133.877 140.409 137.693 141.217 141.612C144.672 158.349 161.234 172.027 174.746 181.025C225.56 214.868 310.474 228.054 370.704 229.595C398.645 230.311 427.001 228.487 454.765 225.448C469.379 223.85 484.033 222.066 498.456 219.161C535.61 211.677 596.872 193.04 618.547 160.009C623.082 153.099 625.308 144.946 623.564 136.742C620.71 123.316 608.142 114.617 597.298 107.666C568.611 89.2785 536.268 78.473 503.398 70.3654C416.405 49.0266 325.696 47.7726 238.147 66.6983C236.91 65.1753 235.805 63.5304 234.661 61.9368C253.436 55.9121 276.253 53.2998 295.933 51.0968C317.264 48.7652 338.71 47.6465 360.169 47.7449C423.076 47.4313 486.332 54.89 545.833 76.0212C568.146 83.9464 591.259 94.1552 609.836 109.104C619.558 116.925 629.438 127.582 630.787 140.562C631.961 151.859 628.05 160.6 620.964 169.172C611.995 180.022 599.76 188.3 587.535 195.086C542.945 219.838 488.707 229.327 438.405 233.887C412.632 236.224 386.911 236.083 361.09 234.808C307.434 232.16 253.182 224.351 203.479 203.056C187.195 196.08 171.666 187.876 157.795 176.759C150.303 170.753 143.59 163.821 138.904 155.375C136.825 151.657 135.223 147.69 134.136 143.571C133.679 141.824 133.586 139.833 132.931 138.168C132.652 137.456 132.315 137.309 131.743 136.831C131.127 136.727 130.359 136.38 129.818 136.769C128.138 137.979 123.298 149.454 121.827 152.214C113.336 168.132 104.121 183.924 95.0018 199.499C92.8694 203.14 90.3051 206.55 88.2475 210.204C87.6356 211.291 87.1716 212.438 86.975 213.675C86.5371 216.426 87.7575 218.969 89.3091 221.16C94.7841 228.894 101.132 232.114 110.207 233.786C109.419 237.179 108.578 240.558 107.683 243.924Z" fill="url(#paint0_linear_429_3571)"/>
<path d="M129.245 123.96C130.208 125.039 130.542 125.613 130.906 127.012C130.632 127.934 130.577 128.171 129.649 128.654C122.45 132.407 35.9907 144.364 30.3139 141.198C27.8201 139.807 26.5711 135.31 26.0517 132.737C22.9754 117.505 29.2271 78.0234 38.3021 64.8064C39.8016 62.6219 41.7238 60.9569 44.4143 60.5551C48.1293 59.9995 52.0646 62.1697 55.1551 64.0449C61.474 67.881 67.15 73.1535 72.8209 77.8771L99.565 100.19C104.237 104.064 108.826 108.151 113.717 111.737C114.657 111.783 115.03 111.965 115.864 112.356L117.081 112.002C121.078 115.713 126.154 121.978 131.792 122.553C130.37 122.868 130.105 122.721 129.245 123.96Z" fill="#250410"/>
<path d="M113.717 111.737C114.656 111.783 115.03 111.965 115.863 112.356L117.081 112.002C121.077 115.713 126.154 121.978 131.791 122.553C130.37 122.868 130.104 122.721 129.244 123.96C125.834 123.309 116.042 114.596 113.717 111.737Z" fill="#E66DA5"/>
<path d="M43.5236 63.8002C47.2378 63.7632 49.8299 64.629 53.0087 66.4688C60.0698 70.5562 66.2585 76.5297 72.5741 81.6585C90.7198 96.3976 108.078 112.197 126.517 126.563C118.597 127.909 110.731 129.53 102.768 130.623C91.2863 132.828 42.3393 140.065 33.672 138.741C32.4071 138.547 31.5346 137.954 30.8311 136.89C26.3604 130.128 28.5214 111.332 29.7695 103.66C31.3665 93.8442 35.7363 69.3997 43.5236 63.8002Z" fill="#E66DA5"/>
<path d="M106.91 21.0878C110.251 20.4895 115.115 19.0773 118.236 21.0533C123.018 24.0812 127.878 55.8398 129.032 62.5832C130.93 73.6812 132.125 84.9197 133.153 96.127C133.626 101.273 134.324 106.575 134.364 111.745C134.387 114.782 133.606 117.741 133.587 120.731L131.792 122.553C126.154 121.978 121.078 115.713 117.081 112.002C111.219 105.498 104.595 99.4621 98.4715 93.1794C92.4804 87.0319 86.928 80.4801 81.0167 74.257C74.76 67.6708 67.9947 61.2913 62.0901 54.3933C60.8546 52.951 58.9391 50.8068 58.3953 48.9863C58.1355 48.1164 58.4381 47.0615 58.7987 46.2572C62.1322 38.8111 85.0091 28.762 93.0973 25.6832C97.6293 23.9577 102.345 22.7241 106.91 21.0878Z" fill="#250410"/>
<path d="M113.093 23.2012C113.724 23.1676 114.432 23.0978 115.059 23.1827C116.224 23.3415 116.985 23.6971 117.706 24.6351C120.13 27.7912 120.779 35.7516 121.553 39.6323C125.311 58.4723 128.215 76.9945 129.961 96.1354C130.663 103.829 131.64 111.677 130.819 119.39C121.254 112.416 112.706 102.939 104.339 94.5544C95.7164 85.7022 87.4895 76.4692 78.9709 67.5144C72.9655 61.2005 65.8187 55.0203 60.8857 47.8692L61.1732 47.5549C70.6827 37.0057 99.0322 24.9024 113.093 23.2012Z" fill="#E66DA5"/>
<path d="M124.264 134.95C125.072 134.858 125.804 134.88 126.519 135.293C127.126 135.644 126.995 135.915 127.121 136.546C125.629 140.445 117.289 152.335 114.593 156.545C107.736 167.396 100.759 178.171 93.6641 188.869C89.6726 194.971 85.8062 201.314 81.4129 207.127C80.0118 208.98 78.071 211.419 75.5226 211.48C69.9391 211.614 58.9907 198.583 55.2361 194.555C47.6505 185.994 40.6466 175.975 36.6021 165.205C35.8162 163.111 34.6723 159.465 35.9944 157.371C40.7601 149.822 93.7188 141.175 105.057 139.024C111.483 137.804 117.875 136.347 124.264 134.95Z" fill="#250410"/>
<path d="M121.623 138.746L122.157 138.749L122.177 139.345C119.029 143.526 116.417 148.161 113.553 152.542C102.705 169.131 92.6603 186.6 80.9041 202.525C79.5887 204.308 77.2369 207.885 74.9726 208.228C69.5043 206.587 60.5352 195.731 56.5066 191.185C48.6706 182.226 40.4067 170.803 37.9844 158.921C44.9555 155.295 52.6655 153.398 60.22 151.408C80.5158 146.062 101.062 142.859 121.623 138.746Z" fill="#E66DA5"/>
<path d="M345.307 56.898C406.595 54.6841 467.838 62.3865 526.669 79.7077C550.723 86.9907 605.69 107.777 617.833 130.958C621.749 138.435 621.26 145.526 618.779 153.322C602.76 133.908 568.826 120.574 545.501 111.514C530.445 105.521 514.498 101.17 498.748 97.4474C436.355 82.6999 371.005 79.6757 307.255 85.408C289.776 86.9797 271.348 88.8717 254.335 93.2239C249.944 84.9852 244.775 77.1155 239.912 69.1475C247.843 67.2312 256.01 65.9603 264.06 64.6138C290.932 60.1751 318.079 57.5964 345.307 56.898Z" fill="#FADEE6"/>
<path d="M133.352 0.947218C148.38 -0.374228 163.885 4.21923 176.799 11.7313C195.222 22.4477 213.29 39.5542 226.333 56.3131C232.996 64.8745 238.875 74.0889 244.618 83.2824C251.785 94.7553 258.893 106.782 262.4 119.969C258.617 120.979 254.799 121.311 250.902 121.526C244.311 97.8619 228.106 72.2634 212.125 53.7554C194.043 32.8125 167.955 12.6123 139.52 10.6141C112.836 8.73914 60.3127 26.1372 39.9673 43.9072C35.2907 47.992 30.9563 52.6341 27.7934 58.0058C18.1931 74.3075 13.9376 103.36 12.6903 122.47C11.9347 138.041 13.6048 153.316 19.6439 167.811C35.0882 204.874 71.2729 231.533 107.421 246.421C106.723 249.472 105.832 252.499 105.023 255.524C82.218 246.825 61.0036 234.426 42.2325 218.825C18.8983 199.105 3.88139 173.563 1.38113 142.773C-0.928417 114.33 5.18846 66.5403 24.0725 44.535C46.5905 18.2957 99.6526 3.48278 133.352 0.947218Z" fill="#9D4F65"/>
<path d="M148.563 126.809C147.687 126.954 147.971 126.856 147.264 127.133C146.123 127.579 145.298 127.899 144.069 127.961L143.351 127.266C143.386 127.136 143.715 125.923 143.692 125.821C143.407 124.548 140.361 121.508 139.707 119.166C138.504 114.868 139.006 105.943 138.876 101.109C138.489 86.6806 138.51 72.2399 138.218 57.8075C138.021 48.066 137.205 37.7589 137.951 28.0653C138.019 27.1819 138.058 25.7531 138.775 25.1353C140.878 23.3223 146.25 23.9224 148.878 24.2763C159.958 25.7648 181.935 36.4931 188.604 45.6378C190.392 48.0887 190.404 50.5413 189.649 53.4117C186.649 64.8224 162.12 99.7758 154.101 111.766C151.939 115 147.147 120.545 146.566 124.34C147.075 125.302 147.421 125.387 148.382 125.935L148.563 126.809Z" fill="#E66DA5"/>
<path d="M391.39 86.241C393.259 86.1325 394.955 86.3418 396.799 86.5931C397.098 86.8604 397.395 87.1302 397.69 87.4034C411.595 100.372 423.913 114.063 424.7 134.163C423.438 136.566 421.782 138.347 419.556 139.904C413.117 144.407 385.338 153.927 378.402 152.729C375.846 148.52 373.908 143.738 372.14 139.146C370.51 134.916 369.143 130.294 366.999 126.3C362.311 117.568 351.958 112.989 343.376 109.032C351.504 102.385 380.972 87.6959 391.39 86.241Z" fill="#FADEE6"/>
<path d="M406.736 110.553C407.504 110.843 407.13 110.599 407.753 111.429L407.374 112.34C403.263 115.55 378.082 121.763 371.927 123.537C371.568 123.471 371.159 123.249 370.82 123.108L370.737 122.464C372.654 119.74 401.626 111.692 406.736 110.553Z" fill="#250410"/>
<path d="M415.772 179.965C428.029 184.811 440.148 190.446 452.287 195.62C461.591 199.584 471.288 203.153 480.396 207.535C482.234 208.42 484.265 209.422 485.67 210.921C485.44 214.102 482.399 214.817 480.732 217.08C480.281 217.693 480.528 218.06 480.625 218.768C479.059 220.378 470.162 220.773 467.582 221.255C464.459 221.188 461.022 221.88 457.905 222.224C451.527 222.964 445.137 223.609 438.739 224.157C418.629 225.937 398.449 226.821 378.26 226.808C387.089 215.873 395.534 204.527 404.036 193.328C407.6 188.537 410.896 183.519 415.772 179.965Z" fill="#FADEE6"/>
<path d="M419.021 197.522C426.336 199.594 465.307 214.342 467.928 218.982C468.064 219.953 467.988 220.364 467.582 221.255C464.953 220.651 462.704 218.753 460.29 217.56C457.185 216.026 453.979 214.704 450.785 213.369C443.882 210.484 436.956 207.653 430.009 204.878C426.34 203.424 421.989 202.215 418.644 200.224C418.381 199.109 418.646 198.562 419.021 197.522Z" fill="#250410"/>
<path d="M153.092 125.661C164.786 113.141 174.999 99.4673 186.387 86.6966C190.14 82.4873 193.995 77.8376 198.273 74.1621C199.882 72.7795 202.275 70.9883 204.491 70.8329C207.991 70.5866 212.19 74.5034 214.394 76.9391C220.69 83.8985 235.725 109.011 235.399 118.232C235.361 119.306 235.22 120.069 234.297 120.712C230.869 123.095 188.578 125.185 181.5 125.438C172.334 125.766 162.866 125.406 153.754 126.211L153.092 125.661Z" fill="#E66DA5"/>
<path d="M497.169 216.356C496.657 210.622 494.329 192.147 497.196 187.716C501.498 181.064 528.055 172.31 535.961 170.911C543.769 175.168 551.871 180.872 558.957 186.267C551.131 191.068 542.831 195.373 534.662 199.556C530.708 201.581 526.122 203.368 522.534 205.976C521.624 206.636 521.22 206.99 521.011 208.094L521.969 209.067L523.062 208.973L524.132 209.357C521.045 210.047 517.896 211.425 514.806 212.291C508.99 213.92 503.078 215.126 497.169 216.356Z" fill="#FADEE6"/>
<path d="M496.584 190.058C501.687 191.504 511.238 199.876 515.631 203.525C516.787 204.485 517.727 205.038 517.869 206.549L516.198 206.667C511.206 204.658 502.185 197.461 498.157 193.671C496.813 192.406 496.671 191.91 496.584 190.058Z" fill="#250410"/>
<path d="M127.523 148.213L127.875 148.645C128.8 161.827 121.695 185.687 118.441 199.014C115.84 209.665 113.499 220.373 110.844 231.013C105.432 229.601 101.162 228.221 96.6794 224.751C93.4897 221.693 90.853 218.734 89.3115 214.502C98.5823 199.079 107.471 183.545 116.318 167.874C120.02 161.314 124.104 154.921 127.523 148.213Z" fill="#E66DA5"/>
<path d="M340.65 111.096C340.875 111.168 341.103 111.228 341.322 111.313C344.228 112.448 347.305 114.26 350.039 115.771C360.677 121.652 363.775 125.926 368.349 137.072L374.502 152.257C365.671 149.102 357.448 142.947 349.856 137.547C346.961 128.835 342.173 120.143 340.65 111.096Z" fill="#FADEE6"/>
<path d="M523.062 208.973C529.157 205.115 536.019 202.155 542.417 198.799C547.845 195.952 556.009 190.68 561.47 189.04C562.496 189.481 563.061 190.201 563.504 191.211C564.063 192.482 564.096 193.788 564.067 195.149C561.487 199.168 529.788 208.063 524.132 209.357L523.062 208.973Z" fill="#FADEE6"/>
<path d="M148.381 125.935C149.697 125.287 151.646 125.61 153.091 125.661L153.753 126.211C152.048 126.424 150.277 126.762 148.562 126.809L148.381 125.935Z" fill="#CFB6C0"/>
<defs>
<linearGradient id="paint0_linear_429_3571" x1="78.8215" y1="-12.0428" x2="532.603" y2="297.297" gradientUnits="userSpaceOnUse">
<stop stop-color="#EBB1C8"/>
<stop offset="1" stop-color="#F1E8EB"/>
</linearGradient>
</defs>
</svg>
