<svg width="130" height="221" viewBox="0 0 130 221" fill="none" xmlns="http://www.w3.org/2000/svg">
<path d="M50.7336 21.9589C51.013 22.2718 54.0469 33.7089 54.4112 34.9225C56.3153 41.2647 58.6563 47.4311 61.8422 53.2463C64.7354 58.5616 67.987 63.6723 71.5746 68.543C75.4884 73.9001 79.73 79.0519 83.7477 84.337C89.3642 91.8126 94.7052 99.4924 99.7601 107.36C102.859 112.233 106.08 117.195 108.321 122.537C110.247 127.127 111.464 131.995 112.714 136.803C114.405 143.415 116.008 150.05 117.52 156.705C119.31 164.624 120.871 172.594 122.202 180.604C122.867 184.433 123.907 189.031 123.923 192.863C123.932 195.117 123.087 196.649 121.551 198.199C119.125 200.647 115.896 202.265 112.735 203.538C107.384 205.692 100.827 207.083 95.1951 208.632L82.3585 212.205C76.4268 213.876 70.3795 215.831 64.1542 215.825C62.0676 215.781 59.8471 215.525 57.9636 214.559C56.8036 213.964 55.7984 213.105 55.0289 212.051C53.8347 210.437 53.0545 208.428 52.2188 206.611C50.5026 202.827 48.8437 199.016 47.2428 195.182C43.3061 186.096 39.7872 176.834 36.6977 167.426C34.0297 159.445 31.4574 151.209 30.4738 142.826C29.293 132.761 30.1691 122.835 31.0576 112.789L32.9422 91.9024C34.2193 78.9265 35.7691 65.8692 33.6477 52.8868C32.3612 45.0118 29.6893 37.1791 27.2596 29.5919C28.2732 29.4743 29.3082 29.4483 30.327 29.3871C31.5843 32.8374 32.8457 39.5394 36.0356 41.4968C38.1273 42.78 40.8675 42.8975 43.2033 42.357C45.841 41.7466 48.5448 40.322 49.9771 37.9324C51.7127 35.0367 50.5451 32.0696 49.6811 29.1251C49.1875 27.4418 48.7031 25.7621 48.2836 24.0585C49.1187 23.3787 49.9266 22.6717 50.7336 21.9589Z" fill="#FFCAE8"/>
<path d="M46.7813 70.9908C50.5463 69.6226 64.2138 65.9648 67.7582 67.6734C69.2021 68.3694 72.144 72.815 73.2574 74.2466C83.397 87.2838 93.6707 100.537 101.927 114.883C104.549 119.439 106.649 124.091 108.269 129.096C110.463 135.879 112.064 142.948 113.658 149.896C115.747 158.771 117.633 167.692 119.316 176.652C119.948 179.996 120.545 183.346 121.107 186.702C121.409 188.531 121.817 190.434 121.872 192.286C121.896 193.106 121.841 194.069 121.438 194.802C118.485 200.175 109.01 202.659 103.463 204.197L95.0569 206.523L82.9302 209.889C76.4922 211.671 66.3984 215.071 59.8872 212.872C57.4587 212.051 56.0437 209.927 54.9692 207.712C52.5834 202.794 50.6091 197.595 48.5124 192.546C43.6653 180.874 38.9765 168.935 35.6092 156.74C34.732 153.563 33.851 150.36 33.2543 147.116C32.6259 143.626 32.237 140.098 32.0903 136.555C31.827 131 32.1686 125.487 32.5687 119.95C33.1201 112.719 33.7569 105.495 34.4792 98.2794C34.8477 94.2129 35.3888 90.1541 35.8 86.0894C36.0974 83.148 36.2463 80.1635 36.6126 77.235C36.6621 76.8402 36.7221 76.3245 36.8985 75.9703C37.9744 73.8123 44.5492 71.7828 46.7813 70.9908Z" fill="#411A34"/>
<path d="M35.2452 102.674C49.1354 98.9157 63.0056 95.0841 76.8553 91.1783C77.4938 92.463 77.9754 93.8698 78.5302 95.1954C79.4552 97.3865 80.4088 99.5653 81.391 101.732C85.8793 111.803 90.1521 122.107 93.4566 132.636C99.6076 152.233 102.831 172.728 105.57 193.044C102.609 193.535 99.6046 194.147 96.6993 194.904C93.4434 195.492 90.2117 196.455 87.0075 197.275C79.957 199.061 72.9747 201.108 66.0749 203.41C62.6896 204.55 59.2175 205.687 55.9875 207.225C54.2969 203.045 52.4578 198.916 50.725 194.752C46.6463 184.949 42.6787 175.032 39.3216 164.956C37.1375 158.4 35.0826 151.595 33.988 144.762C33.3346 140.681 33.1115 136.439 33.0636 132.31C33.024 128.907 33.2995 125.487 33.5588 122.094C34.0533 115.616 34.7765 109.149 35.2452 102.674Z" fill="#B2829D"/>
<path d="M37.1655 106.303L75.0337 95.7833C76.036 97.5491 76.8273 99.4548 77.6632 101.306C79.0846 104.423 80.4562 107.563 81.7775 110.724C84.3693 116.914 86.898 123.152 89.0286 129.517C94.029 144.457 97.2511 159.808 99.7228 175.348C100.303 178.859 100.803 182.384 101.221 185.918C101.424 187.59 101.721 189.312 101.7 190.999C99.2173 191.873 96.4901 192.253 93.9282 192.877C90.6504 193.533 87.377 194.479 84.1384 195.324C74.9302 197.641 65.8703 200.515 57.009 203.93C54.8246 198.615 52.4851 193.367 50.3266 188.039C46.8017 179.37 43.5835 170.58 40.6782 161.683C38.2057 154.117 35.6708 146.288 35.1961 138.292C34.8271 132.083 35.4034 125.813 35.9708 119.634L37.1655 106.303Z" fill="#3C2807"/>
<path d="M38.1448 107.145L74.42 97.083C76.7436 101.024 78.4006 105.587 80.1924 109.8C83.0436 116.342 85.6339 122.994 87.9573 129.742C92.7119 143.903 95.8967 158.611 98.2374 173.353C99.1143 178.876 100.146 184.517 100.515 190.099C98.0242 190.742 95.4824 191.244 92.9719 191.806C90.856 192.243 88.747 192.838 86.6478 193.356C76.8111 195.806 67.1118 198.779 57.5916 202.262C56.9798 200.66 56.1966 199.092 55.5188 197.512C54.2383 194.492 52.9827 191.462 51.7522 188.422C49.7426 183.487 47.704 178.539 45.8692 173.538C44.0045 168.294 42.2384 163.017 40.5718 157.707C38.6231 151.492 36.5944 145.121 36.2093 138.573C35.6124 128.431 37.2476 117.337 38.1448 107.145Z" fill="#EEBBD8"/>
<path d="M48.8669 137.672C52.9214 138.486 56.8647 138.772 60.9811 139.002C61.5002 138.739 62.0388 138.502 62.5766 138.28C67.8088 136.117 74.3478 134.532 79.9863 135.365C82.5723 135.747 85.0492 136.624 87.4513 137.623C86.1704 139.913 83.5885 142.076 81.3701 143.439C76.0174 146.728 69.9943 145.21 64.5216 143.103C62.4977 142.324 60.5365 141.388 58.416 140.889C59.763 141.628 61.1683 142.222 62.4884 143.024C69.2858 147.148 74.5217 154.589 76.376 162.256C76.9255 162.274 77.4866 162.33 78.0222 162.454C80.4603 163.037 82.5601 164.571 83.8519 166.713C85.7903 169.855 86.2191 173.909 85.3237 177.457C84.597 180.336 82.9089 183.239 80.2917 184.785C78.4482 185.874 76.5055 186.024 74.4799 185.493C72.8529 184.868 71.5272 183.927 70.4289 182.575C67.9766 179.557 67.1296 175.476 67.5457 171.667C66.1284 174.354 64.1353 176.693 61.3772 178.066C59.3366 179.083 56.9592 179.427 54.7745 178.67C53.0443 178.07 51.7825 176.75 51.0063 175.129C49.5914 172.175 49.6786 168.721 50.7971 165.681C52.0183 162.361 54.3283 159.302 57.6106 157.803C60.4528 156.504 62.9144 156.76 65.7602 157.83C65.9563 155.648 65.9022 153.437 65.3496 151.309C64.1451 146.674 61.1871 144.042 57.1914 141.704C57.6394 142.548 58.0906 143.397 58.4097 144.301C58.9712 145.89 58.7486 147.422 58.0118 148.917C56.0261 152.947 51.1831 155.805 47.0864 157.233C47.1602 156.601 47.3372 155.956 47.5026 155.341C48.9039 150.136 51.1973 145.166 56.0409 142.387C54.2594 140.158 51.3366 139.501 48.6953 138.857C48.5881 138.464 48.7625 138.054 48.8669 137.672Z" fill="#451232"/>
<path d="M64.307 146.191C64.3918 146.227 64.5146 146.276 64.5982 146.323C65.585 146.884 66.5272 147.908 67.3035 148.698C71.0092 152.469 74.0613 156.985 75.4012 162.024C74.2443 162.252 73.2826 162.544 72.2414 163.097C71.3315 163.673 70.4993 164.376 69.6574 165.036C69.6303 162.364 68.8962 160.206 66.8696 158.345C67.6423 153.822 66.8885 149.943 64.307 146.191Z" fill="#EEBBD8"/>
<path d="M60.6851 140.042C62.0112 139.873 63.6092 140.264 64.9551 140.416C66.743 140.622 68.5339 140.772 70.3252 140.863C74.8499 141.091 79.1576 140.571 83.6149 140.062L82.6315 140.882C81.6685 141.632 80.6564 142.326 79.5741 142.87C73.4839 145.929 66.6737 142.423 60.6851 140.042Z" fill="#B4809D"/>
<path d="M64.3579 138.728C69.2572 137.085 75.2041 135.826 80.3445 136.699C81.1292 136.833 84.0691 137.248 84.5149 137.878L84.0923 138.07C83.8722 138.129 83.6547 138.184 83.4321 138.233C77.9438 139.434 72.5098 139.327 66.952 139.179C66.1641 139.158 64.4418 139.433 63.7827 139.012L64.3579 138.728Z" fill="#B4809D"/>
<path d="M56.591 143.06L56.7451 143.071C56.8726 143.169 56.8932 143.172 56.9991 143.329C57.4376 143.979 57.4659 145.496 57.3241 146.235C56.6733 149.629 52.677 152.237 50.0554 153.907L49.888 153.938L49.8305 153.804C51.2128 149.697 53.5308 146.013 56.591 143.06Z" fill="#B4809D"/>
<path d="M57.3488 160.543C57.6971 160.477 57.9817 160.421 58.3142 160.66C58.4729 160.773 58.5767 160.915 58.6116 161.113C58.6709 161.452 58.5821 161.661 58.4319 161.944C57.784 163.16 56.7891 164.216 56.0142 165.343C55.1984 166.53 54.5112 167.815 53.7106 169.014C53.569 169.143 53.3965 169.163 53.2188 169.216C53.0229 169.12 52.9964 169.159 52.9125 168.981C52.5914 168.298 52.9689 166.939 53.1693 166.245C53.8644 163.84 55.2243 161.631 57.3488 160.543Z" fill="#EEBBD8"/>
<path d="M72.0224 166.68C72.3055 166.572 72.715 166.404 73.0207 166.423C73.4093 166.448 73.4663 166.525 73.7125 166.789C73.917 167.869 72.6831 169.093 72.2386 170.089C71.6314 171.451 71.3241 172.986 70.9521 174.423C70.7574 174.749 70.7504 174.859 70.3839 174.999L70.099 174.868C69.6916 174.34 69.6092 173.722 69.5763 173.068C69.4555 170.664 70.415 168.448 72.0224 166.68Z" fill="#EEBBD8"/>
<path d="M67.9172 166.216C67.8799 165.046 67.7869 163.986 67.4314 162.839C67.1783 162.022 66.7648 161.133 66.6982 160.292L66.8133 160.178C67.421 160.634 67.8337 161.814 68.0416 162.587C68.3813 163.849 68.3809 164.959 68.2215 166.187L67.9172 166.216Z" fill="#EEBBD8"/>
<path d="M68.2459 166.18L68.6427 166.123C67.9378 168.603 66.8797 171.15 64.9626 173.114L64.5615 173.115C66.4591 171.267 67.6092 168.566 68.2459 166.18Z" fill="#EEBBD8"/>
<path d="M64.2398 173.314L64.6208 173.329C63.6944 174.537 62.4631 175.255 61.4176 176.289C61.3932 176.313 61.3705 176.339 61.3467 176.365L61.0932 176.175L61.039 176.257L61.1044 176.442L60.9805 176.476C61.9759 175.359 63.2089 174.423 64.2398 173.314Z" fill="#EEBBD8"/>
<path d="M68.8876 108.892C69.3411 108.72 69.7775 108.546 70.2723 108.691C70.5883 108.783 70.884 108.844 71.2061 108.892C71.3165 108.619 71.5049 108.286 71.7109 108.092C71.9744 107.845 72.1587 107.886 72.4873 107.958C72.9209 109.412 73.6616 113.332 73.3279 114.748C73.0763 115.034 73.075 115.03 72.7061 115.067C72.3508 114.847 72.329 114.668 72.1501 114.274C71.909 114.704 71.6022 115.119 71.2367 115.423C70.7192 115.854 70.0814 116.083 69.4109 115.932C68.7193 115.777 68.1378 115.288 67.737 114.641C67.1377 113.673 66.945 112.298 67.1677 111.21C67.4015 110.069 68.0015 109.436 68.8876 108.892Z" fill="#320723"/>
<path d="M69.0495 110.286C69.3531 110.158 69.6891 110.039 70.0209 110.014C70.3745 109.988 70.7433 110.116 71.0265 110.389C71.4219 110.77 71.5996 111.369 71.638 111.919C71.7116 112.971 71.4163 113.847 70.8238 114.579C70.5328 114.721 70.2714 114.83 69.9442 114.847C69.5509 114.867 69.1571 114.706 68.8581 114.382C68.468 113.96 68.2987 113.348 68.2567 112.774C68.1804 111.735 68.4583 111.003 69.0495 110.286Z" fill="#EEBBD8"/>
<path d="M40.8818 112.496C42.9465 111.902 45.096 111.12 47.2082 110.765L47.3663 110.89C47.4734 111.271 47.5305 111.365 47.4268 111.734C46.4694 112.688 43.424 113.215 42.0356 113.611C42.2358 114.72 42.2911 115.865 42.3794 116.986C43.3624 116.718 44.6957 116.049 45.6812 116.071C46.0353 116.078 46.2146 116.219 46.4649 116.459L46.4521 116.742C45.7444 117.658 43.5122 118.035 42.4018 118.382C42.5186 119.26 42.6296 120.138 42.7347 121.017C42.765 121.361 42.7548 121.591 42.968 121.875C44.196 121.947 47.3294 120.656 48.6517 120.224L48.8594 121.808C46.4187 122.468 43.9868 123.16 41.5644 123.886L40.8932 116.74C40.79 115.635 40.5543 114.361 40.6117 113.262C40.6281 112.951 40.7292 112.756 40.8818 112.496Z" fill="#320723"/>
<path d="M64.1728 123.318C64.4476 123.177 64.6101 123.116 64.9203 123.117C64.9654 123.178 65.0199 123.233 65.0554 123.3C65.4009 123.955 65.8129 128.173 65.8141 129.082C65.8149 129.62 65.756 130.151 65.588 130.659C65.3696 131.318 64.9681 131.924 64.3333 132.203C63.4387 132.595 62.0952 132.836 61.1666 132.366C60.8949 132.229 60.7211 132.044 60.6451 131.735C60.5686 131.423 60.6335 131.163 60.7951 130.912C61.3439 130.881 61.8661 131.469 62.4837 131.57C63.1247 131.405 63.7931 131.243 64.2274 130.689C64.7764 129.99 64.6031 129.074 64.4968 128.245C64.0372 128.872 63.4434 129.671 62.6473 129.833C62.0938 129.945 61.5175 129.816 61.0647 129.452C60.5063 129.003 60.2088 128.265 60.115 127.561C59.8469 125.553 60.9974 124.217 62.8404 123.85C63.054 123.808 63.7525 123.786 63.9193 123.667C64.0349 123.584 64.0883 123.434 64.1728 123.318Z" fill="#320723"/>
<path d="M62.9728 124.726L64.2852 124.509C64.3988 125.453 64.4774 126.402 64.5204 127.352C64.0331 127.751 63.5162 128.113 63.0051 128.482C62.8532 128.517 62.6201 128.588 62.4576 128.579C62.108 128.559 61.8042 128.418 61.6033 128.136C61.2546 127.647 61.3452 126.941 61.5035 126.397C61.756 125.531 62.1802 125.144 62.9728 124.726Z" fill="#EEBBD8"/>
<path d="M49.7063 123.887L49.8549 123.969C49.9959 124.959 48.5736 132.619 48.2889 134.444L46.832 134.748C45.5307 132.451 44.2657 130.133 43.0367 127.795C42.7508 127.309 42.4163 126.817 42.2265 126.284L42.3595 125.998C42.6919 125.84 42.8499 125.809 43.2162 125.853C44.1019 126.458 46.6412 131.658 47.2118 132.876C47.6225 130.068 47.9646 127.145 48.6294 124.392C48.9283 124.054 49.2829 124.02 49.7063 123.887Z" fill="#320723"/>
<path d="M48.8635 114.343C49.3849 114.163 49.9182 114.083 50.4596 113.988C51.1912 114.548 51.875 115.181 52.5709 115.782C53.0336 114.953 53.3902 113.947 54.0444 113.234C54.4214 112.824 54.8356 112.726 55.3827 112.691L55.1162 113.226L55.228 113.086L53.5578 116.447C54.1652 116.953 54.7596 117.473 55.3404 118.007C55.6327 118.272 56.7008 119.134 56.7066 119.494L55.6693 119.867C54.6631 119.548 53.5702 118.335 52.7877 117.663C52.2254 118.567 51.3947 121.083 50.3797 121.439C50.1309 121.526 50.1109 121.465 49.8906 121.377C49.6778 120.512 51.2656 117.975 51.738 117.007C50.9964 116.264 49.2033 115.19 48.8635 114.343Z" fill="#320723"/>
<path d="M56.3773 111.128C56.8307 110.992 57.2699 110.832 57.7411 110.972C58.0191 111.386 57.7233 111.722 57.9282 112.18C58.3432 112.355 58.8821 112.118 59.3178 112.023C59.5888 112.155 59.6803 112.273 59.847 112.527C59.8476 112.672 59.8714 112.688 59.7998 112.799C59.4854 113.289 58.6684 113.409 58.1459 113.542C58.2389 114.534 58.4142 116.926 59.0185 117.671C59.5515 117.685 59.8134 117.129 60.3237 117.097C60.5103 117.085 60.7203 117.403 60.8471 117.538C60.7267 117.898 60.6426 118.144 60.3527 118.403C59.9214 118.789 59.2477 119.103 58.661 118.995C56.618 118.618 57.5631 115.209 56.7298 113.966C56.4985 113.972 56.279 113.984 56.0493 114.017C55.9832 114.026 55.9175 114.037 55.8517 114.047L55.6998 113.839C55.6768 113.472 55.636 113.309 55.7904 112.974C56.0768 112.876 56.2241 112.794 56.4395 112.577C56.6348 112.099 56.4755 111.62 56.3773 111.128Z" fill="#320723"/>
<path d="M70.2689 121.729C70.5378 121.664 70.7893 121.597 71.0701 121.603C71.2953 121.607 71.3001 121.693 71.4491 121.856C71.4726 122.136 71.4691 122.261 71.6109 122.51C72.1785 122.298 72.4693 121.646 72.8466 121.183C73.1191 120.849 73.4744 120.608 73.9126 120.607C74.367 120.606 74.8424 120.744 75.1581 121.118C75.9076 122.005 76.2328 124.952 76.1959 126.119C75.9549 126.355 75.8276 126.45 75.5 126.519L75.2422 126.333C74.877 125.47 74.8265 124.32 74.6935 123.387C74.6353 122.855 74.6176 122.346 74.249 121.937C74.0599 121.883 73.9523 121.814 73.7597 121.88C72.8975 122.172 72.2736 123.287 71.8593 124.085C71.8463 124.989 72.2417 125.98 72.1256 126.847C72.0776 127.206 71.9674 127.309 71.7106 127.524C71.3966 127.557 71.3892 127.579 71.1255 127.393C70.6893 126.496 70.4517 122.955 70.2689 121.729Z" fill="#320723"/>
<path d="M58.4333 124.856C58.6877 124.962 58.6806 124.995 58.8389 125.201C58.9065 126.411 57.2575 127.226 56.8866 128.371C56.5604 129.378 56.9693 131.382 56.6002 132.057C56.2609 132.218 55.9996 132.372 55.6115 132.329C55.3538 131.99 55.384 131.404 55.3411 130.974C55.2346 129.666 54.9908 128.385 54.875 127.087C54.8329 126.614 54.8519 126.285 55.1604 125.904C55.4934 125.77 55.5195 125.743 55.8631 125.827C56.0321 126.055 56.0578 126.188 56.0666 126.461C56.0795 126.864 56.1374 127.245 56.2029 127.642C56.7801 126.501 57.2476 125.477 58.4333 124.856Z" fill="#320723"/>
<path d="M64.3216 110.047C64.5021 110.001 64.7737 109.906 64.9573 109.924C65.3111 109.957 65.4145 110.112 65.6363 110.357C65.6833 110.692 65.626 110.842 65.4908 111.147C65.0973 111.323 64.6509 111.377 64.2734 111.557C62.415 112.445 64.1517 116.389 63.4989 117.618C63.3836 117.836 62.8838 117.948 62.6558 118.038C62.6169 118.007 62.5723 117.983 62.5394 117.946C62.0738 117.422 61.4916 112.017 61.4664 111.072C61.6786 110.823 61.7364 110.806 62.0481 110.703C62.4647 110.811 62.5406 110.835 62.8349 111.163C62.8957 111.23 62.9524 111.301 63.0111 111.37C63.4243 110.885 63.8345 110.456 64.3216 110.047Z" fill="#320723"/>
<path d="M51.687 126.731C52.0494 126.614 52.3831 126.546 52.7608 126.498C53.2133 127.16 53.5508 131.818 53.6807 132.936C53.2954 133.044 52.7898 133.256 52.3974 133.163C52.2879 132.964 51.7929 127.53 51.687 126.731Z" fill="#320723"/>
<path d="M66.9726 122.868C67.3998 122.741 67.815 122.63 68.2521 122.544C68.6013 124.436 68.883 126.391 69.0359 128.316C68.5573 128.448 68.1534 128.557 67.6593 128.559C67.1898 126.836 67.08 124.666 66.9726 122.868Z" fill="#320723"/>
<path d="M51.0802 123.894C51.5796 123.753 52.142 123.521 52.6583 123.642C53.0111 124.055 52.9753 124.645 53.0221 125.165C52.4988 125.378 52.0922 125.561 51.5345 125.437C51.152 125.005 51.1539 124.445 51.0802 123.894Z" fill="#320723"/>
<path d="M67.2194 120.176C67.6442 119.979 68.1441 120.069 68.3685 120.383C68.5928 120.697 68.4666 121.13 68.078 121.378C67.797 121.558 67.4358 121.602 67.1434 121.493C66.8508 121.384 66.6766 121.14 66.6927 120.862C66.7088 120.584 66.9123 120.319 67.2194 120.176Z" fill="#320723"/>
<path d="M68.2069 69.4418C68.8252 69.7174 81.3034 86.2564 82.941 88.4295C87.2649 94.1902 91.385 100.102 95.293 106.154C98.4152 110.941 101.545 115.767 103.974 120.954C105.577 124.418 106.911 128 107.964 131.67C109.846 138.178 111.395 144.801 112.918 151.402C115.441 162.083 117.644 172.837 119.523 183.65C119.919 185.88 121.167 191.357 120.828 193.3C120.529 195.022 118.457 196.579 117.097 197.499C115.212 198.773 113.119 199.771 110.976 200.526C108.581 201.369 106.03 201.952 103.579 202.628L90.3554 206.294L78.3388 209.656C75.7559 210.379 73.1533 211.211 70.5133 211.69C67.6869 212.203 64.3646 212.637 61.5345 212.068C59.2679 211.612 57.8903 210.311 56.6604 208.444C58.5754 207.537 60.6907 206.863 62.6877 206.153C67.5907 204.434 72.5392 202.85 77.5283 201.401C83.0389 199.849 88.5417 198.318 94.1193 197.021C98.3759 196.032 102.676 195.246 106.931 194.26C106.974 192.454 106.632 190.553 106.396 188.764C105.941 185.39 105.45 182.022 104.921 178.658C102.212 161.01 98.6103 143.445 92.824 126.53C90.0475 118.414 86.693 110.493 83.2295 102.652C81.9877 99.8364 80.7663 97.0123 79.5649 94.1796C78.9029 92.6352 78.2993 91.0056 77.4952 89.5311C72.9023 90.688 68.3441 92.0653 63.7764 93.3254L35.3756 101.181C36.2534 93.4464 37.0244 85.6998 37.6882 77.9439C38.4442 78.122 39.216 78.2249 39.9923 78.2509C47.1973 78.5428 62.943 74.3053 68.2069 69.4418Z" fill="#B45A7B"/>
<path d="M50.3683 71.0181C53.3676 70.0688 64.2047 67.4768 66.9067 68.4216C67.1824 68.518 67.1767 68.515 67.3077 68.8021C65.8997 71.4401 57.8158 74.0268 54.9392 74.96C51.0672 76.1911 46.8973 77.0716 42.8391 77.4049C41.8644 77.485 38.7719 77.7405 38.0328 76.9628C37.8971 76.8201 37.9647 76.6781 37.9777 76.4985C39.4511 74.2209 47.7374 71.824 50.3683 71.0181Z" fill="#BD6A89"/>
<path d="M33.569 42.5293C33.744 42.4963 33.9533 42.439 34.131 42.4452C34.4335 42.4556 34.5913 42.5113 34.7784 42.768C35.2706 43.4433 35.4643 45.0008 35.695 45.836C37.579 52.6552 38.8558 59.6118 39.0902 66.6813C39.1386 68.1435 39.2256 69.6635 39.0395 71.1106L38.7717 71.2033C38.5877 71.1517 38.4145 71.1505 38.2839 70.9925C37.7248 70.3173 37.7893 65.2539 37.7193 64.0498C37.4536 59.4808 36.6449 54.9021 35.5843 50.4476C35.1707 48.7093 33.569 43.9001 33.569 42.5293Z" fill="#411A34"/>
<path d="M67.6413 25.5541C70.0434 24.8626 72.4282 24.7255 74.8795 25.2499C79.156 26.1648 82.5684 28.923 84.9058 32.5727C87.7421 37.0015 88.7615 42.4521 88.0107 47.6347C87.6767 49.9392 87.0198 52.2132 86.4353 54.4644L84.0602 63.5719C82.9449 67.9231 82.1751 72.3624 81.2211 76.7507C79.488 74.745 77.866 72.6159 76.1976 70.5534C76.6543 68.7028 77.0197 66.822 77.4205 64.9579C78.4785 59.701 79.9431 54.7021 81.1849 49.5165C82.2057 45.2546 81.9418 40.797 79.5835 36.9914C78.1331 34.6507 75.7553 32.7375 73.0469 32.129C70.5037 31.5579 67.9639 32.2303 65.7928 33.611C62.1129 35.951 60.8527 39.6871 59.9639 43.7389C58.7249 40.3807 57.6424 36.965 56.4508 33.5895C59.589 29.7753 62.9033 27.0974 67.6413 25.5541Z" fill="#FFCAE8"/>
<path d="M21.6768 9.74666C28.2632 9.04414 38.6416 5.52242 44.3136 1.90444C44.6766 4.23843 45.0629 6.56865 45.4725 8.8948C45.6909 10.1452 46.0346 11.4735 46.0758 12.742C46.0884 13.1384 46.0704 13.4341 45.8375 13.7747C44.363 15.9291 36.7321 18.6013 33.9631 18.943C33.8573 18.956 33.7159 18.9583 33.6142 18.9622C33.118 18.8541 33.1436 18.8094 32.864 18.4176C32.879 18.5944 32.974 18.8692 32.8333 19.0011C32.1713 19.6212 29.5022 19.69 28.4971 19.8076C28.8502 16.8883 27.5632 13.9954 25.7958 11.727C25.2611 11.0406 24.6732 10.3812 24.0933 9.7328C25.3607 12.2882 28.394 16.6954 27.7482 19.587L27.5822 19.7667C27.2825 19.7034 27.2158 19.7067 27.0341 19.4369C26.5074 18.6561 26.1517 17.506 25.7442 16.6398C24.6729 14.3621 23.3031 11.6583 21.6768 9.74666Z" fill="#C5537D"/>
<path d="M33.0187 17.8676C32.2468 14.4625 30.9438 11.4344 29.5342 8.26123C31.8126 10.3174 33.8855 13.9743 33.9691 17.0858C33.9808 17.5245 33.9146 17.9813 33.7423 18.3882C33.2632 18.2856 33.288 18.2427 33.0187 17.8676Z" fill="#411A34"/>
<path d="M46.955 24.5124C47.1355 24.6355 47.1521 24.772 47.2207 24.9716C47.6129 26.114 47.8509 27.3452 48.1754 28.5114C48.6878 30.353 49.5525 32.3264 49.6079 34.2481C49.6436 35.1983 49.4258 36.141 48.9769 36.9788C47.9176 38.9559 45.7797 40.2124 43.6945 40.8463C41.1826 41.6099 38.7579 41.6592 36.4031 40.4046C35.7247 39.9521 35.1582 39.4018 34.7167 38.7138C33.3349 36.5598 32.0799 31.6781 31.1477 29.0596C36.6871 28.5988 42.052 27.1596 46.955 24.5124Z" fill="#C5537D"/>
<path d="M24.6919 20.5209C25.4372 20.4334 25.0878 22.6245 26.6837 23.6008C28.9054 24.9598 34.1416 23.5753 36.6373 22.8817C40.8334 21.7159 47.4176 19.3858 49.5929 15.4953C50.1783 16.0208 50.6806 16.5263 51.1583 17.1547L51.144 17.198C50.1678 20.2495 47.231 21.9082 44.6186 23.3872C38.2196 26.6965 32.001 26.9021 25.0306 27.4747C21.8635 27.7348 18.7178 28.0938 15.557 28.401C17.5941 24.6292 20.7454 22.0473 24.6919 20.5209Z" fill="#F8D7EC"/>
<path d="M31.9387 3.2272C35.4408 1.98635 39.5102 0.905251 43.2082 0.623328C40.0152 2.84747 35.9842 4.25796 32.2669 5.47348C30.6026 6.04405 28.9039 6.51977 27.2097 6.9947C26.1594 7.28911 22.1326 8.60389 21.2358 8.14997L21.231 7.92003C22.5944 6.32683 29.5871 4.0531 31.9387 3.2272Z" fill="#C5537D"/>
<path d="M47.0352 13.5729C47.046 13.5713 47.057 13.5671 47.068 13.5682C47.4013 13.5983 47.409 13.6537 47.6289 13.9031C47.7045 14.1945 47.7561 14.3888 47.714 14.6932C47.6069 15.4651 46.7453 16.1292 46.1653 16.5434C41.9252 19.5724 32.5423 23.0301 27.395 22.1065C27.289 22.0259 27.1921 21.9609 27.1006 21.866C26.789 21.5429 26.6172 20.9894 26.6068 20.5455C26.7448 20.2751 26.7305 20.2848 27.0136 20.1839C27.7101 20.376 28.3444 20.4374 29.0589 20.4013C33.5984 20.1719 40.5964 18.2871 44.4378 15.8503C45.4535 15.2062 46.238 14.475 47.0352 13.5729Z" fill="#C5537D"/>
<path d="M20.5957 30.3149C21.9489 30.0117 23.4261 29.9451 24.8049 29.9165C25.2434 31.0322 25.5748 32.2087 25.944 33.3496C25.4172 33.1396 24.8715 32.6666 24.3921 32.3516C23.1541 31.5385 22.003 30.8489 20.5957 30.3149Z" fill="#F8D7EC"/>
</svg>
