<svg width="932" height="549" viewBox="0 0 932 549" fill="none" xmlns="http://www.w3.org/2000/svg">
<path d="M422.776 26.408C424.347 24.043 425.872 21.68 427.132 19.132C430.097 13.128 432.753 2.83503 439.819 0.759033C441.15 0.967033 441.75 1.12304 442.595 2.23904C445.32 5.83704 444.856 13.012 444.945 17.398C450.115 16.929 455.178 16.334 460.298 15.451C462.437 11.569 464.544 9.09004 468.928 7.70804C471.476 6.90504 474.338 6.92904 476.682 8.32004C478.615 9.46604 480.321 11.493 480.768 13.719C481.072 15.232 480.855 18.25 482.112 19.228C483.02 19.934 484.465 20.493 485.508 21.01C485.968 23.725 486.396 26.451 486.898 29.159C490.153 26.53 492.617 24.458 497.069 24.794C507.31 25.568 516.176 36.838 524.597 41.752L525.242 41.489C535.695 37.138 551.664 22.825 563.771 27.816C569.083 30.006 571.853 35.216 573.803 40.304C574.324 41.671 574.832 43.044 575.326 44.421C600.681 39.827 630.363 39.484 655.133 47.176C665.64 50.543 675.579 55.476 684.615 61.809C694.508 68.674 704.688 77.283 712.186 86.745C716.146 91.742 719.201 97.839 722.139 103.489C723.483 106.073 724.883 109.994 726.824 112.039C727.671 112.932 728.453 113.211 729.574 113.647C757.446 122.531 784.434 133.985 810.188 147.861C850.612 169.856 896.856 205.185 918.362 246.9C933.242 275.763 935.926 307.693 925.875 338.547C904.384 404.519 832.851 452.561 773.81 482.567C754.3 492.482 734.346 500.422 713.774 507.784C592.782 551.086 451.81 558.142 325.623 536.241C294.962 531.215 264.716 523.922 235.135 514.419C161.474 490.152 86.8675 452.638 37.8784 390.767C29.3178 379.955 20.9809 368.347 14.7363 356.016C0.38328 327.675 -3.78392 296.458 6.37808 265.985C23.6431 214.21 70.6315 178.48 117.712 155.117C124.769 151.694 131.908 148.442 139.123 145.364C142.951 143.7 147.22 142.209 150.78 140.028C151.674 139.48 152.091 138.922 152.524 137.999C152.989 135.007 154.18 131.877 155.21 129.04C161.635 111.338 175.688 100.502 192.382 92.868C212.813 83.524 233.199 79.852 255.487 82.996C262.13 83.934 268.893 85.225 275.202 87.553C288.687 77.711 301.603 69.572 317.232 63.422C319.47 62.562 324.267 61.355 325.681 59.42C325.266 54.379 325.819 49.305 327.309 44.472C330.892 42.921 334.488 43.214 337.942 41.868C348.198 37.874 357.879 26.982 369.883 31.961C373.76 33.568 373.053 37.789 374.83 39.435C376.119 40.63 388.569 40.386 391.268 40.913C394.53 41.549 398.325 43.584 401.291 45.093C402.409 44.608 403.494 44.129 404.566 43.546C402.948 38.354 396.362 36.685 400.904 28.43C402.395 25.72 405.122 23.848 408.063 23.022C413.597 21.469 417.941 24.145 422.776 26.408Z" fill="#19020A"/>
<path d="M729.574 113.647C757.446 122.531 784.434 133.985 810.188 147.861C850.612 169.856 896.856 205.185 918.362 246.9C933.242 275.763 935.926 307.693 925.875 338.547C904.384 404.519 832.851 452.561 773.81 482.567C754.3 492.482 734.346 500.422 713.774 507.784C592.782 551.086 451.81 558.142 325.623 536.241C294.962 531.215 264.716 523.922 235.135 514.419C161.474 490.152 86.8675 452.638 37.8784 390.767C29.3178 379.955 20.9809 368.347 14.7363 356.016C0.38328 327.675 -3.78392 296.458 6.37808 265.985C23.6431 214.21 70.6315 178.48 117.712 155.117C124.769 151.694 131.908 148.442 139.123 145.364C142.951 143.7 147.22 142.209 150.78 140.028C151.674 139.48 152.091 138.922 152.524 137.999C152.827 141.548 152.178 143.827 150.694 147.036C150.389 149.081 150.187 151.187 150.127 153.256C149.606 171.111 157.725 185.914 169.742 198.493C164.349 206.006 162.129 215.845 159.732 224.652C151.395 227.095 143.74 230.225 136.515 235.121C118.714 247.184 107.67 264.718 103.71 285.785C98.9295 311.471 104.685 338.002 119.682 359.397C130.795 375.518 148.241 384.848 167.263 388.239C177.15 390.002 187.213 390.596 197.099 392.391L197.444 393.006C198.985 395.791 200.761 398.092 203.053 400.286C206.449 403.535 210.551 406.282 215.017 407.807C225.134 411.259 236.637 410.458 247.006 413.214C253.614 414.97 260.009 418.07 266.452 420.398C284.101 426.774 314.029 437.039 332.638 436.587C317.516 445.693 301.299 456.751 289.205 469.673C298.86 475.505 310.164 477.81 321.185 479.381C328.35 474.73 334.97 468.916 341.911 463.892C354.424 454.888 367.422 446.578 380.848 439.002C395.189 439.977 409.5 441.428 423.856 442.17C445.092 443.263 466.368 443.376 487.615 442.508C486.883 444.576 485.93 447.004 486.682 449.165C487.524 449.838 487.874 450.068 489 450.165C491.417 450.373 494.085 449.764 496.519 449.63C502.18 449.318 507.871 449.236 513.539 449.04C540.521 448.372 567.472 446.76 594.341 444.209C619.897 441.587 663.466 436.392 684.654 421.606C691.074 417.125 696.107 410.64 701.008 404.618C723.178 397.785 742.841 386.873 759.854 371.047C795.994 369.996 807.338 371.433 838.297 348.236C848.799 340.367 863.037 327.282 864.724 313.435C865.999 302.976 861.739 288.658 854.962 280.59C852.471 277.624 849.281 275.316 846.565 272.565C844.525 270.498 842.895 268.01 841.11 265.725C830.166 251.712 808.274 245.791 791.401 243.825C788.804 236.906 786.885 229.714 784.289 222.764C788.962 219.519 794.156 215.672 796.612 210.379C798.604 206.085 798.201 201.683 796.531 197.363C786.383 171.114 755.827 168.599 733.497 158.386L732.928 158.121C734.967 144.193 733.172 132.674 729.599 119.211C729.829 118.289 729.868 118.598 729.703 117.797C729.368 116.167 729.254 115.295 729.574 113.647Z" fill="#FFDDE7"/>
<path d="M729.574 113.647C757.446 122.531 784.434 133.985 810.188 147.861C850.612 169.856 896.856 205.185 918.362 246.9C933.242 275.763 935.926 307.693 925.875 338.547C904.384 404.519 832.851 452.561 773.81 482.567C754.3 492.482 734.346 500.422 713.774 507.784C592.782 551.086 451.81 558.142 325.623 536.241C294.962 531.215 264.716 523.922 235.135 514.419C161.474 490.152 86.8675 452.638 37.8784 390.767C29.3178 379.955 20.9809 368.347 14.7363 356.016C0.38328 327.675 -3.78392 296.458 6.37808 265.985C23.6431 214.21 70.6315 178.48 117.712 155.117C124.769 151.694 131.908 148.442 139.123 145.364C142.951 143.7 147.22 142.209 150.78 140.028C151.674 139.48 152.091 138.922 152.524 137.999C152.827 141.548 152.178 143.827 150.694 147.036C144.385 148.299 132.94 154.583 126.9 157.552C80.5885 180.316 30.8529 217.102 13.7903 267.876C4.19718 296.423 7.76158 325.924 21.1926 352.602C27.4889 365.108 36.2481 377.51 45.9478 387.635C69.4965 412.215 114.197 439.197 145.189 453.778C164.053 462.552 183.421 470.197 203.191 476.674C215.682 480.84 228.236 485.109 240.945 488.56C275.116 497.841 309.885 503.612 344.947 508.207C473.491 525.05 606.972 514.852 729.544 471.453C752.39 463.364 775.55 454.36 797.238 443.516C844.616 419.826 899.374 388.75 917.014 335.094C926.522 306.174 924.497 276.795 910.607 249.611C878.626 187.021 794.238 140.152 729.599 119.211C729.829 118.289 729.868 118.598 729.703 117.797C729.368 116.167 729.254 115.295 729.574 113.647Z" fill="#270612"/>
<path d="M883.21 394.543C879.552 398.986 875.179 402.89 871.026 406.862C855.129 422.068 838.196 435.094 819.719 447.013C804.511 456.824 789.046 466.387 772.923 474.643C761.242 480.626 749.082 485.839 736.969 490.878C675.239 516.554 610.759 530.324 544.344 536.779C418.182 549.043 275.862 533.08 161.399 476.797C134.582 463.61 108.091 447.957 84.9956 428.9C78.9846 423.94 73.2666 418.621 67.5156 413.364L68.2126 412.71C78.5176 421.094 89.6576 428.167 100.917 435.19C176.442 482.3 265.584 503.449 353.047 514.061C393.931 519.124 435.108 521.443 476.302 521.003C500.253 520.443 524.171 518.908 547.997 516.402C637.256 507.226 725.71 484.992 806.192 444.694C822.388 436.585 838.702 427.966 853.796 417.926C864.695 410.676 873.087 402.412 883.21 394.543Z" fill="#EE9CC2"/>
<path d="M67.5162 413.364C66.3032 412.291 64.5502 411.08 63.9932 409.548C65.6812 410.077 66.9422 411.522 68.2132 412.71L67.5162 413.364Z" fill="#8B6F64"/>
<path d="M325.681 59.42C327.251 59.172 328.714 59.018 330.305 59.015L330.868 59.529C329.015 61.834 323.867 63.708 320.917 63.984C319.697 64.098 318.406 63.724 317.232 63.422C319.47 62.562 324.267 61.355 325.681 59.42Z" fill="#55372C"/>
<path d="M496.455 26.454C501.348 28.877 505.911 31.542 510.145 35.013C513.599 37.844 516.595 41.221 520.067 44.015C527.873 50.296 537.721 50.184 546.773 47.076C550.157 45.914 556.234 42.514 559.624 43.599C567.865 50.976 557.994 75.091 583.802 73.518C586.032 73.382 587.589 73.041 589.262 71.535C589.826 70.089 589.988 69.193 589.324 67.731C587.563 63.85 583.727 59.95 581.22 56.425C590.033 59.308 603.706 63.465 608.017 72.299C613.12 82.756 603.663 91.83 606.203 102.049C607.312 106.51 610.294 111.351 612.871 115.12C617.521 121.922 623.412 126.42 629.439 131.828C631.686 133.844 633.635 136.047 634.796 138.871C639.283 149.787 635.224 167.361 633.263 178.779C631.018 177.33 628.73 175.932 626.635 174.27L626.17 173.882C624.141 172.838 622.361 171.74 620.554 170.346L617.9 168.741C612.976 167.332 590.696 153.784 584.453 150.26C584.464 149.423 584.45 148.586 584.411 147.749C584.033 139.66 576.1 131.881 570.48 126.804C557.421 115.007 538.107 101.635 519.725 102.555C518.797 103.16 517.832 103.765 516.982 104.478C515.643 105.6 514.654 107.411 514.705 109.182C514.793 112.176 517.595 114.77 519.868 116.354C524.049 119.267 529.264 120.975 533.938 122.973C545.17 127.775 556.961 133.891 565.493 142.79C562.192 143.293 559.426 143.194 557.1 145.955C555.96 147.308 555.655 148.949 555.869 150.672C557.177 161.198 576.849 172.659 585.175 178.894C585.803 181.167 586.509 183.472 586.232 185.851C584.781 198.302 575.668 209.555 566.019 216.901C553.056 226.77 538.846 231.343 522.579 228.815C517.831 228.077 513.119 226.405 508.343 225.96C506.395 225.779 505.07 225.754 503.523 227.08C502.347 228.087 501.77 229.123 501.792 230.716C501.846 234.726 508.279 240.468 511.23 242.834C519.377 249.367 529.556 251.46 539.751 250.322C532.212 253.314 523.877 257.478 515.881 258.784C497.399 261.805 467.424 243.444 449.451 237.97C452.857 233.318 456.15 228.686 458.392 223.343C462.037 214.653 463.242 204.011 459.425 195.166C456.135 187.541 449.391 182.491 441.88 179.463C429.186 174.345 415.041 175.884 402.701 181.24C381.614 190.392 368.987 209.843 360.73 230.479C348.029 227.166 332.664 223.954 322.901 214.618C319.647 211.506 317.609 207.288 314.088 204.429C313.959 204.324 313.826 204.226 313.695 204.125C321.664 192.211 329.245 179.892 340.051 170.276C345.826 165.136 358.781 157.173 362.593 152.044C363.49 150.836 363.956 149.196 363.529 147.707C363.169 146.452 362.384 145.2 361.202 144.562C359.553 143.673 357.918 143.675 356.128 144.116C351.548 145.244 347.005 148.44 342.991 150.873C326.269 161.007 310.531 176.171 299.071 192.068C294.112 198.947 289.819 206.374 285.484 213.658C277.65 207.277 268.962 199.997 264.941 190.485C258.168 174.46 262.771 143.382 269.331 127.477C279.797 102.104 305.249 79.428 330.667 69.673C337.98 66.866 346.279 66.671 353.314 63.716C347.4 62.393 338.648 65.406 332.55 66.241L329.921 64.796C329.869 63.864 330.06 63.23 330.35 62.349C335.797 59.078 342.35 57.627 347.91 54.362L349.734 51.067C350.243 50.127 350.722 49.14 351.359 48.278C352.745 46.402 355.314 44.076 357.764 43.909C360.355 43.732 362.658 45.555 364.532 47.095L365.043 47.521L365.941 47.516C366.609 45.83 367.162 44.94 368.735 43.982C371.221 42.468 373.915 42.376 376.677 43.031C385.025 42.899 392.68 45.048 400.887 45.715C392.416 49.235 382.455 53.182 376.158 60.093C376.802 62.804 377.39 65.52 378.317 68.151C368.549 71.531 359.865 75.421 355.089 85.25C353.456 88.612 352.315 92.85 353.761 96.481C354.804 99.101 357.038 100.91 359.601 101.951C365.754 104.449 374.632 103.184 380.567 100.418C383.506 99.048 385.85 97.485 387.516 94.641C392.352 97.231 397.518 99.294 403.07 97.657C414.363 94.327 413.031 85.2799 429.13 93.9019C433.432 96.2049 434.443 101.064 438.155 103.811C442.07 106.71 447.196 105.877 451.387 107.916C459.272 111.754 463.643 124.872 474.424 122.099C476.121 121.663 477.944 120.885 478.793 119.24C479.689 117.505 479.235 115.506 478.515 113.805C475.91 107.653 461.223 95.777 460.822 93.827C461.952 93.277 462.457 93.3 463.647 93.769C471.262 96.769 473.92 105.905 483.956 102.289C489.237 100.386 495.14 94.375 497.367 89.201C497.654 88.533 497.898 87.866 498.139 87.18C503.06 86.527 506.872 85.7689 510.868 82.5819C512.021 80.9629 512.608 79.52 514.807 79.265C517.215 78.985 519.239 80.202 520.949 81.794C521.782 82.569 522.402 83.556 522.928 84.556C523.453 84.758 523.079 84.672 524.049 84.284L524.492 83.005C524.321 81.716 524.188 80.562 523.254 79.551C521.034 77.148 517.54 78.126 514.712 77.776C512.593 77.514 512.565 76.533 511.942 74.692C509.432 67.274 506.22 66.591 501.59 61.034C503.373 59.645 504.931 58.299 506.458 56.616L506.874 56.152L511.932 55.282L511.52 54.811C507.168 53.492 505.255 51.388 503.039 47.489C501.617 47.403 500.693 47.363 499.46 46.544C497.728 43.517 497.675 40.195 495.667 37.118C493.4 36.287 489.313 35.499 488.245 33.073C487.965 32.436 488.222 32.118 488.41 31.495C490.613 29.238 493.54 27.614 496.455 26.454Z" fill="#BC342D"/>
<path d="M365.941 47.516C366.609 45.83 367.162 44.94 368.735 43.982C371.221 42.468 373.915 42.376 376.677 43.031C377.126 44.939 377.799 47.117 376.661 48.927C375.949 50.061 374.794 50.577 373.507 50.703C370.936 50.955 368.583 49.931 366.713 48.244C366.452 48.005 366.194 47.763 365.941 47.516Z" fill="#EE9CC2"/>
<path d="M505.506 46.689C508.717 47.459 513.427 47.814 515.332 50.791C515.436 52.416 515.097 52.892 514.411 54.334C513.461 54.47 512.438 54.536 511.52 54.811C507.168 53.492 505.255 51.388 503.039 47.489L505.506 46.689Z" fill="#FFD9E9"/>
<path d="M510.868 82.5821C512.021 80.9631 512.608 79.5201 514.807 79.2651C517.215 78.9851 519.239 80.2021 520.949 81.7941C521.782 82.5691 522.402 83.5561 522.928 84.5561C521.236 85.3891 519.635 86.1331 517.713 86.1601C514.763 86.2031 512.811 84.6001 510.868 82.5821Z" fill="#EE9CC2"/>
<path d="M617.9 168.741C618.199 166.053 618.085 163.266 620.353 161.426L621.448 161.418C622.382 162.487 622.838 163.372 622.674 164.842C622.465 166.711 621.471 168.729 620.554 170.346L617.9 168.741Z" fill="#FFD9E9"/>
<path d="M505.506 46.689C509.197 46.435 513.308 46.9691 516.11 49.7091C516.885 50.4671 517.386 51.17 517.464 52.262C516.697 53.373 515.805 53.78 514.554 54.31C514.509 54.329 514.459 54.3261 514.411 54.3341C515.097 52.8921 515.436 52.416 515.332 50.791C513.427 47.814 508.717 47.459 505.506 46.689Z" fill="#1C0D0B"/>
<path d="M626.17 173.882C626.02 172.003 625.664 170.01 626.242 168.186C627.06 168.909 627.204 170.188 627.333 171.268C627.487 172.561 627.315 173.19 626.635 174.27L626.17 173.882Z" fill="#FFD9E9"/>
<path d="M421.036 117.175C426.103 116.895 431.229 118.212 435.738 120.495C439.515 122.407 443.416 125.455 444.65 129.706C445.137 131.382 445.065 133.242 443.977 134.691C442.496 136.662 439.677 137.413 437.382 137.844C427.065 139.783 431.964 132.332 427.007 128.939C424.287 128.225 421.115 129.125 418.586 130.171C418.406 130.246 418.229 130.325 418.05 130.401C416.391 131.618 414.779 132.85 413.439 134.426C411.028 137.262 408.635 143.977 404.965 144.893C403.483 145.264 401.996 145.04 400.763 144.113C399.142 142.893 398.319 140.823 397.973 138.887C397.268 134.939 398.459 131.12 400.81 127.93C405.56 121.487 413.4 118.417 421.036 117.175Z" fill="#19020A"/>
<path d="M434.947 130.56C432.503 128.813 430.046 127.653 427.085 127.056C412.68 124.152 411.245 137.713 404.814 141.788C403.4 141.851 402.916 141.67 401.899 140.64C400.804 139.531 400.27 137.92 400.359 136.382C400.58 132.543 403.691 128.824 406.488 126.451C411.811 121.952 418.731 119.806 425.665 120.505C431.847 121.083 436.067 123.653 439.928 128.399C440.66 129.658 441.194 130.536 441.266 132.039C440.7 133.51 439.962 134.382 438.497 134.97C436.355 135.828 434.635 135.396 432.609 134.506L432.176 133.991C433.113 132.918 434.357 131.857 434.947 130.56Z" fill="#FFD9E9"/>
<path d="M439.928 128.399C440.66 129.658 441.194 130.536 441.266 132.039C440.7 133.51 439.962 134.382 438.497 134.97C436.355 135.828 434.635 135.396 432.609 134.506L432.176 133.991C433.113 132.918 434.357 131.857 434.947 130.56C436.098 129.647 437.266 129.645 438.655 129.583L439.199 129.565L439.928 128.399Z" fill="#EE9CC2"/>
<path d="M342.406 72.619C343.305 72.565 344.198 72.514 345.098 72.57C347.577 72.723 351.36 74.245 352.812 76.356C353.44 77.268 353.818 78.327 353.451 79.432C352.424 82.524 349.061 83.256 346.322 84.009C332.659 87.765 331.744 92.988 321.054 99.375C318.629 100.178 316.515 100.573 314.144 99.407C312.562 98.629 310.889 97.335 310.469 95.53C310.167 94.231 310.591 92.898 311.236 91.776C315.892 83.677 333.608 75.024 342.406 72.619Z" fill="#19020A"/>
<path d="M342.86 75.539C345.216 75.375 347.798 75.478 349.657 77.139C350.309 77.722 350.106 77.991 350.119 78.786C347.705 82.033 342.132 81.272 338.572 83.002C331.631 86.374 325.487 91.991 319.334 96.6C317.927 97.177 316.954 97.515 315.382 97.212C314.233 96.99 313.671 96.521 313.08 95.572C313.106 94.95 313.07 94.891 313.306 94.216C315.471 88.019 336.901 77.929 342.86 75.539Z" fill="#E5A5C5"/>
<path d="M504.58 144.912C505.613 144.874 506.357 144.854 507.15 145.618C508.679 147.091 509.955 149.868 510.033 151.99C510.104 153.8 509.405 155.556 508.108 156.821C504.689 160.116 499.041 159.666 494.672 159.721C492.297 159.539 490.266 159.06 488.594 157.247C488.296 156.048 488.186 155.661 488.683 154.459C490.759 149.438 499.897 146.908 504.58 144.912Z" fill="#19020A"/>
<path d="M506.157 146.917C506.473 147.025 506.921 147.423 507.198 147.623C507.556 148.88 507.841 150.099 507.899 151.412C507.966 152.948 507.774 153.849 506.66 154.984C504.077 157.615 498.205 157.038 494.84 156.896C494.002 156.62 493.309 156.266 492.529 155.861C491.933 154.733 491.887 154.757 492.183 153.525C494.842 150.307 502.213 148.653 506.157 146.917Z" fill="#EE9CC2"/>
<path d="M309.582 120.57C311.429 120.418 313.523 120.167 315.34 120.594C317.03 120.991 318.66 121.966 319.415 123.595C319.924 124.693 319.821 125.902 319.451 127.018C318.389 130.226 315.346 131.817 312.531 133.238C311.407 133.53 310.167 133.792 308.998 133.767C307.239 133.73 305.237 133.204 304.139 131.727C303.163 130.413 303.155 128.766 303.529 127.247C304.34 123.96 306.899 122.309 309.582 120.57Z" fill="#19020A"/>
<path d="M311.04 122.506C312.748 122.424 314.718 122.287 316.216 123.235C316.988 123.724 316.885 124.1 317.107 124.917C316.125 127.822 313.934 129.024 311.558 130.678C309.843 131.257 308.836 131.516 307.052 131.089C306.225 130.242 305.972 130.069 306.072 128.786C306.296 125.921 308.905 123.974 311.04 122.506Z" fill="#EE9CC2"/>
<path d="M544.084 77.877C543.58 76.06 543.002 74.2 544.047 72.434C544.726 71.284 545.869 70.759 547.131 70.519C549.936 69.984 553.359 71.724 555.408 73.495C557.151 75.002 558.424 77.005 558.489 79.364C558.525 80.644 558.221 81.488 557.303 82.408C556.881 82.832 556.432 83.224 555.98 83.615L556.255 84.492C554.853 84.591 551.389 82.483 549.633 82.075L548.77 82.144C546.738 81.064 545.554 79.59 544.084 77.877Z" fill="#FFD9E9"/>
<path d="M544.084 77.877C543.58 76.06 543.002 74.2 544.047 72.434C544.726 71.284 545.869 70.759 547.131 70.519C549.936 69.984 553.359 71.724 555.408 73.495C557.151 75.002 558.424 77.005 558.489 79.364C558.525 80.644 558.221 81.488 557.303 82.408C556.881 82.832 556.432 83.224 555.98 83.615C555.096 82.825 555.384 83.303 555.087 82.201C556.276 81.737 556.712 81.73 557.548 80.721C557.521 80.517 557.513 80.309 557.466 80.108C556.804 77.324 553.703 74.763 551.256 73.535C549.697 72.753 548.524 72.569 546.826 73.119C545.74 74.273 545.743 75.641 545.55 77.139L544.084 77.877Z" fill="#19020A"/>
<path d="M544.084 77.877L545.55 77.1389C546.796 78.9529 548.084 80.511 549.633 82.075L548.77 82.1439C546.738 81.0639 545.554 79.59 544.084 77.877Z" fill="#1C0D0B"/>
<path d="M527.781 178.701C529.099 177.409 529.251 177.112 531.093 177C531.688 177.272 532.259 177.574 532.892 177.743C534.214 177.871 534.8 178.097 535.883 178.864C536.45 180.036 536.686 180.441 536.375 181.79C535.963 183.582 534.253 185.362 532.62 186.114C531.676 186.549 531.823 186.464 530.798 186.768C527.949 187.697 525.664 188.126 522.649 187.68C520.96 187.431 520.152 187.02 519.12 185.678C519.24 184.172 519.35 183.947 520.224 182.708C522.733 181.582 525.024 179.023 527.781 178.701Z" fill="#19020A"/>
<path d="M527.781 178.701C529.099 177.409 529.251 177.112 531.093 177C530.884 180.572 530.2 182.208 527.467 184.602C526.218 185.696 524.653 186.672 522.93 186.465C522.094 186.364 521.829 185.865 521.254 185.314L520.961 183.95L520.224 182.708C522.733 181.582 525.024 179.023 527.781 178.701Z" fill="#FFD9E9"/>
<path d="M520.224 182.708C522.733 181.582 525.024 179.023 527.781 178.701C525.688 180.737 523.364 182.31 520.961 183.95L520.224 182.708Z" fill="#1C0D0B"/>
<path d="M532.892 177.743C534.214 177.871 534.8 178.097 535.883 178.864C536.45 180.036 536.686 180.441 536.375 181.79C535.963 183.582 534.253 185.362 532.62 186.114C531.676 186.549 531.823 186.464 530.798 186.768C531.731 185.647 533.251 184.105 533.697 182.707C534.341 180.686 533.811 179.492 532.892 177.743Z" fill="#FFD9E9"/>
<path d="M571.787 88.714C572.059 89.376 572.121 89.874 572.207 90.578L571.831 90.758C570.86 90.318 570.327 89.904 570.01 88.82C569.539 87.205 569.453 84.445 570.441 83.012C571.324 81.732 572.897 81.324 574.363 81.207C576.932 81.002 579.832 81.26 581.793 83.044C583.194 84.318 584.271 85.632 584.416 87.573C583.873 88.661 583.735 89.033 582.631 89.646C581.323 90.372 579.844 90.62 578.409 90.194L578.133 89.337C578.895 88.577 579.381 88.185 580.431 87.961C580.726 87.898 581.022 87.846 581.318 87.788C579.202 87.045 576.052 85.456 573.877 86.593C572.976 87.064 572.39 87.932 571.787 88.714Z" fill="#19020A"/>
<path d="M571.787 88.714C571.83 87.68 571.789 86.383 572.37 85.487C573.215 84.181 575.167 83.121 576.691 82.992C577.986 82.883 579.262 83.266 580.19 84.199C581.252 85.267 581.258 86.3981 581.318 87.7881C579.202 87.0451 576.052 85.456 573.877 86.593C572.976 87.064 572.39 87.932 571.787 88.714Z" fill="#FFD9E9"/>
<path d="M381.743 117.321C383.043 117.543 384.833 117.896 385.95 118.591C386.897 119.18 386.88 119.565 387.129 120.576C386.583 122.118 385.363 122.859 384.124 123.825C382.816 123.815 381.345 123.677 380.236 122.888C379.044 122.041 379.022 121.668 378.73 120.319C379.497 118.593 380.201 118.353 381.743 117.321Z" fill="#FFD9E9"/>
<path d="M420.088 154.443C420.703 154.646 420.751 154.941 421.112 155.459C420.952 155.979 420.853 156.38 420.583 156.873C419.147 159.49 413.306 161.355 410.656 162.396C409.743 161.654 409.747 161.672 409.543 160.515C411.023 157.669 417.13 155.748 420.088 154.443Z" fill="#FFD9E9"/>
<path d="M369.78 182.021C370.274 181.949 370.824 182.035 371.323 182.064L371.586 182.766C370.441 185.503 365.497 187.244 362.94 188.521C361.699 187.754 360.988 187.529 360.331 186.202L360.914 185.138C363.414 183.49 366.899 182.851 369.78 182.021Z" fill="#FFD9E9"/>
<path d="M491.214 228.73C491.95 228.822 492.73 228.9 493.328 229.386C495.238 230.938 497.884 235.446 497.88 237.893C497.015 237.841 496.05 237.83 495.208 237.632C493.673 237.271 492.045 235.795 491.383 234.355C490.563 232.582 490.502 230.55 491.214 228.73Z" fill="#FFD9E9"/>
<path d="M283.697 177.185C286.483 178.263 289.016 179.863 291.587 181.367C290.678 183.306 290.082 185.069 289.647 187.167C289.424 187.256 289.171 187.087 288.939 187.025C287.629 184.079 285.471 182.501 283.783 179.939C283.042 178.814 283.397 178.45 283.697 177.185Z" fill="#FFD9E9"/>
<path d="M388.103 175.871L389.569 176.283L390.034 177.239C389.024 179.839 385.052 181.643 382.737 183.012C381.53 182.745 381.549 182.955 380.724 181.91C380.794 181.458 380.815 181.137 381.033 180.703C382.263 178.244 385.736 176.813 388.103 175.871Z" fill="#FFD9E9"/>
<path d="M356.182 201.026C357.346 200.972 358.108 201.055 359.215 201.421L359.657 202.358C359.579 202.543 359.52 202.739 359.422 202.915C357.993 205.466 355.267 205.873 352.669 206.437C351.406 206.426 351.057 206.631 349.991 205.883L350.291 204.746C352.088 202.959 353.925 202.069 356.182 201.026Z" fill="#FFD9E9"/>
<path d="M528.053 159.482C529.23 159.425 530.437 159.371 531.614 159.416C533.749 159.5 534.903 160.037 536.344 161.522C536.109 162.703 535.963 162.549 535.065 163.244C532.69 163.511 529.87 164.241 527.717 163.134C527.338 161.574 527.626 161.001 528.053 159.482Z" fill="#FFD9E9"/>
<path d="M406.185 168.447L407.589 168.601L407.89 169.279C406.596 171.957 402.125 173.408 399.528 174.534C398.815 174.425 398.247 174.075 397.603 173.763L397.391 172.894C398.803 170.437 403.613 169.343 406.185 168.447Z" fill="#FFD9E9"/>
<path d="M598.677 125.213C599.432 125.279 600.194 125.34 600.945 125.451C602.58 125.69 603.385 126.179 604.332 127.506C604.37 129.002 604.192 129.283 603.468 130.613C602.58 130.807 601.607 131.073 600.699 131.103C599.42 131.146 598.915 130.684 598.105 129.799C597.749 128.057 598.159 126.886 598.677 125.213Z" fill="#FFD9E9"/>
<path d="M499.36 165.276L500.371 165.278L500.934 166.304L500.534 167.005C498.053 168.379 494.953 168.788 492.202 169.419L490.895 169.392L490.346 168.725L490.741 167.426C493.553 165.3 495.971 165.372 499.36 165.276Z" fill="#FFD9E9"/>
<path d="M276.899 140.632L278.356 141.361C278.992 144.332 275.4 149.025 273.934 151.764L273.697 152.061L273.04 152.103C272.996 151.945 272.931 151.791 272.907 151.629C272.437 148.561 275.237 143.193 276.899 140.632Z" fill="#FFD9E9"/>
<path d="M357.543 172.946L358.31 173.602C358.406 174.045 358.466 174.164 358.381 174.676C358.09 176.432 356.512 178.638 355.012 179.573C354.241 180.054 353.507 179.511 352.697 179.259L351.411 179.445L350.897 178.958C351.66 176.325 355.332 174.423 357.543 172.946Z" fill="#FFD9E9"/>
<path d="M270.676 167.732C271.21 167.87 272.3 168.064 272.798 168.386C273.947 169.128 274.081 169.724 274.452 170.94C274.186 172.67 273.762 173.573 272.758 174.998C271.444 175.193 271.158 175.335 269.978 174.777C269.043 172.493 270.054 170.011 270.676 167.732Z" fill="#FFD9E9"/>
<path d="M501.722 134.153C504.12 134.335 508.462 134.166 510.465 135.549C511.792 136.466 511.663 137.182 511.943 138.649C509.284 138.142 503.769 137.728 501.874 135.905C501.327 135.379 501.64 134.832 501.722 134.153Z" fill="#FFD9E9"/>
<path d="M530.684 202.518C530.814 202.512 530.944 202.503 531.074 202.501C531.291 202.497 531.508 202.501 531.724 202.499C532.447 202.491 533.293 202.423 533.993 202.625C535.186 202.97 535.879 203.594 536.473 204.63C535.564 205.79 534.825 205.66 533.411 205.948C531.495 206.295 529.897 206.859 528.06 205.927L527.868 204.975C528.671 203.818 529.526 203.257 530.684 202.518Z" fill="#FFD9E9"/>
<path d="M413.996 103.095C414.688 103.381 415.194 104.017 415.734 104.528C415.751 105.395 415.615 105.365 415.136 106.035C413.028 107.071 411.204 107.102 408.908 107.141C408.248 106.936 407.906 106.604 407.374 106.178L407.598 105.376C409.514 104.135 411.815 103.696 413.996 103.095Z" fill="#FFD9E9"/>
<path d="M348.235 126.435C349.056 126.662 348.612 126.449 349.436 127.296C348.261 129.863 344.666 130.929 342.189 132.041C342.144 132.027 342.097 132.021 342.055 132C341.015 131.475 340.931 131.612 340.575 130.443C341.742 128.578 346.116 127.315 348.235 126.435Z" fill="#FFD9E9"/>
<path d="M479.311 141.227L481.067 140.818L481.882 141.589L481.837 142.312C480.1 143.877 478.314 144.096 476.103 144.554C475.218 144.786 474.676 144.801 473.773 144.657L473.591 143.795C473.966 143.273 474.141 142.991 474.618 142.511C475.962 141.162 477.52 141.284 479.311 141.227Z" fill="#FFD9E9"/>
<path d="M547.922 196.223C548.076 196.24 548.231 196.252 548.386 196.272C549.931 196.476 550.536 196.563 551.48 197.771C551.459 199.558 550.344 200.732 549.344 202.117C548.152 202.68 548.781 202.528 547.456 202.572L546.889 201.612C546.827 199.7 547.39 198.045 547.922 196.223Z" fill="#FFD9E9"/>
<path d="M508.213 212.062C508.642 212.16 509.12 212.552 509.495 212.786L509.409 213.715C507.912 215.287 505.974 216.099 504.062 217.069C503.133 216.391 502.961 216.274 502.52 215.225L503.112 214.091C504.783 212.921 506.242 212.531 508.213 212.062Z" fill="#FFD9E9"/>
<path d="M442.429 147.019C443.569 146.959 444.216 146.995 445.271 147.446L445.457 148.196C444.172 149.758 442.802 150.269 440.964 151.038C439.813 150.902 439.228 150.639 438.257 150.013L438.271 149.101C439.554 147.763 440.664 147.487 442.429 147.019Z" fill="#FFD9E9"/>
<path d="M481.288 187.566C482.98 187.434 484.895 187.072 486.486 187.736C487.088 189.363 486.536 190.402 486.135 192.064C485.391 192.378 485.596 192.47 484.895 192.155C482.972 191.291 482.141 189.356 481.288 187.566Z" fill="#FFD9E9"/>
<path d="M307.673 153.872L308.773 154.483L308.961 155.445C307.481 157.436 304.943 158.799 302.913 160.197L301.968 159.682L301.963 158.832C303.49 156.782 305.641 155.389 307.673 153.872Z" fill="#FFD9E9"/>
<path d="M610.565 138.297C611.592 138.315 612.42 138.281 613.346 138.812C615.018 139.77 615.709 141.478 616.346 143.181C614.345 143.198 613.257 143.156 611.585 141.97C610.717 140.59 610.609 139.928 610.565 138.297Z" fill="#FFD9E9"/>
<path d="M619.731 135.547C622.527 135.545 627.558 135.369 629.62 137.402C627.833 137.993 625.613 138.36 623.728 138.121C621.682 137.862 620.912 137.081 619.731 135.547Z" fill="#FFD9E9"/>
<path d="M562.759 182.887C563.477 183.871 563.998 185.304 563.649 186.552C563.127 188.415 561.445 189.156 559.844 189.856C559.547 189.433 559.412 188.986 559.229 188.506C559.921 186.29 561.35 184.687 562.759 182.887Z" fill="#FFD9E9"/>
<path d="M283.709 152.931C284.04 153.031 284.541 153.425 284.839 153.616L284.918 154.734C284.185 156.192 283.315 156.965 282.076 158.008C280.941 157.328 280.354 157.142 279.723 155.955C280.622 154.425 282.199 153.821 283.709 152.931Z" fill="#FFD9E9"/>
<path d="M463.813 176.408C464.245 176.508 464.712 176.78 465.117 176.965L465.304 177.801C464.437 179.371 463.098 180.154 461.655 181.163C460.712 180.447 460.463 180.334 460.05 179.243C461.011 177.683 462.231 177.291 463.813 176.408Z" fill="#FFD9E9"/>
<path d="M479.855 207.765C479.997 207.803 480.146 207.823 480.282 207.879C481.63 208.435 482.385 208.853 483.886 208.915L484.752 208.943L484.841 210.408L483.24 211.579C481.904 211.709 481.72 211.672 480.514 211.08C479.783 209.623 479.723 209.387 479.855 207.765Z" fill="#FFD9E9"/>
<path d="M613.204 82.984C629.872 89.517 649.212 103.695 661.963 116.206C689.251 142.98 708.714 178.44 709.071 217.431C709.259 238.029 702.334 258.637 690.71 275.552C668.596 307.731 613.442 343.388 577.666 358.746C551.539 369.962 523.496 377.646 496.405 386.206C447.644 401.614 399.909 420.213 356.931 448.374C347.495 454.558 328.056 467.916 320.67 475.603L320.171 476.129C317.844 475.403 315.45 474.908 313.076 474.363C306.826 473.068 300.569 470.889 294.576 468.72C319.742 446.639 349.852 428.612 380.105 414.442C391.713 409.004 403.719 404.446 415.328 399.06C436.695 389.147 457.657 378.725 479.819 370.614C491.144 366.468 502.715 362.998 514.065 358.915C525.615 354.76 536.962 349.916 548.345 345.326C576.181 334.102 603.841 322.468 628.63 305.259C654.244 287.478 680.376 260.213 685.935 228.512C686.997 222.454 687.697 216.081 687.409 209.925C686.439 189.152 677.585 162.107 665.339 145.545C657.703 135.218 648.079 126.9 637.577 119.615C631.863 115.651 611.984 104.567 609.436 100.907C608.529 96.495 612.177 87.696 613.204 82.984Z" fill="#FFABD2"/>
<path d="M439.729 4.76904C442.98 7.51204 440.292 16.331 442.5 20.534C445.884 22.541 457.526 19.038 461.815 18.219C464.449 14.727 466.684 11.584 471.178 10.374C472.58 9.99702 474.205 9.94703 475.415 10.871C479.611 14.076 476.83 18.728 477.449 22.719C478.92 23.739 480.699 22.944 481.646 23.7C485.17 26.509 482.21 31.256 483.224 34.628C484.577 39.127 490.321 36.724 492.999 38.764C495.684 40.808 495.65 45.028 495.962 48.064C498.54 50.431 501.911 52.341 503.745 55.37L503.513 56.218C502.186 57.122 500.681 58.072 499.05 58.277C495.234 58.759 493.671 54.676 490.897 52.904C489.364 51.925 487.559 51.711 485.81 52.165C483.141 52.858 480.697 54.912 479.381 57.314C478.331 59.229 477.957 62.345 478.677 64.435C479.094 65.647 479.634 66.041 480.703 66.658C481.99 66.611 482.607 66.566 483.671 65.816L483.747 64.932C482.8 64.318 481.933 63.749 481.132 62.94C480.545 62.347 480.409 61.92 480.543 61.057C480.828 59.216 482.849 57.349 484.292 56.321C486.131 55.01 487.328 54.72 489.554 55.072C492.629 57.202 490.282 60.814 491.482 63.988C492.344 64.963 492.823 65.348 494.064 65.755C495.785 65.016 496.034 63.663 497.072 62.146C500.962 64.151 504.693 67.483 507.038 71.199C508.621 73.709 509.327 76.532 508.566 79.454C508.117 81.176 507.085 82.847 505.442 83.649C503.543 84.577 501.757 84.1101 499.823 83.6451C498.924 82.7381 498.236 81.972 496.999 81.532C493.714 83.603 494.231 90.856 491.153 94.234C489.362 96.2 485.157 99.423 482.408 99.622C481.335 98.99 480.413 98.51 479.222 98.112C478.516 98.776 478.743 98.5121 478.185 99.2151C478.063 99.3691 477.944 99.527 477.823 99.683C474.089 99.65 469.312 93.172 465.984 91.14C464.252 90.084 461.924 89.188 459.909 89.959C458.078 90.659 457.374 92.389 456.664 94.047C457.226 97.042 467.946 104.512 470.815 107.74L471.286 108.278C473.044 110.423 475.134 113.149 475.617 115.946C475.841 117.245 475.561 117.769 474.831 118.802C465.628 123.113 460.068 109.043 453.87 105.246C450.301 103.06 445.962 103.397 442.109 102.063C437.714 100.542 436.544 96.598 434.774 92.707C434.45 92.493 434.127 92.275 433.791 92.08C431.047 90.494 427.916 89.302 424.961 88.179C409.318 82.236 410.886 93.8231 399.469 94.5591C394.916 94.8521 390.458 90.098 386.281 91.574C384.549 92.187 383.692 94.4381 382.889 95.9521C377.134 99.1261 370.017 100.025 363.522 99.372C361.553 99.174 358.306 98.7081 357.212 96.7491C356.587 95.6301 356.762 93.798 356.921 92.578C357.8 85.819 363.137 78.905 369.104 75.803C372.399 74.091 376.277 72.928 379.195 70.597C380.634 69.448 381.85 68.06 381.815 66.093C381.787 64.489 380.544 63.28 379.557 62.144C385.382 56.302 392.742 52.227 400.297 49.084C404.385 47.383 410.876 48.829 414.187 46.254L414.056 45.412C411.477 43.671 408.7 41.891 406.626 39.544C405.052 37.762 403.885 35.569 404.092 33.126C404.246 31.319 405.287 28.922 406.792 27.824C411.453 24.423 417.071 29.791 421.811 30.196C429.196 30.827 433.06 9.97404 439.729 4.76904Z" fill="#FFD9E9"/>
<path d="M432.02 44.486C432.979 44.478 434.157 44.396 435.079 44.727C437.291 45.519 439.972 48.312 440.956 50.422C441.806 52.244 441.712 53.627 441.065 55.477C439.907 56.874 438.561 57.075 436.89 57.517C435.872 57.554 434.846 57.58 433.834 57.438C431.463 57.105 429.522 55.973 428.192 53.956C427.26 52.543 426.933 50.923 427.389 49.279C428.088 46.761 429.824 45.638 432.02 44.486Z" fill="#19020A"/>
<path d="M431.314 47.772C432.332 47.82 433.409 47.824 434.33 48.312C436.413 49.414 438.113 51.871 438.738 54.094L437.717 55.104C435.788 54.966 432.918 54.967 431.265 53.839C430.046 53.008 429.964 52.661 429.564 51.316C429.793 49.76 430.394 48.977 431.314 47.772Z" fill="#EE9CC2"/>
<path d="M456.393 60.642C458.695 60.584 460.314 61.149 462.318 62.22L462.385 62.954C459.98 64.634 457.405 64.708 454.608 65.045C449.717 65.634 446.629 70.126 443.757 73.699C443.331 74.363 442.754 74.899 442.214 75.473L441.172 75.496L440.553 74.503C440.6 72.605 441.233 71.112 442.242 69.508C445.367 64.535 450.846 61.87 456.393 60.642Z" fill="#19020A"/>
<path d="M388.95 74.939C391.714 74.949 393.702 75.8129 396.006 77.2869C398.149 78.6589 400.479 80.41 400.961 82.986L400.36 83.8539L398.874 83.8549C394.767 83.0239 390.169 83.253 386.385 81.4C385.551 80.334 385.554 80.315 385.575 78.96C386.425 77.175 387.471 76.227 388.95 74.939Z" fill="#19020A"/>
<path d="M460.293 28.469C462.735 28.829 464.643 28.92 466.404 30.826C467.509 32.021 468.332 33.79 467.984 35.465C467.721 36.728 467.036 36.876 466.005 37.406C465.026 37.448 464.039 37.47 463.06 37.399C461.328 37.274 458.824 36.338 457.838 34.789C457.334 33.996 457.047 33.383 457.189 32.451C457.5 30.402 458.696 29.541 460.293 28.469Z" fill="#19020A"/>
<path d="M407.052 58.21C409.294 58.564 417.326 64.533 419.499 66.238C420.563 67.074 420.46 67.191 420.613 68.499C420.352 68.511 420.092 68.529 419.832 68.536C416.192 68.641 411.891 66 409.42 63.466C407.753 61.757 406.968 60.625 407.052 58.21Z" fill="#19020A"/>
<path d="M684.694 310.07C697.657 321.484 712.458 341.65 713.657 359.274C714.781 375.801 703.825 395.848 693.236 407.922C688.445 413.385 683.302 417.926 676.906 421.411C648.856 436.697 595.2 440.626 563.556 442.553C548.646 443.382 533.73 444.116 518.81 444.757C512.39 445.081 505.812 445.125 499.433 445.799C496.615 447.098 491.645 447.004 488.445 447.55C490.94 438.77 500.435 424.419 506.073 416.975C510.295 416.468 514.481 416.645 518.716 416.842C530.82 417.628 542.906 417.491 555.026 417.593C594.779 417.929 640.199 417.227 676.796 400.262C683.557 397.127 690.388 393.475 696.034 388.549C702.555 382.859 706.844 375.599 707.332 366.802C707.929 356.027 702.643 346.257 695.601 338.483C690.246 332.572 684.058 327.907 677.576 323.331C680.054 318.958 682.537 314.614 684.694 310.07Z" fill="#FFABD2"/>
<path d="M506.073 416.975C510.295 416.468 514.481 416.645 518.716 416.842C512.466 426.562 505.453 435.98 499.433 445.799C496.615 447.098 491.645 447.004 488.445 447.55C490.94 438.77 500.435 424.419 506.073 416.975Z" fill="#FFABD2"/>
<path d="M636.44 212.624C642.729 216.073 648.793 220.337 654.893 224.137C652.405 235.475 646.209 244.873 639.509 254.128C617.986 283.86 603.537 294.686 572.616 313.362C560.984 320.388 549.643 327.562 537.311 333.337C514.943 343.809 497.247 347.902 473.51 353.136C462.286 355.611 450.986 358.198 439.63 359.987C428.808 361.692 417.908 362.83 407.081 364.56C403.293 365.121 399.381 365.527 395.685 366.524C393.808 364.696 392.108 362.715 390.38 360.749C419.062 356.281 445.973 347.581 473.185 337.746C495.903 329.536 518.549 320.64 539.965 309.391C575.025 290.977 611.366 267.738 629.476 231.062C632.415 225.111 634.472 218.94 636.44 212.624Z" fill="#FFABD2"/>
<path d="M615.911 199.263C621.605 202.814 627.23 206.484 632.878 210.108C630.495 218.318 627.225 226.537 623.115 234.036C595.948 283.601 533.768 310.395 483.322 329.485C469.486 334.72 455.712 340.156 441.606 344.634C426.507 349.428 411.107 353.547 395.893 357.988C393.726 358.521 391.602 359.287 389.48 359.976C385.817 354.989 382.472 349.9 379.613 344.406C386.345 342.659 393.275 341.228 399.861 338.992C405.491 337.081 410.999 334.371 416.722 332.811C423.274 331.025 430.023 329.767 436.623 328.125C456.269 323.238 476.192 318.082 495.419 311.735C509.643 307.039 522.676 300.577 535.441 292.774C574.74 268.753 595.592 239.642 615.911 199.263Z" fill="#FFABD2"/>
<path d="M271.413 253.983C239.127 237.838 204.634 225.779 177.755 200.744C172.229 195.598 166.815 190.009 162.747 183.612C154.155 170.099 152.56 155.917 156.117 140.454C160.02 123.49 167.989 112.22 182.715 103.014C204.723 89.257 233.255 81.778 258.959 87.761C263.261 88.482 267.503 89.2811 271.747 90.2941C269.199 93.5811 266.62 96.8441 264.012 100.083L256.871 99.0301C235.178 95.5161 212.954 94.3631 191.991 102.341C182.432 105.98 173.731 110.748 169.415 120.556C165.109 130.343 165.96 143.147 169.779 152.935C173.526 162.539 181.057 171.696 188.53 178.65C202.042 191.225 218.908 200.835 234.82 210.035C248.753 218.09 262.404 225.859 277.147 232.347C274.847 239.524 272.826 246.584 271.413 253.983Z" fill="#FFABD2"/>
<path d="M258.959 87.761C263.261 88.482 267.503 89.281 271.747 90.294C269.199 93.581 266.62 96.844 264.012 100.083L256.871 99.03C257.684 98.066 258.591 97.067 259.213 95.966C260.651 93.425 259.671 90.348 258.959 87.761Z" fill="#E5A5C5"/>
<path d="M599.359 362.25C608.386 361.448 617.881 361.695 626.925 362.221C644.417 363.238 658.105 367.87 672.992 377.141C678.66 380.67 684.18 384.537 688.643 389.541C685.784 391.453 682.832 392.979 679.729 394.449C643.241 382.135 606.232 374.255 567.62 379.323C557.594 380.639 547.829 382.942 537.976 385.155C528.443 387.297 518.534 388.059 509.538 392.086C523.168 393.771 537.833 390.297 550.734 386.074L546.931 390.907C545.685 392.942 544.26 394.709 544.792 397.202C546.964 400.463 553.563 400.992 557.231 402.064C550.442 405.562 529.451 412.299 521.729 413.309C517.147 413.909 512.443 412.98 507.844 413.739C504.451 414.298 503.428 415.973 501.545 418.559C488.323 419.323 475.169 417.464 462.026 416.2C453.166 415.348 443.987 415.091 435.388 412.652C442.853 409.851 450.074 406.386 457.579 403.669C483.911 394.139 510.918 386.055 537.523 377.277C548.737 373.577 561.603 367.543 572.682 365.004C581.248 363.04 590.592 362.759 599.359 362.25Z" fill="#FFABD2"/>
<path d="M424.596 180.211C432.614 179.688 441.39 182.216 447.901 186.916C453.371 190.865 456.622 196.555 457.519 203.238C458.969 214.042 454.398 224.679 447.858 233.046C430.148 255.706 392.089 269.827 363.782 273.261C364.698 267.502 365.842 261.817 367.039 256.111C386.062 253.971 421.968 245.823 436.41 233.571C440.893 229.768 444.325 224.681 444.628 218.662C444.894 213.38 442.645 207.841 439.115 203.953C434.747 199.142 428.113 196.4 421.682 196.088C408.96 195.47 395.006 202.014 385.796 210.494C368.92 226.033 360.348 254.872 359.281 277.376C358.685 288.477 360.068 299.062 362.506 309.865C368.767 337.608 381.386 362.229 404.626 379.448C410.401 383.727 416.927 387.132 423.011 390.969C416.648 394.36 409.772 397.09 403.168 399.981C401.38 398.128 399.121 396.589 397.175 394.885C369.424 370.589 357.298 334.674 354.914 298.818C352.754 266.324 360.093 226.231 382.236 201.19C393.005 188.844 408.248 181.295 424.596 180.211Z" fill="#FFABD2"/>
<path d="M170.1 132.692C169.903 130.329 170.272 127.769 170.934 125.502C173.012 118.393 178.196 113.368 184.498 109.856C203.659 99.179 229.013 98.414 250.244 101.351C254.181 101.896 258.251 102.303 262.087 103.369L262.157 106.496C261.498 107.155 260.902 107.602 260.136 108.108C257.228 110.027 255.732 120.639 253.066 120.946L252.527 120.703C238.08 125.02 224.912 132.43 213.207 141.869C207.969 147.415 190.663 166.172 190.371 173.763C190.366 173.905 190.381 174.047 190.386 174.189L190.393 174.494C183.732 168.441 178.791 161.187 174.678 153.255C172.974 149.723 171.782 145.672 171.136 141.803C170.826 139.949 170.431 138.772 171.562 137.23L170.451 136.239C170.258 135.039 170.153 133.902 170.1 132.692Z" fill="#FFD9E9"/>
<path d="M170.1 132.692C169.903 130.329 170.272 127.769 170.934 125.502C173.012 118.393 178.196 113.368 184.498 109.856C203.659 99.179 229.013 98.414 250.244 101.351C254.181 101.896 258.251 102.303 262.087 103.369C256.443 105.634 248.336 106.187 242.125 108.04C217.709 115.326 193.567 122.65 170.1 132.692Z" fill="#FFD9E9"/>
<path d="M174.678 153.255C174.841 153.14 174.999 153.015 175.169 152.909C177.457 151.464 204.547 141.903 208.474 140.809C209.62 140.489 210.549 140.347 211.722 140.638C212.906 140.932 212.665 140.944 213.207 141.869C207.969 147.415 190.663 166.172 190.371 173.763C190.366 173.905 190.381 174.047 190.386 174.189L190.393 174.494C183.732 168.441 178.791 161.187 174.678 153.255Z" fill="#FFD9E9"/>
<path d="M262.087 103.369L262.157 106.496C261.498 107.155 260.902 107.602 260.136 108.108C257.228 110.027 255.732 120.639 253.066 120.946L252.527 120.703C255.283 117.625 256.704 111.513 258.585 107.676C236.677 112.992 215.081 121.499 193.875 129.155C188.559 131.074 176.629 136.727 171.562 137.23L170.451 136.239C170.258 135.039 170.153 133.902 170.1 132.692C193.567 122.65 217.709 115.326 242.125 108.04C248.336 106.187 256.443 105.634 262.087 103.369Z" fill="#270612"/>
<path d="M122.656 254.873C126.322 254.392 129.791 253.517 133.357 252.552C130.996 257.742 128.716 262.931 126.95 268.363C120.152 289.269 121.648 313.532 131.811 333.124C148.122 364.571 179.979 372.986 211.564 381.611C216.221 382.883 221.015 383.808 225.605 385.294L226.055 385.444L227.838 386.345C225.98 389.196 224.151 391.812 223.2 395.117L222.107 395.016C212.235 394.643 202.344 390.563 192.802 388.248C170.342 382.801 150.482 384.575 131.521 367.124C116.01 352.849 106.922 327.881 106.172 307.149C105.528 289.338 110.218 268.243 122.656 254.873Z" fill="#FFABD2"/>
<path d="M226.055 385.444L227.838 386.345C225.98 389.196 224.151 391.812 223.2 395.117L222.107 395.016C223.046 391.794 224.735 388.544 226.055 385.444Z" fill="#73505C"/>
<path d="M697.812 157.28C704.406 159.923 711.41 161.505 718.084 164.018C746.412 174.685 767.094 194.103 779.457 221.684C794.029 254.194 798.67 291.737 785.733 325.566C782.791 333.261 778.753 340.355 774.302 347.259C758.5 371.769 738.982 385.087 712.868 396.727C710.053 398.13 707.24 399.273 704.284 400.346C707.486 394.446 710.559 388.478 713.5 382.444C718.919 380.829 724.048 378.988 728.982 376.185C733.424 373.66 737.586 370.527 741.759 367.581C762.962 352.606 772.705 338.501 779.529 313.103C789.202 277.1 778.351 240.656 760.029 209.345C747.83 188.498 726.557 177.323 703.842 171.303C702.254 166.496 699.912 161.883 697.812 157.28Z" fill="#FFABD2"/>
<path d="M227.838 386.345C228.311 386.098 228.735 385.718 229.256 385.605C233.533 384.684 270.499 391.19 277.953 392.356C297.709 395.447 317.623 397.657 337.403 400.697C352.62 403.035 370.048 406.804 385.058 407.862C373.307 413.11 362.174 418.828 351.123 425.415C346.691 424.051 341.861 423.514 337.291 422.741L314.396 418.97C283.65 414.032 252.833 409.072 221.795 406.348C222.063 402.547 222.465 398.86 223.2 395.117C224.151 391.812 225.98 389.196 227.838 386.345Z" fill="#FFABD2"/>
<path d="M594.961 45.713C610.755 44.1 628.805 45.792 644.318 49.083C670.854 54.713 699.775 73.292 714.694 96.324C728.52 117.667 733.495 139.281 728.239 164.276C723.079 161.942 717.946 159.652 712.637 157.67L707.307 155.647C711.082 144.243 712.491 133.904 712.612 121.894C712.719 111.213 710.653 102.859 706.082 93.162C704.691 90.212 703.142 86.845 700.761 84.551C690.93 75.081 667.105 70.152 653.691 68.606C643.792 67.464 633.978 67.325 624.083 66.575C618.362 66.142 612.938 64.419 607.136 64.66C599.379 59.467 590.923 55.473 581.453 55.461C579.577 52.915 578.002 50.46 576.595 47.626C582.621 46.39 588.838 46.14 594.961 45.713Z" fill="#FFABD2"/>
<path d="M181.777 241.296C184.337 241.063 186.934 240.977 189.502 240.824C189.424 245.293 189.263 249.802 189.465 254.268C190.841 284.773 211.294 315.425 233.367 335.514C234.985 349.156 237.593 361.352 242.006 374.349L236.015 370.105C232.872 367.759 229.847 365.155 226.934 362.525C190.373 329.497 174.08 290.577 171.531 242.088C174.919 241.647 178.368 241.516 181.777 241.296Z" fill="#FFABD2"/>
<path d="M711.219 236.393C723.316 237.823 736.132 240.87 746.878 246.814C749.588 248.313 752.772 251.998 755.871 252.229C755.924 251.558 755.91 251.007 755.835 250.33C755.809 250.094 755.776 249.859 755.746 249.623L756.714 250.608C756.705 254.278 760.741 257.835 762.808 260.717C767.626 267.431 770.53 274.999 773.522 282.634C773.659 279.982 773.789 277.389 773.354 274.753C771.381 262.816 763.839 254.146 754.328 247.268C755.752 244.299 757.462 241.463 759.098 238.606C764.293 242.404 768.229 247.027 771.735 252.409C782.127 268.361 780.699 290.198 776.9 308.021C771.661 330.539 764.921 343.545 748.075 358.969C750.016 351.994 750.221 345.081 750.183 337.897C754.571 332.34 756.729 325.811 758.204 318.969C761.255 304.815 762.835 284.472 754.29 271.754C744.758 257.57 721.796 257.366 706.61 254.241C708.578 248.412 710.118 242.447 711.219 236.393Z" fill="#FFABD2"/>
<path d="M448.472 239.301C454.947 241.047 462.676 246.112 468.871 249.118C478.475 253.78 489.119 257.889 499.404 260.762C530.271 269.385 554.218 262.84 581.433 247.417C576.01 253.862 570.535 260.323 564.55 266.256C559.563 271.127 554.354 276.496 547.755 279.104C537.14 283.298 526.913 284.333 515.59 283.89C507.795 283.584 500.045 282.91 492.462 280.981C471.793 275.722 451.367 261.442 431.522 252.796C437.803 249.409 443.371 244.227 448.472 239.301Z" fill="#FFABD2"/>
<path d="M799.228 262.619C802.407 262.873 805.562 263.156 808.698 263.759C817.732 265.498 837.887 270.626 842.903 278.637C845.787 283.243 844.837 291.23 843.743 296.369C839.976 314.07 826.778 324.898 812.283 334.174C803.602 339.543 794.061 343.376 784.078 345.506C789.273 337.704 794.493 330.059 797.981 321.3C802.675 309.514 807.215 289.561 804.581 277.037C803.526 272.019 801.246 267.309 799.228 262.619Z" fill="#FFD9E9"/>
<path d="M562.778 147.166C566.2 146.852 568.602 146.824 571.942 147.959C579.573 150.55 586.655 155.809 593.644 159.82C608.024 168.073 622.517 176.314 636.464 185.282C650.911 194.571 667.772 207.04 683.542 213.592C683.485 218.389 683.563 229.059 680.805 233.052C674.475 230.447 668.332 227.409 662.419 223.962C640.364 211.14 619.474 196.41 598.226 182.337C587.242 175.062 575.362 168.784 564.942 160.684C562.999 159.174 561.335 157.588 560.24 155.346C559.387 153.597 558.784 151.155 559.729 149.315C560.446 147.919 561.452 147.718 562.778 147.166Z" fill="#FFABD2"/>
<path d="M253.467 250.286C258.89 252.806 264.333 255.283 269.796 257.715C266.076 285.377 256.16 311.484 255.873 339.743C255.781 348.733 256.399 357.933 257.977 366.783C258.527 369.871 262.653 384.274 262.573 385.272L261.387 385.415L249.478 383.938L246.165 375.188C231.465 335.575 236.07 288.262 253.467 250.286Z" fill="#FFABD2"/>
<path d="M432.652 256.744C440.575 262.213 452.625 267.663 461.482 272.511C453.068 278.408 445.26 284.8 436.474 290.212C420.555 300.02 403.191 307.339 386.322 315.335C381.036 317.989 375.716 320.574 370.363 323.09C368.352 315.569 366.569 307.989 365.018 300.36C371.304 297.216 377.398 293.635 383.647 290.403C396.244 283.887 422.172 272.286 431.188 262.12C432.864 260.229 432.829 259.14 432.652 256.744Z" fill="#FFABD2"/>
<path d="M299.447 282.786C304.851 285.436 310.702 287.033 316.445 288.767C316.679 309.336 325.608 337.66 339.577 352.764C347.88 361.742 359.338 369.488 371.897 369.938C374.324 373.98 376.953 377.893 379.554 381.824C377.757 381.974 375.956 382.072 374.154 382.117C354.221 382.778 332.698 377.593 317.896 363.455C315.615 361.277 313.822 358.837 312.6 355.92C307.405 343.515 299.785 296.431 299.447 282.786Z" fill="#FFABD2"/>
<path d="M397.671 368.785C402.64 368.388 407.599 367.362 412.544 366.712C424.842 365.095 437.007 363.507 449.246 361.448C501.104 352.723 526.635 345.761 571.98 318.102C578.762 321.766 584.606 322.44 592.079 320.993L591.545 322.666C583.817 325.572 576.341 329.694 568.699 332.918C552.479 339.572 536.186 346.047 519.823 352.342C504.667 358.298 488.998 362.879 473.782 368.667C457.747 374.767 442.416 382.137 426.899 389.409C422.976 385.744 417.996 383.062 413.479 380.173C407.938 376.629 402.72 373.024 397.671 368.785Z" fill="#BC342D"/>
<path d="M356.498 146.415C358.176 146.526 359.342 146.885 360.566 148.093C361.226 152.087 353.784 155.969 350.93 158.02C345.174 162.158 339.41 166.411 334.294 171.334C323.176 182.032 310.822 199.709 302.819 213.067C272.847 263.095 276.095 302.641 289.832 357.033L289.523 357.458L288.389 356.752C283.656 351.492 279.818 345.491 277.028 338.987C266.921 316.016 270.333 277.88 275.589 253.603C277.647 244.095 280.641 234.571 284.154 225.498C296.465 193.697 324.952 160.35 356.498 146.415Z" fill="#FFABD2"/>
<path d="M464.633 274.421C470.757 276.671 476.791 280.103 482.823 282.718C469.432 291.969 457.823 303.287 444.642 312.69C427.222 325.116 406.321 332.289 386.361 339.497L378.412 342.574C375.882 337.23 373.628 331.901 371.561 326.364C381.943 321.959 392.087 317.032 402.289 312.229C415.85 305.844 429.64 299.516 442.236 291.329C450.136 286.195 457.022 279.906 464.633 274.421Z" fill="#FFABD2"/>
<path d="M847.091 276.338C847.976 276.877 848.646 277.504 849.388 278.223C857.716 286.295 861.992 298.32 862.008 309.793C862.021 318.941 853.384 328.898 847.339 335.103C835.109 347.657 813.967 361.746 796.683 365.01C789.251 366.413 781.411 366.16 773.875 366.252C770.908 366.283 767.884 366.202 764.942 366.614C763.716 366.786 762.706 366.841 761.471 366.754C768.394 363.728 772.734 356.24 776.414 349.889C782.075 350.045 787.229 349.367 792.628 347.648C812.454 341.336 834.632 326.929 844.27 307.911C849.364 297.86 850.631 287.065 847.091 276.338Z" fill="#FFABD2"/>
<path d="M149.139 247.058L149.313 247.115C150.517 248.731 149.198 257.127 149.388 259.724C150.038 268.638 152.442 277.494 154.898 286.057C149.886 293.04 147.344 301.419 147.277 310.017C147.117 330.717 169.247 354.967 183.176 369.063L172.711 364.543C155.085 357.382 142.297 345.49 134.333 328.196C126.695 311.608 125.038 291.135 129.831 273.514C131.939 265.762 135.218 258.305 138.031 250.787C141.636 249.24 145.385 248.176 149.139 247.058Z" fill="#FFD9E9"/>
<path d="M614.929 382.679C634.528 384.616 656.669 390.89 675.383 397.064C641.892 411.27 603.438 414.012 567.437 414.061C556.281 414.076 545.134 413.447 533.968 413.511L531.998 412.11C541.396 409.915 551.832 408.522 559.954 402.997C565.035 403.263 569.811 405.009 574.565 406.706C587.22 403.23 607.246 393.371 614.929 382.679Z" fill="#BC342D"/>
<path d="M421.296 200.195C423.897 199.864 427.07 200.615 429.476 201.554C434.025 203.331 437.979 206.871 439.874 211.413C441.456 215.206 441.456 219.622 439.701 223.359C434.476 234.488 415.925 240.316 405.013 244.226C402.606 243.1 400.137 242.284 397.619 241.452C389.659 239.032 381.598 236.956 373.459 235.229C375.985 229.673 379.268 224.272 383.173 219.576C392.466 208.4 406.906 201.466 421.296 200.195Z" fill="#BC342D"/>
<path d="M407.687 213.468C408.458 213.667 408.868 214.072 409.491 214.551L409.516 215.422C407.05 217.171 403.564 217.861 400.811 219.335L400.193 219.672L399.457 219.836C398.45 219.119 398.425 219.366 398.123 218.054C399.877 215.568 404.923 214.426 407.687 213.468Z" fill="#FFD9E9"/>
<path d="M694.912 280.615C696.419 281.987 698.926 284.893 701.154 284.58C702.537 284.386 703.734 283.465 704.845 282.662C707.493 284.916 709.592 287.904 711.542 290.76C723.67 308.521 736.258 334.409 731.596 356.343C730.641 360.837 727.707 361.213 724.478 363.554C721.811 365.489 722.746 366.822 721.954 369.479C721.542 370.864 720.725 371.349 719.533 372.018C718.059 372.119 717.863 372.146 716.584 371.433C715.693 366.284 717.307 360.817 716.599 355.515C714.361 338.754 699.013 317.141 685.767 307.218C688.214 302.014 690.403 296.835 691.988 291.297C693.003 287.749 693.52 284.038 694.912 280.615Z" fill="#BC342D"/>
<path d="M155.144 287.315C157.304 289.298 161.1 301.001 162.74 304.516C167.949 315.679 173.928 325.975 181.7 335.59C191.585 347.683 202.897 358.536 215.387 367.914C219.016 370.694 231.458 377.979 233.3 380.313C233.899 381.072 233.752 380.696 233.651 381.703C232.178 382.441 231.09 382.054 229.474 381.882C217.907 380.198 206.677 377.026 195.703 373.028C192.455 371.845 188.93 370.442 186.234 368.24C176.518 360.307 159.436 337.002 154.315 325.771C148.068 312.071 150.02 300.889 155.144 287.315Z" fill="#BC342D"/>
<path d="M330.35 62.349C330.06 63.23 329.869 63.864 329.921 64.796L332.55 66.241C314.679 71.838 295.747 85.102 283.463 98.883C268.291 115.905 261.742 135.583 259.303 157.969C258.568 164.718 258.009 171.623 258.445 178.407C259.584 196.14 270.855 205.86 283.328 216.855L278.147 229.176C265.252 218.609 253.149 197.996 250.084 181.666C246.01 159.966 253.535 122.057 266.189 103.675C268.413 100.443 273.446 92.559 277.427 91.901C278.384 91.743 279.071 91.595 279.964 91.167L280.137 89.081C289.558 78.097 316.644 67.886 330.35 62.349Z" fill="url(#paint0_linear_429_3568)"/>
<path d="M675.206 326.213C682.735 330.229 689.405 336.74 694.63 343.41C700.357 350.719 703.904 359.325 702.565 368.741C701.527 376.402 697.402 383.306 691.146 387.849C688.625 384.393 685.836 381.67 682.583 378.92C671.7 370.417 658.417 362.578 644.646 360.158C656.812 350.145 666.386 339.253 675.206 326.213Z" fill="#BC342D"/>
<path d="M154.028 245.47L168.63 242.507C168.549 250.377 168.565 258.123 169.578 265.95C173.817 298.697 190.133 331.619 213.325 355.176C222.081 364.069 231.88 371.917 242.847 377.892L246.462 383.604C243.358 383.058 239.928 382.73 236.93 381.807C236.639 381.661 236.492 381.325 236.285 381.074C236.206 380.958 236.13 380.84 236.048 380.727C232.623 375.992 216.259 365.728 210.198 360.683C200.315 352.455 190.715 342.999 182.921 332.765C164.465 308.535 152.392 276.005 154.028 245.47Z" fill="#FFABD2"/>
<path d="M236.285 381.074C236.348 379.64 236.14 379.171 237.14 378.092C238.407 377.893 239.003 377.935 240.2 378.402L240.923 379.426C240.776 380.046 240.852 380.464 240.274 380.837C239.294 381.471 238.058 381.594 236.93 381.807C236.639 381.661 236.492 381.325 236.285 381.074Z" fill="#E5A5C5"/>
<path d="M623.942 338.741C629.639 333.481 637.357 329.791 643.73 325.3C663.612 311.291 683.522 294.324 696.804 273.674C699.516 276.624 702.352 279.525 704.845 282.662C703.734 283.465 702.537 284.386 701.154 284.58C698.926 284.893 696.419 281.987 694.912 280.615C690.086 284.281 681.648 307.101 677.783 314.265C668.667 331.159 654.855 348.604 638.951 359.531C631.607 358.719 624.22 358.359 616.832 358.455C619.549 351.954 622.225 345.596 623.942 338.741Z" fill="#FFABD2"/>
<path d="M266.185 295.836C266.941 298.705 266.721 302.494 266.882 305.49C267.318 313.627 267.594 322.024 269.814 329.91C272.674 340.074 278.243 350.009 285.057 358.053C286.987 360.333 289.788 362.348 291.378 364.837C293.387 367.981 294.698 372.254 296.228 375.711C298.628 381.132 301.239 386.431 303.898 391.729L299.028 391.172C288.439 389.42 277.78 388.031 267.18 386.33C257.027 357.138 258.059 325.367 266.185 295.836Z" fill="#BC342D"/>
<path d="M284.026 277.621C288.314 278.77 292.518 280.214 296.608 281.942C297.777 308.937 301.815 334.462 309.542 360.398C312.883 371.612 317.777 382.426 320.239 393.892C315.807 393.336 311.37 392.81 306.93 392.314C304.34 385.412 301.227 378.699 298.828 371.722C289.125 343.499 281.161 307.518 284.026 277.621Z" fill="#FFABD2"/>
<path d="M608.719 66.63C614.029 67.828 619.297 68.991 624.402 70.923C637.327 75.816 658.846 87.745 666.348 99.504C668.259 102.5 669.747 106.651 668.802 110.227C668.376 111.84 667.583 113.428 666.899 114.948C667.995 115.287 668.856 115.305 669.983 115.29C672.344 115.259 674.231 115.495 676.487 116.141C687.038 119.163 697.826 123.681 703.23 133.895C707.259 141.511 706.383 147.599 703.977 155.413L695.038 152.867C686.91 138.865 677.414 126.838 666.384 115.011C652.385 101.259 632.384 85.156 613.395 79.672C612.784 74.592 611.542 70.961 608.719 66.63Z" fill="#FFABD2"/>
<path d="M611.19 106.389C628.718 120.237 645.135 126.071 659.911 144.785L659.046 145.967L658.912 145.628L658.621 145.619C658.46 149.655 659.84 154.04 660.24 158.091C661.398 170.083 660.208 182.186 656.735 193.722C650.317 188.948 643.416 184.727 636.716 180.356C638.904 171.291 640.216 162.076 640.106 152.738C640.027 146.055 639.24 134.854 634.141 129.88C634.034 130.662 633.91 131.42 633.737 132.189C629.501 127.406 624.41 123.627 620.046 119.009C616.446 115.201 613.877 110.85 611.19 106.389Z" fill="#FFABD2"/>
<path d="M711.258 258.826C717.854 259.17 725.931 261.208 732.298 262.999C740.38 265.272 747.779 269.035 751.958 276.72C759.617 290.804 755.874 313.985 751.765 328.636C751.049 330.774 750.102 332.85 749.231 334.93C744.02 310.959 727.926 276.647 711.258 258.826Z" fill="#BC342D"/>
<path d="M586.689 180.158C591.428 182.434 595.867 185.744 600.218 188.696C599.765 189.942 599.258 191.132 598.692 192.33C588.727 213.415 573.743 235.401 550.77 243.501C539.45 247.493 529.174 248.301 518.133 243.094C512.146 239.497 508.165 234.575 504.805 228.555C518.642 232.064 531.737 235.031 545.898 231.369C560.412 227.616 575.35 217.334 582.947 204.25C587.592 196.251 589.09 189.174 586.689 180.158Z" fill="#EE9CC2"/>
<path d="M705.49 257.204C716.583 264.754 730.251 294.311 735.829 306.784C743.414 323.746 750.382 343.539 743.397 361.865C739.788 362.216 736.187 362.64 732.595 363.138C732.064 363.282 731.594 363.246 731.048 363.242L732.576 360.631C732.862 360.142 733.158 359.659 733.428 359.161C738.439 349.928 734.897 333.369 732.039 323.879C727.093 307.46 713.516 280.991 697.797 272.594C700.585 267.554 703.057 262.422 705.49 257.204Z" fill="#FFABD2"/>
<path d="M316.358 369.514L317.9 370.18C317.917 370.33 317.918 370.482 317.952 370.629C318.429 372.664 320.559 373.691 322.309 374.608C334.831 381.175 356.829 387.054 370.848 386.37C374.577 386.188 378.03 385.364 381.582 384.266C386.913 390.691 392.894 396.677 399.614 401.639C396.376 403.066 392.964 404.922 389.384 405.189C378.953 405.967 363.818 401.422 353.185 399.376C343.521 397.581 333.829 395.947 324.111 394.474C321.806 386.07 319.02 377.81 316.358 369.514Z" fill="#BC342D"/>
<path d="M198.383 240.208C201.398 239.988 204.464 239.988 207.488 239.885C207.497 243.229 207.864 246.637 208.329 249.945C210.799 267.513 219.354 294.809 234.086 305.934C233.765 309.109 234.544 315.668 232.748 318.181L231.162 317.436C220.502 310.437 212.002 302.887 205.382 291.858C197.736 279.118 194.287 265.168 193.434 250.412C193.261 247.417 192.76 243.891 193.485 240.99C194.762 240.173 196.855 240.309 198.383 240.208Z" fill="#FFABD2"/>
<path d="M601.892 189.823C605.411 191.924 608.829 194.109 612.205 196.434C606.322 209.674 594.22 232.386 584.841 242.97C575.813 253.158 542.324 259.631 529.36 260.493C525.013 260.49 520.806 260.148 516.488 259.648C525.794 257.719 533.875 254.243 542.644 250.825C548.109 248.695 553.704 246.823 559.002 244.29C581.481 233.543 593.919 212.483 601.892 189.823Z" fill="#FFABD2"/>
<path d="M350.892 303.421C351.843 312.603 353.365 321.468 355.891 330.358C351.377 332.528 346.907 334.81 342.853 337.774C347.326 336.288 351.614 334.598 355.944 332.746C358.688 344.373 363.21 355.105 369.088 365.477C353.622 361.506 341.686 351.337 333.594 337.674C329.704 331.105 328.132 324.402 325.352 317.453C326.226 317.165 326.912 316.722 327.711 316.263C336.105 312.96 343.305 308.231 350.892 303.421Z" fill="#FFABD2"/>
<path d="M723.492 199.198C730.434 198.984 736.448 200.296 742.584 203.611C760.866 213.487 768.615 232.2 774.369 251.052C772.164 247.853 769.921 244.808 767.386 241.862C765.225 239.437 762.78 237.932 759.921 236.484L761.36 231.158C759.607 229.87 757.742 228.74 755.788 227.783C743.496 221.736 725.909 219.623 712.837 224.029C713.153 216.446 712.481 208.742 711.919 201.181C715.758 199.994 719.499 199.501 723.492 199.198Z" fill="#FFABD2"/>
<path d="M185.851 223.702C202.568 220.884 212.443 230.032 226.737 236.569C203.673 234.809 180.476 236.431 157.882 241.384C146.617 243.832 135.841 247.746 124.961 251.491C125.168 251.213 125.379 250.938 125.595 250.666C140.499 231.898 163.046 226.268 185.851 223.702Z" fill="#FFABD2"/>
<path d="M293.389 241.024C312.383 251.594 330.573 261.846 353.032 258.469C352.326 262.31 353.038 270.015 351 273.069C350.588 273.687 349.542 273.551 348.857 273.635C330.482 271.801 303.917 265.23 287.164 257.992C289.071 252.276 291.147 246.617 293.389 241.024Z" fill="#FFABD2"/>
<path d="M190.386 174.189C191.585 174.28 191.777 174.376 192.723 173.524C196.998 169.673 200.064 163.137 203.675 158.512C216.613 141.936 232.327 132.143 252.014 125.125C250.304 131.298 248.855 137.541 247.672 143.836C227.611 151.002 210.893 164.37 198.834 181.885C195.856 179.563 193.116 177.108 190.393 174.494L190.386 174.189Z" fill="#E5A5C5"/>
<path d="M634.033 70.564C648.984 70.321 682.755 77.101 695.054 85.46C702.653 90.625 705.947 100.516 707.681 109.143C692.459 99.706 682.121 93.972 664.122 90.791C655.309 82.177 644.809 76.329 634.033 70.564Z" fill="#FFD9E9"/>
<path d="M591.95 381.723C598.488 381.413 604.965 381.73 611.484 382.18C602.833 391.493 586.351 399.113 574.329 403.401C572.325 403.095 570.359 402.56 568.391 402.078C561.241 399.77 553.976 398.25 546.615 396.814C548.285 392.695 550.901 389.325 553.521 385.777C565.629 382.276 579.438 382.197 591.95 381.723Z" fill="#FFABD2"/>
<path d="M246.155 148.979L246.763 149.307C245.961 158.139 245.111 166.702 245.457 175.601C240.13 184.056 235.661 195.533 235.417 205.61L226.58 200.558C224.208 199.105 221.895 197.526 219.564 196.007C220.395 187.403 222.763 178.308 226.275 170.409C231.348 159.003 234.112 153.572 246.155 148.979Z" fill="#E5A5C5"/>
<path d="M286.043 262.206C305.928 269.783 330.319 277.215 351.6 277.892C351.049 282.44 350.632 286.957 350.455 291.535C331.407 291.712 302.643 279.94 284.762 273.277C285.105 269.568 285.495 265.89 286.043 262.206Z" fill="#FFABD2"/>
<path d="M227.359 238.177C232.586 239.969 237.751 242.6 242.599 245.237C242.568 252.688 242.705 261.387 241.342 268.69C239.491 278.615 236.308 286.992 235.035 297.555C234.77 299.363 234.476 301.166 234.155 302.965C232.806 300.948 231.372 298.914 230.252 296.761C222.34 281.552 222.393 254.163 227.359 238.177Z" fill="#FFABD2"/>
<path d="M432.32 413.982C436.297 413.925 441.289 417.367 445.575 418.073C463.214 420.981 481.504 422.707 499.393 422.343L494.967 428.875C486.925 429.238 478.837 429.036 470.786 428.988L430.121 428.357C421.039 428.178 411.905 428.192 402.853 427.385C412.813 423.181 422.391 418.222 432.32 413.982Z" fill="#FFABD2"/>
<path d="M306.314 215.905C308.674 218.625 310.001 222.875 312.074 225.928C318.189 234.936 329.775 242.914 339.811 246.772C343.305 248.115 351.415 249.586 353.912 251.732C354.13 253.045 354.19 253.206 353.641 254.402C350.864 256.488 347.176 255.939 343.878 255.882C325.826 254.126 310.521 246.059 294.893 237.443C298.069 229.926 302.182 222.922 306.314 215.905Z" fill="#FFABD2"/>
<path d="M400.246 428.907C400.354 428.906 400.465 428.878 400.569 428.904C401.995 429.249 403.287 429.931 404.77 430.23C415.449 432.378 427.205 431.912 438.086 432.285C456.43 432.931 474.786 433.121 493.139 432.856C491.858 435.054 490.673 437.315 489.455 439.548L479.106 439.958C447.559 440.34 415.395 440.579 384.016 436.892C389.504 434.449 394.866 431.585 400.246 428.907Z" fill="#BC342D"/>
<path d="M637.883 291.231C638.715 291.132 639.161 291.189 639.969 291.339C637.882 295.037 614.76 309.473 609.799 312.442C601.572 317.367 591.282 319.484 581.886 317.161L576.408 315.52C580.545 313.057 584.679 310.547 588.605 307.756C594.478 303.58 600.562 297.948 607.175 295.177C616.282 291.36 628.096 291.496 637.883 291.231Z" fill="#FFABD2"/>
<path d="M523.158 105.538C523.478 105.572 523.798 105.599 524.117 105.64C543.121 108.039 566.321 124.811 577.816 139.553C579.512 141.728 582.62 145.448 582.285 148.286C581.106 148.653 580.317 147.928 579.233 147.409C576.114 145.986 572.81 144.888 569.593 143.703C562.151 132.712 548.179 125.79 536.309 120.748C531.777 118.823 526.756 117.175 522.503 114.7C520.986 113.817 519.036 112.438 518.377 110.723C518.104 110.014 518.041 109.28 518.371 108.595C519.29 106.685 521.295 106.136 523.158 105.538Z" fill="#FFABD2"/>
<path d="M676.857 243.655C677.079 243.835 677.059 244.19 677.14 244.464C674.765 249.839 672.162 255.16 668.753 259.962C658.375 263.013 648.153 267.148 639.181 273.275C630.832 278.977 624.46 286.376 614.523 289.414C614.342 289.263 614.324 288.986 614.247 288.764C621.143 282.613 627.63 276.221 633.556 269.119C637.492 264.403 640.985 258.583 645.584 254.543C648.053 252.374 650.99 250.827 653.992 249.535C661.448 246.326 669.042 245.446 676.857 243.655Z" fill="#FFABD2"/>
<path d="M311.897 207.313C314.486 209.287 317.292 214.871 320.262 217.583C330.84 227.243 346 230.427 359.39 234.272C357.678 239.129 356.345 244.108 354.948 249.062C331.206 240.115 323.328 233.445 306.817 215.007L311.897 207.313Z" fill="#FFABD2"/>
<path d="M555.917 30.574C557.184 30.508 558.452 30.473 559.722 30.47C570.156 30.544 572.899 49.945 577.266 57.265C579.859 61.612 583.305 63.891 586.724 67.425C587.618 68.35 588.251 68.801 588.238 70.106C587.734 70.407 587.297 70.666 586.722 70.811C582.197 71.944 577.744 71.16 573.86 68.687C569.03 65.611 568.105 61.524 566.909 56.288C566.187 52.028 565.758 46.889 563.519 43.141C562.223 40.971 560.375 39.809 557.766 40.028C555.346 40.231 552.974 41.511 550.753 42.453C541.515 46.368 534.434 48.213 524.438 45.994C535.054 40.924 544.64 34.137 555.917 30.574Z" fill="#FFABD2"/>
<path d="M548.441 279.651C543.422 284.179 537.28 287.309 531.426 290.615C506.516 304.681 492.128 309.157 464.958 316.69C458.811 318.394 452.432 320.614 446.159 321.709C446.322 320.459 446.733 320.321 447.555 319.415C452.823 316.406 458.891 315.202 464.193 312.296C476.646 307.77 489.051 301.361 500.839 295.31C504.497 293.432 507.917 290.767 511.693 289.21C515.215 287.759 519.106 287.839 522.845 287.626C533.114 287.04 539.606 284.802 548.441 279.651Z" fill="#FFABD2"/>
<path d="M256.672 413.82C261.127 414.035 265.673 415.07 270.085 415.745L290.87 418.772C309.352 421.642 328.262 423.982 346.501 428.093L342.473 430.446C339.611 432.086 336.704 433.648 333.757 435.129C314.183 433.829 296.734 427.974 278.288 421.846C271.017 419.431 263.518 417.307 256.672 413.82Z" fill="#BC342D"/>
<path d="M667.815 95.3301C682.968 98.1311 694.76 105.925 708.145 112.958C708.683 119.738 708.715 126.549 708.24 133.333C706.111 132.057 704.627 128.232 702.729 126.296C694.395 117.794 684.082 114.392 673.048 110.857C673.031 110.486 673.005 110.114 672.992 109.742C672.799 104.191 670.611 99.9621 667.815 95.3301Z" fill="#FFD9E9"/>
<path d="M486.466 284.251C493.514 286.189 501.053 286.875 508.333 287.137C502.535 290.482 465.372 308.95 464.193 312.296C458.891 315.202 452.823 316.406 447.555 319.415L444.365 317.555C458.626 306.802 471.898 294.525 486.466 284.251Z" fill="#BC342D"/>
<path d="M427.928 255.005L428.273 255.363C428.571 256.336 428.551 256.949 428.288 257.914C426.022 266.225 391.985 281.906 383.603 286.567C377.128 290.167 370.869 294.24 364.505 298.044C363.977 295.339 363.645 292.559 363.229 289.832C364.399 290.023 365.587 290.23 366.77 290.302C369.372 290.461 372.23 289.643 374.186 287.885C377.604 284.813 377.781 279.487 378.107 275.228C395.712 270.18 412.256 264.787 427.928 255.005Z" fill="#BC342D"/>
<path d="M720.779 225.691C732.983 224.129 747.877 227.656 758.49 233.671C757.59 236.717 755.941 239.832 754.259 242.522C753.483 243.762 753.231 244.68 751.755 245.01C738.829 237.943 726.321 234.77 711.744 233.344L712.643 226.889C715.336 226.348 718.055 226.034 720.779 225.691Z" fill="#BC342D"/>
<path d="M794.969 260.814C797.862 265.883 800.661 270.784 801.88 276.546C802.99 281.795 802.586 287.444 802.158 292.746C800.486 313.495 793.963 328.03 782.652 345.096C781.102 345.736 779.341 346.133 777.731 346.626C789.106 326.923 795.958 306.361 796.01 283.435C796.027 275.893 795.242 268.352 794.969 260.814Z" fill="#BC342D"/>
<path d="M319.895 289.679C328.686 292.908 340.38 295.995 349.8 294.689C350.696 296.027 351.021 297.941 350.669 299.521C350.286 301.246 349.592 301.681 348.159 302.556C344.464 305.274 328.824 314.291 327.711 316.263C326.912 316.722 326.226 317.165 325.352 317.453C322.307 308.533 321.289 298.968 319.895 289.679Z" fill="#BC342D"/>
<path d="M349.8 294.689C350.696 296.027 351.021 297.941 350.669 299.521C350.286 301.246 349.592 301.681 348.159 302.556C347.668 301.136 347.504 299.18 347.702 297.698C347.928 296.009 348.465 295.645 349.8 294.689Z" fill="#EE9CC2"/>
<path d="M666.655 170.225L673.917 169.812C677.007 176.973 679.37 184.427 680.973 192.061C677.416 193.051 673.994 194.165 670.552 195.5C668.456 196.381 666.426 197.419 664.383 198.414L659.116 195.236C661.343 187.312 662.31 179.546 663.208 171.393C664.305 170.291 665.144 170.439 666.655 170.225Z" fill="#BC342D"/>
<path d="M742.146 172.91C752.818 173.95 766.693 178.712 775.443 185.094C778.851 187.579 782.608 191.175 783.12 195.584C783.438 198.321 782.616 200.158 780.982 202.283C779.123 203.597 777.199 204.373 775.102 205.207C764.75 191.205 756.944 182.545 742.146 172.91Z" fill="#EE9CC2"/>
<path d="M732.304 160.622C738.441 162.852 744.517 165.344 750.613 167.69C764.733 173.123 779.827 178.331 788.703 191.377C791.63 195.679 794.679 201.296 793.46 206.64C792.166 212.317 787.175 215.608 782.564 218.487C781.055 215.184 779.263 211.99 777.558 208.783C780.747 207.348 784.079 205.523 786.121 202.585C787.713 200.293 788.023 197.768 787.399 195.08C784.253 181.532 766.118 175.06 754.163 172.244C745.445 170.19 738.043 170.367 730.12 165.358C730.975 163.851 731.616 162.211 732.304 160.622Z" fill="#FFABD2"/>
<path d="M246.662 182.31C247.944 185.665 248.64 189.304 249.904 192.714C254.705 205.666 262.41 216.988 272.364 226.509L266.731 223.526C257.436 218.281 248.248 212.85 239.171 207.235C240.823 198.563 243.251 190.453 246.662 182.31Z" fill="#FFABD2"/>
<path d="M230.907 156.044L231.199 156.276C223.104 167.821 218.566 180.715 216.72 194.635C213.915 192.867 211.198 190.971 208.468 189.092L201.053 183.65C210.316 171.163 218.091 164.493 230.907 156.044Z" fill="#BC342D"/>
<path d="M704.899 175.237C708.403 176.65 712.081 177.686 715.687 178.815L716.588 180.145C721.773 186.051 729.232 190.576 735.57 195.152L734.413 196.785L735.651 198.157C727.254 196.118 719.392 197.24 711.061 199.011C709.417 190.889 707.612 183.086 704.899 175.237Z" fill="#BC342D"/>
<path d="M359.835 34.58C362.871 34.426 365.441 34.264 368.232 35.608C369.178 36.773 369.175 36.859 369.242 38.365C368.461 40.425 366.683 41.678 365.076 43.105C364.474 42.731 363.877 42.343 363.224 42.061C360.688 40.965 357.322 40.881 354.764 41.932C350.391 43.73 348.485 47.571 346.682 51.619C343.925 52.685 341.125 53.66 338.347 54.67C335.074 55.903 331.713 56.963 328.403 58.097C328.617 54.227 329.271 50.365 329.807 46.528C340.235 47.718 350.161 37.917 359.835 34.58Z" fill="#FFABD2"/>
<path d="M792.642 247.678C797.499 248.48 802.311 249.536 807.056 250.844C817.085 253.61 833.22 259.448 838.697 269.114C825.772 263.451 809.153 257.515 794.955 259.018C794.348 255.222 793.436 251.442 792.642 247.678Z" fill="#FFABD2"/>
<path d="M664.718 264.949L665.318 265.297C664.287 268.928 647.421 285.249 643.857 288.187C638.227 286.932 632.317 287.458 626.601 287.773C625.564 287.877 626.048 287.959 625.143 287.571C636.786 277.541 650.71 270.921 664.718 264.949Z" fill="#FFABD2"/>
<path d="M209.87 239.5C214.61 239.398 219.362 239.498 224.103 239.53C219.586 251.368 220.129 271.687 223.224 283.863L223.315 285.015L222.886 284.914C215.325 271.53 212.732 254.455 209.87 239.5Z" fill="#BC342D"/>
<path d="M657.798 225.654L661.117 227.834C665.367 229.932 676.695 234.316 679.175 237.956L679.118 239.038C677.796 240.217 676.881 240.085 675.165 240.282L674.727 240.345L673.996 240.457C664.824 241.818 656.413 244.5 648.432 249.222C652.613 241.659 655.487 233.972 657.798 225.654Z" fill="#BC342D"/>
<path d="M661.117 227.834C665.367 229.932 676.695 234.316 679.175 237.956L679.118 239.038C677.796 240.217 676.881 240.085 675.165 240.282C674.698 240.236 674.43 240.229 673.956 240.092C672.614 239.706 661.757 229.049 661.117 227.834Z" fill="#FFABD2"/>
<path d="M172.532 201.739C177.292 205.663 184.089 210.099 187.483 215.267C188.38 216.632 188.6 217.525 188.281 219.112C185.511 220.354 181.01 220.255 177.933 220.616C173.731 220.666 169.022 222.281 164.944 223.308C166.381 215.601 169.064 208.748 172.532 201.739Z" fill="#FFABD2"/>
<path d="M372.449 237.682C380.419 241.523 390.966 243.281 399.551 245.427C396.224 246.416 392.889 247.377 389.545 248.311C382.307 250.441 374.943 252.43 367.526 253.824C368.842 248.336 370.625 243.015 372.449 237.682Z" fill="#E5A5C5"/>
<path d="M618.713 340.913L619.119 340.99L619.366 341.677C617.236 347.43 614.715 353.031 611.821 358.44C602.933 358.331 594.065 359.055 585.206 359.681L584.702 359.71C586.248 357.792 593.132 355.305 595.729 354.002C603.592 350.055 611.134 345.379 618.713 340.913Z" fill="#BC342D"/>
<path d="M659.911 144.785C665.616 152.164 669.867 159.806 673.319 168.473C669.882 168.476 666.615 168.467 663.241 169.191C662.975 161.699 662.949 152.628 659.046 145.967L659.911 144.785Z" fill="#E5A5C5"/>
<path d="M197.722 392.332C205.184 393.161 212.339 396.308 219.886 397.226C219.452 400.092 219.139 402.958 218.84 405.841L218.454 406.263C212.364 406.207 203.044 396.035 198.151 392.624C198.009 392.525 197.865 392.43 197.722 392.332Z" fill="#BC342D"/>
<path d="M715.688 178.815C730.007 183.251 747.718 194.129 755.424 207.384L753.904 208.146C749.321 203.892 745.175 199.174 740.393 195.13C733.344 189.169 724.706 184.518 716.589 180.145L715.688 178.815Z" fill="#FFABD2"/>
<path d="M215.3 308.399C221.608 313.02 225.815 317.698 233.5 320.246L233.508 331.72C228.028 327.521 217.923 314.857 215.3 308.399Z" fill="#BC342D"/>
<path d="M374.302 276.245L375.172 276.11L375.612 276.627C375.336 279.854 374.529 283.004 372.166 285.359C370.309 287.211 368.461 287.149 365.953 287.185C365.23 286.857 364.743 286.63 364.181 286.044C362.588 284.385 363.348 279.316 363.447 277.123C367.066 277.003 370.695 276.577 374.302 276.245Z" fill="#FFABD2"/>
<path d="M681.013 195.512L681.533 195.834C683.143 199.252 683.151 204.972 683.59 208.748C680.65 207.403 677.764 205.904 674.864 204.472L668.107 200.643C672.333 198.741 676.678 197.146 681.013 195.512Z" fill="#FFABD2"/>
<path d="M727.95 364.212C728.284 364.342 728.554 364.598 728.845 364.805C727.94 365.484 727.528 365.535 727.181 366.648C729.985 367.561 736.269 365.662 739.294 365.082C734.652 368.011 729.963 370.864 725.228 373.641C722.282 375.13 718.795 376.987 715.491 377.359L715.002 376.501C716.333 372.995 721.335 373.596 723.902 371.42C726.118 369.541 725.332 366.655 727.95 364.212Z" fill="#FFABD2"/>
<path d="M444.365 317.555L447.555 319.415C446.733 320.321 446.322 320.459 446.159 321.709C441.618 323.561 436.806 324.848 432.118 326.281L432.46 324.26C436.527 322.147 440.472 319.979 444.365 317.555Z" fill="#DC834D"/>
<path d="M313.186 360.723C317.773 366.944 324.324 370.08 330.196 374.892C326.069 373.397 321.969 371.826 317.9 370.18L316.358 369.514C315.401 366.537 314.327 363.634 313.186 360.723Z" fill="#EE9CC2"/>
<path d="M246.033 246.63C247.386 247.258 248.653 247.696 249.539 248.962C249.647 250.686 248.353 252.019 247.411 253.365C246.882 254.208 246.917 254.387 245.979 254.837C245.23 252.441 245.865 249.136 246.033 246.63Z" fill="#C95278"/>
<path d="M735.651 198.157L734.413 196.785L735.57 195.152C738.797 197.474 741.848 199.859 744.826 202.493C741.79 201.004 738.772 199.459 735.651 198.157Z" fill="#C24264"/>
<path d="M592.079 320.993C594.437 320.002 596.91 319.494 599.392 318.91C596.804 320.221 594.242 321.591 591.545 322.666L592.079 320.993Z" fill="#984732"/>
<path d="M425.088 328.052C427.537 326.772 429.994 325.508 432.46 324.26L432.118 326.281C429.761 326.819 427.418 327.41 425.088 328.052Z" fill="#C24264"/>
<path d="M755.424 207.384C756.764 209.156 757.728 211.019 758.743 212.983L753.903 208.146L755.424 207.384Z" fill="#EE9CC2"/>
<path d="M525.943 413.655C527.95 412.977 529.919 412.511 531.998 412.11L533.968 413.511L525.943 413.655Z" fill="#C95278"/>
<defs>
<linearGradient id="paint0_linear_429_3568" x1="331.667" y1="177.256" x2="264.203" y2="103.792" gradientUnits="userSpaceOnUse">
<stop stop-color="#FFABD2"/>
<stop offset="1" stop-color="#FFF0F6"/>
</linearGradient>
</defs>
</svg>
