<svg width="99" height="177" viewBox="0 0 99 177" fill="none" xmlns="http://www.w3.org/2000/svg">
<path d="M80.3631 43.9238C80.5329 43.9748 80.5122 43.9475 80.622 44.0357C82.7148 45.716 84.9926 48.7632 85.633 51.403C86.0296 53.0374 86.0626 54.8309 86.1742 56.5081C86.2791 58.106 86.4018 59.7028 86.5425 61.2981C87.1873 69.4506 87.7785 77.6072 88.3159 85.7673L92.4378 140.471C92.9906 147.739 93.7159 155.012 94.1813 162.284C92.2854 162.968 90.4393 163.782 88.5551 164.497L69.2134 171.901C67.3829 172.605 60.7771 175.34 59.3797 175.443C57.72 175.566 54.4252 174.782 52.6313 174.517C44.7835 173.361 36.9537 172.086 29.1446 170.692C26.2515 170.168 23.1907 169.837 20.3558 169.087C19.4253 168.84 18.7837 168.495 18.0695 167.852C13.9034 163.617 9.8366 159.285 5.87246 154.86C4.60793 153.446 3.1842 152.112 2.00644 150.632C1.62844 150.157 1.14847 149.539 1.01372 148.942C0.82377 148.1 0.943851 147.114 1.04932 146.269C1.52111 142.488 2.26362 138.722 2.83734 134.953L8.69722 98.4233C10.4914 86.7741 12.3724 75.1384 14.3399 63.5173C15.1585 58.568 15.7841 53.6157 16.7738 48.6925C17.0025 47.5548 17.2941 46.4874 17.9565 45.5186C19.311 43.5373 21.2145 42.9039 23.4813 42.4868C24.651 43.0665 25.7346 43.883 26.8967 44.5002C29.9025 46.0963 32.9932 47.1177 36.274 47.9795C48.9441 51.3074 64.7145 51.4001 76.8157 45.8491C78.0428 45.2863 79.1986 44.6035 80.3631 43.9238Z" fill="#FFBBE8"/>
<path d="M78.2335 46.092C79.1734 46.2331 80.0519 46.7142 80.8024 47.2838C82.9871 48.942 83.7502 51.0595 84.0962 53.7017C84.5249 56.9738 84.6874 60.3446 84.9569 63.639C85.4677 69.517 85.9383 75.3987 86.3685 81.2833C87.8334 100.209 89.1536 119.146 90.3293 138.093L91.4454 153.629C91.5591 155.225 92.1116 159.411 91.7999 160.714C91.7321 160.996 91.6233 161.317 91.4274 161.536C91.0982 161.905 90.3087 162.244 89.8479 162.438C85.3836 164.317 80.7631 165.852 76.2298 167.555C73.0852 168.754 69.9303 169.926 66.7657 171.072C65.3404 171.586 63.9125 172.155 62.4629 172.591C62.0295 172.721 61.562 172.831 61.107 172.816C60.8914 172.81 60.6545 172.762 60.5086 172.595C60.3643 172.429 60.3146 172.299 60.2938 172.087C60.0669 169.765 60.2355 166.951 60.2263 164.573L60.2075 148.584C60.0047 132.152 59.9664 115.719 60.0926 99.2871C60.1229 88.9885 60.1079 78.6614 60.5374 68.3714C60.5959 67.0089 60.623 65.6553 60.8829 64.3124C60.8401 67.0059 61.02 69.6928 61.0962 72.3839C61.2123 76.9744 61.2977 81.5653 61.352 86.1569L61.6176 134.065C61.7479 141.687 61.8201 149.309 61.8346 156.932C61.9184 161.622 61.9432 166.313 61.9087 171.004C66.6741 169.25 71.4675 167.589 76.2236 165.804C78.958 164.778 81.6427 163.644 84.3674 162.599C86.2731 161.867 88.2138 161.215 90.1361 160.528C90.103 158.432 89.9036 156.321 89.7748 154.229C89.4993 149.687 89.1933 145.147 88.8568 140.609L85.7995 97.7049L84.5251 77.9137C84.2807 73.9102 84.1091 69.9031 83.8183 65.9025C83.5312 61.9553 83.6664 57.7751 82.8373 53.9064C82.3499 51.6323 81.4304 49.878 79.9122 48.1283C79.3664 47.4992 78.7157 46.873 78.2771 46.1649C78.2623 46.1409 78.2481 46.1164 78.2335 46.092Z" fill="#34081D"/>
<path d="M18.6643 48.4151C18.8302 48.481 18.8491 48.4981 18.9785 48.64C18.7882 51.4701 18.317 54.3063 17.8952 57.1084L15.824 70.5856C13.0812 89.0652 10.1958 107.523 7.16768 125.958L4.9892 139.883C4.6594 142.05 4.1924 144.278 4.01883 146.459C3.97023 147.07 4.01224 147.655 4.3119 148.2C5.25835 149.923 6.95627 151.493 8.28072 152.948C11.5146 156.5 14.9673 159.926 18.0575 163.599L24.603 110.065C25.7799 99.9703 27.0241 89.8837 28.3353 79.8057C28.985 74.9239 29.5681 70.0324 30.3699 65.1722C30.4732 64.5454 30.8484 62.1835 31.2287 61.7544C31.2543 61.7255 31.2879 61.7046 31.3175 61.6796L31.2287 61.6333L31.2991 61.5488C31.5262 62.3647 31.1104 64.902 31.0457 65.949C30.709 70.801 30.0618 75.6628 29.5409 80.4998L24.9394 119.874C23.6839 131.571 22.2949 143.253 20.772 154.918C20.4651 157.094 20.1909 159.275 19.9493 161.459C19.7774 163.041 19.6958 164.737 19.3642 166.289C19.1856 166.491 19.1487 166.499 18.8871 166.574C18.5325 166.439 18.2547 166.211 17.9814 165.952C17.1214 165.135 16.3317 164.193 15.5244 163.322L10.9019 158.342L6.30108 153.381C5.27639 152.266 4.20004 151.154 3.29827 149.935C2.53334 148.902 2.10434 147.968 2.16024 146.655C2.21413 145.394 2.49114 144.108 2.68587 142.86L3.63438 136.687L7.39297 113.388L17.0789 51.2353C17.2911 49.838 17.5051 49.2695 18.6643 48.4151Z" fill="#34081D"/>
<path d="M57.8054 69.7609C57.7752 69.037 57.7275 66.7399 58.0511 66.1806C58.2291 66.4155 58.095 66.8852 58.0614 67.1697C58.1659 69.84 58.1104 72.527 58.1329 75.1999C58.1689 83.9229 58.1359 92.6461 58.0339 101.369L57.5165 170.868C57.51 171.415 57.6511 172.488 57.2473 172.888C56.9774 173.155 55.9009 172.99 55.5284 172.953C51.9973 172.602 23.6815 168.663 22.277 167.342C21.6915 165.73 27.3402 120.019 27.9396 114.822C28.9104 105.795 29.9601 96.7759 31.0887 87.7669C31.4808 84.571 31.7516 81.3281 32.237 78.1485L32.2767 78.6664L32.4387 78.7832C32.4618 79.531 32.3324 80.329 32.2698 81.0786L31.8068 86.1288L30.2177 102.635L26.3795 140.472C25.4069 149.072 24.5359 157.683 23.7666 166.303C26.3217 166.896 29.0311 167.218 31.6209 167.669C39.6865 169.055 47.7878 170.224 55.9158 171.176C56.0073 168.459 55.98 165.724 55.9971 163.005L56.0989 145.175L56.3484 133.267C56.4419 118.777 56.6537 104.288 56.9841 89.8009C57.1744 83.1177 57.4482 76.4373 57.8054 69.7609Z" fill="#34081D"/>
<path d="M57.8052 69.761C57.775 69.0372 57.7274 66.7401 58.0509 66.1807C58.2289 66.4156 58.0949 66.8853 58.0613 67.1698C57.9786 68.0164 57.9678 68.9295 57.8052 69.761Z" fill="#B9B4B9"/>
<path d="M28.7873 143.041C28.9949 138.307 29.6116 133.581 30.1514 128.876C30.5296 125.58 30.8566 122.271 31.3017 118.983C32.4344 110.613 33.8224 102.283 35.0407 93.9262C35.1432 93.2229 36.0628 86.3406 36.1866 86.2122C36.244 87.6294 35.968 89.0677 35.8401 90.4756L34.983 99.2341C33.5877 113.911 31.6212 128.528 29.0879 143.052L28.7873 143.041Z" fill="#34081D"/>
<path d="M18.4609 70.6694L18.7696 70.5747C18.0672 76.9801 17.2241 83.3695 16.241 89.738C15.8106 92.6247 15.4259 95.5087 14.9173 98.3841C14.1454 102.75 13.1691 107.093 12.2531 111.432C11.6054 114.499 11.0283 117.64 10.1288 120.645C10.0147 121.026 9.97796 121.502 9.83127 121.86C9.75035 122.057 9.75324 122.004 9.77944 122.222C9.59334 121.469 9.9449 119.841 10.0429 119.035C10.4644 115.571 11.0497 112.13 11.6071 108.686C13.311 98.157 15.424 87.7026 17.37 77.217C17.7736 75.0426 18.0902 72.8501 18.4609 70.6694Z" fill="#34081D"/>
<path d="M80.3303 74.7145C81.5828 88.4956 82.9729 102.26 83.4011 116.098C83.473 118.1 83.556 120.101 83.6502 122.102C83.7116 123.447 83.8176 124.821 83.7297 126.166C83.1696 122.69 82.906 119.129 82.5357 115.625C82.0919 111.425 81.615 107.213 81.3169 102.999C80.8831 96.8693 80.7137 90.7024 80.4947 84.5616L80.0734 74.9185L80.3303 74.7145Z" fill="#34081D"/>
<path d="M38.3078 157.885C38.8984 157.81 39.5668 157.86 40.1647 157.875C44.3711 157.979 48.4046 160.021 51.8028 162.366C52.6308 162.937 53.5029 163.516 54.1965 164.248C50.3949 162.673 46.8951 160.724 42.8868 159.642C37.3004 158.557 32.1115 159.995 26.9294 161.998C26.5943 162.128 26.3042 162.243 25.9655 162.092C25.9557 161.889 25.9461 161.883 26.0838 161.744C26.5475 161.277 27.4899 160.872 28.0906 160.6C31.2797 159.155 34.8041 158.09 38.3078 157.885Z" fill="#34081D"/>
<path d="M80.0736 154.199C81.5204 154.052 83.2335 154.329 84.6207 154.748C86.2375 155.236 88.1049 156.176 88.9398 157.723C87.3422 156.913 85.7226 156.093 83.9625 155.7C78.7558 154.536 73.9166 156.88 69.6335 159.61C67.245 160.985 65.3517 163.009 63.0538 164.478C63.6527 163.557 64.299 162.695 65.0425 161.885C68.7836 157.81 74.4493 154.455 80.0736 154.199Z" fill="#34081D"/>
<path d="M36.6113 161.148C37.1523 161.098 37.7532 161.138 38.299 161.16C43.6184 161.38 49.2485 163.82 52.8744 167.74C51.2372 166.947 49.5907 166.174 47.9356 165.421C43.3038 163.423 39.5551 162.669 34.5395 162.694C32.8696 162.702 31.1774 162.824 29.5113 162.721L29.3432 162.71C31.5702 161.601 34.1507 161.242 36.6113 161.148Z" fill="#34081D"/>
<path d="M25.7109 164.439C26.6077 164.435 27.4871 164.496 28.3767 164.613C31.9495 165.083 35.5154 165.805 39.0791 166.361C42.7382 166.931 46.4513 167.347 50.0902 168.022C50.5795 168.113 51.1317 168.19 51.5579 168.454L51.5642 168.644C44.554 168.948 36.3995 167.639 29.598 165.994C28.5161 165.732 27.0916 165.527 26.1087 165C25.8283 164.85 25.8018 164.734 25.7109 164.439Z" fill="#34081D"/>
<path d="M87.5728 158.62L87.6978 158.73C87.6704 158.786 87.6499 158.846 87.616 158.899C87.2892 159.402 86.1137 160.04 85.6017 160.35C80.3801 163.507 70.6354 167.165 64.5565 168.143C64.3618 168.094 64.4429 168.149 64.3278 167.958C64.3389 167.932 64.3462 167.903 64.3609 167.879C64.5683 167.528 65.2666 167.288 65.6385 167.135C66.7494 166.68 67.9044 166.315 69.0287 165.891C71.9601 164.802 74.8817 163.688 77.7929 162.546C79.7048 161.808 81.6113 161.055 83.5121 160.289C84.8636 159.731 86.1909 159.099 87.5728 158.62Z" fill="#34081D"/>
<path d="M8.7686 144.616C9.83022 144.594 10.9475 144.699 11.9948 144.871C14.7553 145.326 16.7621 146.243 18.401 148.549C17.4897 148.194 16.634 147.692 15.7418 147.29C14.2271 146.607 12.628 146.166 11 145.855C11.6388 146.426 12.354 146.905 13.0244 147.437C14.0369 148.242 14.9281 149.177 15.7602 150.163C16.6422 151.185 17.3894 152.271 17.8375 153.557C17.9871 153.986 18.1526 154.446 17.9414 154.878C17.4794 154.794 16.5029 153.104 16.1988 152.677C14.3879 150.134 11.7051 147.751 9.46031 145.56C8.58009 145.494 7.18411 145.553 6.41459 145.124L6.4335 144.999C7.18118 144.64 7.95618 144.649 8.7686 144.616Z" fill="#34081D"/>
<path d="M5.37785 145.169L5.55894 145.275C6.92535 149.103 16.3705 158.004 16.7087 160.304C14.4849 159.209 6.65387 150.001 5.60352 147.663C5.23348 146.84 5.05852 146.038 5.37785 145.169Z" fill="#34081D"/>
<path d="M33.375 64.7251C34.1858 65.0598 34.9828 65.6447 35.7567 66.0728C39.7679 68.291 45.2978 69.7223 49.8596 69.3054C50.8503 69.2149 51.7761 68.9758 52.7293 68.6995L51.9588 69.201C49.3422 70.679 45.942 70.6729 43.0657 70.1172C39.7041 69.4678 35.3764 67.662 33.375 64.7251Z" fill="#34081D"/>
<path d="M41.4186 59.398C45.1294 59.1072 49.4845 60.2833 52.6722 62.1592C53.485 62.6373 54.2341 63.2366 54.9852 63.8054C52.5805 62.6208 50.4785 61.8255 47.8573 61.2504C42.3888 60.3147 38.8054 60.3918 33.4132 61.9523C35.814 60.0714 38.4261 59.54 41.4186 59.398Z" fill="#34081D"/>
<path d="M78.1444 56.5095C79.1087 56.4811 80.1158 56.5396 81.0739 56.6469C74.8261 57.4038 68.6627 59.9421 63.3361 63.2357C62.6362 63.702 61.9518 64.1944 61.2617 64.6751C61.5878 64.283 61.924 63.8993 62.2699 63.5243C65.9811 59.4889 72.7463 56.7412 78.1444 56.5095Z" fill="#34081D"/>
<path d="M76.4723 53.5143C78.1845 53.3445 80.0603 53.6463 81.7315 54.0114C75.7922 53.9389 70.0975 55.7727 65.1728 59.0326C64.1303 59.7659 63.1531 60.581 62.166 61.3862C62.4821 60.8978 62.8124 60.4238 63.1846 59.9762C66.4557 56.0451 71.4665 53.9699 76.4723 53.5143Z" fill="#34081D"/>
<path d="M20.3931 49.1475C21.7681 49.3287 23.142 49.9698 24.2848 50.7379C27.9345 53.1908 30.1788 57.1396 31.0241 61.3895C29.6145 60.3642 28.7793 58.166 27.8624 56.6922C27.1451 55.5393 26.3636 54.4013 25.448 53.396C24.756 52.6361 23.9648 51.9257 23.174 51.2707C22.5418 50.7469 20.7353 49.7093 20.3931 49.1475Z" fill="#34081D"/>
<path d="M79.2223 62.9483C79.3098 63.0533 79.2952 63.1362 79.2799 63.2742C79.1757 64.2149 77.7515 65.5644 77.0514 66.1404C74.1917 68.4928 70.414 69.8448 66.7175 69.4857L66.5467 69.3901C67.0442 69.0223 68.4969 68.7324 69.1649 68.5132C72.6304 67.3758 76.7961 65.7427 79.2223 62.9483Z" fill="#34081D"/>
<path d="M21.408 44.8098C23.9418 44.5345 26.482 45.2676 28.4795 46.8505C30.6444 48.5586 31.9165 50.6595 32.2396 53.4072C31.6378 52.6796 31.2935 51.7016 30.7134 50.9323C28.9827 48.6427 26.6775 46.8515 24.0314 45.74C23.1939 45.3968 22.3236 45.1714 21.4855 44.8411L21.408 44.8098Z" fill="#34081D"/>
<path d="M41.8647 57.1649C45.1443 57.0466 48.1065 57.8716 50.9958 59.3715C48.4684 58.6819 46.064 58.1552 43.4316 58.049C40.2355 57.9478 37.3086 58.5379 34.2455 59.3817C36.4884 57.968 39.2396 57.3079 41.8647 57.1649Z" fill="#34081D"/>
<path d="M32.7121 74.09L32.9371 73.5582C32.8212 75.2997 32.6387 77.0492 32.4387 78.7832L32.2768 78.6664L32.237 78.1484L32.7121 74.09Z" fill="#34081D"/>
<path d="M19.2495 65.7352L19.3271 66.1185C19.2126 67.608 18.9727 69.0945 18.7696 70.5745L18.461 70.6692C18.7396 69.0271 19.0024 67.3823 19.2495 65.7352Z" fill="#3C3332"/>
<path d="M79.9642 70.5167C80.1155 71.9131 80.2071 73.3153 80.3302 74.7143L80.0734 74.9184C79.9412 73.4709 79.8813 71.9987 79.8367 70.5456L79.9642 70.5167Z" fill="#34081D"/>
<path d="M33.0481 70.2069L33.2573 70.0725C33.164 71.2355 33.0815 72.4001 32.9371 73.5582L32.7121 74.0899C32.7366 72.7916 33.0546 71.5166 33.0481 70.2069Z" fill="#2E2B2C"/>
<path d="M28.7873 143.042L29.0879 143.052C28.9525 143.873 28.8522 144.721 28.5985 145.514C28.6719 144.691 28.735 143.867 28.7873 143.042Z" fill="#34081D"/>
<path d="M19.2492 65.7351C19.2728 65.3935 19.3049 65.0804 19.3881 64.7478C19.5636 65.1432 19.4364 65.7097 19.3268 66.1184L19.2492 65.7351Z" fill="#8A888A"/>
<path d="M33.0483 70.2069C33.067 69.83 33.0769 69.4999 33.2108 69.1441C33.3353 69.4005 33.2702 69.7882 33.2575 70.0725L33.0483 70.2069Z" fill="#B9B4B9"/>
<path d="M79.8368 70.5458C79.7817 70.1899 79.7597 69.9022 79.8038 69.544L79.8763 69.501C79.9727 69.8549 79.9754 70.1516 79.9643 70.5169L79.8368 70.5458Z" fill="#8A888A"/>
<path d="M50.3761 1.18572C55.7394 0.910204 61.4326 1.87893 66.6242 3.14096C72.166 4.48813 79.6281 7.29823 82.6897 12.3905C84.0284 14.6173 84.7108 17.7061 84.0424 20.2544C83.4669 22.4485 81.6828 23.8258 79.7963 24.9062C77.9703 25.9518 76.0445 26.6172 74.0679 27.2975C61.8742 31.4944 47.9113 30.8685 35.5966 27.5337C31.7657 26.3693 27.8944 24.9787 24.6144 22.6212C22.596 21.1706 20.9332 19.2734 20.5299 16.7519C20.8863 17.4968 21.2461 18.2353 21.6994 18.9271C24.3827 23.0227 29.9249 24.5106 34.4417 25.4601C30.9461 23.8199 27.0545 22.1969 24.143 19.6045C22.8181 18.425 21.3343 16.7476 21.2713 14.8805C21.2088 13.0211 22.5893 10.9839 23.7959 9.67153C28.4263 4.63602 36.7205 2.44825 43.3039 1.64906C45.6495 1.36434 48.0166 1.27437 50.3761 1.18572Z" fill="#FFBBE2"/>
<path d="M72.4301 7.37228C73.3432 7.56619 75.7863 9.2045 76.7054 9.7883C78.9776 11.2315 82.2163 13.5173 82.7827 16.3219C82.9952 17.3742 82.7673 18.3162 82.1576 19.1927C79.3061 23.2906 70.5727 25.0623 65.8263 25.8891C64.323 26.0797 62.8146 26.4084 61.2966 26.4247C66.1176 25.2732 71.5366 23.9195 75.2852 20.4858C76.6347 19.2494 77.6957 17.6371 77.7414 15.7516C77.8273 12.2178 74.6797 9.65743 72.4301 7.37228Z" fill="#34081D"/>
<path d="M35.7974 4.16545L35.8114 4.17233C35.8688 4.38924 33.2874 5.40603 32.4813 5.82043C29.3061 7.45256 26.2085 9.60399 24.7146 12.9746C23.8832 14.8506 23.9049 15.7838 24.6217 17.6722L24.5617 17.7261L24.1787 17.4632C23.6368 16.905 23.1987 16.2745 22.9873 15.5179C22.5983 14.1263 22.9789 12.5051 23.7118 11.2864C25.9963 7.48666 31.7005 5.1911 35.7974 4.16545Z" fill="#34081D"/>
<path d="M66.6076 11.6081C67.2152 11.5867 67.8376 11.5722 68.4071 11.8152C68.9977 12.0671 69.5286 12.5068 69.7388 13.1319C69.8791 13.5487 69.8456 13.9986 69.6215 14.3791C69.2049 15.0868 68.4256 15.3478 67.6788 15.5446C66.9715 15.6161 66.2876 15.5525 65.6456 15.2243C65.1266 14.9589 64.6698 14.5238 64.5028 13.9524C64.3731 13.5201 64.4386 13.0528 64.6822 12.673C65.1132 11.9939 65.8722 11.7781 66.6076 11.6081Z" fill="#411128"/>
<path d="M67.0446 12.6153C67.4793 12.6623 68.1952 12.7218 68.4836 13.1128C68.6508 13.3398 68.6396 13.4168 68.6205 13.6819C68.302 14.1837 67.8684 14.2484 67.3269 14.3838C67.1097 14.3801 66.8903 14.376 66.6752 14.3423C66.2853 14.2813 65.8044 14.0936 65.6052 13.7246C65.48 13.4928 65.5437 13.3737 65.6201 13.148C66.0328 12.714 66.4687 12.6843 67.0446 12.6153Z" fill="#FFCAE8"/>
<path d="M48.1365 3.2377C48.8592 3.2057 49.5792 3.20771 50.2362 3.54785C50.7038 3.78989 51.0936 4.17528 51.2432 4.69088C51.3673 5.11341 51.3015 5.56903 51.063 5.93918C50.6252 6.62778 49.8497 6.86726 49.1037 7.05394C48.3726 7.1572 47.5419 7.07316 46.8902 6.70495C46.4335 6.44692 46.0621 6.04877 45.9319 5.53051C45.8229 5.1081 45.896 4.65937 46.1333 4.29336C46.5939 3.58241 47.3691 3.4177 48.1365 3.2377Z" fill="#411128"/>
<path d="M48.4478 4.2273C48.6265 4.22077 48.7869 4.22836 48.9648 4.2548C49.4554 4.32771 49.7442 4.37327 50.0493 4.79278C50.0915 5.02907 50.1236 5.20896 49.9784 5.42243C49.652 5.90191 49.0949 5.97738 48.5649 6.06856C48.4825 6.06153 48.4003 6.05507 48.3184 6.04419C47.8296 5.9792 47.1507 5.85516 46.8899 5.37131C46.7869 5.18038 46.8003 4.97508 46.9188 4.79441C47.2227 4.33033 47.952 4.29267 48.4478 4.2273Z" fill="#FFCAE8"/>
<path d="M53.9643 11.6499C54.7371 11.6222 55.4729 11.6217 56.1655 12.0106C56.6267 12.2696 57.0004 12.6731 57.134 13.1944C57.2483 13.6321 57.1707 14.0978 56.9203 14.4747C56.4811 15.1389 55.703 15.4023 54.9647 15.5694C54.3591 15.5739 53.8116 15.56 53.243 15.3217C52.6952 15.0921 52.1707 14.6854 51.9522 14.1159C51.7955 13.7172 51.8232 13.2695 52.028 12.8932C52.4238 12.1549 53.2117 11.8731 53.9643 11.6499Z" fill="#411128"/>
<path d="M54.0585 12.7307C54.4242 12.7041 54.8851 12.6696 55.2364 12.7869C55.5796 12.9016 55.8203 13.1266 55.9916 13.4399C55.9897 13.6134 56.0209 13.7136 55.918 13.8641C55.6662 14.2331 55.2237 14.3336 54.8167 14.4453C54.3044 14.4422 53.6048 14.4508 53.1938 14.0833C52.9851 13.897 52.9684 13.8353 52.9286 13.5747C53.1466 13.0601 53.5768 12.9363 54.0585 12.7307Z" fill="#FFCAE8"/>
<path d="M61.5249 3.89965C62.2414 3.87727 62.9411 3.9034 63.5887 4.24689C64.0482 4.4907 64.4471 4.8786 64.5961 5.38903C64.7062 5.76401 64.66 6.16757 64.4678 6.5079C64.0462 7.25169 63.1949 7.52349 62.4181 7.71961C61.6555 7.81156 60.8978 7.73576 60.225 7.33445C59.7759 7.06647 59.3999 6.65553 59.2756 6.13667C59.1739 5.71888 59.2571 5.27745 59.504 4.92547C59.9671 4.2538 60.7749 4.05787 61.5249 3.89965Z" fill="#411128"/>
<path d="M61.1643 4.87822C61.9276 4.85814 62.625 4.85198 63.2801 5.31547C63.5024 5.47275 63.5314 5.59058 63.571 5.84796C63.3644 6.28242 62.9624 6.41693 62.5357 6.57141C62.2352 6.62418 61.9099 6.63768 61.6055 6.62551C61.1176 6.60597 60.6483 6.33223 60.3207 5.98579C60.2708 5.82347 60.2051 5.73533 60.2657 5.56684C60.4074 5.17347 60.8127 5.03585 61.1643 4.87822Z" fill="#FFCAE8"/>
<path d="M39.7021 10.1805C40.3037 10.207 40.8972 10.2728 41.4188 10.5964C41.8681 10.8751 42.2329 11.2925 42.3371 11.822C42.4263 12.2746 42.3214 12.7157 42.0465 13.0854C41.5334 13.7749 40.682 13.9755 39.878 14.0887C39.1759 14.0634 38.5288 14.0089 37.93 13.6039C37.5127 13.3218 37.1969 12.8888 37.1332 12.3817C37.0754 11.9207 37.2307 11.4787 37.5223 11.1235C38.0616 10.4665 38.8956 10.2564 39.7021 10.1805Z" fill="#411128"/>
<path d="M39.564 11.2283C40.0033 11.1917 40.4483 11.1814 40.8427 11.4105C41.1198 11.5713 41.2371 11.7609 41.3107 12.0727C41.2784 12.2565 41.2539 12.3793 41.1213 12.5227C40.8072 12.8625 40.3292 12.8884 39.9001 12.9473C39.734 12.9568 39.5656 12.9662 39.3995 12.9558C38.88 12.9233 38.5186 12.7752 38.187 12.3764C38.1299 12.1517 38.0818 12.0314 38.2062 11.8114C38.4455 11.3875 39.1293 11.3178 39.564 11.2283Z" fill="#FFCAE8"/>
<path d="M22.1108 23.0732C23.211 23.7935 24.1956 24.6313 25.3481 25.2972C30.7517 28.4184 37.2208 30.1632 43.3493 31.1004C54.8769 32.8632 72.6905 32.5043 82.3773 25.3941C82.207 27.2945 81.8583 29.2077 81.6424 31.1094C80.4442 31.593 79.3389 32.3228 78.1712 32.879C76.4385 33.7044 74.575 34.3224 72.7483 34.9045C70.2527 35.6998 67.7052 36.4536 65.1742 37.1279C64.189 37.3903 63.0517 37.4077 62.1236 37.8283C62.4867 37.8985 62.8637 37.8454 63.2291 37.8098C68.1019 37.334 75.6987 36.1066 79.7291 33.3276C80.4681 32.8179 81.0161 32.2428 81.5866 31.5524C81.5613 31.965 81.5078 32.3753 81.4266 32.7807C81.0248 34.7705 79.6298 35.8643 78.0362 36.9233C74.3118 39.2282 69.3764 40.404 65.0814 41.107C53.6335 42.9807 36.2663 42.0476 26.5264 34.9861C24.0713 33.2058 22.8193 31.6284 22.3412 28.6165C23.8946 29.7895 25.438 30.8838 27.1677 31.7925C32.9153 34.8119 40.3259 36.2304 46.7577 36.5985C40.0598 35.0967 28.5216 31.7567 23.4965 27.0909C22.2287 25.9138 22.1786 24.6988 22.1108 23.0732Z" fill="#FFB4DF"/>
<path d="M80.5623 28.5912C80.8251 28.6041 80.962 28.6027 81.1882 28.7535L81.185 28.8796C77.4796 32.6494 71.9557 33.6069 66.935 34.2647C64.968 34.5358 62.994 34.7519 61.0151 34.9127L60.8408 34.9393L60.7386 34.8628L60.5545 34.9353L60.5881 34.9406L60.4475 34.8666L60.6802 34.7706L60.7233 34.8661L60.7782 34.8661C60.8557 34.6655 62.4073 34.4907 62.7275 34.4385C68.9419 33.4255 74.8718 31.2419 80.5623 28.5912Z" fill="#34081D"/>
<path d="M20.8652 29.6761C20.9713 29.8134 21.4003 31.8607 21.7774 32.5979C24.2401 37.4124 30.4385 39.7481 35.306 41.2806C47.2007 45.0256 66.2692 45.1759 77.5184 39.2618C79.3449 38.3016 81.605 36.9169 82.6064 35.0317C82.9861 34.3171 83.1919 33.5194 83.4302 32.7499C83.6933 33.7242 83.9826 34.8138 83.5678 35.7835C81.6939 40.1645 70.4759 43.8728 66.0712 45.0848C65.0853 45.3595 64.0921 45.607 63.0925 45.827C62.3559 45.9869 61.5498 46.0703 60.8537 46.354C60.969 46.3763 61.0707 46.396 61.1887 46.3969C63.1637 46.412 65.1728 46.0349 67.1078 45.6734C73.361 44.5054 79.0183 42.5989 83.7161 38.1042C82.5664 40.2281 80.7191 41.5499 78.6487 42.7032C75.7381 44.2873 72.6359 45.4905 69.4184 46.2833C58.2707 49.1019 47.9224 48.9176 36.8346 45.8808C33.1561 44.8733 29.3867 43.5887 26.1061 41.6105C23.2552 39.8911 20.5005 37.4749 19.6701 34.1404C20.5141 35.806 21.6115 37.2252 22.9812 38.4974C25.0901 40.4563 27.8948 42.0899 30.5457 43.1848C35.8133 45.3602 44.1732 46.8213 49.8516 46.5936C48.1909 46.1416 46.4338 45.9694 44.7476 45.6143C39.9084 44.5958 35.1118 43.3948 30.5835 41.3682C27.0358 39.7806 21.984 36.9735 20.5983 33.1548C20.1473 31.9121 20.3161 30.8414 20.8652 29.6761Z" fill="#FFB4DF"/>
</svg>
