<svg width="126" height="264" viewBox="0 0 126 264" fill="none" xmlns="http://www.w3.org/2000/svg">
<path d="M28.3118 39.7528C27.7845 39.5124 27.2454 39.2545 26.7656 38.9275C25.952 38.3731 25.3579 37.5087 25.0046 36.6013C24.1853 34.4983 23.9647 31.8937 23.5075 29.6592C22.7739 26.0752 21.8584 22.4598 21.2901 18.8506C21.071 17.4585 21.1622 16.4391 22.0401 15.2986C25.6598 10.5968 36.6778 8.15507 42.48 7.41756C46.1959 6.94524 52.0705 6.39262 55.1871 8.92721C55.786 9.41416 56.1019 9.99716 56.3463 10.7218C57.0564 12.8286 57.344 15.2191 57.8307 17.4001C58.4751 20.2878 59.8401 25.0796 60.0594 27.8293C60.2119 29.7454 59.4776 31.1584 58.253 32.5615C58.4892 33.8548 58.7986 35.1388 59.1001 36.4183C60.7026 43.2224 62.6652 50.0011 64.5845 56.7224C66.1635 62.2536 67.6828 68.0275 69.85 73.3531C70.6321 75.2742 71.5999 77.2582 72.9276 78.8663C75.716 82.2426 79.6988 83.8859 83.3151 86.1524C86.3743 88.0696 88.5598 90.7029 89.869 94.0696C91.7578 98.9257 92.8893 105.613 94.0396 110.773L99.309 133.454L119.807 220.864C121.19 228.241 123.938 232.006 119.153 239.006C112.268 249.079 97.7381 254.043 86.2229 256.161C77.1149 257.836 62.5257 258.569 54.6271 253.18C51.5973 251.113 50.371 248.481 49.7182 244.955C49.3228 242.821 48.9905 240.672 48.6134 238.534L31.2577 149.47L26.4057 124.156C25.6174 120.079 24.1566 114.211 23.8956 110.255C23.4318 103.227 28.7825 97.8347 31.7522 91.9762C32.7991 89.8918 33.5404 87.6678 33.9539 85.3722C34.7579 81.0599 33.6787 76.1494 33.1099 71.8331C32.4242 66.7279 31.6915 61.6293 30.9119 56.5378C30.0681 50.9492 29.3759 45.3038 28.3118 39.7528Z" fill="#27040E"/>
<path d="M26.7688 116.713C42.3491 119.854 57.0147 115.955 71.5148 110.284C76.8237 108.207 82.2309 106.012 87.0025 102.848C88.0089 102.172 88.9972 101.468 89.9663 100.739C91.0997 105.303 92.0733 109.906 93.1422 114.485C95.8295 125.787 98.4552 137.104 101.02 148.434L118.369 222.365C113.786 226.193 108.799 229.131 103.41 231.679C90.1543 237.947 75.7301 240.905 61.066 239.596C57.5105 239.278 53.6412 238.799 50.2531 237.654C50.0257 236.503 48.9038 232.128 49.1858 231.343L49.2964 231.266C49.0876 231.158 49.0723 231.079 48.9489 230.886L49.0304 230.543L48.8343 230.224L48.6767 229.514C46.3192 219.755 44.7912 209.736 42.8248 199.887L26.7688 116.713Z" fill="#FFCAE8"/>
<path d="M93.4271 176.653L93.8266 176.42C94.0063 177.355 93.9401 178.322 93.8489 179.264C94.6603 179.199 96.9855 179.205 97.5197 178.696L97.3101 178.406L97.4026 178.192C96.929 177.584 96.5316 176.98 96.146 176.315C97.8667 176.512 99.4745 177.042 100.603 178.438C102.886 181.264 102.045 187.964 101.585 191.459C100.076 202.916 94.7116 214.886 85.3705 222.016C81.0807 225.291 76.2503 227.648 71.1293 229.308L71.1473 228.824C72.3515 227.404 74.2812 226.376 75.6481 225.053C79.94 220.899 83.6896 215.871 86.5873 210.653C90.8332 203.16 93.4441 193.059 91.374 184.546C91.2348 183.334 90.8778 180.642 89.9514 179.814C90.0278 179.603 90.1524 179.383 90.2602 179.187C90.9279 177.947 92.0713 177.033 93.4271 176.653Z" fill="#DC5E8A"/>
<path d="M93.427 176.653L93.8265 176.42C94.0062 177.355 93.94 178.322 93.8488 179.264C94.6602 179.199 96.9854 179.206 97.5196 178.696L97.31 178.406L97.4025 178.192C97.8365 178.522 98.249 178.883 98.6672 179.233C96.7079 179.614 94.7316 179.86 92.7736 180.271C93.3528 178.989 93.4587 178.052 93.427 176.653Z" fill="#27040E"/>
<path d="M74.7367 182.135C75.1161 182.877 75.0988 183.907 75.1861 184.731L75.3521 185.086L75.5095 185.051C75.7682 184.647 75.7566 184.323 75.7665 183.862C75.8577 184.279 75.8295 184.612 76.1757 184.881C76.9554 184.856 77.7887 184.166 78.4633 183.767L77.6285 182.604L78.1202 182.383L77.9988 181.865L78.284 181.663C79.9448 182.078 81.343 182.335 82.3247 183.887C84.1139 186.716 83.2996 191.421 82.5321 194.448C79.2829 207.266 70.2688 219.264 58.9252 225.969C56.8805 227.177 54.6828 228.286 52.4697 229.15L52.5372 228.681C53.3491 228.108 54.0649 227.498 54.7712 226.798C62.8422 218.801 70.697 207.463 71.8636 195.895C72.0571 193.975 72.1056 192.071 71.9131 190.149C71.8245 189.261 71.6229 188.386 71.567 187.495C71.5019 186.452 71.6579 185.494 71.6602 184.475L71.4183 184.334C72.2653 183.226 73.4692 182.623 74.7367 182.135Z" fill="#E84E84"/>
<path d="M77.6282 182.604L78.1199 182.383C78.675 182.796 79.1005 183.35 79.5495 183.873C78.2763 185.021 76.7689 185.724 75.1449 186.228C75.1526 185.745 75.1115 185.206 75.1857 184.731L75.3517 185.086L75.5092 185.051C75.7679 184.647 75.7563 184.323 75.7662 183.862C75.8574 184.279 75.8292 184.612 76.1754 184.881C76.955 184.856 77.7883 184.166 78.463 183.767L77.6282 182.604Z" fill="#27040E"/>
<path d="M95.2599 173.023L95.6758 173.521C95.6833 174.208 95.7175 174.851 95.8247 175.531C97.7872 175.746 99.8594 176.246 101.127 177.901C103.799 181.389 102.767 189.06 102.108 193.27C100.807 201.584 98.3223 206.58 94.1591 213.766C99.5613 216.258 105.15 216.605 110.982 216.348C105.776 220.299 97.9391 220.461 91.7139 219.596C91.0709 219.506 90.4329 219.409 89.7989 219.268C82.5129 225.943 73.4681 230.391 63.7338 232.089C69.8036 227.584 76.1812 222.607 80.4546 216.272C78.0723 215.765 75.8723 214.924 73.6039 214.06C67.6676 221.715 58.5775 228.31 49.2965 231.266C49.0877 231.158 49.0724 231.079 48.949 230.886L49.0305 230.544C49.0607 230.535 49.0912 230.526 49.1214 230.518C50.2878 230.195 51.3735 229.654 52.4696 229.15C54.6828 228.286 56.8804 227.178 58.9252 225.969C70.2687 219.265 79.2828 207.267 82.532 194.448C83.2995 191.421 84.1139 186.716 82.3246 183.887C81.3429 182.335 79.9447 182.078 78.2839 181.663L78.1235 181.477L77.5623 181.528L77.421 181.351C77.8831 181.143 78.5884 181.162 79.0997 181.11C79.6326 181.235 80.1859 181.365 80.6915 181.576C82.0188 182.131 83.0611 183.206 83.5758 184.55C85.8763 190.454 81.6497 200.038 79.1262 205.466C81.124 206.71 83.1434 207.842 85.2624 208.866C88.5103 203.249 90.4699 194.069 89.8972 187.742C89.6607 185.131 88.2171 182.281 89.1011 179.7C89.8074 177.639 91.5467 176.61 93.3665 175.668L93.4589 174.042L93.8463 174.761C93.7528 175.338 93.7703 175.841 93.8266 176.42L93.4271 176.653C92.0712 177.033 90.9279 177.948 90.2602 179.187C90.1523 179.383 90.0278 179.603 89.9513 179.814C90.8778 180.642 91.2347 183.334 91.3739 184.546C93.4441 193.059 90.8332 203.16 86.5873 210.653C83.6896 215.871 79.94 220.899 75.6481 225.054C74.2812 226.377 72.3514 227.404 71.1472 228.824L71.1293 229.309C76.2503 227.649 81.0806 225.291 85.3704 222.017C94.7116 214.887 100.076 202.917 101.585 191.459C102.045 187.964 102.886 181.264 100.603 178.438C99.4744 177.042 97.8666 176.512 96.146 176.315C96.5316 176.981 96.929 177.584 97.4026 178.192L97.3101 178.406C97.128 178.26 96.9465 178.118 96.7842 177.949C95.5269 176.643 95.2201 174.762 95.2599 173.023Z" fill="black"/>
<path d="M91.4447 191.151C91.8108 189.653 91.6862 187.254 91.4739 185.719C91.4195 185.327 91.3943 184.941 91.3737 184.546C93.4439 193.059 90.833 203.16 86.5871 210.653C83.6894 215.871 79.9398 220.899 75.6479 225.053C74.281 226.376 72.3512 227.404 71.147 228.824L70.6087 228.48C74.731 225.606 78.1329 222.08 81.1415 218.061C82.6346 215.898 84.1409 213.988 85.4474 211.677C85.5388 211.041 85.7655 210.775 85.4869 210.164L87.1988 206.859L87.4164 206.815C87.6797 206.353 87.9097 206.046 88.3099 205.694C88.6332 205.163 88.8243 204.352 89.0356 203.76C90.5183 199.598 91.1991 195.556 91.4447 191.151Z" fill="#FFCAE8"/>
<path d="M87.1988 206.859L87.4164 206.815C87.6797 206.353 87.9097 206.046 88.3099 205.694C87.7258 207.314 86.7431 208.873 86.2421 210.481C85.9911 210.889 85.7546 211.309 85.4474 211.677C85.5388 211.041 85.7655 210.775 85.4869 210.164L87.1988 206.859Z" fill="#C84B77"/>
<path d="M90.7549 187.721C91.429 188.955 91.1337 189.89 91.445 191.151C91.1994 195.556 90.5186 199.598 89.0359 203.759C88.8246 204.352 88.6335 205.163 88.3102 205.694C87.91 206.046 87.68 206.353 87.4168 206.815L87.1991 206.859C87.475 205.479 88.3455 204.097 88.7661 202.728C90.2892 197.772 90.9707 192.905 90.7549 187.721Z" fill="#C84B77"/>
<path d="M69.7805 228.537C71.1836 227.233 72.7008 226.052 74.093 224.731C76.2693 222.666 78.2487 220.402 80.222 218.146L81.1416 218.061C78.1331 222.08 74.7312 225.606 70.6089 228.48L69.7805 228.537Z" fill="#C84B77"/>
<path d="M90.7548 187.721C90.4586 185.201 89.1107 182.291 89.9514 179.814C90.8778 180.642 91.2347 183.334 91.3739 184.546C91.3945 184.941 91.4198 185.327 91.4741 185.719C91.6865 187.254 91.8111 189.653 91.4449 191.151C91.1336 189.89 91.4289 188.955 90.7548 187.721Z" fill="#C84B77"/>
<path d="M80.2217 218.146C82.0695 215.552 83.7586 212.839 85.4868 210.164C85.7653 210.775 85.5387 211.041 85.4473 211.677C84.1408 213.989 82.6345 215.899 81.1413 218.061L80.2217 218.146Z" fill="#C84B77"/>
<path d="M69.7804 228.537L70.6088 228.48L71.1471 228.824L71.1291 229.309C69.8624 229.673 68.6252 230.14 67.3523 230.499C68.1313 229.817 68.9723 229.187 69.7804 228.537Z" fill="#C84B77"/>
<path d="M78.8268 206.042C80.5637 207.389 82.8329 208.599 84.8973 209.382C83.6098 211.51 82.2838 213.614 80.9202 215.693C80.0067 215.439 79.0246 215.233 78.1445 214.887C77.2725 214.604 74.5803 213.936 74.1075 213.251C75.9072 210.986 77.4214 208.564 78.8268 206.042Z" fill="#DC5E8A"/>
<path d="M74.1072 213.251C75.2135 212.929 76.635 213.38 77.6412 213.907C77.8841 214.034 78.0365 214.167 78.218 214.368C78.2562 214.739 78.2865 214.567 78.1443 214.887C77.2723 214.604 74.5801 213.936 74.1072 213.251Z" fill="#F6719F"/>
<path d="M93.7717 214.352C98.2953 216.685 102.994 216.801 107.855 217.347C106.579 217.828 105.276 218.207 103.97 218.593C99.3771 219.432 94.9201 219.288 90.3184 218.702C91.5656 217.332 92.6752 215.842 93.7717 214.352Z" fill="#E25889"/>
<path d="M73.9495 181.528C74.1983 181.554 74.3601 181.5 74.5279 181.702C74.7013 181.912 74.6419 181.833 74.7364 182.135C73.4688 182.623 72.2649 183.226 71.418 184.334L71.6599 184.475C71.6576 185.494 71.5016 186.452 71.5667 187.495C71.6225 188.386 71.8241 189.261 71.9128 190.149C72.1052 192.071 72.0568 193.975 71.8633 195.895C70.6966 207.463 62.8418 218.801 54.7709 226.798C54.0645 227.498 53.3487 228.108 52.5368 228.681L52.4693 229.15C51.3732 229.654 50.2875 230.195 49.1212 230.517C49.0909 230.526 49.0605 230.535 49.0303 230.543L48.8341 230.224L48.6765 229.514C55.8672 224.142 61.0815 217.113 65.3017 209.283C60.7452 206.911 56.2847 203.635 52.8668 199.81C51.338 198.1 49.6129 195.716 49.8091 193.305C49.9635 191.406 51.1851 189.886 52.5715 188.686L52.7921 188.629C53.0098 188.141 52.8801 187.781 52.8141 187.257C53.316 188.646 53.988 191.898 55.4049 192.556C55.717 192.7 55.9342 192.707 56.2705 192.617C56.6114 192.526 56.9824 192.153 57.1166 191.845C57.362 191.281 57.1016 190.592 56.8228 190.091C56.3361 189.217 55.5874 188.405 54.9553 187.631L55.1042 186.913C55.8055 186.521 56.5199 186.181 57.3265 186.082C62.4289 185.46 65.4506 194.16 69.1887 197.02L69.3486 197.14C69.7412 195.355 69.8934 193.526 69.8007 191.701C69.6977 189.811 69.056 187.622 69.6095 185.767C70.2439 183.642 72.1029 182.486 73.9495 181.528Z" fill="black"/>
<path d="M71.4181 184.334L71.66 184.476C71.6577 185.495 71.5017 186.453 71.5668 187.495C71.6226 188.386 71.8242 189.261 71.9129 190.149C72.1053 192.071 72.0569 193.976 71.8634 195.895C70.6967 207.464 62.8419 218.801 54.771 226.798C54.0646 227.498 53.3488 228.108 52.5369 228.682C52.2043 228.395 52.2337 228.417 52.2007 227.976C54.524 226.907 57.766 223.003 59.4441 220.985C62.6259 217.158 65.799 212.508 67.7385 207.922C68.4034 206.349 68.8847 204.679 69.41 203.055C70.3968 200.006 71.1207 197.038 71.2617 193.816C71.3885 190.919 70.9469 188.111 70.6904 185.238L71.4181 184.334Z" fill="#FFCAE8"/>
<path d="M51.8576 227.854C61.6337 219.184 69.9965 206.56 70.7383 193.147C70.8693 190.783 69.6134 187.322 70.6906 185.238C70.9471 188.111 71.3887 190.919 71.2619 193.816C71.1209 197.038 70.397 200.006 69.4102 203.055C68.8849 204.679 68.4036 206.349 67.7386 207.922C65.7992 212.508 62.6261 217.158 59.4443 220.985C57.7662 223.003 54.5242 226.907 52.2009 227.976L51.8576 227.854Z" fill="#C84B77"/>
<path d="M51.8574 227.854L52.2007 227.976C52.2337 228.417 52.2043 228.395 52.5369 228.681L52.4694 229.15C51.3733 229.654 50.2876 230.195 49.1213 230.517C49.091 230.526 49.0606 230.535 49.0304 230.543L48.8342 230.224C49.8629 229.463 50.8552 228.65 51.8574 227.854Z" fill="#C84B77"/>
<path d="M52.9749 189.348C53.3652 190.538 53.8957 192.554 55.0813 193.181C55.5898 193.45 56.101 193.317 56.6176 193.135C57.068 192.976 57.5284 192.71 57.7407 192.26C58.094 191.512 57.7187 190.486 57.3712 189.807C57.083 189.244 55.8045 187.824 55.8782 187.329C56.5482 186.841 57.7307 186.733 58.5309 186.848C60.3431 187.108 61.8019 188.752 62.7906 190.185C64.6814 192.925 66.4803 196.019 69.2124 198.022C68.7204 200.053 68.1643 202.027 67.4463 203.991C66.9666 205.303 66.2521 206.738 65.9447 208.085C65.7919 208.273 65.7486 208.255 65.5281 208.329C64.6754 208.088 63.9287 207.584 63.1682 207.139C59.1546 204.717 52.7191 199.827 51.0337 195.487C50.4841 194.07 50.5828 192.966 51.1816 191.598C51.6267 190.653 52.1911 190.031 52.9749 189.348Z" fill="#DC5E8A"/>
<path d="M51.1814 191.598C51.8308 192.292 51.8888 193.592 52.0132 194.508C53.3281 198.209 60.694 204.089 63.9211 206.532L63.2318 206.71L63.168 207.139C59.1544 204.716 52.7188 199.827 51.0335 195.486C50.4838 194.07 50.5825 192.966 51.1814 191.598Z" fill="#C84B77"/>
<path d="M51.3723 192.226C51.5663 192.995 51.7658 193.754 52.0135 194.508C53.3284 198.209 60.6943 204.089 63.9214 206.532L63.2321 206.71C62.2222 205.709 60.8469 204.917 59.7423 203.983C57.3908 201.994 55.1956 199.784 53.1184 197.511C51.652 195.906 51.28 194.328 51.3723 192.226Z" fill="#FFCAE8"/>
<path d="M63.9214 206.532C64.5953 206.94 65.566 207.369 65.9448 208.085C65.792 208.273 65.7487 208.255 65.5282 208.329C64.6755 208.088 63.9288 207.584 63.1683 207.139L63.2321 206.71L63.9214 206.532Z" fill="#C84B77"/>
<path d="M76.3669 174.793C77.372 173.052 79.1325 170.705 81.1892 170.188C81.6384 170.075 82.0164 170.125 82.4069 170.369C82.6017 170.491 82.7058 170.664 82.8249 170.853C82.8427 171.286 82.759 171.526 82.4527 171.845C81.8471 172.476 80.8885 172.868 80.1566 173.346C78.1264 174.67 77.1146 177.219 77.1017 179.583C77.0997 179.998 77.1633 180.266 77.364 180.626C77.8642 181.053 78.4722 181.04 79.0995 181.11C78.5881 181.162 77.8828 181.143 77.4208 181.351L77.5621 181.528L78.1233 181.477L78.2837 181.664L77.9985 181.865L78.1199 182.383L77.6282 182.604L78.463 183.768C77.7883 184.166 76.955 184.857 76.1754 184.881C75.8292 184.612 75.8574 184.279 75.7662 183.862C75.7563 184.323 75.7679 184.647 75.5092 185.051L75.3517 185.087L75.1857 184.732C75.0985 183.907 75.1158 182.877 74.7364 182.135C74.6419 181.834 74.7014 181.912 74.5279 181.703C74.3601 181.5 74.1983 181.555 73.9495 181.528C74.2198 181.437 74.3924 181.443 74.5526 181.172C74.8694 180.636 74.9014 179.005 75.031 178.346C75.2778 177.089 75.6936 175.886 76.3669 174.793Z" fill="#27040E"/>
<path d="M77.0749 174.601C77.9781 173.239 79.6048 171.219 81.2939 170.891C81.6824 170.815 82.1478 170.812 82.483 171.016C82.4198 171.356 82.3375 171.494 82.0425 171.674C81.6477 171.916 81.154 172.034 80.7416 172.259C79.1004 173.155 77.6455 174.905 77.0491 176.649C76.4164 178.5 76.4247 180.233 77.298 181.993C77.399 182.202 77.5092 182.405 77.6286 182.604L78.4634 183.767C77.7887 184.166 76.9554 184.856 76.1757 184.881C75.8296 184.612 75.8578 184.279 75.7666 183.862C75.3534 180.397 75.3871 177.734 77.0749 174.601Z" fill="#27040E"/>
<path d="M52.814 187.257C52.7868 187.163 52.762 187.069 52.7328 186.976C52.2663 185.469 50.9679 184.147 49.5799 183.462C48.345 182.852 46.762 182.546 45.4362 183.04C44.6564 183.33 43.8865 184.1 43.0074 183.859C42.7891 183.62 42.7323 183.492 42.7958 183.141C42.8523 182.828 43.2068 182.669 43.4724 182.569C45.404 181.845 48.4436 182.004 50.2382 182.951C52.2489 184.012 53.6173 185.854 54.9552 187.631C55.5874 188.405 56.3361 189.217 56.8228 190.091C57.1015 190.592 57.362 191.281 57.1166 191.845C56.9823 192.153 56.6114 192.525 56.2705 192.617C55.9341 192.707 55.717 192.7 55.4049 192.556C53.988 191.897 53.3159 188.646 52.814 187.257Z" fill="#27040E"/>
<path d="M93.8461 174.761C94.1531 171.803 95.2578 168.652 97.4261 166.552C97.992 166.004 99.1754 164.843 99.9732 164.851L100.027 165.054C99.7256 165.502 99.2324 165.839 98.8045 166.166C98.5686 166.347 98.3376 166.519 98.123 166.726C96.62 168.172 95.174 170.599 95.2443 172.735C95.2474 172.831 95.2546 172.927 95.2598 173.023C95.22 174.762 95.5267 176.643 96.7841 177.949C96.9464 178.117 97.1279 178.26 97.3099 178.406L97.5195 178.696C96.9854 179.205 94.6601 179.199 93.8487 179.264C93.9399 178.322 94.0061 177.355 93.8264 176.42C93.7702 175.84 93.7527 175.337 93.8461 174.761Z" fill="#27040E"/>
<path d="M52.5718 188.687C52.6073 188.561 52.6344 188.492 52.6312 188.351C52.6115 187.501 51.901 186.346 51.3632 185.722C50.1542 184.321 47.588 182.671 45.6375 183.298C44.5176 183.658 44.2122 184.529 42.8534 184.433C42.5885 184.305 42.461 184.226 42.2852 183.98C42.0747 183.684 41.97 183.221 42.0646 182.874C42.1716 182.481 42.4934 182.16 42.8385 181.963C44.3656 181.095 47.1474 181.33 48.789 181.801C51.4914 182.596 53.7648 184.436 55.1044 186.913L54.9555 187.631C53.6176 185.855 52.2492 184.013 50.2384 182.952C48.4438 182.005 45.4043 181.845 43.4727 182.57C43.2071 182.669 42.8526 182.828 42.7961 183.141C42.7326 183.492 42.7894 183.621 43.0077 183.86C43.8868 184.1 44.6567 183.331 45.4365 183.04C46.7623 182.547 48.3453 182.853 49.5802 183.462C50.9682 184.147 52.2666 185.47 52.7331 186.976C52.7622 187.069 52.7871 187.164 52.8143 187.258C52.8803 187.781 53.01 188.142 52.7923 188.63L52.5718 188.687Z" fill="#27040E"/>
<path d="M93.459 174.042C93.5193 173.483 93.6049 172.928 93.7155 172.377C94.3487 169.134 96.1972 166.285 98.9982 164.487C99.5199 164.152 99.9638 163.92 100.593 164.047C100.902 164.336 100.924 164.391 101.036 164.801C100.769 165.781 99.4224 166.564 98.6782 167.193C96.8096 168.773 95.8751 170.928 95.6892 173.329L95.6759 173.521L95.26 173.023C95.2548 172.927 95.2476 172.832 95.2445 172.735C95.1742 170.599 96.6202 168.173 98.1232 166.726C98.3378 166.519 98.5688 166.347 98.8047 166.166C99.2326 165.84 99.7258 165.502 100.028 165.055L99.9734 164.851C99.1756 164.843 97.9922 166.004 97.4264 166.553C95.258 168.653 94.1533 171.803 93.8463 174.761L93.459 174.042Z" fill="#27040E"/>
<path d="M67.0568 118.882C67.5641 118.734 68.0736 118.586 68.5879 118.464C70.2861 118.063 72.1348 118.152 73.6295 119.129C75.3823 120.274 76.3426 122.326 76.7231 124.329C77.2654 127.185 76.5456 129.345 74.9318 131.696C76.5807 132.98 80.8182 136.583 81.2273 138.629C81.3035 139.009 81.2421 139.356 81.0021 139.666C80.7106 140.043 80.0934 140.218 79.6358 140.236C78.1083 140.293 76.5231 138.397 75.4979 137.404C74.3784 136.344 73.3362 135.188 72.2721 134.071L70.3995 134.582C70.8148 136.505 71.3448 138.439 71.6922 140.37C71.8102 141.027 71.8417 141.763 71.4142 142.323C71.1206 142.708 70.6563 142.95 70.1776 142.998C69.6458 143.052 69.0454 142.915 68.6551 142.533C68.169 142.058 63.7097 122.553 63.9117 121.588C64.2005 120.207 65.9128 119.416 67.0568 118.882Z" fill="#4B0C2C"/>
<path d="M69.0694 123.108C69.3472 123.015 69.2934 123.023 69.5453 122.971C70.4199 122.789 71.3175 122.723 72.0869 123.262C72.816 123.772 73.1791 124.651 73.288 125.509C73.4709 126.952 73.07 128.123 72.1938 129.249C71.3616 130.02 70.4886 130.385 69.4474 130.782C68.9479 128.515 68.092 125.974 67.9623 123.674C68.2373 123.33 68.6677 123.245 69.0694 123.108Z" fill="#FFCAE8"/>
<path d="M57.4063 121.743C58.1096 121.531 58.913 121.209 59.6554 121.301C60.3503 121.388 61.1503 121.72 61.5534 122.319C61.8158 122.71 61.8446 123.097 61.7231 123.542C61.1917 125.485 57.6777 126.463 56.0831 127.341L57.1066 133.138C58.3374 132.723 60.6013 131.646 61.8633 132.122C62.3407 132.301 62.6439 132.686 62.8408 133.141C63.0231 133.561 63.0756 134.044 62.8801 134.472C62.1851 135.99 59.1253 136.634 57.6683 137.082C57.8448 138.281 57.7848 140.741 58.5766 141.617C59.4739 142.014 62.3829 140.83 63.4568 140.563C63.9213 140.463 64.4561 140.33 64.9311 140.441C65.3401 140.536 65.5803 140.713 65.8121 141.063C66.0907 141.484 66.1205 142.1 65.9524 142.565C65.6016 143.537 64.5305 144.127 63.6382 144.514C61.746 145.336 58.5856 146.398 56.5894 145.534C55.7658 145.177 55.1486 144.502 54.8444 143.662C53.9636 141.228 51.5113 125.913 52.5393 124.046C53.2134 122.822 56.1104 122.169 57.4063 121.743Z" fill="#4B0C2C"/>
<path d="M78.0441 149.473C79.0203 149.19 79.9087 148.92 80.9377 149.111C82.6583 149.432 83.9792 150.613 84.9224 152.035C86.4563 154.347 87.3361 157.539 86.7035 160.289C86.2881 162.095 85.3702 163.303 83.8244 164.267C82.7258 164.664 81.6111 164.807 80.4603 164.545C78.8121 164.171 77.4996 163.092 76.6216 161.67C75.1523 159.289 74.6121 155.863 75.3266 153.153C75.7656 151.487 76.5683 150.345 78.0441 149.473Z" fill="#4B0C2C"/>
<path d="M79.4056 152.325C79.8167 152.256 80.2517 152.206 80.6677 152.267C81.6517 152.411 82.5646 153.266 83.1213 154.039C84.1634 155.486 84.8048 157.511 84.4683 159.291C84.2531 160.431 83.7819 161.086 82.8509 161.75C82.217 161.846 81.6746 161.899 81.0576 161.686C79.8505 161.27 78.9414 160.144 78.4014 159.031C77.6833 157.551 77.23 155.516 77.808 153.938C78.1164 153.095 78.6231 152.709 79.4056 152.325Z" fill="#FFCAE8"/>
<path d="M39.4299 124.725C40.3997 124.387 42.1772 123.781 43.153 124.229C43.5816 124.425 43.9181 124.846 44.0979 125.277C44.2804 125.715 44.2967 126.247 44.1093 126.687C43.3409 128.49 39.7224 129.001 38.0376 129.764L37.8577 129.847C37.9165 131.584 38.1785 133.357 38.4241 135.076C39.8467 134.677 41.5244 134.044 43.013 134.343C43.571 134.455 43.934 134.656 44.2594 135.131C44.3695 135.567 44.3055 135.9 44.0917 136.288C43.137 138.024 40.6452 138.639 38.8951 139.154L39.2542 142.503C39.2746 142.726 39.2939 142.95 39.3124 143.174C39.4206 144.509 39.7393 148.328 38.6666 149.251C38.4149 149.468 38.1213 149.523 37.8014 149.459C37.3085 149.36 37.0436 148.936 36.8423 148.518C35.8771 146.51 33.8117 128.713 34.6147 127.062C35.2773 125.699 38.0793 125.149 39.4299 124.725Z" fill="#4B0C2C"/>
<path d="M86.7977 112.14C87.2249 112.056 87.6457 112.005 88.0174 112.284C88.191 112.415 88.2754 112.535 88.3915 112.717C88.4775 112.852 88.5347 113.022 88.577 113.175C89.4684 116.392 87.4255 122.422 87.4428 126.009C87.4566 128.958 88.9497 131.902 89.2565 134.843C89.3367 135.613 89.3698 136.537 88.8194 137.156C88.5173 137.496 88.079 137.658 87.6276 137.625C84.8476 137.42 85.4781 128.755 83.6403 126.994C81.8508 125.241 76.616 119.645 76.582 117.246C76.575 116.755 76.7418 116.331 77.1068 115.994C77.3814 115.741 77.7858 115.688 78.1398 115.754C80.104 116.118 83.3863 121.22 84.6654 122.951C85.0641 119.47 85.2135 115.309 86.7977 112.14Z" fill="#4B0C2C"/>
<path d="M92.6479 142.455C93.002 142.382 93.349 142.32 93.6969 142.47C94.4367 142.788 94.8147 143.729 95.107 144.418C95.917 146.325 99.565 156.53 98.7962 158.052C98.704 158.234 98.5001 158.278 98.3128 158.31C96.6071 158.602 91.3179 153.94 89.8919 152.785C90.5527 154.441 92.6894 159.061 92.4322 160.711C92.3789 161.054 92.2908 161.09 92.0345 161.295C91.5978 161.359 91.3607 161.259 90.9702 161.094C90.2948 160.443 89.8529 159.66 89.4488 158.823C88.5963 157.057 84.904 147.967 85.6164 146.582C85.7098 146.399 85.8611 146.198 86.0723 146.159C87.5892 145.877 93.4561 151.729 94.9639 152.911C94.1939 150.61 92.3219 145.669 92.3429 143.463C92.3466 143.101 92.4971 142.776 92.6479 142.455Z" fill="#4B0C2C"/>
<path d="M48.4688 154.702C48.6478 154.713 48.8396 154.762 49.0164 154.794C49.4216 155.111 49.6188 155.362 49.7898 155.853C50.3958 157.592 50.4109 161.246 50.8568 163.329C51.1501 164.7 51.5979 166.781 52.8885 167.546C53.3325 167.809 53.9821 167.974 54.4826 167.788C57.4233 166.694 54.5097 157.012 55.5831 154.615C55.7523 154.236 55.9161 154.16 56.2875 154.017C56.5795 154.07 56.7099 154.057 56.9507 154.247C57.8302 154.938 57.8746 157.152 58.0225 158.228C58.0418 158.341 58.0597 158.454 58.0764 158.567C58.5313 161.631 59.083 166.807 57.0509 169.402C56.4082 170.223 55.5089 170.711 54.4708 170.807C53.2023 170.925 51.9985 170.529 51.0447 169.686C48.1448 167.124 47.7339 161.482 47.5173 157.893C47.4367 156.552 47.5624 155.715 48.4688 154.702Z" fill="#4B0C2C"/>
<path d="M62.9267 152.886C63.1991 152.817 63.474 152.756 63.7504 152.704C64.5069 152.565 65.2717 152.463 65.9224 152.937C66.6192 153.445 67.0862 154.31 67.1573 155.168C67.1985 155.664 67.05 155.899 66.7415 156.269C65.3634 156.798 65.2163 155.549 64.109 155.642C63.8016 155.667 63.4022 155.904 63.1815 156.11C62.8615 156.409 62.6094 156.844 62.6428 157.296C62.735 158.542 66.4079 159.89 67.4466 160.723C68.6341 161.676 69.7253 163.102 69.8438 164.671C69.9354 165.884 69.3981 167.095 68.5905 167.982C67.6143 169.055 66.2221 169.427 64.8232 169.501C64.314 169.463 63.8038 169.43 63.3164 169.266C62.2989 168.924 61.7304 168.249 61.3134 167.276C61.1125 166.808 61.0767 166.107 61.3172 165.651C61.427 165.443 61.5671 165.448 61.7729 165.372C62.7203 165.51 63.4854 166.234 64.3534 166.61C64.9615 166.874 65.5132 167.026 66.1536 166.785C66.3649 166.577 66.5085 166.41 66.5909 166.124C67.7489 162.097 61.6621 161.889 60.2779 158.986C59.7958 157.975 59.6868 156.737 60.0798 155.678C60.5813 154.325 61.6708 153.491 62.9267 152.886Z" fill="#4B0C2C"/>
<path d="M46.9166 123.6C47.2722 123.552 47.5132 123.577 47.8625 123.656C48.6786 124.213 48.9628 125.679 49.1708 126.607C50.086 130.693 51.7716 141.564 51.307 145.442C51.2198 146.169 51.0344 146.681 50.6448 147.298C50.2493 147.36 49.8435 147.379 49.5006 147.131C48.5042 146.409 48.2627 143.659 48.0966 142.524C47.5721 138.939 47.2167 135.318 46.8064 131.719C46.5664 129.611 45.9916 127.042 46.233 124.952C46.2955 124.412 46.6001 124.025 46.9166 123.6Z" fill="#4B0C2C"/>
<path d="M39.2271 155.75C40.9304 155.202 43.5899 154.708 45.2907 155.409C45.8356 155.634 46.1659 155.911 46.3999 156.458C46.3436 156.846 46.3344 156.959 46.0325 157.241C45.0106 158.198 42.6021 157.911 41.3326 157.863C41.3963 159.17 41.5487 160.48 41.665 161.783C42.8361 161.527 44.1785 161.348 45.3574 161.641C45.8304 161.759 46.0642 161.918 46.2979 162.34C46.2568 162.522 46.2632 162.546 46.1599 162.729C45.7333 163.486 44.2335 163.963 43.4346 164.223L41.9163 164.538C41.9944 165.8 42.0342 167.065 42.0355 168.329C42.0414 169.433 42.1433 171.147 41.2528 171.949C41.0561 172.126 41.1127 172.069 40.8169 172.059C40.3057 171.61 40.1346 171.018 39.9644 170.379C39.3063 167.908 38.1416 157.656 39.2271 155.75Z" fill="#4B0C2C"/>
<path d="M69.9055 151.295C70.3375 151.273 70.575 151.273 70.9875 151.438C72.5717 153.204 75.064 163.948 74.9219 166.267C74.8856 166.859 74.6843 167.027 74.2678 167.396C74.0321 167.313 73.8573 167.223 73.6516 167.075C71.3713 165.435 69.8479 156.749 69.4997 153.895C69.3812 152.924 69.2781 152.104 69.9055 151.295Z" fill="#4B0C2C"/>
<path d="M55.4018 34.5652C55.8521 34.3244 56.3183 34.0975 56.7575 33.8381C58.7984 42.1063 60.9877 50.3369 63.3246 58.5265C64.2674 61.8186 65.0762 65.2664 66.2492 68.4793C67.4011 71.9627 68.5367 75.6108 70.6532 78.6503C75.3145 85.344 83.3369 85.9808 87.0388 92.1423C88.2575 94.1711 88.9608 96.482 89.7097 98.7142C87.7956 100.34 85.7074 101.869 83.5358 103.132C79.3192 105.582 74.6259 107.439 70.0711 109.155C62.5596 111.985 55.1078 114.461 47.1397 115.62C42.8502 116.243 38.4342 116.355 34.1106 116.119C33.5454 116.1 32.9782 116.031 32.4153 115.979C31.3243 115.862 30.2058 115.787 29.14 115.52L28.8111 115.552L26.3586 115.083C25.8849 113.085 25.4644 111.159 25.5602 109.088C25.8284 103.291 29.9838 98.5284 32.6604 93.648C34.128 90.9719 35.3152 87.9541 35.7476 84.9201C36.1662 81.9817 35.7015 79.0257 35.3792 76.1026C35.1938 72.3373 34.2843 67.9294 33.7299 64.1567C32.5392 56.0521 31.2945 47.9556 29.9957 39.8678C30.9724 40.016 31.9356 40.0654 32.9219 40.1038L34.2921 40.0722C35.102 39.9977 35.9162 39.9042 36.728 39.8602L37.9526 39.7473C42.3142 39.3852 46.6802 38.1652 50.7714 36.6608L52.0228 36.1987C52.7643 35.9088 53.487 35.5483 54.212 35.2181L55.4018 34.5652Z" fill="#CD569C"/>
<path d="M29.9955 39.8679C30.9722 40.016 31.9354 40.0654 32.9217 40.1038L34.2919 40.0722C35.1018 39.9977 35.9161 39.9043 36.7278 39.8602L37.9524 39.7474C39.4871 48.5608 40.8046 57.4109 41.904 66.289C42.2411 69.1346 42.8314 72.2273 42.8487 75.0866C42.7494 76.5572 42.9629 78.7 43.293 80.1174L43.268 80.5262C43.3639 83.9176 43.6447 87.8082 42.6933 91.0997C41.5895 94.9186 39.5449 98.3785 37.4215 101.704C35.9592 103.994 34.0254 106.427 33.3447 109.084C32.7519 111.397 33.1452 113.961 34.1104 116.119C33.5452 116.1 32.978 116.031 32.4151 115.979C31.3241 115.862 30.2056 115.787 29.1398 115.52L28.8109 115.552L26.3585 115.083C25.8847 113.085 25.4642 111.159 25.56 109.088C25.8282 103.291 29.9836 98.5284 32.6602 93.648C34.1278 90.9719 35.3151 87.9541 35.7474 84.9201C36.166 81.9817 35.7014 79.0258 35.379 76.1026C35.1936 72.3374 34.2841 67.9295 33.7297 64.1567C32.539 56.0521 31.2944 47.9557 29.9955 39.8679Z" fill="#FEFEFE"/>
<path d="M35.3791 76.1025C36.1191 76.0566 36.8612 75.9955 37.6019 75.9707C37.5791 77.078 37.6481 78.241 37.5531 79.3387C38.1903 79.7175 38.8287 80.0922 39.4459 80.5032L39.4668 80.9869C39.6332 85.124 39.7513 89.387 37.7458 93.1525C35.5869 97.4376 32.5554 101.228 30.1055 105.354C29.4114 106.96 29.1573 108.462 28.6126 110.054C28.5303 111.964 28.7143 113.66 29.1399 115.519L28.811 115.552L26.3586 115.083C25.8848 113.085 25.4643 111.159 25.5601 109.088C25.8284 103.29 29.9838 98.5283 32.6603 93.6479C34.1279 90.9718 35.3152 87.954 35.7476 84.92C36.1661 81.9816 35.7015 79.0256 35.3791 76.1025Z" fill="#CD569C"/>
<path d="M30.1056 105.354L30.0845 105.016C30.6321 103.721 37.0415 93.4975 37.746 93.1524C35.587 97.4375 32.5556 101.228 30.1056 105.354Z" fill="#B10C08"/>
<path d="M39.4671 80.987C39.1467 81.0244 38.8195 81.0654 38.5023 80.9859C37.9631 80.8512 37.4668 80.6044 37.1957 80.104C37.2164 79.6628 37.2509 79.6688 37.5534 79.3388C38.1906 79.7176 38.829 80.0923 39.4462 80.5033L39.4671 80.987Z" fill="#27040E"/>
<path d="M28.811 115.552C28.2948 114.167 27.8438 111.502 28.3509 110.09L28.6126 110.054C28.5303 111.964 28.7143 113.66 29.1399 115.519L28.811 115.552Z" fill="#610606"/>
<path d="M36.7281 39.8603L37.9527 39.7475C39.4874 48.5609 40.8049 57.411 41.9043 66.2891C42.2414 69.1347 42.8318 72.2274 42.849 75.0867C42.7497 76.5573 42.9632 78.7001 43.2933 80.1175L43.2683 80.5263C43.3642 83.9177 43.645 87.8083 42.6937 91.0998C41.5898 94.9187 39.5452 98.3786 37.4218 101.704C35.9596 103.994 34.0257 106.427 33.345 109.084C32.7522 111.398 33.1455 113.961 34.1108 116.119C33.5456 116.1 32.9783 116.031 32.4155 115.979C31.5623 113.801 31.2389 111.544 31.7883 109.248C32.3525 106.889 33.7658 104.831 35.067 102.823C37.7469 98.6885 40.6544 94.5453 41.6763 89.6351C42.7401 84.5234 41.788 77.3708 41.2319 72.1624C40.0778 61.3533 38.2655 50.6193 36.7281 39.8603Z" fill="#89084F"/>
<path d="M29.9958 39.8679C30.9725 40.016 31.9357 40.0654 32.922 40.1039C34.7592 52.0215 36.3199 63.9806 37.602 75.9709C36.8614 75.9957 36.1192 76.0567 35.3793 76.1027C35.1939 72.3374 34.2844 67.9295 33.7299 64.1567C32.5393 56.0522 31.2946 47.9557 29.9958 39.8679Z" fill="#FFCAE8"/>
<path d="M32.9221 40.1038L34.2922 40.0722C35.0266 44.9751 35.7224 49.8838 36.3795 54.798C37.5925 63.3269 38.7978 71.9096 39.4461 80.5033C38.8289 80.0923 38.1905 79.7177 37.5533 79.3389C37.6483 78.2412 37.5793 77.0781 37.6021 75.9708C36.3199 63.9806 34.7592 52.0215 32.9221 40.1038Z" fill="#89084F"/>
<path d="M37.9528 39.7476C42.3144 39.3854 46.6805 38.1654 50.7717 36.661C53.1657 47.9252 56.0169 59.3299 59.4667 70.3184L59.4178 70.6805C58.6412 71.1177 55.0356 71.5257 53.8561 71.7919C50.1386 72.6302 46.4404 73.8198 42.8491 75.0868C42.8319 72.2275 42.2415 69.1348 41.9044 66.2892C40.805 57.4111 39.4875 48.561 37.9528 39.7476Z" fill="#FFCAE8"/>
<path d="M55.4018 34.5651C55.8521 34.3243 56.3183 34.0974 56.7574 33.838C58.7984 42.1063 60.9876 50.3368 63.3245 58.5265C64.2673 61.8185 65.0762 65.2663 66.2491 68.4793L64.355 68.4316C64.7066 70.1618 65.6903 72.4365 65.3892 74.1701C65.1824 74.4587 65.3193 74.3461 64.9639 74.4891C66.1472 77.9723 67.2169 81.1551 69.8037 83.8829C74.4784 88.8125 83.2041 89.6067 84.955 97.1065C85.1831 98.0835 85.4408 99.1878 85.1124 100.162C84.9724 100.523 84.8047 100.851 84.6205 101.191L84.4204 101.186C79.8337 90.9252 71.3853 93.145 65.657 85.6342C63.7339 83.1126 62.6615 80.1969 61.6156 77.2409L61.2667 76.1749C61.0212 75.1756 59.9041 70.9474 59.4664 70.3181C56.0166 59.3296 53.1654 47.925 50.7714 36.6608L52.0227 36.1987C52.7642 35.9087 53.4869 35.5482 54.212 35.218L55.4018 34.5651Z" fill="#FEFEFE"/>
<path d="M50.7716 36.6608L52.023 36.1986C54.4365 46.902 57.1784 57.5288 60.2449 68.0639C61.675 72.9243 62.9492 78.3127 65.3986 82.7573C66.6811 85.0846 68.312 86.8307 70.549 88.2715C76.5255 92.1208 82.1546 92.7495 85.1126 100.162C84.9727 100.523 84.805 100.851 84.6208 101.191L84.4207 101.186C79.8339 90.9252 71.3855 93.145 65.6573 85.6342C63.7342 83.1126 62.6617 80.1968 61.6159 77.2409L61.267 76.1749C61.0214 75.1756 59.9044 70.9474 59.4666 70.3181C56.0168 59.3296 53.1656 47.9249 50.7716 36.6608Z" fill="#89084F"/>
<path d="M55.4016 34.5653C55.852 34.3245 56.3182 34.0976 56.7573 33.8382C58.7983 42.1065 60.9875 50.337 63.3244 58.5267C64.2672 61.8187 65.076 65.2665 66.249 68.4795L64.3549 68.4318C61.2923 57.164 58.3078 45.8748 55.4016 34.5653Z" fill="#FFCAE8"/>
<path d="M54.2121 35.2181L55.4018 34.5652C58.308 45.8746 61.2925 57.1638 64.3551 68.4317C64.7067 70.1619 65.6904 72.4365 65.3893 74.1701C65.1825 74.4588 65.3194 74.3462 64.9639 74.4892C63.8757 70.2847 62.3677 66.1146 61.2139 61.9009C59.7494 56.6001 58.3159 51.2911 56.914 45.9734C55.992 42.3945 55.1853 38.783 54.2121 35.2181Z" fill="#89084F"/>
<path d="M59.4663 70.318C59.904 70.9473 61.0211 75.1755 61.2666 76.1748C60.411 76.3363 59.4857 76.8313 58.6582 77.1366C56.7046 77.8568 54.6755 78.5537 52.6309 78.9567C50.7651 79.3243 48.7217 79.5885 46.818 79.6379C45.9357 79.6607 44.7549 79.3903 43.9183 79.5857C43.5194 79.679 43.4952 79.7904 43.2931 80.1173C42.9629 78.6999 42.7495 76.5571 42.8488 75.0865C46.4401 73.8195 50.1383 72.6299 53.8557 71.7915C55.0352 71.5254 58.6409 71.1173 59.4174 70.6802L59.4663 70.318Z" fill="#CD569C"/>
<path d="M43.2932 80.1175C43.4953 79.7906 43.5195 79.6793 43.9184 79.5859C44.755 79.3905 45.9358 79.6609 46.8181 79.6382C48.7218 79.5887 50.7652 79.3245 52.631 78.9569C54.6756 78.5539 56.7046 77.857 58.6583 77.1368C59.4858 76.8316 60.4111 76.3365 61.2667 76.175L61.6157 77.241C61.5549 77.2802 61.4964 77.3231 61.4334 77.3589C56.952 79.904 48.2241 81.8306 43.2682 80.5263L43.2932 80.1175Z" fill="#27040E"/>
<path d="M47.5713 105.874C48.4474 105.333 49.5463 105.304 50.4495 105.799C51.3524 106.293 51.9204 107.234 51.9366 108.264C51.9527 109.293 51.415 110.252 50.528 110.774C49.176 111.571 47.4348 111.131 46.6242 109.787C45.8137 108.444 46.236 106.698 47.5713 105.874Z" fill="#9B2C6D"/>
<path d="M65.8408 98.0666C66.735 97.5552 67.8347 97.5634 68.7209 98.0887C69.6069 98.6136 70.1424 99.5746 70.123 100.604C70.1035 101.634 69.5323 102.574 68.6269 103.066C67.8304 103.498 66.8761 103.527 66.0543 103.145C65.2329 102.762 64.6408 102.013 64.4589 101.126C64.2102 99.9145 64.7676 98.6806 65.8408 98.0666Z" fill="#9B2C6D"/>
<path d="M51.1637 92.2384C52.5906 91.5537 54.3022 92.1596 54.9804 93.5897C55.6585 95.0198 55.0448 96.7286 53.6116 97.4002C52.6633 97.8446 51.5479 97.7342 50.7048 97.113C49.8981 96.5182 49.4619 95.5439 49.5557 94.5459C49.6497 93.5479 50.26 92.6722 51.1637 92.2384Z" fill="#9B2C6D"/>
<path d="M118.373 224.466L118.74 224.472C119.187 225.062 119.329 226.087 119.486 226.809C120.492 231.429 120.607 233.669 117.963 237.733C111.914 247.03 98.3767 252.118 87.8992 254.302C78.5732 256.246 63.6526 257.207 55.3752 251.779C55.2161 251.655 55.0592 251.528 54.9055 251.398C51.5527 248.55 50.8304 243.591 50.5132 239.425C52.7434 239.934 54.9655 240.44 57.2328 240.756C73.0591 242.959 89.1124 240.073 103.549 233.402C106.866 231.869 110.142 230.207 113.218 228.229C114.999 227.083 116.682 225.74 118.373 224.466Z" fill="#CD569C"/>
<path d="M55.429 242.231C55.7678 242.198 56.0325 242.232 56.3666 242.296C57.3224 242.93 57.3459 244.795 57.7735 245.826C58.4586 247.477 60.1811 248.541 61.773 249.206C64.2293 250.233 66.9907 250.587 69.6258 250.806C79.2497 251.607 89.6153 250.052 98.5282 246.315C103.194 244.359 111.413 239.846 113.85 235.266C114.691 233.685 114.737 231.943 115.399 230.327C115.534 230.263 115.802 230.109 115.962 230.089C116.287 230.05 116.542 230.143 116.755 230.396C117.275 231.012 117.211 232.137 117.198 232.892C117.009 234.118 116.618 235.226 116.012 236.305C111.921 243.587 100.262 248.714 92.418 250.893C88.859 251.864 85.2317 252.563 81.5669 252.986C75.3323 253.663 64.5472 253.675 59.1443 250.577C57.0913 249.399 55.5667 247.525 55.0072 245.201C54.7385 244.084 54.8561 243.213 55.429 242.231Z" fill="#FFCAE8"/>
<path d="M30.4775 20.3037C36.4645 19.939 42.826 18.6034 48.4231 16.4233C49.7361 22.397 51.1535 28.3663 52.3336 34.367C46.4823 36.7008 40.6251 38.0706 34.3417 38.4923L30.4775 20.3037Z" fill="#5A243F"/>
<path d="M34.3132 10.7384C39.522 9.18882 47.9047 7.62637 53.0796 9.49797C53.6255 9.69537 54.2033 9.8822 54.461 10.4412C54.42 10.6346 54.4258 10.6513 54.3297 10.8572C53.1834 13.3128 45.749 15.6523 43.1301 16.4047C37.8597 17.7839 27.5879 20.3543 22.6884 17.5267C22.7576 17.3796 22.828 17.2378 22.907 17.0956C24.9518 13.4187 30.5203 11.796 34.3132 10.7384Z" fill="#5A243F"/>
<path d="M54.9344 12.8023L55.1572 12.8529C55.9133 15.6375 56.427 18.5403 57.0417 21.3625C57.5318 23.6119 58.1721 25.916 58.4971 28.1894C58.5547 28.5935 58.5379 28.9778 58.4276 29.3718C57.8603 31.3982 55.6439 32.5807 53.9512 33.5485L53.8364 33.5415C53.4018 33.0701 50.2378 17.6624 49.8296 15.785C51.6956 14.9991 53.4197 14.1684 54.9344 12.8023Z" fill="#5A243F"/>
<path d="M23.0896 19.5992C24.9295 20.3108 27.0092 20.3188 28.9562 20.4073C30.2773 26.36 31.6917 32.3839 32.6994 38.3937C31.1452 38.4086 28.9807 38.3298 27.6455 37.4507C27.0442 37.0546 26.7868 36.4961 26.5451 35.8346C25.8825 34.0229 25.6327 31.8964 25.2482 30.0051L23.0896 19.5992Z" fill="#5A243F"/>
</svg>
