<svg width="375" height="381" viewBox="0 0 375 381" fill="none" xmlns="http://www.w3.org/2000/svg">
<path d="M272.32 3.22852H102.68C45.9714 3.22852 0 49.1438 0 105.783V275.216C0 331.856 45.9714 377.771 102.68 377.771H272.32C329.029 377.771 375 331.856 375 275.216V105.783C375 49.1438 329.029 3.22852 272.32 3.22852Z" fill="#DA3027"/>
<path d="M176.705 201.762C171.222 201.62 165.736 201.941 160.303 202.722C152.421 204.552 145.508 209.41 140.97 216.308C136.431 223.208 134.607 231.63 135.866 239.867C137.053 248.189 141.259 255.735 147.634 260.977C154.007 266.219 162.072 268.767 170.198 268.104C178.203 267.534 185.703 263.862 191.195 257.824C196.687 251.787 199.766 243.831 199.814 235.55C199.814 185.108 199.814 134.735 199.814 84.2939V78.9482H237.863C240.254 112.324 259.246 129.321 290.323 133.776V172.223C271.715 171.985 253.62 165.888 238.461 154.747C238.461 156.53 238.461 157.831 238.461 159.134C238.461 183.874 238.461 208.547 238.461 233.22C238.961 248.52 234.706 263.583 226.319 276.209C217.933 288.836 205.852 298.364 191.846 303.399C179.106 308.78 165.062 309.943 151.655 306.726C138.248 303.51 126.14 296.072 117.008 285.443C107.216 275.666 100.574 263.018 97.9849 249.213C95.3955 235.408 96.9828 221.115 102.531 208.273C108.159 193.463 118.374 180.989 131.586 172.796C144.798 164.602 160.264 161.147 175.576 162.972L176.971 163.315L176.705 201.762Z" fill="#F9C9DB"/>
</svg>
