<svg width="58" height="59" viewBox="0 0 58 59" fill="none" xmlns="http://www.w3.org/2000/svg">
<path d="M42.1188 0.5H15.8812C7.11024 0.5 0 7.61024 0 16.3812V42.6188C0 51.3898 7.11024 58.5 15.8812 58.5H42.1188C50.8898 58.5 58 51.3898 58 42.6188V16.3812C58 7.61024 50.8898 0.5 42.1188 0.5Z" fill="#390A14"/>
<path d="M27.3304 31.244C26.4823 31.222 25.6338 31.2717 24.7936 31.3926C23.5744 31.6761 22.5053 32.4283 21.8033 33.4966C21.1014 34.565 20.8192 35.8693 21.014 37.1448C21.1976 38.4335 21.8481 39.602 22.834 40.4138C23.8198 41.2256 25.0672 41.6201 26.3239 41.5174C27.562 41.4291 28.722 40.8605 29.5715 39.9256C30.4209 38.9907 30.8971 37.7586 30.9045 36.4762C30.9045 28.6651 30.9045 20.8645 30.9045 13.0534V12.2256H36.7895C37.1593 17.3941 40.0967 20.0261 44.9033 20.716V26.6698C42.0252 26.6329 39.2266 25.6887 36.882 23.9635C36.882 24.2395 36.882 24.4411 36.882 24.6428C36.882 28.474 36.882 32.2947 36.882 36.1154C36.9593 38.4847 36.3012 40.8174 35.004 42.7726C33.7069 44.7279 31.8385 46.2033 29.6721 46.9831C27.7018 47.8164 25.5296 47.9964 23.4559 47.4983C21.3823 47.0002 19.5097 45.8484 18.0972 44.2025C16.5827 42.6885 15.5555 40.7298 15.155 38.592C14.7545 36.4543 15 34.2409 15.8582 32.2523C16.7286 29.9588 18.3085 28.0272 20.3519 26.7584C22.3954 25.4895 24.7875 24.9546 27.1558 25.2371L27.3715 25.2902L27.3304 31.244Z" fill="#F9C9DB"/>
</svg>
