<svg width="19" height="43" viewBox="0 0 19 43" fill="none" xmlns="http://www.w3.org/2000/svg">
<path d="M0.663994 23.9059C1.33882 27.931 4.06701 29.1538 5.80585 32.3747C6.5891 33.8258 7.03103 35.5563 7.56862 37.1165C8.18448 38.9618 8.91163 40.7678 9.74638 42.5248L12.0454 41.8306C10.4424 39.4069 9.50266 36.0967 8.83599 33.2854C8.49909 31.8651 8.26617 30.2549 7.56663 28.9627C6.56201 27.1065 4.85996 25.6302 3.48855 24.0453C1.59377 21.8555 1.15087 19.7867 1.35269 16.9424C2.7675 22.284 5.15079 23.1682 7.87646 27.4185C7.59856 24.5529 7.39343 21.5125 7.57674 18.635C6.51796 16.6278 4.81863 14.5011 4.28277 12.3014C3.91038 10.7719 4.38423 9.64241 5.15274 8.35737C4.83479 11.7945 6.34616 13.7541 7.80996 16.7002C8.12727 13.9198 8.98948 11.1547 9.01661 8.36184C9.02768 7.22524 8.66167 5.42217 9.28405 4.41792C9.41975 4.19924 9.449 4.11086 9.70766 4.05227C9.4026 5.33698 9.80356 6.88185 9.81669 8.21823C10.9157 5.58575 12.0865 2.60905 14.3673 0.785243C13.6454 3.21455 11.9964 6.00207 11.0031 8.46226C12.5788 7.56925 14.0153 6.41422 15.0532 4.91478C15.0889 4.8633 15.1233 4.81107 15.1583 4.75922L15.3022 4.77138C15.3323 5.01967 15.3696 5.27159 15.3428 5.52216C15.1556 7.25813 12.8124 8.82629 11.5335 9.84368L10.3627 10.8054C9.6477 13.3288 9.24195 15.9295 9.15428 18.5506C12.9326 15.7136 14.9268 14.722 16.7371 10.1584C16.3826 16.7938 12.5211 16.5609 9.1399 21.1021C9.05879 23.2467 9.18621 25.4159 9.25257 27.5611C11.6677 25.119 14.4862 23.5528 16.4852 20.6582C15.9653 23.7283 14.171 25.0488 12.008 27.032C11.148 27.8204 10.3781 28.6735 9.60638 29.5459C9.71977 30.9724 10.0687 32.3683 10.382 33.7607C12.5408 31.3286 14.7106 30.0213 16.3652 26.9879C20.9114 18.6521 16.9012 8.59337 14.4346 0.243079C10.2368 1.9192 6.78516 4.21806 4.16888 7.9688C0.976553 12.6249 -0.280334 18.34 0.663994 23.9059Z" fill="#0C563A"/>
</svg>
